G04*
G04 #@! TF.GenerationSoftware,Altium Limited,Altium Designer,24.1.2 (44)*
G04*
G04 Layer_Physical_Order=3*
G04 Layer_Color=16440176*
%FSLAX44Y44*%
%MOMM*%
G71*
G04*
G04 #@! TF.SameCoordinates,32799FE6-DD90-4EFC-9ADB-317E97FF397D*
G04*
G04*
G04 #@! TF.FilePolarity,Positive*
G04*
G01*
G75*
%ADD11C,0.6000*%
%ADD17C,1.0000*%
%ADD51C,0.5000*%
%ADD52C,0.8000*%
%ADD53R,4.8100X4.6900*%
%ADD54R,7.5100X4.6900*%
%ADD55R,8.6100X4.8600*%
%ADD56R,4.8300X4.9900*%
%ADD59C,1.6000*%
%ADD60O,0.9500X1.7000*%
%ADD61C,6.3500*%
%ADD62C,1.5240*%
%ADD63C,0.7000*%
%ADD64C,0.4000*%
%ADD65C,0.3500*%
%ADD66C,0.4500*%
%ADD67R,74.1300X1.1200*%
%ADD68R,2.5300X43.4800*%
%ADD69R,2.2100X6.2300*%
G36*
X575900Y892940D02*
X821461D01*
Y882950D01*
X821144D01*
X815897Y882119D01*
X810844Y880477D01*
X806111Y878066D01*
X801813Y874943D01*
X798057Y871187D01*
X794934Y866889D01*
X792523Y862156D01*
X790881Y857103D01*
X790050Y851856D01*
Y846544D01*
X790881Y841297D01*
X792523Y836245D01*
X794934Y831511D01*
X798057Y827213D01*
X801813Y823457D01*
X806111Y820334D01*
X810844Y817923D01*
X815897Y816281D01*
X821144Y815450D01*
X826456D01*
X831703Y816281D01*
X836756Y817923D01*
X841489Y820334D01*
X845787Y823457D01*
X849543Y827213D01*
X852666Y831511D01*
X855077Y836245D01*
X856719Y841297D01*
X857550Y846544D01*
Y847261D01*
X892930D01*
Y562890D01*
X892941Y562803D01*
X892580Y560989D01*
X891503Y559377D01*
X890033Y558395D01*
X888836Y558090D01*
X888246Y557892D01*
X887629Y557636D01*
X885494Y556989D01*
X882193Y555224D01*
X879300Y552850D01*
X876926Y549957D01*
X875161Y546656D01*
X874075Y543075D01*
X873708Y539350D01*
X873740D01*
Y360650D01*
X873708D01*
X874075Y356925D01*
X875161Y353344D01*
X876926Y350043D01*
X879300Y347150D01*
X882193Y344776D01*
X885494Y343011D01*
X887706Y342340D01*
X887928Y342260D01*
X888246Y342128D01*
X888836Y341930D01*
X890033Y341625D01*
X891503Y340643D01*
X892580Y339031D01*
X892723Y338314D01*
X892930Y337130D01*
X892930Y337130D01*
X892940Y335864D01*
Y52939D01*
X884650D01*
Y53452D01*
X883819Y58699D01*
X882177Y63751D01*
X879766Y68484D01*
X876643Y72782D01*
X872887Y76539D01*
X868589Y79661D01*
X863856Y82073D01*
X858803Y83715D01*
X853556Y84545D01*
X848244D01*
X842997Y83715D01*
X837944Y82073D01*
X833211Y79661D01*
X828913Y76539D01*
X825157Y72782D01*
X822034Y68484D01*
X819623Y63751D01*
X817981Y58699D01*
X817150Y53452D01*
Y48139D01*
X817981Y42892D01*
X819623Y37840D01*
X822034Y33107D01*
X825157Y28809D01*
X828913Y25052D01*
X833211Y21930D01*
X837944Y19518D01*
X842997Y17877D01*
X848244Y17046D01*
X848661D01*
Y7060D01*
X820000D01*
X819990Y7059D01*
X819929Y7085D01*
X819073Y8000D01*
X818783Y10941D01*
X817925Y13768D01*
X816532Y16374D01*
X814658Y18658D01*
X812374Y20532D01*
X809768Y21925D01*
X806941Y22783D01*
X804000Y23073D01*
Y23060D01*
X804000Y23060D01*
X448139D01*
Y28761D01*
X641800D01*
X642580Y28916D01*
X643242Y29358D01*
X643684Y30020D01*
X643839Y30800D01*
Y40600D01*
X643684Y41380D01*
X643282Y41982D01*
X643352Y42322D01*
X643717Y43252D01*
X753050D01*
X755001Y43640D01*
X756655Y44745D01*
X771569Y59659D01*
X772674Y61313D01*
X773062Y63264D01*
Y101500D01*
X772674Y103451D01*
X771569Y105105D01*
X769915Y106210D01*
X767964Y106598D01*
X766013Y106210D01*
X764359Y105105D01*
X763254Y103451D01*
X762866Y101500D01*
Y65375D01*
X750938Y53448D01*
X483448D01*
Y54400D01*
X483060Y56351D01*
X481955Y58005D01*
X480301Y59110D01*
X478350Y59498D01*
X236512D01*
X228398Y67612D01*
Y71396D01*
X229668Y71922D01*
X238695Y62895D01*
X240349Y61790D01*
X242300Y61402D01*
X752300D01*
X754251Y61790D01*
X755905Y62895D01*
X757010Y64549D01*
X757398Y66500D01*
X757010Y68451D01*
X755905Y70105D01*
X754251Y71210D01*
X752300Y71598D01*
X244412D01*
X238190Y77820D01*
X238286Y78763D01*
X239471Y79591D01*
X240420Y79402D01*
X276590D01*
X278346Y79751D01*
X279834Y80746D01*
X313901Y114812D01*
X469900D01*
X481956Y102756D01*
X483444Y101761D01*
X485200Y101412D01*
X491300D01*
X493056Y101761D01*
X494544Y102756D01*
X495539Y104244D01*
X495888Y106000D01*
X495539Y107756D01*
X494544Y109244D01*
X493056Y110239D01*
X491300Y110588D01*
X487100D01*
X475044Y122644D01*
X473556Y123639D01*
X471800Y123988D01*
X312000D01*
X310244Y123639D01*
X308756Y122644D01*
X274690Y88578D01*
X240420D01*
X239027Y88301D01*
X237757Y89034D01*
Y110900D01*
X237369Y112851D01*
X236264Y114505D01*
X234610Y115610D01*
X232659Y115998D01*
X230708Y115610D01*
X229668Y114915D01*
X228398Y115594D01*
Y123388D01*
X233012Y128002D01*
X395000D01*
X396951Y128390D01*
X398605Y129495D01*
X411106Y141996D01*
X412211Y143650D01*
X412599Y145601D01*
Y230000D01*
X412211Y231951D01*
X411106Y233605D01*
X410317Y234132D01*
X410702Y235402D01*
X532588D01*
X536302Y231688D01*
Y209900D01*
Y98312D01*
X532088Y94098D01*
X473112D01*
X457431Y109779D01*
X455777Y110884D01*
X453826Y111272D01*
X403574D01*
X401623Y110884D01*
X399969Y109779D01*
X391195Y101005D01*
X390090Y99351D01*
X389702Y97400D01*
X390090Y95449D01*
X391195Y93795D01*
X392849Y92690D01*
X394800Y92302D01*
X396751Y92690D01*
X398405Y93795D01*
X405685Y101076D01*
X434531D01*
X434618Y99806D01*
X432976Y99126D01*
X431566Y98044D01*
X430484Y96634D01*
X429804Y94992D01*
X429572Y93230D01*
Y85730D01*
X429804Y83968D01*
X430484Y82326D01*
X431566Y80916D01*
X432976Y79834D01*
X434618Y79154D01*
X436380Y78922D01*
X438142Y79154D01*
X439784Y79834D01*
X441194Y80916D01*
X442276Y82326D01*
X442956Y83968D01*
X443188Y85730D01*
Y93230D01*
X442956Y94992D01*
X442276Y96634D01*
X441194Y98044D01*
X439784Y99126D01*
X438142Y99806D01*
X438229Y101076D01*
X451715D01*
X467395Y85395D01*
X469049Y84290D01*
X471000Y83902D01*
X534200D01*
X536151Y84290D01*
X537805Y85395D01*
X545005Y92595D01*
X546110Y94249D01*
X546498Y96200D01*
Y209900D01*
Y232115D01*
X547671Y232601D01*
X569260Y211011D01*
X570666Y210072D01*
X572324Y209742D01*
X699367D01*
Y111133D01*
X645800D01*
X644142Y110803D01*
X642736Y109864D01*
X641797Y108458D01*
X641467Y106800D01*
X641797Y105142D01*
X642736Y103736D01*
X642369Y102566D01*
X641897Y101858D01*
X641567Y100200D01*
X641897Y98542D01*
X642836Y97136D01*
X644242Y96197D01*
X645900Y95867D01*
X693022D01*
X708053Y80836D01*
X709459Y79897D01*
X711117Y79567D01*
X736964D01*
X738622Y79897D01*
X740028Y80836D01*
X742664Y83472D01*
X743603Y84878D01*
X743933Y86536D01*
Y92200D01*
Y103200D01*
X743603Y104858D01*
X742664Y106264D01*
X715433Y133495D01*
Y220576D01*
X715103Y222234D01*
X714164Y223640D01*
X712758Y224579D01*
X711100Y224909D01*
X577319D01*
X544464Y257764D01*
X543058Y258703D01*
X541400Y259033D01*
X326400D01*
X324742Y258703D01*
X323336Y257764D01*
X307936Y242364D01*
X306997Y240958D01*
X306667Y239300D01*
Y184100D01*
X306997Y182442D01*
X307936Y181036D01*
X309342Y180097D01*
X311000Y179767D01*
X312658Y180097D01*
X314064Y181036D01*
X315003Y182442D01*
X315333Y184100D01*
Y186459D01*
X316603Y187285D01*
X317700Y187067D01*
X319358Y187397D01*
X320764Y188336D01*
X321703Y189742D01*
X322033Y191400D01*
Y234905D01*
X330895Y243767D01*
X381298D01*
X381784Y242593D01*
X375990Y236800D01*
X374885Y235146D01*
X374497Y233195D01*
Y160800D01*
X374885Y158849D01*
X375990Y157195D01*
X377644Y156090D01*
X379595Y155702D01*
X381546Y156090D01*
X383200Y157195D01*
X384305Y158849D01*
X384693Y160800D01*
Y231083D01*
X389012Y235402D01*
X404300D01*
X404685Y234132D01*
X403896Y233605D01*
X402791Y231951D01*
X402403Y230000D01*
Y147713D01*
X392888Y138198D01*
X230900D01*
X228949Y137810D01*
X227295Y136705D01*
X219695Y129105D01*
X218590Y127451D01*
X218202Y125500D01*
Y110900D01*
Y65500D01*
X218590Y63549D01*
X219695Y61895D01*
X230132Y51458D01*
X229606Y50188D01*
X220800D01*
X216544Y54444D01*
X215056Y55439D01*
X213300Y55788D01*
X101800D01*
X100044Y55439D01*
X98556Y54444D01*
X97561Y52956D01*
X97212Y51200D01*
X97561Y49444D01*
X98556Y47956D01*
X100044Y46961D01*
X101800Y46612D01*
X198267D01*
X198654Y45773D01*
X198703Y45342D01*
X195250Y41888D01*
X142900D01*
X141144Y41539D01*
X139656Y40544D01*
X138661Y39056D01*
X138312Y37300D01*
X138661Y35544D01*
X139656Y34056D01*
X141144Y33061D01*
X142900Y32712D01*
X197150D01*
X198906Y33061D01*
X200394Y34056D01*
X203950Y37612D01*
X207600D01*
X211656Y33556D01*
X213144Y32561D01*
X214900Y32212D01*
X259313D01*
X262256Y29269D01*
X263744Y28275D01*
X265500Y27926D01*
X267256Y28275D01*
X268744Y29269D01*
X269739Y30758D01*
X270088Y32514D01*
X269739Y34270D01*
X268744Y35758D01*
X264761Y39742D01*
X265188Y41012D01*
X267199D01*
X281356Y26856D01*
X282844Y25861D01*
X284600Y25512D01*
X286356Y25861D01*
X287844Y26856D01*
X288839Y28344D01*
X289188Y30100D01*
X288839Y31856D01*
X287844Y33344D01*
X273157Y48032D01*
X273683Y49302D01*
X467202D01*
Y48350D01*
X467590Y46399D01*
X468695Y44745D01*
X469946Y43909D01*
X469561Y42639D01*
X382300D01*
X381520Y42484D01*
X380858Y42042D01*
X380416Y41380D01*
X380261Y40600D01*
Y23060D01*
X96000D01*
X96000Y23060D01*
Y23073D01*
X93060Y22783D01*
X90232Y21925D01*
X87626Y20532D01*
X85342Y18658D01*
X83468Y16374D01*
X82075Y13768D01*
X81217Y10941D01*
X80927Y8000D01*
X80071Y7085D01*
X80010Y7059D01*
X80000Y7060D01*
X52639D01*
Y17046D01*
X53456D01*
X58703Y17877D01*
X63755Y19518D01*
X68489Y21930D01*
X72787Y25052D01*
X76543Y28809D01*
X79666Y33107D01*
X82077Y37840D01*
X83719Y42892D01*
X84550Y48139D01*
Y53452D01*
X83719Y58699D01*
X82077Y63751D01*
X79666Y68484D01*
X76543Y72782D01*
X72787Y76539D01*
X68489Y79661D01*
X63755Y82073D01*
X58703Y83715D01*
X53456Y84545D01*
X48144D01*
X42897Y83715D01*
X37845Y82073D01*
X33111Y79661D01*
X28813Y76539D01*
X25057Y72782D01*
X21934Y68484D01*
X19523Y63751D01*
X17881Y58699D01*
X17111Y53839D01*
X7060D01*
Y234833D01*
X8330Y235086D01*
X8586Y234470D01*
X9707Y233008D01*
X11170Y231886D01*
X12873Y231180D01*
X14700Y230940D01*
X16527Y231180D01*
X18230Y231886D01*
X19692Y233008D01*
X20814Y234470D01*
X21520Y236173D01*
X21760Y238000D01*
Y250100D01*
Y262200D01*
Y320176D01*
X43942Y342358D01*
X45224Y343640D01*
X441440D01*
Y319800D01*
Y307700D01*
X441680Y305873D01*
X442385Y304170D01*
X443507Y302708D01*
X444970Y301586D01*
X445448Y301388D01*
X445195Y300117D01*
X401717D01*
Y305921D01*
X401252Y308263D01*
X399926Y310247D01*
X397941Y311573D01*
X395600Y312039D01*
X393259Y311573D01*
X391274Y310247D01*
X389948Y308263D01*
X389482Y305921D01*
Y300117D01*
X292917D01*
Y305921D01*
X292452Y308263D01*
X291126Y310247D01*
X289141Y311573D01*
X286800Y312039D01*
X284459Y311573D01*
X282474Y310247D01*
X281148Y308263D01*
X280682Y305921D01*
Y300117D01*
X184118D01*
Y305921D01*
X183652Y308263D01*
X182326Y310247D01*
X180341Y311573D01*
X178000Y312039D01*
X175659Y311573D01*
X173674Y310247D01*
X172348Y308263D01*
X171882Y305921D01*
Y300117D01*
X83655D01*
X73526Y310247D01*
X71541Y311573D01*
X69200Y312039D01*
X66859Y311573D01*
X64874Y310247D01*
X63548Y308263D01*
X63082Y305921D01*
X63548Y303580D01*
X64874Y301596D01*
X76796Y289674D01*
X77161Y289430D01*
Y282400D01*
X77316Y281620D01*
X77758Y280958D01*
X78420Y280516D01*
X79200Y280361D01*
X275861D01*
Y231500D01*
X276016Y230720D01*
X276458Y230058D01*
X277120Y229616D01*
X277900Y229461D01*
X300000D01*
X300780Y229616D01*
X301442Y230058D01*
X301884Y230720D01*
X302039Y231500D01*
Y280361D01*
X820500D01*
X821280Y280516D01*
X821942Y280958D01*
X822384Y281620D01*
X822539Y282400D01*
Y289230D01*
X823204Y289674D01*
X835126Y301596D01*
X836452Y303580D01*
X836917Y305921D01*
X836452Y308263D01*
X835126Y310247D01*
X833141Y311573D01*
X830800Y312039D01*
X828459Y311573D01*
X826474Y310247D01*
X816345Y300117D01*
X769139D01*
Y431282D01*
X816812D01*
X819153Y431748D01*
X821137Y433074D01*
X835126Y447062D01*
X836452Y449047D01*
X836917Y451388D01*
X836452Y453729D01*
X835126Y455714D01*
X833141Y457040D01*
X830800Y457506D01*
X828459Y457040D01*
X826474Y455714D01*
X814278Y443517D01*
X769139D01*
Y578182D01*
X818245D01*
X820586Y578648D01*
X822571Y579974D01*
X835126Y592529D01*
X836452Y594514D01*
X836917Y596855D01*
X836452Y599196D01*
X835126Y601180D01*
X833141Y602507D01*
X830800Y602972D01*
X828459Y602507D01*
X826474Y601180D01*
X815711Y590418D01*
X769139D01*
Y724283D01*
X818878D01*
X821220Y724748D01*
X823204Y726074D01*
X835126Y737996D01*
X836452Y739980D01*
X836917Y742321D01*
X836452Y744662D01*
X835126Y746647D01*
X833141Y747973D01*
X830800Y748439D01*
X828459Y747973D01*
X826474Y746647D01*
X816345Y736518D01*
X728117D01*
Y742321D01*
X727652Y744662D01*
X726326Y746647D01*
X724341Y747973D01*
X722000Y748439D01*
X719659Y747973D01*
X717674Y746647D01*
X716348Y744662D01*
X715882Y742321D01*
Y736518D01*
X667388D01*
X667130Y737785D01*
X668592Y738908D01*
X669715Y740370D01*
X670420Y742073D01*
X670660Y743900D01*
Y756000D01*
Y769900D01*
X670420Y771727D01*
X669715Y773430D01*
X668592Y774893D01*
X654992Y788493D01*
X653530Y789614D01*
X651827Y790320D01*
X650000Y790560D01*
X48158D01*
X46330Y790320D01*
X44628Y789614D01*
X43165Y788493D01*
X37308Y782635D01*
X36186Y781172D01*
X35480Y779470D01*
X35240Y777642D01*
Y641900D01*
X35240Y641900D01*
Y499300D01*
Y353624D01*
X33958Y352342D01*
X9707Y328092D01*
X8586Y326630D01*
X8330Y326014D01*
X7060Y326267D01*
Y337150D01*
X7049Y337237D01*
X7410Y339051D01*
X8487Y340663D01*
X9956Y341645D01*
X11154Y341950D01*
X11744Y342148D01*
X11800Y342171D01*
X12296Y342341D01*
X14506Y343011D01*
X17807Y344776D01*
X20700Y347150D01*
X23074Y350043D01*
X24839Y353344D01*
X25925Y356925D01*
X26292Y360650D01*
X26260D01*
Y539350D01*
X26292D01*
X25925Y543075D01*
X24839Y546656D01*
X23074Y549957D01*
X20700Y552850D01*
X17807Y555224D01*
X14506Y556989D01*
X12287Y557662D01*
X11767Y557839D01*
X11734Y557852D01*
X11144Y558050D01*
X9947Y558355D01*
X8477Y559337D01*
X7400Y560949D01*
X7044Y562736D01*
X7060Y562860D01*
Y847261D01*
X55150D01*
Y846544D01*
X55981Y841297D01*
X57623Y836245D01*
X60034Y831511D01*
X63157Y827213D01*
X66913Y823457D01*
X71211Y820334D01*
X75944Y817923D01*
X80997Y816281D01*
X86244Y815450D01*
X91556D01*
X96803Y816281D01*
X101855Y817923D01*
X106589Y820334D01*
X110887Y823457D01*
X114643Y827213D01*
X117766Y831511D01*
X120177Y836245D01*
X121819Y841297D01*
X122650Y846544D01*
Y851856D01*
X121819Y857103D01*
X120177Y862156D01*
X117766Y866889D01*
X114643Y871187D01*
X110887Y874943D01*
X106589Y878066D01*
X101855Y880477D01*
X96803Y882119D01*
X91556Y882950D01*
X91539D01*
Y892940D01*
X348700D01*
X348787Y892951D01*
X350601Y892590D01*
X352213Y891513D01*
X353290Y889901D01*
X353651Y888087D01*
X353640Y888000D01*
Y882700D01*
X353608D01*
X353975Y878975D01*
X355061Y875394D01*
X356826Y872093D01*
X359200Y869200D01*
X362093Y866826D01*
X365394Y865061D01*
X368975Y863975D01*
X372700Y863608D01*
Y863640D01*
X551900D01*
Y863608D01*
X555625Y863975D01*
X559206Y865061D01*
X562507Y866826D01*
X565400Y869200D01*
X567774Y872093D01*
X569539Y875394D01*
X570625Y878975D01*
X570992Y882700D01*
X570960D01*
X570960Y882700D01*
Y886736D01*
X570960Y886763D01*
X570960Y888000D01*
X571167Y889184D01*
X571310Y889901D01*
X572387Y891513D01*
X573999Y892590D01*
X575813Y892951D01*
X575900Y892940D01*
D02*
G37*
G36*
X656540Y766975D02*
Y756000D01*
Y743900D01*
X656780Y742073D01*
X657486Y740370D01*
X658607Y738908D01*
X660070Y737785D01*
X659812Y736518D01*
X619126D01*
Y741360D01*
X619317Y742321D01*
X618852Y744662D01*
X617526Y746647D01*
X615541Y747973D01*
X613200Y748439D01*
X610859Y747973D01*
X608874Y746647D01*
X608683Y746456D01*
X607357Y744471D01*
X606891Y742130D01*
Y736518D01*
X510326D01*
Y741360D01*
X510517Y742321D01*
X510052Y744662D01*
X508726Y746647D01*
X506741Y747973D01*
X504400Y748439D01*
X502059Y747973D01*
X500074Y746647D01*
X499883Y746456D01*
X498557Y744471D01*
X498091Y742130D01*
Y736518D01*
X401717D01*
Y742321D01*
X401252Y744662D01*
X399926Y746647D01*
X397941Y747973D01*
X395600Y748439D01*
X393259Y747973D01*
X391274Y746647D01*
X389948Y744662D01*
X389482Y742321D01*
Y736518D01*
X292917D01*
Y742321D01*
X292452Y744662D01*
X291126Y746647D01*
X289141Y747973D01*
X286800Y748439D01*
X284459Y747973D01*
X282474Y746647D01*
X281148Y744662D01*
X280682Y742321D01*
Y736518D01*
X184118D01*
Y742321D01*
X183652Y744662D01*
X182326Y746647D01*
X180341Y747973D01*
X178000Y748439D01*
X175659Y747973D01*
X173674Y746647D01*
X172348Y744662D01*
X171882Y742321D01*
Y736518D01*
X83655D01*
X73526Y746647D01*
X71541Y747973D01*
X69200Y748439D01*
X66859Y747973D01*
X64874Y746647D01*
X63548Y744662D01*
X63082Y742321D01*
X63548Y739980D01*
X64874Y737996D01*
X76796Y726074D01*
X78780Y724748D01*
X81121Y724283D01*
X739761D01*
Y590418D01*
X728117D01*
Y596855D01*
X727652Y599196D01*
X726326Y601180D01*
X724341Y602507D01*
X722000Y602972D01*
X719659Y602507D01*
X717674Y601180D01*
X716348Y599196D01*
X715882Y596855D01*
Y590418D01*
X619318D01*
Y596855D01*
X618852Y599196D01*
X617526Y601180D01*
X615541Y602507D01*
X613200Y602972D01*
X610859Y602507D01*
X608874Y601180D01*
X607548Y599196D01*
X607082Y596855D01*
Y590418D01*
X510518D01*
Y596855D01*
X510052Y599196D01*
X508726Y601180D01*
X506741Y602507D01*
X504400Y602972D01*
X502059Y602507D01*
X500074Y601180D01*
X498748Y599196D01*
X498282Y596855D01*
Y590418D01*
X401717D01*
Y596855D01*
X401252Y599196D01*
X399926Y601180D01*
X397941Y602507D01*
X395600Y602972D01*
X393259Y602507D01*
X391274Y601180D01*
X389948Y599196D01*
X389482Y596855D01*
Y590418D01*
X292917D01*
Y596855D01*
X292452Y599196D01*
X291126Y601180D01*
X289141Y602507D01*
X286800Y602972D01*
X284459Y602507D01*
X282474Y601180D01*
X281148Y599196D01*
X280682Y596855D01*
Y590418D01*
X184118D01*
Y596855D01*
X183652Y599196D01*
X182326Y601180D01*
X180341Y602507D01*
X178000Y602972D01*
X175659Y602507D01*
X173674Y601180D01*
X172348Y599196D01*
X171882Y596855D01*
Y590418D01*
X84289D01*
X73526Y601180D01*
X71541Y602507D01*
X69200Y602972D01*
X66859Y602507D01*
X64874Y601180D01*
X63548Y599196D01*
X63082Y596855D01*
X63548Y594514D01*
X64874Y592529D01*
X77429Y579974D01*
X79414Y578648D01*
X81755Y578182D01*
X739761D01*
Y443517D01*
X728117D01*
Y451388D01*
X727652Y453729D01*
X726326Y455714D01*
X724341Y457040D01*
X722000Y457506D01*
X719659Y457040D01*
X717674Y455714D01*
X716348Y453729D01*
X715882Y451388D01*
Y443517D01*
X619318D01*
Y451388D01*
X618852Y453729D01*
X617526Y455714D01*
X615541Y457040D01*
X613200Y457506D01*
X610859Y457040D01*
X608874Y455714D01*
X607548Y453729D01*
X607082Y451388D01*
Y443517D01*
X510518D01*
Y451388D01*
X510052Y453729D01*
X508726Y455714D01*
X506741Y457040D01*
X504400Y457506D01*
X502059Y457040D01*
X500074Y455714D01*
X498748Y453729D01*
X498282Y451388D01*
Y443517D01*
X448022D01*
X447769Y444787D01*
X448730Y445186D01*
X450192Y446308D01*
X451315Y447770D01*
X452020Y449473D01*
X452260Y451300D01*
Y463400D01*
Y492240D01*
X650475D01*
X657240Y485476D01*
Y464650D01*
Y458600D01*
X657480Y456773D01*
X658186Y455070D01*
X659307Y453608D01*
X660770Y452486D01*
X662473Y451780D01*
X664300Y451540D01*
X666127Y451780D01*
X667830Y452486D01*
X669292Y453608D01*
X670415Y455070D01*
X671120Y456773D01*
X671360Y458600D01*
Y464650D01*
Y488400D01*
X671120Y490227D01*
X670415Y491930D01*
X669292Y493392D01*
X658392Y504292D01*
X656930Y505415D01*
X655227Y506120D01*
X653400Y506360D01*
X49360D01*
Y634840D01*
X221938Y634840D01*
Y614775D01*
Y602675D01*
X222178Y600848D01*
X222884Y599145D01*
X224006Y597682D01*
X225468Y596560D01*
X227171Y595855D01*
X228998Y595615D01*
X230825Y595855D01*
X232528Y596560D01*
X233990Y597682D01*
X235112Y599145D01*
X235818Y600848D01*
X236059Y602675D01*
Y614775D01*
Y634840D01*
X649075Y634840D01*
X656040Y627876D01*
Y613050D01*
Y600950D01*
X656280Y599123D01*
X656985Y597420D01*
X658108Y595958D01*
X659570Y594836D01*
X661273Y594130D01*
X663100Y593890D01*
X664927Y594130D01*
X666630Y594836D01*
X668092Y595958D01*
X669214Y597420D01*
X669920Y599123D01*
X670160Y600950D01*
Y613050D01*
Y630800D01*
X669920Y632627D01*
X669214Y634330D01*
X668092Y635793D01*
X656992Y646892D01*
X655530Y648015D01*
X653827Y648720D01*
X652000Y648960D01*
X228400Y648960D01*
X49360Y648960D01*
Y774718D01*
X51082Y776440D01*
X220740D01*
Y759950D01*
Y747850D01*
X220980Y746023D01*
X221686Y744320D01*
X222808Y742858D01*
X224270Y741736D01*
X225973Y741030D01*
X227800Y740790D01*
X229627Y741030D01*
X231330Y741736D01*
X232792Y742858D01*
X233915Y744320D01*
X234620Y746023D01*
X234860Y747850D01*
Y759950D01*
Y776440D01*
X439140D01*
Y760550D01*
Y748450D01*
X439380Y746623D01*
X440085Y744920D01*
X441208Y743457D01*
X442670Y742336D01*
X444373Y741630D01*
X446200Y741390D01*
X448027Y741630D01*
X449730Y742336D01*
X451192Y743457D01*
X452314Y744920D01*
X453020Y746623D01*
X453260Y748450D01*
Y760550D01*
Y776440D01*
X647076D01*
X656540Y766975D01*
D02*
G37*
G36*
X438140Y463400D02*
Y451300D01*
X438380Y449473D01*
X439086Y447770D01*
X440208Y446308D01*
X441670Y445186D01*
X442631Y444787D01*
X442378Y443517D01*
X401717D01*
Y451388D01*
X401252Y453729D01*
X399926Y455714D01*
X397941Y457040D01*
X395600Y457506D01*
X393259Y457040D01*
X391274Y455714D01*
X389948Y453729D01*
X389482Y451388D01*
Y443517D01*
X292917D01*
Y451388D01*
X292452Y453729D01*
X291126Y455714D01*
X289141Y457040D01*
X286800Y457506D01*
X284459Y457040D01*
X282474Y455714D01*
X281148Y453729D01*
X280682Y451388D01*
Y443517D01*
X184118D01*
Y451388D01*
X183652Y453729D01*
X182326Y455714D01*
X180341Y457040D01*
X178000Y457506D01*
X175659Y457040D01*
X173674Y455714D01*
X172348Y453729D01*
X171882Y451388D01*
Y443517D01*
X85722D01*
X73526Y455714D01*
X71541Y457040D01*
X69200Y457506D01*
X66859Y457040D01*
X64874Y455714D01*
X63548Y453729D01*
X63082Y451388D01*
X63548Y449047D01*
X64874Y447062D01*
X78862Y433074D01*
X80847Y431748D01*
X83188Y431282D01*
X739761D01*
Y300117D01*
X728117D01*
Y305921D01*
X727652Y308263D01*
X726326Y310247D01*
X724341Y311573D01*
X722000Y312039D01*
X719659Y311573D01*
X717674Y310247D01*
X716348Y308263D01*
X715882Y305921D01*
Y300117D01*
X668005D01*
X667752Y301388D01*
X668230Y301586D01*
X669692Y302708D01*
X670815Y304170D01*
X671520Y305873D01*
X671760Y307700D01*
Y319800D01*
Y338300D01*
X671520Y340127D01*
X670815Y341830D01*
X669692Y343293D01*
X657292Y355692D01*
X655830Y356814D01*
X654127Y357520D01*
X652300Y357760D01*
X49360D01*
Y492240D01*
X438140D01*
Y463400D01*
D02*
G37*
G36*
X657640Y335376D02*
Y319800D01*
Y307700D01*
X657880Y305873D01*
X658586Y304170D01*
X659707Y302708D01*
X661170Y301586D01*
X661648Y301388D01*
X661395Y300117D01*
X619318D01*
Y305921D01*
X618852Y308263D01*
X617526Y310247D01*
X615541Y311573D01*
X613200Y312039D01*
X610859Y311573D01*
X608874Y310247D01*
X607548Y308263D01*
X607082Y305921D01*
Y300117D01*
X510518D01*
Y305921D01*
X510052Y308263D01*
X508726Y310247D01*
X506741Y311573D01*
X504400Y312039D01*
X502059Y311573D01*
X500074Y310247D01*
X498748Y308263D01*
X498282Y305921D01*
Y300117D01*
X451805D01*
X451552Y301388D01*
X452030Y301586D01*
X453492Y302708D01*
X454614Y304170D01*
X455320Y305873D01*
X455560Y307700D01*
Y319800D01*
Y343640D01*
X649376D01*
X657640Y335376D01*
D02*
G37*
G36*
X735267Y101405D02*
Y88331D01*
X735169Y88233D01*
X731238D01*
X730853Y89503D01*
X730939Y89561D01*
X731878Y90967D01*
X732208Y92625D01*
X731878Y94283D01*
X730939Y95689D01*
X716764Y109864D01*
X715358Y110803D01*
X713700Y111133D01*
X708033D01*
Y126843D01*
X709303Y127369D01*
X735267Y101405D01*
D02*
G37*
G36*
X723791Y90581D02*
X724059Y89934D01*
X724490Y89503D01*
X723964Y88233D01*
X712912D01*
X699852Y101293D01*
X700338Y102467D01*
X711905D01*
X723791Y90581D01*
D02*
G37*
G36*
X641800Y30800D02*
X446100D01*
Y23000D01*
X382300D01*
Y40600D01*
X641800D01*
Y30800D01*
D02*
G37*
%LPC*%
G36*
X832255Y767779D02*
X830068D01*
X828046Y766941D01*
X826499Y765394D01*
X825661Y763373D01*
Y761185D01*
X826499Y759163D01*
X828046Y757616D01*
X830068Y756779D01*
X832255D01*
X834277Y757616D01*
X835824Y759163D01*
X836662Y761185D01*
Y763373D01*
X835824Y765394D01*
X834277Y766941D01*
X832255Y767779D01*
D02*
G37*
G36*
X723456D02*
X721267D01*
X719246Y766941D01*
X717699Y765394D01*
X716861Y763373D01*
Y761185D01*
X717699Y759163D01*
X719246Y757616D01*
X721267Y756779D01*
X723456D01*
X725477Y757616D01*
X727024Y759163D01*
X727861Y761185D01*
Y763373D01*
X727024Y765394D01*
X725477Y766941D01*
X723456Y767779D01*
D02*
G37*
G36*
X832255Y622312D02*
X830068D01*
X828046Y621475D01*
X826499Y619927D01*
X825661Y617906D01*
Y615718D01*
X826499Y613696D01*
X828046Y612149D01*
X830068Y611312D01*
X832255D01*
X834277Y612149D01*
X835824Y613696D01*
X836662Y615718D01*
Y617906D01*
X835824Y619927D01*
X834277Y621475D01*
X832255Y622312D01*
D02*
G37*
G36*
Y476845D02*
X830068D01*
X828046Y476008D01*
X826499Y474461D01*
X825661Y472439D01*
Y470251D01*
X826499Y468230D01*
X828046Y466683D01*
X830068Y465845D01*
X832255D01*
X834277Y466683D01*
X835824Y468230D01*
X836662Y470251D01*
Y472439D01*
X835824Y474461D01*
X834277Y476008D01*
X832255Y476845D01*
D02*
G37*
G36*
X859996Y410000D02*
X858404D01*
X856934Y409391D01*
X855809Y408266D01*
X855567Y407681D01*
X854192D01*
X853991Y408166D01*
X852866Y409291D01*
X851396Y409900D01*
X849804D01*
X848334Y409291D01*
X847209Y408166D01*
X846600Y406696D01*
Y405104D01*
X847209Y403634D01*
X848334Y402509D01*
X849804Y401900D01*
X851396D01*
X852866Y402509D01*
X853991Y403634D01*
X854233Y404219D01*
X855608D01*
X855809Y403734D01*
X856934Y402609D01*
X858404Y402000D01*
X859996D01*
X861466Y402609D01*
X862591Y403734D01*
X863200Y405204D01*
Y406796D01*
X862591Y408266D01*
X861466Y409391D01*
X859996Y410000D01*
D02*
G37*
G36*
X842696Y403900D02*
X841104D01*
X839634Y403291D01*
X838509Y402166D01*
X837900Y400696D01*
Y399104D01*
X838509Y397634D01*
X839634Y396509D01*
X841104Y395900D01*
X842696D01*
X844166Y396509D01*
X845291Y397634D01*
X845900Y399104D01*
Y400696D01*
X845291Y402166D01*
X844166Y403291D01*
X842696Y403900D01*
D02*
G37*
G36*
X809696Y397900D02*
X808104D01*
X806634Y397291D01*
X805509Y396166D01*
X804900Y394696D01*
Y393104D01*
X805509Y391634D01*
X806634Y390509D01*
X808104Y389900D01*
X809696D01*
X811166Y390509D01*
X812291Y391634D01*
X812900Y393104D01*
Y394696D01*
X812291Y396166D01*
X811166Y397291D01*
X809696Y397900D01*
D02*
G37*
G36*
X801121Y391898D02*
X799529D01*
X798059Y391288D01*
X796934Y390163D01*
X796325Y388693D01*
Y387102D01*
X796934Y385632D01*
X798059Y384506D01*
X799529Y383898D01*
X801121D01*
X802591Y384506D01*
X803716Y385632D01*
X804325Y387102D01*
Y388693D01*
X803716Y390163D01*
X802591Y391288D01*
X801121Y391898D01*
D02*
G37*
G36*
X792546Y385895D02*
X790954D01*
X789484Y385286D01*
X788359Y384161D01*
X787750Y382691D01*
Y381099D01*
X788359Y379629D01*
X789484Y378504D01*
X790954Y377895D01*
X792546D01*
X794016Y378504D01*
X795141Y379629D01*
X795750Y381099D01*
Y382691D01*
X795141Y384161D01*
X794016Y385286D01*
X792546Y385895D01*
D02*
G37*
G36*
X783971Y379893D02*
X782379D01*
X780909Y379283D01*
X779784Y378158D01*
X779175Y376688D01*
Y375097D01*
X779784Y373627D01*
X780909Y372501D01*
X782379Y371893D01*
X783971D01*
X785441Y372501D01*
X786566Y373627D01*
X787175Y375097D01*
Y376688D01*
X786566Y378158D01*
X785441Y379283D01*
X783971Y379893D01*
D02*
G37*
G36*
X775396Y373890D02*
X773804D01*
X772334Y373281D01*
X771209Y372156D01*
X770600Y370686D01*
Y369094D01*
X771209Y367624D01*
X772334Y366499D01*
X773804Y365890D01*
X775396D01*
X776866Y366499D01*
X777991Y367624D01*
X778600Y369094D01*
Y370686D01*
X777991Y372156D01*
X776866Y373281D01*
X775396Y373890D01*
D02*
G37*
G36*
X832255Y331379D02*
X830068D01*
X828046Y330541D01*
X826499Y328994D01*
X825661Y326973D01*
Y324785D01*
X826499Y322763D01*
X828046Y321216D01*
X830068Y320379D01*
X832255D01*
X834277Y321216D01*
X835824Y322763D01*
X836662Y324785D01*
Y326973D01*
X835824Y328994D01*
X834277Y330541D01*
X832255Y331379D01*
D02*
G37*
G36*
X397056D02*
X394868D01*
X392846Y330541D01*
X391299Y328994D01*
X390462Y326973D01*
Y324785D01*
X391299Y322763D01*
X392846Y321216D01*
X394868Y320379D01*
X397056D01*
X399077Y321216D01*
X400624Y322763D01*
X401461Y324785D01*
Y326973D01*
X400624Y328994D01*
X399077Y330541D01*
X397056Y331379D01*
D02*
G37*
G36*
X288256D02*
X286068D01*
X284046Y330541D01*
X282499Y328994D01*
X281662Y326973D01*
Y324785D01*
X282499Y322763D01*
X284046Y321216D01*
X286068Y320379D01*
X288256D01*
X290277Y321216D01*
X291824Y322763D01*
X292661Y324785D01*
Y326973D01*
X291824Y328994D01*
X290277Y330541D01*
X288256Y331379D01*
D02*
G37*
G36*
X179456D02*
X177268D01*
X175246Y330541D01*
X173699Y328994D01*
X172862Y326973D01*
Y324785D01*
X173699Y322763D01*
X175246Y321216D01*
X177268Y320379D01*
X179456D01*
X181477Y321216D01*
X183024Y322763D01*
X183862Y324785D01*
Y326973D01*
X183024Y328994D01*
X181477Y330541D01*
X179456Y331379D01*
D02*
G37*
G36*
X70656D02*
X68468D01*
X66446Y330541D01*
X64899Y328994D01*
X64062Y326973D01*
Y324785D01*
X64899Y322763D01*
X66446Y321216D01*
X68468Y320379D01*
X70656D01*
X72677Y321216D01*
X74224Y322763D01*
X75062Y324785D01*
Y326973D01*
X74224Y328994D01*
X72677Y330541D01*
X70656Y331379D01*
D02*
G37*
G36*
X223596Y261500D02*
X222004D01*
X220534Y260891D01*
X219409Y259766D01*
X218800Y258296D01*
Y256704D01*
X219409Y255234D01*
X220534Y254109D01*
X222004Y253500D01*
X223596D01*
X225066Y254109D01*
X226191Y255234D01*
X226800Y256704D01*
Y258296D01*
X226191Y259766D01*
X225066Y260891D01*
X223596Y261500D01*
D02*
G37*
G36*
X214170D02*
X212578D01*
X211108Y260891D01*
X209983Y259766D01*
X209374Y258296D01*
Y256704D01*
X209983Y255234D01*
X211108Y254109D01*
X212578Y253500D01*
X214170D01*
X215640Y254109D01*
X216765Y255234D01*
X217374Y256704D01*
Y258296D01*
X216765Y259766D01*
X215640Y260891D01*
X214170Y261500D01*
D02*
G37*
G36*
X204743D02*
X203152D01*
X201682Y260891D01*
X200557Y259766D01*
X199948Y258296D01*
Y256704D01*
X200557Y255234D01*
X201682Y254109D01*
X203152Y253500D01*
X204743D01*
X206214Y254109D01*
X207339Y255234D01*
X207948Y256704D01*
Y258296D01*
X207339Y259766D01*
X206214Y260891D01*
X204743Y261500D01*
D02*
G37*
G36*
X195317D02*
X193726D01*
X192256Y260891D01*
X191131Y259766D01*
X190522Y258296D01*
Y256704D01*
X191131Y255234D01*
X192256Y254109D01*
X193726Y253500D01*
X195317D01*
X196787Y254109D01*
X197913Y255234D01*
X198522Y256704D01*
Y258296D01*
X197913Y259766D01*
X196787Y260891D01*
X195317Y261500D01*
D02*
G37*
G36*
X155642Y249100D02*
X154051D01*
X152580Y248491D01*
X151455Y247366D01*
X150846Y245896D01*
Y244304D01*
X151455Y242834D01*
X152580Y241709D01*
X154051Y241100D01*
X155642D01*
X157112Y241709D01*
X158237Y242834D01*
X158846Y244304D01*
Y245896D01*
X158237Y247366D01*
X157112Y248491D01*
X155642Y249100D01*
D02*
G37*
G36*
X145649D02*
X144057D01*
X142587Y248491D01*
X141462Y247366D01*
X140853Y245896D01*
Y244304D01*
X141462Y242834D01*
X142587Y241709D01*
X144057Y241100D01*
X145649D01*
X147119Y241709D01*
X148244Y242834D01*
X148853Y244304D01*
Y245896D01*
X148244Y247366D01*
X147119Y248491D01*
X145649Y249100D01*
D02*
G37*
G36*
X135656D02*
X134064D01*
X132594Y248491D01*
X131469Y247366D01*
X130860Y245896D01*
Y244304D01*
X131469Y242834D01*
X132594Y241709D01*
X134064Y241100D01*
X135656D01*
X137126Y241709D01*
X138251Y242834D01*
X138860Y244304D01*
Y245896D01*
X138251Y247366D01*
X137126Y248491D01*
X135656Y249100D01*
D02*
G37*
G36*
X742396Y231076D02*
X740804D01*
X739334Y230467D01*
X738209Y229342D01*
X737600Y227871D01*
Y226280D01*
X738209Y224810D01*
X739334Y223685D01*
X740804Y223076D01*
X742396D01*
X743866Y223685D01*
X744991Y224810D01*
X745600Y226280D01*
Y227871D01*
X744991Y229342D01*
X743866Y230467D01*
X742396Y231076D01*
D02*
G37*
G36*
X127586Y211950D02*
X125994D01*
X124524Y211341D01*
X123399Y210216D01*
X122790Y208745D01*
Y207154D01*
X123399Y205684D01*
X124524Y204559D01*
X125994Y203950D01*
X127586D01*
X129056Y204559D01*
X130181Y205684D01*
X130790Y207154D01*
Y208745D01*
X130181Y210216D01*
X129056Y211341D01*
X127586Y211950D01*
D02*
G37*
G36*
X259796Y205450D02*
X258204D01*
X256734Y204841D01*
X255609Y203716D01*
X255000Y202246D01*
Y200654D01*
X255609Y199184D01*
X256734Y198059D01*
X258204Y197450D01*
X259796D01*
X261266Y198059D01*
X262391Y199184D01*
X263000Y200654D01*
Y202246D01*
X262391Y203716D01*
X261266Y204841D01*
X259796Y205450D01*
D02*
G37*
G36*
X250275D02*
X248683D01*
X247213Y204841D01*
X246088Y203716D01*
X245479Y202246D01*
Y200654D01*
X246088Y199184D01*
X247213Y198059D01*
X248683Y197450D01*
X250275D01*
X251745Y198059D01*
X252870Y199184D01*
X253479Y200654D01*
Y202246D01*
X252870Y203716D01*
X251745Y204841D01*
X250275Y205450D01*
D02*
G37*
G36*
X240753D02*
X239162D01*
X237692Y204841D01*
X236567Y203716D01*
X235958Y202246D01*
Y200654D01*
X236567Y199184D01*
X237692Y198059D01*
X239162Y197450D01*
X240753D01*
X242223Y198059D01*
X243349Y199184D01*
X243958Y200654D01*
Y202246D01*
X243349Y203716D01*
X242223Y204841D01*
X240753Y205450D01*
D02*
G37*
G36*
X231232D02*
X229641D01*
X228171Y204841D01*
X227045Y203716D01*
X226437Y202246D01*
Y200654D01*
X227045Y199184D01*
X228171Y198059D01*
X229641Y197450D01*
X231232D01*
X232702Y198059D01*
X233828Y199184D01*
X234436Y200654D01*
Y202246D01*
X233828Y203716D01*
X232702Y204841D01*
X231232Y205450D01*
D02*
G37*
G36*
X119516Y205450D02*
X117924D01*
X116454Y204841D01*
X115329Y203716D01*
X114720Y202246D01*
Y200654D01*
X115329Y199184D01*
X116454Y198059D01*
X117924Y197450D01*
X119516D01*
X120986Y198059D01*
X122111Y199184D01*
X122720Y200654D01*
Y202246D01*
X122111Y203716D01*
X120986Y204841D01*
X119516Y205450D01*
D02*
G37*
G36*
X111446Y198950D02*
X109854D01*
X108384Y198341D01*
X107259Y197216D01*
X106650Y195746D01*
Y194154D01*
X107259Y192684D01*
X108384Y191559D01*
X109854Y190950D01*
X111446D01*
X112916Y191559D01*
X114041Y192684D01*
X114650Y194154D01*
Y195746D01*
X114041Y197216D01*
X112916Y198341D01*
X111446Y198950D01*
D02*
G37*
G36*
X103376Y192450D02*
X101784D01*
X100314Y191841D01*
X99189Y190716D01*
X98580Y189246D01*
Y187654D01*
X99189Y186184D01*
X100314Y185059D01*
X101784Y184450D01*
X103376D01*
X104846Y185059D01*
X105971Y186184D01*
X106580Y187654D01*
Y189246D01*
X105971Y190716D01*
X104846Y191841D01*
X103376Y192450D01*
D02*
G37*
G36*
X775396Y192076D02*
X773804D01*
X772334Y191467D01*
X771209Y190341D01*
X770600Y188871D01*
Y187280D01*
X771209Y185810D01*
X772334Y184685D01*
X773804Y184076D01*
X775396D01*
X776866Y184685D01*
X777991Y185810D01*
X778600Y187280D01*
Y188871D01*
X777991Y190341D01*
X776866Y191467D01*
X775396Y192076D01*
D02*
G37*
G36*
X94196Y185950D02*
X92604D01*
X91134Y185341D01*
X90009Y184216D01*
X89400Y182746D01*
Y181154D01*
X90009Y179684D01*
X91134Y178559D01*
X92604Y177950D01*
X94196D01*
X95666Y178559D01*
X96791Y179684D01*
X97400Y181154D01*
Y182746D01*
X96791Y184216D01*
X95666Y185341D01*
X94196Y185950D01*
D02*
G37*
G36*
X783971Y185576D02*
X782379D01*
X780909Y184967D01*
X779784Y183841D01*
X779175Y182371D01*
Y180780D01*
X779784Y179310D01*
X780909Y178185D01*
X782379Y177576D01*
X783971D01*
X785441Y178185D01*
X786566Y179310D01*
X787175Y180780D01*
Y182371D01*
X786566Y183841D01*
X785441Y184967D01*
X783971Y185576D01*
D02*
G37*
G36*
X792546Y179076D02*
X790954D01*
X789484Y178467D01*
X788359Y177342D01*
X787750Y175871D01*
Y174280D01*
X788359Y172810D01*
X789484Y171685D01*
X790954Y171076D01*
X792546D01*
X794016Y171685D01*
X795141Y172810D01*
X795750Y174280D01*
Y175871D01*
X795141Y177342D01*
X794016Y178467D01*
X792546Y179076D01*
D02*
G37*
G36*
X801121Y172576D02*
X799529D01*
X798059Y171967D01*
X796934Y170842D01*
X796325Y169371D01*
Y167780D01*
X796934Y166310D01*
X798059Y165185D01*
X799529Y164576D01*
X801121D01*
X802591Y165185D01*
X803716Y166310D01*
X804325Y167780D01*
Y169371D01*
X803716Y170842D01*
X802591Y171967D01*
X801121Y172576D01*
D02*
G37*
G36*
X809696Y166076D02*
X808104D01*
X806634Y165467D01*
X805509Y164342D01*
X804900Y162871D01*
Y161280D01*
X805509Y159810D01*
X806634Y158685D01*
X808104Y158076D01*
X809696D01*
X811166Y158685D01*
X812291Y159810D01*
X812900Y161280D01*
Y162871D01*
X812291Y164342D01*
X811166Y165467D01*
X809696Y166076D01*
D02*
G37*
G36*
X818270Y159576D02*
X816679D01*
X815209Y158967D01*
X814084Y157842D01*
X813475Y156371D01*
Y154780D01*
X814084Y153310D01*
X815209Y152185D01*
X816679Y151576D01*
X818270D01*
X819741Y152185D01*
X820866Y153310D01*
X821475Y154780D01*
Y156371D01*
X820866Y157842D01*
X819741Y158967D01*
X818270Y159576D01*
D02*
G37*
G36*
X826845Y153076D02*
X825254D01*
X823784Y152467D01*
X822659Y151342D01*
X822050Y149872D01*
Y148280D01*
X822659Y146810D01*
X823784Y145685D01*
X825254Y145076D01*
X826845D01*
X828316Y145685D01*
X829441Y146810D01*
X830050Y148280D01*
Y149872D01*
X829441Y151342D01*
X828316Y152467D01*
X826845Y153076D01*
D02*
G37*
G36*
X835420Y146576D02*
X833829D01*
X832359Y145967D01*
X831234Y144842D01*
X830625Y143371D01*
Y141780D01*
X831234Y140310D01*
X832359Y139185D01*
X833829Y138576D01*
X835420D01*
X836891Y139185D01*
X838016Y140310D01*
X838625Y141780D01*
Y143371D01*
X838016Y144842D01*
X836891Y145967D01*
X835420Y146576D01*
D02*
G37*
G36*
X330696Y99480D02*
X328064D01*
X325520Y98799D01*
X323240Y97482D01*
X321378Y95620D01*
X320061Y93340D01*
X319380Y90796D01*
Y88163D01*
X320061Y85620D01*
X321378Y83340D01*
X323240Y81478D01*
X325520Y80162D01*
X328064Y79480D01*
X330696D01*
X333240Y80162D01*
X335520Y81478D01*
X337382Y83340D01*
X338699Y85620D01*
X339380Y88163D01*
Y90796D01*
X338699Y93340D01*
X337382Y95620D01*
X335520Y97482D01*
X333240Y98799D01*
X330696Y99480D01*
D02*
G37*
G36*
X614655Y767779D02*
X612467D01*
X610446Y766941D01*
X608899Y765394D01*
X608061Y763373D01*
Y761185D01*
X608899Y759163D01*
X610446Y757616D01*
X612467Y756779D01*
X614655D01*
X616677Y757616D01*
X618224Y759163D01*
X619062Y761185D01*
Y763373D01*
X618224Y765394D01*
X616677Y766941D01*
X614655Y767779D01*
D02*
G37*
G36*
X505855D02*
X503667D01*
X501646Y766941D01*
X500099Y765394D01*
X499262Y763373D01*
Y761185D01*
X500099Y759163D01*
X501646Y757616D01*
X503667Y756779D01*
X505855D01*
X507877Y757616D01*
X509424Y759163D01*
X510261Y761185D01*
Y763373D01*
X509424Y765394D01*
X507877Y766941D01*
X505855Y767779D01*
D02*
G37*
G36*
X397056D02*
X394868D01*
X392846Y766941D01*
X391299Y765394D01*
X390462Y763373D01*
Y761185D01*
X391299Y759163D01*
X392846Y757616D01*
X394868Y756779D01*
X397056D01*
X399077Y757616D01*
X400624Y759163D01*
X401461Y761185D01*
Y763373D01*
X400624Y765394D01*
X399077Y766941D01*
X397056Y767779D01*
D02*
G37*
G36*
X288256D02*
X286068D01*
X284046Y766941D01*
X282499Y765394D01*
X281662Y763373D01*
Y761185D01*
X282499Y759163D01*
X284046Y757616D01*
X286068Y756779D01*
X288256D01*
X290277Y757616D01*
X291824Y759163D01*
X292661Y761185D01*
Y763373D01*
X291824Y765394D01*
X290277Y766941D01*
X288256Y767779D01*
D02*
G37*
G36*
X179456D02*
X177268D01*
X175246Y766941D01*
X173699Y765394D01*
X172862Y763373D01*
Y761185D01*
X173699Y759163D01*
X175246Y757616D01*
X177268Y756779D01*
X179456D01*
X181477Y757616D01*
X183024Y759163D01*
X183862Y761185D01*
Y763373D01*
X183024Y765394D01*
X181477Y766941D01*
X179456Y767779D01*
D02*
G37*
G36*
X70656D02*
X68468D01*
X66446Y766941D01*
X64899Y765394D01*
X64062Y763373D01*
Y761185D01*
X64899Y759163D01*
X66446Y757616D01*
X68468Y756779D01*
X70656D01*
X72677Y757616D01*
X74224Y759163D01*
X75062Y761185D01*
Y763373D01*
X74224Y765394D01*
X72677Y766941D01*
X70656Y767779D01*
D02*
G37*
G36*
X103376Y701100D02*
X101784D01*
X100314Y700491D01*
X99189Y699366D01*
X98580Y697896D01*
X97400D01*
X96791Y699366D01*
X95666Y700491D01*
X94196Y701100D01*
X92604D01*
X91134Y700491D01*
X90009Y699366D01*
X89400Y697896D01*
Y696304D01*
X90009Y694834D01*
X91134Y693709D01*
X92604Y693100D01*
X94196D01*
X95666Y693709D01*
X96791Y694834D01*
X97400Y696304D01*
X98580D01*
X99189Y694834D01*
X100314Y693709D01*
X101784Y693100D01*
X103376D01*
X104846Y693709D01*
X105971Y694834D01*
X106580Y696304D01*
Y697896D01*
X105971Y699366D01*
X104846Y700491D01*
X103376Y701100D01*
D02*
G37*
G36*
X111446Y695067D02*
X109854D01*
X108384Y694458D01*
X107259Y693332D01*
X106650Y691862D01*
Y690271D01*
X107259Y688801D01*
X108384Y687675D01*
X109854Y687067D01*
X111446D01*
X112916Y687675D01*
X114041Y688801D01*
X114650Y690271D01*
Y691862D01*
X114041Y693332D01*
X112916Y694458D01*
X111446Y695067D01*
D02*
G37*
G36*
X119516Y689033D02*
X117924D01*
X116454Y688424D01*
X115329Y687299D01*
X114720Y685829D01*
Y684238D01*
X115329Y682767D01*
X116454Y681642D01*
X117924Y681033D01*
X119516D01*
X120986Y681642D01*
X122111Y682767D01*
X122720Y684238D01*
Y685829D01*
X122111Y687299D01*
X120986Y688424D01*
X119516Y689033D01*
D02*
G37*
G36*
X127586Y683000D02*
X125994D01*
X124524Y682391D01*
X123399Y681266D01*
X122790Y679796D01*
Y678204D01*
X123399Y676734D01*
X124524Y675609D01*
X125994Y675000D01*
X127586D01*
X129056Y675609D01*
X130181Y676734D01*
X130790Y678204D01*
Y679796D01*
X130181Y681266D01*
X129056Y682391D01*
X127586Y683000D01*
D02*
G37*
G36*
X135656Y676967D02*
X134064D01*
X132594Y676358D01*
X131469Y675232D01*
X130860Y673762D01*
Y672171D01*
X131469Y670701D01*
X132594Y669576D01*
X134064Y668967D01*
X135656D01*
X137126Y669576D01*
X138251Y670701D01*
X138860Y672171D01*
Y673762D01*
X138251Y675232D01*
X137126Y676358D01*
X135656Y676967D01*
D02*
G37*
G36*
X143726Y670933D02*
X142134D01*
X140664Y670324D01*
X139539Y669199D01*
X138930Y667729D01*
Y666138D01*
X139539Y664668D01*
X140664Y663542D01*
X142134Y662933D01*
X143726D01*
X145196Y663542D01*
X146321Y664668D01*
X146930Y666138D01*
Y667729D01*
X146321Y669199D01*
X145196Y670324D01*
X143726Y670933D01*
D02*
G37*
G36*
X151796Y664900D02*
X150204D01*
X148734Y664291D01*
X147609Y663166D01*
X147000Y661696D01*
Y660104D01*
X147609Y658634D01*
X148734Y657509D01*
X150204Y656900D01*
X151796D01*
X153266Y657509D01*
X154391Y658634D01*
X155000Y660104D01*
Y661696D01*
X154391Y663166D01*
X153266Y664291D01*
X151796Y664900D01*
D02*
G37*
G36*
X723456Y622312D02*
X721267D01*
X719246Y621475D01*
X717699Y619927D01*
X716861Y617906D01*
Y615718D01*
X717699Y613696D01*
X719246Y612149D01*
X721267Y611312D01*
X723456D01*
X725477Y612149D01*
X727024Y613696D01*
X727861Y615718D01*
Y617906D01*
X727024Y619927D01*
X725477Y621475D01*
X723456Y622312D01*
D02*
G37*
G36*
X614655D02*
X612467D01*
X610446Y621475D01*
X608899Y619927D01*
X608061Y617906D01*
Y615718D01*
X608899Y613696D01*
X610446Y612149D01*
X612467Y611312D01*
X614655D01*
X616677Y612149D01*
X618224Y613696D01*
X619062Y615718D01*
Y617906D01*
X618224Y619927D01*
X616677Y621475D01*
X614655Y622312D01*
D02*
G37*
G36*
X505855D02*
X503667D01*
X501646Y621475D01*
X500099Y619927D01*
X499262Y617906D01*
Y615718D01*
X500099Y613696D01*
X501646Y612149D01*
X503667Y611312D01*
X505855D01*
X507877Y612149D01*
X509424Y613696D01*
X510261Y615718D01*
Y617906D01*
X509424Y619927D01*
X507877Y621475D01*
X505855Y622312D01*
D02*
G37*
G36*
X397056D02*
X394868D01*
X392846Y621475D01*
X391299Y619927D01*
X390462Y617906D01*
Y615718D01*
X391299Y613696D01*
X392846Y612149D01*
X394868Y611312D01*
X397056D01*
X399077Y612149D01*
X400624Y613696D01*
X401461Y615718D01*
Y617906D01*
X400624Y619927D01*
X399077Y621475D01*
X397056Y622312D01*
D02*
G37*
G36*
X288256D02*
X286068D01*
X284046Y621475D01*
X282499Y619927D01*
X281662Y617906D01*
Y615718D01*
X282499Y613696D01*
X284046Y612149D01*
X286068Y611312D01*
X288256D01*
X290277Y612149D01*
X291824Y613696D01*
X292661Y615718D01*
Y617906D01*
X291824Y619927D01*
X290277Y621475D01*
X288256Y622312D01*
D02*
G37*
G36*
X179456D02*
X177268D01*
X175246Y621475D01*
X173699Y619927D01*
X172862Y617906D01*
Y615718D01*
X173699Y613696D01*
X175246Y612149D01*
X177268Y611312D01*
X179456D01*
X181477Y612149D01*
X183024Y613696D01*
X183862Y615718D01*
Y617906D01*
X183024Y619927D01*
X181477Y621475D01*
X179456Y622312D01*
D02*
G37*
G36*
X70656D02*
X68468D01*
X66446Y621475D01*
X64899Y619927D01*
X64062Y617906D01*
Y615718D01*
X64899Y613696D01*
X66446Y612149D01*
X68468Y611312D01*
X70656D01*
X72677Y612149D01*
X74224Y613696D01*
X75062Y615718D01*
Y617906D01*
X74224Y619927D01*
X72677Y621475D01*
X70656Y622312D01*
D02*
G37*
G36*
X212190Y551800D02*
X210599D01*
X209128Y551191D01*
X208003Y550066D01*
X207394Y548596D01*
Y547004D01*
X208003Y545534D01*
X209128Y544409D01*
X210599Y543800D01*
X212190D01*
X213660Y544409D01*
X214785Y545534D01*
X215394Y547004D01*
Y548596D01*
X214785Y550066D01*
X213660Y551191D01*
X212190Y551800D01*
D02*
G37*
G36*
X200443D02*
X198852D01*
X197381Y551191D01*
X196256Y550066D01*
X195647Y548596D01*
Y547004D01*
X196256Y545534D01*
X197381Y544409D01*
X198852Y543800D01*
X200443D01*
X201913Y544409D01*
X203038Y545534D01*
X203647Y547004D01*
Y548596D01*
X203038Y550066D01*
X201913Y551191D01*
X200443Y551800D01*
D02*
G37*
G36*
X188696D02*
X187104D01*
X185634Y551191D01*
X184509Y550066D01*
X183900Y548596D01*
Y547004D01*
X184509Y545534D01*
X185634Y544409D01*
X187104Y543800D01*
X188696D01*
X190166Y544409D01*
X191291Y545534D01*
X191900Y547004D01*
Y548596D01*
X191291Y550066D01*
X190166Y551191D01*
X188696Y551800D01*
D02*
G37*
G36*
X221711Y545720D02*
X220120D01*
X218650Y545111D01*
X217524Y543986D01*
X216915Y542516D01*
Y540924D01*
X217524Y539454D01*
X218650Y538329D01*
X220120Y537720D01*
X221711D01*
X223181Y538329D01*
X224307Y539454D01*
X224915Y540924D01*
Y542516D01*
X224307Y543986D01*
X223181Y545111D01*
X221711Y545720D01*
D02*
G37*
G36*
X231232Y539640D02*
X229641D01*
X228171Y539031D01*
X227045Y537906D01*
X226437Y536436D01*
Y534844D01*
X227045Y533374D01*
X228171Y532249D01*
X229641Y531640D01*
X231232D01*
X232702Y532249D01*
X233828Y533374D01*
X234437Y534844D01*
Y536436D01*
X233828Y537906D01*
X232702Y539031D01*
X231232Y539640D01*
D02*
G37*
G36*
X240753Y533560D02*
X239162D01*
X237692Y532951D01*
X236567Y531826D01*
X235958Y530356D01*
Y528764D01*
X236567Y527294D01*
X237692Y526169D01*
X239162Y525560D01*
X240753D01*
X242223Y526169D01*
X243349Y527294D01*
X243958Y528764D01*
Y530356D01*
X243349Y531826D01*
X242223Y532951D01*
X240753Y533560D01*
D02*
G37*
G36*
X250275Y527480D02*
X248683D01*
X247213Y526871D01*
X246088Y525746D01*
X245479Y524276D01*
Y522684D01*
X246088Y521214D01*
X247213Y520089D01*
X248683Y519480D01*
X250275D01*
X251745Y520089D01*
X252870Y521214D01*
X253479Y522684D01*
Y524276D01*
X252870Y525746D01*
X251745Y526871D01*
X250275Y527480D01*
D02*
G37*
G36*
X259796Y521400D02*
X258204D01*
X256734Y520791D01*
X255609Y519666D01*
X255000Y518196D01*
Y516604D01*
X255609Y515134D01*
X256734Y514009D01*
X258204Y513400D01*
X259796D01*
X261266Y514009D01*
X262391Y515134D01*
X263000Y516604D01*
Y518196D01*
X262391Y519666D01*
X261266Y520791D01*
X259796Y521400D01*
D02*
G37*
G36*
X723456Y476845D02*
X721267D01*
X719246Y476008D01*
X717699Y474461D01*
X716861Y472439D01*
Y470251D01*
X717699Y468230D01*
X719246Y466683D01*
X721267Y465845D01*
X723456D01*
X725477Y466683D01*
X727024Y468230D01*
X727861Y470251D01*
Y472439D01*
X727024Y474461D01*
X725477Y476008D01*
X723456Y476845D01*
D02*
G37*
G36*
X614655D02*
X612467D01*
X610446Y476008D01*
X608899Y474461D01*
X608061Y472439D01*
Y470251D01*
X608899Y468230D01*
X610446Y466683D01*
X612467Y465845D01*
X614655D01*
X616677Y466683D01*
X618224Y468230D01*
X619062Y470251D01*
Y472439D01*
X618224Y474461D01*
X616677Y476008D01*
X614655Y476845D01*
D02*
G37*
G36*
X505855D02*
X503667D01*
X501646Y476008D01*
X500099Y474461D01*
X499262Y472439D01*
Y470251D01*
X500099Y468230D01*
X501646Y466683D01*
X503667Y465845D01*
X505855D01*
X507877Y466683D01*
X509424Y468230D01*
X510261Y470251D01*
Y472439D01*
X509424Y474461D01*
X507877Y476008D01*
X505855Y476845D01*
D02*
G37*
G36*
X397056D02*
X394868D01*
X392846Y476008D01*
X391299Y474461D01*
X390462Y472439D01*
Y470251D01*
X391299Y468230D01*
X392846Y466683D01*
X394868Y465845D01*
X397056D01*
X399077Y466683D01*
X400624Y468230D01*
X401461Y470251D01*
Y472439D01*
X400624Y474461D01*
X399077Y476008D01*
X397056Y476845D01*
D02*
G37*
G36*
X288256D02*
X286068D01*
X284046Y476008D01*
X282499Y474461D01*
X281662Y472439D01*
Y470251D01*
X282499Y468230D01*
X284046Y466683D01*
X286068Y465845D01*
X288256D01*
X290277Y466683D01*
X291824Y468230D01*
X292661Y470251D01*
Y472439D01*
X291824Y474461D01*
X290277Y476008D01*
X288256Y476845D01*
D02*
G37*
G36*
X179456D02*
X177268D01*
X175246Y476008D01*
X173699Y474461D01*
X172862Y472439D01*
Y470251D01*
X173699Y468230D01*
X175246Y466683D01*
X177268Y465845D01*
X179456D01*
X181477Y466683D01*
X183024Y468230D01*
X183862Y470251D01*
Y472439D01*
X183024Y474461D01*
X181477Y476008D01*
X179456Y476845D01*
D02*
G37*
G36*
X70656D02*
X68468D01*
X66446Y476008D01*
X64899Y474461D01*
X64062Y472439D01*
Y470251D01*
X64899Y468230D01*
X66446Y466683D01*
X68468Y465845D01*
X70656D01*
X72677Y466683D01*
X74224Y468230D01*
X75062Y470251D01*
Y472439D01*
X74224Y474461D01*
X72677Y476008D01*
X70656Y476845D01*
D02*
G37*
G36*
X723456Y331379D02*
X721267D01*
X719246Y330541D01*
X717699Y328994D01*
X716861Y326973D01*
Y324785D01*
X717699Y322763D01*
X719246Y321216D01*
X721267Y320379D01*
X723456D01*
X725477Y321216D01*
X727024Y322763D01*
X727861Y324785D01*
Y326973D01*
X727024Y328994D01*
X725477Y330541D01*
X723456Y331379D01*
D02*
G37*
G36*
X614655D02*
X612467D01*
X610446Y330541D01*
X608899Y328994D01*
X608061Y326973D01*
Y324785D01*
X608899Y322763D01*
X610446Y321216D01*
X612467Y320379D01*
X614655D01*
X616677Y321216D01*
X618224Y322763D01*
X619062Y324785D01*
Y326973D01*
X618224Y328994D01*
X616677Y330541D01*
X614655Y331379D01*
D02*
G37*
G36*
X505855D02*
X503667D01*
X501646Y330541D01*
X500099Y328994D01*
X499262Y326973D01*
Y324785D01*
X500099Y322763D01*
X501646Y321216D01*
X503667Y320379D01*
X505855D01*
X507877Y321216D01*
X509424Y322763D01*
X510261Y324785D01*
Y326973D01*
X509424Y328994D01*
X507877Y330541D01*
X505855Y331379D01*
D02*
G37*
%LPD*%
D11*
X472300Y54400D02*
X478350Y48350D01*
X232659Y76141D02*
X242300Y66500D01*
X752300D01*
X753050Y48350D02*
X767964Y63264D01*
Y101500D01*
X453826Y106174D02*
X471000Y89000D01*
X403574Y106174D02*
X453826D01*
X471000Y89000D02*
X534200D01*
X472300Y48350D02*
Y54400D01*
Y48350D02*
X478350D01*
X753050D01*
X234400Y54400D02*
X472300D01*
X478350D01*
X394800Y97400D02*
X403574Y106174D01*
X478350Y48350D02*
Y54400D01*
X223300Y65500D02*
X234400Y54400D01*
X223300Y110900D02*
Y125500D01*
Y65500D02*
Y110900D01*
Y125500D02*
X230900Y133100D01*
X541400Y209900D02*
Y233800D01*
X534200Y89000D02*
X541400Y96200D01*
Y209900D01*
X534700Y240500D02*
X541400Y233800D01*
X386900Y240500D02*
X534700D01*
X379595Y233195D02*
X386900Y240500D01*
X379595Y160800D02*
Y233195D01*
X232659Y76141D02*
Y110900D01*
X395000Y133100D02*
X407501Y145601D01*
Y230000D01*
X230900Y133100D02*
X395000D01*
D17*
X575900Y900000D02*
X573230Y899699D01*
X570693Y898812D01*
X568418Y897382D01*
X566518Y895482D01*
X565088Y893207D01*
X564201Y890670D01*
X563900Y888000D01*
X551900Y870700D02*
X554570Y871001D01*
X557107Y871888D01*
X559382Y873318D01*
X561282Y875218D01*
X562712Y877493D01*
X563599Y880030D01*
X563900Y882700D01*
X899990Y337130D02*
X899752Y339508D01*
X899048Y341791D01*
X897905Y343890D01*
X896369Y345720D01*
X894501Y347210D01*
X892374Y348301D01*
X890074Y348948D01*
X9916Y348968D02*
X7616Y348321D01*
X5489Y347230D01*
X3621Y345740D01*
X2085Y343910D01*
X942Y341811D01*
X238Y339528D01*
X0Y337150D01*
X890716Y551168D02*
X888416Y550521D01*
X886289Y549430D01*
X884421Y547940D01*
X882885Y546110D01*
X881742Y544011D01*
X881038Y541728D01*
X880800Y539350D01*
X360700Y888000D02*
X360399Y890670D01*
X359512Y893207D01*
X358082Y895482D01*
X356182Y897382D01*
X353907Y898812D01*
X351370Y899699D01*
X348700Y900000D01*
X9284Y348832D02*
X11584Y349479D01*
X13711Y350570D01*
X15579Y352060D01*
X17115Y353890D01*
X18258Y355989D01*
X18962Y358272D01*
X19200Y360650D01*
X812000Y8000D02*
X811609Y10472D01*
X810472Y12702D01*
X808702Y14472D01*
X806472Y15609D01*
X804000Y16000D01*
X80000Y0D02*
X82472Y391D01*
X84702Y1528D01*
X86472Y3298D01*
X87608Y5528D01*
X88000Y8000D01*
X360700Y882700D02*
X361001Y880030D01*
X361888Y877493D01*
X363318Y875218D01*
X365218Y873318D01*
X367493Y871888D01*
X370030Y871001D01*
X372700Y870700D01*
X-10Y562850D02*
X228Y560472D01*
X932Y558189D01*
X2075Y556090D01*
X3611Y554260D01*
X5479Y552770D01*
X7606Y551679D01*
X9906Y551032D01*
X812000Y8000D02*
X812392Y5528D01*
X813528Y3298D01*
X815298Y1528D01*
X817528Y391D01*
X820000Y0D01*
X900000Y888000D02*
X899699Y890670D01*
X898812Y893207D01*
X897382Y895482D01*
X895482Y897382D01*
X893207Y898812D01*
X890670Y899699D01*
X888000Y900000D01*
X890074Y551072D02*
X892374Y551720D01*
X894501Y552810D01*
X896369Y554300D01*
X897905Y556130D01*
X899048Y558229D01*
X899752Y560512D01*
X899990Y562890D01*
X12000Y900000D02*
X9330Y899699D01*
X6793Y898812D01*
X4518Y897382D01*
X2618Y895482D01*
X1188Y893207D01*
X301Y890670D01*
X0Y888000D01*
Y12000D02*
X301Y9330D01*
X1188Y6793D01*
X2618Y4518D01*
X4518Y2618D01*
X6793Y1188D01*
X9330Y301D01*
X12000Y0D01*
X880800Y360650D02*
X881038Y358272D01*
X881742Y355989D01*
X882885Y353890D01*
X884421Y352060D01*
X886289Y350570D01*
X888416Y349479D01*
X890716Y348832D01*
X96000Y16000D02*
X93528Y15609D01*
X91298Y14472D01*
X89528Y12702D01*
X88392Y10472D01*
X88000Y8000D01*
X888000Y0D02*
X890670Y301D01*
X893207Y1188D01*
X895482Y2618D01*
X897382Y4518D01*
X898812Y6793D01*
X899699Y9330D01*
X900000Y12000D01*
X19200Y539350D02*
X18962Y541728D01*
X18258Y544011D01*
X17115Y546110D01*
X15579Y547940D01*
X13711Y549430D01*
X11584Y550521D01*
X9284Y551168D01*
X563900Y882700D02*
Y888000D01*
X12000Y0D02*
X80000D01*
X19200Y360650D02*
Y539350D01*
X96000Y16000D02*
X804000D01*
X880800Y360650D02*
Y539350D01*
X372700Y870700D02*
X551900D01*
X360700Y882700D02*
Y888000D01*
X899990Y562890D02*
Y887990D01*
X575900Y900000D02*
X888000D01*
X12000D02*
X348700D01*
X0Y562860D02*
Y888000D01*
X820000Y0D02*
X888000D01*
X0Y12000D02*
Y337150D01*
X900000Y12000D02*
Y337120D01*
X42300Y777642D02*
X48158Y783500D01*
X227100D01*
X42300Y641900D02*
Y777642D01*
X42300Y499300D02*
Y641900D01*
X42300D02*
X228400Y641900D01*
X42300Y350700D02*
Y499300D01*
X14700Y323100D02*
X38950Y347350D01*
X42300Y350700D01*
Y499300D02*
X444900D01*
X14700Y262200D02*
Y323100D01*
X42300Y350700D02*
X450200D01*
X227100Y783500D02*
X447000D01*
X227800Y759950D02*
Y782800D01*
Y753900D02*
Y759950D01*
Y747850D02*
Y753900D01*
X227100Y783500D02*
X227800Y782800D01*
X447000Y783500D02*
X650000D01*
X446200Y760550D02*
Y782700D01*
Y754500D02*
Y760550D01*
Y748450D02*
Y754500D01*
Y782700D02*
X447000Y783500D01*
X228400Y641900D02*
X652000Y641900D01*
X228998Y614775D02*
Y641302D01*
Y608725D02*
Y614775D01*
Y602675D02*
Y608725D01*
X228400Y641900D02*
X228998Y641302D01*
X444900Y499300D02*
X653400D01*
X445200Y463400D02*
Y499000D01*
Y457350D02*
Y463400D01*
Y451300D02*
Y457350D01*
X444900Y499300D02*
X445200Y499000D01*
X450200Y350700D02*
X652300D01*
X448500Y319800D02*
Y349000D01*
Y313750D02*
Y319800D01*
Y307700D02*
Y313750D01*
Y349000D02*
X450200Y350700D01*
X653400Y499300D02*
X664300Y488400D01*
X663600Y756000D02*
Y769900D01*
Y749950D02*
Y756000D01*
Y743900D02*
Y749950D01*
X650000Y783500D02*
X663600Y769900D01*
X663100Y613050D02*
Y630800D01*
Y607000D02*
Y613050D01*
Y600950D02*
Y607000D01*
X652000Y641900D02*
X663100Y630800D01*
X664300Y464650D02*
Y488400D01*
Y458600D02*
Y464650D01*
X14700Y256150D02*
Y262200D01*
Y250100D02*
Y256150D01*
Y244050D02*
Y250100D01*
Y238000D02*
Y244050D01*
X664700Y319800D02*
Y338300D01*
Y313750D02*
Y319800D01*
Y307700D02*
Y313750D01*
X652300Y350700D02*
X664700Y338300D01*
D51*
X312000Y119400D02*
X471800D01*
X276590Y83990D02*
X312000Y119400D01*
X240420Y83990D02*
X276590D01*
X485200Y106000D02*
X491300D01*
X471800Y119400D02*
X485200Y106000D01*
X218900Y45600D02*
X269100D01*
X284600Y30100D01*
X213300Y51200D02*
X218900Y45600D01*
X101800Y51200D02*
X213300D01*
X214900Y36800D02*
X261214D01*
X265500Y32514D01*
X209500Y42200D02*
X214900Y36800D01*
X202050Y42200D02*
X209500D01*
X197300Y37450D02*
X202050Y42200D01*
X197150Y37300D02*
X197300Y37450D01*
X142900Y37300D02*
X197150D01*
D52*
X286800Y294000D02*
X395400D01*
X178200D02*
X286800D01*
X286800Y294000D02*
Y305921D01*
Y294000D02*
X286800Y294000D01*
X81121D02*
X178200D01*
X178000Y294200D02*
X178200Y294000D01*
X178000Y294200D02*
Y305921D01*
X395400Y294000D02*
X504600D01*
X395400D02*
X395600Y294200D01*
Y305921D01*
X504600Y294000D02*
X613200D01*
X504400Y294200D02*
Y305921D01*
Y294200D02*
X504600Y294000D01*
X613200D02*
X722000D01*
X613200Y294000D02*
X613200Y294000D01*
X613200Y294000D02*
Y305921D01*
X722000Y294000D02*
X818878D01*
X722000Y294000D02*
Y305921D01*
Y294000D02*
X722000Y294000D01*
X69200Y305921D02*
X81121Y294000D01*
X818878D02*
X830800Y305921D01*
X178600Y437400D02*
X286400D01*
X83188D02*
X178600D01*
X178000Y438000D02*
Y451388D01*
Y438000D02*
X178600Y437400D01*
X286400D02*
X396100D01*
X286400D02*
X286800Y437800D01*
Y451388D01*
X396100Y437400D02*
X504000D01*
X395600Y437900D02*
X396100Y437400D01*
X395600Y437900D02*
Y451388D01*
X504000Y437400D02*
X612800D01*
X504400Y437800D02*
Y451388D01*
X504000Y437400D02*
X504400Y437800D01*
X612800Y437400D02*
X722200D01*
X613200Y437800D02*
Y451388D01*
X612800Y437400D02*
X613200Y437800D01*
X722200Y437400D02*
X816812D01*
X722000Y437600D02*
Y451388D01*
Y437600D02*
X722200Y437400D01*
X816812D02*
X830800Y451388D01*
X69200D02*
X83188Y437400D01*
X178200Y584300D02*
X286600D01*
X81755D02*
X178200D01*
X178000Y584500D02*
Y596855D01*
Y584500D02*
X178200Y584300D01*
X286600D02*
X394200D01*
X286800Y584500D02*
Y596855D01*
X286600Y584300D02*
X286800Y584500D01*
X395600Y585700D02*
Y596855D01*
X394200Y584300D02*
X395600Y585700D01*
X394200Y584300D02*
X504400D01*
X612300D01*
X504400D02*
Y596855D01*
X613200Y585200D02*
Y596855D01*
X612300Y584300D02*
X613200Y585200D01*
X612300Y584300D02*
X721800D01*
X818245D01*
X722000Y584500D02*
Y596855D01*
X721800Y584300D02*
X722000Y584500D01*
X818245Y584300D02*
X830800Y596855D01*
X69200D02*
X81755Y584300D01*
X177800Y730400D02*
X286800D01*
X81121D02*
X177800D01*
X178000Y730600D02*
Y742321D01*
X177800Y730400D02*
X178000Y730600D01*
X286800Y730400D02*
X395600D01*
X286800Y730400D02*
X286800Y730400D01*
X286800Y730400D02*
Y742321D01*
X395600Y730400D02*
X503700D01*
X395600Y730400D02*
Y742321D01*
Y730400D02*
X395600Y730400D01*
X503700D02*
X612900D01*
X503700D02*
X504209Y730909D01*
Y742130D02*
X504400Y742321D01*
X504209Y730909D02*
Y742130D01*
X612900Y730400D02*
X722000D01*
X612900D02*
X613009Y730509D01*
Y742130D02*
X613200Y742321D01*
X613009Y730509D02*
Y742130D01*
X722000Y730400D02*
Y742321D01*
Y730400D02*
X818878D01*
X830800Y742321D01*
X69200D02*
X81121Y730400D01*
D53*
X874750Y27450D02*
D03*
D54*
X861050Y872750D02*
D03*
D55*
X46450Y873600D02*
D03*
D56*
X26450Y26850D02*
D03*
D59*
X329380Y89480D02*
D03*
D60*
X436380D02*
D03*
D61*
X823800Y849200D02*
D03*
X88900D02*
D03*
X850900Y50795D02*
D03*
X50800D02*
D03*
D62*
X823800Y872060D02*
D03*
X800940Y849200D02*
D03*
X823800Y826340D02*
D03*
X846660Y849200D02*
D03*
X839965Y865365D02*
D03*
X807635D02*
D03*
Y833036D02*
D03*
X839965D02*
D03*
X88900Y872060D02*
D03*
X66040Y849200D02*
D03*
X88900Y826340D02*
D03*
X111760Y849200D02*
D03*
X105064Y865365D02*
D03*
X72736D02*
D03*
Y833036D02*
D03*
X105064D02*
D03*
X867065Y34631D02*
D03*
X834735D02*
D03*
Y66960D02*
D03*
X867065D02*
D03*
X873760Y50795D02*
D03*
X850900Y27936D02*
D03*
X828040Y50795D02*
D03*
X850900Y73656D02*
D03*
X66965Y34631D02*
D03*
X34636D02*
D03*
Y66960D02*
D03*
X66965D02*
D03*
X73660Y50795D02*
D03*
X50800Y27936D02*
D03*
X27940Y50795D02*
D03*
X50800Y73656D02*
D03*
D63*
X79562Y315879D02*
D03*
X69562Y325879D02*
D03*
Y305879D02*
D03*
X188362Y752279D02*
D03*
X178362Y762279D02*
D03*
Y742280D02*
D03*
X79562Y752279D02*
D03*
X69562Y762279D02*
D03*
Y742279D02*
D03*
X79562Y606812D02*
D03*
X69562Y616812D02*
D03*
Y596812D02*
D03*
X79562Y461345D02*
D03*
X69562Y471345D02*
D03*
Y451345D02*
D03*
X722362Y305879D02*
D03*
Y325879D02*
D03*
X732362Y315879D02*
D03*
X831161Y451345D02*
D03*
Y471345D02*
D03*
X841161Y461345D02*
D03*
X831161Y596812D02*
D03*
Y616812D02*
D03*
X841161Y606812D02*
D03*
X831161Y742279D02*
D03*
Y762279D02*
D03*
X841161Y752279D02*
D03*
X722362Y742279D02*
D03*
Y762279D02*
D03*
X732362Y752279D02*
D03*
X613562Y742279D02*
D03*
Y762279D02*
D03*
X623562Y752279D02*
D03*
X504762Y742279D02*
D03*
Y762279D02*
D03*
X514762Y752279D02*
D03*
X395961Y742279D02*
D03*
Y762279D02*
D03*
X405961Y752279D02*
D03*
X287162Y742279D02*
D03*
Y762279D02*
D03*
X297162Y752279D02*
D03*
X178362Y596812D02*
D03*
Y616812D02*
D03*
X188362Y606812D02*
D03*
X287162Y596812D02*
D03*
Y616812D02*
D03*
X297162Y606812D02*
D03*
X395961Y596812D02*
D03*
Y616812D02*
D03*
X405961Y606812D02*
D03*
X504762Y596812D02*
D03*
Y616812D02*
D03*
X514762Y606812D02*
D03*
X613562Y596812D02*
D03*
Y616812D02*
D03*
X623562Y606812D02*
D03*
X722362Y596812D02*
D03*
Y616812D02*
D03*
X732362Y606812D02*
D03*
X178362Y451345D02*
D03*
Y471345D02*
D03*
X188362Y461345D02*
D03*
X287162Y305879D02*
D03*
Y325879D02*
D03*
X297162Y315879D02*
D03*
X178362Y305879D02*
D03*
Y325879D02*
D03*
X188362Y315879D02*
D03*
X722362Y451345D02*
D03*
Y471345D02*
D03*
X732362Y461345D02*
D03*
X613562Y451345D02*
D03*
Y471345D02*
D03*
X623562Y461345D02*
D03*
X504762Y451345D02*
D03*
Y471345D02*
D03*
X514762Y461345D02*
D03*
X395961Y451345D02*
D03*
Y471345D02*
D03*
X405961Y461345D02*
D03*
X287162Y451345D02*
D03*
Y471345D02*
D03*
X297162Y461345D02*
D03*
X395961Y305879D02*
D03*
Y325879D02*
D03*
X405961Y315879D02*
D03*
X504762Y305879D02*
D03*
Y325879D02*
D03*
X514762Y315879D02*
D03*
X613562Y305879D02*
D03*
Y325879D02*
D03*
X623562Y315879D02*
D03*
X831161Y305879D02*
D03*
Y325879D02*
D03*
X841161Y315879D02*
D03*
D64*
X339600Y361600D02*
D03*
X667300Y358900D02*
D03*
X241247Y91325D02*
D03*
X240100Y84000D02*
D03*
X243600Y118300D02*
D03*
X14700Y269762D02*
D03*
Y280350D02*
D03*
X154846Y245100D02*
D03*
X213374Y257500D02*
D03*
X194522D02*
D03*
X397300Y26900D02*
D03*
X386100D02*
D03*
X408500D02*
D03*
X66200Y158150D02*
D03*
Y142225D02*
D03*
Y174075D02*
D03*
X56400Y158150D02*
D03*
Y142225D02*
D03*
Y174075D02*
D03*
X377300Y92000D02*
D03*
X203948Y257500D02*
D03*
X222800D02*
D03*
X363600Y92500D02*
D03*
X462600Y97400D02*
D03*
X472300Y54400D02*
D03*
X478350D02*
D03*
X472300Y48350D02*
D03*
X491300Y106000D02*
D03*
X490974Y98157D02*
D03*
X645900Y100200D02*
D03*
X645800Y106800D02*
D03*
X394800Y97400D02*
D03*
X478350Y48350D02*
D03*
X356200Y99600D02*
D03*
X371100Y99100D02*
D03*
X350700Y92400D02*
D03*
X142900Y37300D02*
D03*
X197300Y37450D02*
D03*
X265500Y32514D02*
D03*
X284600Y30100D02*
D03*
X596300Y228300D02*
D03*
X586500D02*
D03*
X601100Y205800D02*
D03*
X591300D02*
D03*
X859200Y406000D02*
D03*
X419700Y26900D02*
D03*
X97900Y59800D02*
D03*
Y69600D02*
D03*
Y79400D02*
D03*
Y89200D02*
D03*
X36800Y110375D02*
D03*
X46600D02*
D03*
X56400D02*
D03*
X66200D02*
D03*
X76000D02*
D03*
X115200D02*
D03*
X105400D02*
D03*
X95600D02*
D03*
X85800D02*
D03*
X453031Y26200D02*
D03*
X466296D02*
D03*
X492825D02*
D03*
X479560D02*
D03*
X506090D02*
D03*
X519354D02*
D03*
X559148D02*
D03*
X532619D02*
D03*
X545883D02*
D03*
X442100Y26900D02*
D03*
X430900D02*
D03*
X101800Y51200D02*
D03*
X886600Y768160D02*
D03*
Y735387D02*
D03*
Y800934D02*
D03*
Y784547D02*
D03*
Y751774D02*
D03*
Y833708D02*
D03*
Y817321D02*
D03*
X638735Y26200D02*
D03*
X625471D02*
D03*
X652000D02*
D03*
X612206D02*
D03*
X598942D02*
D03*
X572412D02*
D03*
X585677D02*
D03*
X674200Y125100D02*
D03*
Y115300D02*
D03*
X667300Y135000D02*
D03*
X674000Y84100D02*
D03*
X674200Y74700D02*
D03*
X673800Y92600D02*
D03*
X629000Y130100D02*
D03*
X619200D02*
D03*
X638800D02*
D03*
X152850Y59650D02*
D03*
Y65700D02*
D03*
Y71750D02*
D03*
X205400Y35300D02*
D03*
X796437Y67382D02*
D03*
Y92328D02*
D03*
Y54910D02*
D03*
Y79855D02*
D03*
Y42437D02*
D03*
X796964Y26036D02*
D03*
X796900Y32100D02*
D03*
X678374Y26036D02*
D03*
X678311Y32100D02*
D03*
X665046D02*
D03*
X665110Y26036D02*
D03*
X691639D02*
D03*
X704903D02*
D03*
X704840Y32100D02*
D03*
X691575D02*
D03*
X757962Y26036D02*
D03*
X757898Y32100D02*
D03*
X771226Y26036D02*
D03*
X731369Y32100D02*
D03*
X718104D02*
D03*
X744633D02*
D03*
X771163D02*
D03*
X744697Y26036D02*
D03*
X718168D02*
D03*
X731433D02*
D03*
X784427Y32100D02*
D03*
X784491Y26036D02*
D03*
X783964Y42437D02*
D03*
Y79855D02*
D03*
Y54910D02*
D03*
Y92328D02*
D03*
Y67382D02*
D03*
X833855Y129746D02*
D03*
X846327D02*
D03*
X821382D02*
D03*
X833855Y117273D02*
D03*
X846327D02*
D03*
X821382D02*
D03*
X796437Y104800D02*
D03*
X821382D02*
D03*
X846327D02*
D03*
X833855D02*
D03*
X796437Y129746D02*
D03*
Y117273D02*
D03*
X783964D02*
D03*
Y129746D02*
D03*
Y104800D02*
D03*
X808909D02*
D03*
Y117273D02*
D03*
Y129746D02*
D03*
X858800D02*
D03*
X868600D02*
D03*
X878400D02*
D03*
X728300Y140500D02*
D03*
Y165700D02*
D03*
Y153100D02*
D03*
Y216100D02*
D03*
Y178300D02*
D03*
Y228700D02*
D03*
Y203500D02*
D03*
X233200Y164500D02*
D03*
Y174300D02*
D03*
X170000Y173880D02*
D03*
Y150960D02*
D03*
Y139500D02*
D03*
Y162420D02*
D03*
X223300Y110900D02*
D03*
X337400Y221800D02*
D03*
X357000D02*
D03*
X366800D02*
D03*
X327600D02*
D03*
X347200D02*
D03*
X85800Y126300D02*
D03*
X95600D02*
D03*
X105400D02*
D03*
X115200D02*
D03*
X317700Y145300D02*
D03*
Y171100D02*
D03*
X342900Y176000D02*
D03*
X340300Y145300D02*
D03*
X311000Y184100D02*
D03*
X317700Y191400D02*
D03*
X289000Y250400D02*
D03*
X282950D02*
D03*
X295050D02*
D03*
Y244350D02*
D03*
X282950D02*
D03*
X289000D02*
D03*
X295050Y238300D02*
D03*
X289000D02*
D03*
X282950D02*
D03*
X379595Y160800D02*
D03*
X541400Y209900D02*
D03*
X76000Y126300D02*
D03*
X66200D02*
D03*
X56400D02*
D03*
X46600D02*
D03*
X36800D02*
D03*
X767964Y101500D02*
D03*
X632800Y34000D02*
D03*
X623000D02*
D03*
X613200D02*
D03*
X407501Y230000D02*
D03*
X752300Y59157D02*
D03*
Y66500D02*
D03*
X232659Y118300D02*
D03*
Y110900D02*
D03*
X739600Y92200D02*
D03*
X711100Y220576D02*
D03*
X703700Y214076D02*
D03*
X727450Y92200D02*
D03*
X113800Y271850D02*
D03*
Y277900D02*
D03*
X237400Y278000D02*
D03*
X441500Y267100D02*
D03*
Y276900D02*
D03*
X548700Y269700D02*
D03*
Y277500D02*
D03*
X658600Y275200D02*
D03*
X668400D02*
D03*
X765500Y276900D02*
D03*
Y267100D02*
D03*
X777400Y424000D02*
D03*
Y414200D02*
D03*
X231900Y565500D02*
D03*
X222100D02*
D03*
X125500Y709900D02*
D03*
X115700D02*
D03*
X238100Y699800D02*
D03*
X228300D02*
D03*
X247900D02*
D03*
X603832Y873833D02*
D03*
X636605D02*
D03*
X587445D02*
D03*
X620218D02*
D03*
X734926D02*
D03*
X702153D02*
D03*
X669379D02*
D03*
X652992D02*
D03*
X751313D02*
D03*
X718540D02*
D03*
X685766D02*
D03*
X341642Y873833D02*
D03*
X226934D02*
D03*
X194161D02*
D03*
X161387D02*
D03*
X259708D02*
D03*
X243321D02*
D03*
X210548D02*
D03*
X177774D02*
D03*
X292482D02*
D03*
X325255D02*
D03*
X276095D02*
D03*
X308869D02*
D03*
X767700D02*
D03*
X145000D02*
D03*
X226934Y830533D02*
D03*
X194161D02*
D03*
X161387D02*
D03*
X145000D02*
D03*
X259708D02*
D03*
X243321D02*
D03*
X210548D02*
D03*
X177774D02*
D03*
X292482D02*
D03*
X325255D02*
D03*
X276095D02*
D03*
X308869D02*
D03*
X341642D02*
D03*
X145000Y816100D02*
D03*
X308869D02*
D03*
X276095D02*
D03*
X325255D02*
D03*
X292482D02*
D03*
X177774D02*
D03*
X210548D02*
D03*
X243321D02*
D03*
X259708D02*
D03*
X161387D02*
D03*
X194161D02*
D03*
X226934D02*
D03*
X341642D02*
D03*
X439963Y830533D02*
D03*
X407190D02*
D03*
X374416D02*
D03*
X358029D02*
D03*
X472737D02*
D03*
X456350D02*
D03*
X423576D02*
D03*
X390803D02*
D03*
X505511D02*
D03*
X538284D02*
D03*
X489124D02*
D03*
X521897D02*
D03*
X554671D02*
D03*
X358029Y816100D02*
D03*
X521897D02*
D03*
X489124D02*
D03*
X538284D02*
D03*
X505511D02*
D03*
X390803D02*
D03*
X423576D02*
D03*
X456350D02*
D03*
X472737D02*
D03*
X374416D02*
D03*
X407190D02*
D03*
X439963D02*
D03*
X554671D02*
D03*
X652992Y830533D02*
D03*
X620218D02*
D03*
X587445D02*
D03*
X571058D02*
D03*
X685766D02*
D03*
X669379D02*
D03*
X636605D02*
D03*
X603832D02*
D03*
X718540D02*
D03*
X751313D02*
D03*
X702153D02*
D03*
X734926D02*
D03*
X767700D02*
D03*
X571058Y816100D02*
D03*
X734926D02*
D03*
X702153D02*
D03*
X751313D02*
D03*
X718540D02*
D03*
X603832D02*
D03*
X636605D02*
D03*
X669379D02*
D03*
X685766D02*
D03*
X587445D02*
D03*
X620218D02*
D03*
X652992D02*
D03*
X767700D02*
D03*
X652992Y859400D02*
D03*
X620218D02*
D03*
X587445D02*
D03*
X685766D02*
D03*
X669379D02*
D03*
X636605D02*
D03*
X603832D02*
D03*
X718540D02*
D03*
X751313D02*
D03*
X702153D02*
D03*
X734926D02*
D03*
X767700Y859400D02*
D03*
X571058Y844967D02*
D03*
X734926D02*
D03*
X702153D02*
D03*
X751313D02*
D03*
X718540D02*
D03*
X603832D02*
D03*
X636605D02*
D03*
X669379D02*
D03*
X685766D02*
D03*
X587445D02*
D03*
X620218D02*
D03*
X652992D02*
D03*
X767700D02*
D03*
X358029D02*
D03*
X521897D02*
D03*
X489124D02*
D03*
X538284D02*
D03*
X505511D02*
D03*
X390803D02*
D03*
X423576D02*
D03*
X456350D02*
D03*
X472737D02*
D03*
X374416D02*
D03*
X407190D02*
D03*
X439963D02*
D03*
X554671D02*
D03*
X226934Y859400D02*
D03*
X194161D02*
D03*
X161387D02*
D03*
X145000Y859400D02*
D03*
X259708Y859400D02*
D03*
X243321D02*
D03*
X210548D02*
D03*
X177774D02*
D03*
X292482D02*
D03*
X325255D02*
D03*
X276095D02*
D03*
X308869D02*
D03*
X341642D02*
D03*
X145000Y844967D02*
D03*
X308869D02*
D03*
X276095D02*
D03*
X325255D02*
D03*
X292482D02*
D03*
X177774D02*
D03*
X210548D02*
D03*
X243321D02*
D03*
X259708D02*
D03*
X161387D02*
D03*
X194161D02*
D03*
X226934D02*
D03*
X341642D02*
D03*
X75500Y663600D02*
D03*
Y683200D02*
D03*
Y693000D02*
D03*
Y673400D02*
D03*
X55900Y693000D02*
D03*
X65700D02*
D03*
Y673400D02*
D03*
Y683200D02*
D03*
Y663600D02*
D03*
X55900Y673400D02*
D03*
Y683200D02*
D03*
Y663600D02*
D03*
X820700Y694000D02*
D03*
X801100D02*
D03*
X791300D02*
D03*
X830500D02*
D03*
X810900D02*
D03*
X791300Y674400D02*
D03*
Y684200D02*
D03*
X810900D02*
D03*
X830500D02*
D03*
X801100D02*
D03*
X820700D02*
D03*
X810900Y674400D02*
D03*
X830500D02*
D03*
X801100D02*
D03*
X820700D02*
D03*
X708100Y681800D02*
D03*
X688500D02*
D03*
X717900D02*
D03*
X698300D02*
D03*
X678700D02*
D03*
X698300Y691600D02*
D03*
X717900D02*
D03*
X678700D02*
D03*
X688500D02*
D03*
X708100D02*
D03*
X601200Y685700D02*
D03*
X581600D02*
D03*
X611000D02*
D03*
X591400D02*
D03*
X571800D02*
D03*
X591400Y695500D02*
D03*
X611000D02*
D03*
X571800D02*
D03*
X581600D02*
D03*
X601200D02*
D03*
X482800Y693700D02*
D03*
X502400D02*
D03*
X463200D02*
D03*
X473000D02*
D03*
X492600D02*
D03*
X375200Y696000D02*
D03*
X394800D02*
D03*
X355600D02*
D03*
X365400D02*
D03*
X385000D02*
D03*
X374200Y551400D02*
D03*
X393800D02*
D03*
X354600D02*
D03*
X364400D02*
D03*
X384000D02*
D03*
X481400Y547700D02*
D03*
X501000D02*
D03*
X461800D02*
D03*
X471600D02*
D03*
X491200D02*
D03*
X602100Y550200D02*
D03*
X582500D02*
D03*
X572700D02*
D03*
X611900D02*
D03*
X592300D02*
D03*
X572700Y540400D02*
D03*
X592300D02*
D03*
X611900D02*
D03*
X582500D02*
D03*
X602100D02*
D03*
X707600Y532300D02*
D03*
X688000D02*
D03*
X717400D02*
D03*
X697800D02*
D03*
X707600Y542100D02*
D03*
X688000D02*
D03*
X717400D02*
D03*
X697800D02*
D03*
X678200D02*
D03*
Y532300D02*
D03*
X697800Y551900D02*
D03*
X717400D02*
D03*
X678200D02*
D03*
X688000D02*
D03*
X707600D02*
D03*
X824800Y529700D02*
D03*
X805200D02*
D03*
X834600D02*
D03*
X815000D02*
D03*
X824800Y539500D02*
D03*
X805200D02*
D03*
X834600D02*
D03*
X815000D02*
D03*
X795400D02*
D03*
Y529700D02*
D03*
X815000Y549300D02*
D03*
X834600D02*
D03*
X795400D02*
D03*
X805200D02*
D03*
X824800D02*
D03*
X716800Y408000D02*
D03*
X697200D02*
D03*
X707000D02*
D03*
X687400D02*
D03*
X609200Y404700D02*
D03*
X589600D02*
D03*
X599400D02*
D03*
X579800D02*
D03*
X503700Y406800D02*
D03*
X484100D02*
D03*
X474300D02*
D03*
X493900D02*
D03*
X474300Y397000D02*
D03*
X493900D02*
D03*
X484100D02*
D03*
X503700D02*
D03*
X393700Y403600D02*
D03*
X374100D02*
D03*
X364300D02*
D03*
X383900D02*
D03*
X364300Y393800D02*
D03*
X383900D02*
D03*
X374100D02*
D03*
X393700D02*
D03*
X304900Y402000D02*
D03*
X285300D02*
D03*
X275500D02*
D03*
X295100D02*
D03*
X275500Y392200D02*
D03*
X295100D02*
D03*
X285300D02*
D03*
X304900D02*
D03*
X174000Y526100D02*
D03*
Y535900D02*
D03*
Y516300D02*
D03*
X164200Y535900D02*
D03*
Y516300D02*
D03*
Y526100D02*
D03*
X56800Y523200D02*
D03*
Y542800D02*
D03*
Y533000D02*
D03*
X66600Y523200D02*
D03*
Y542800D02*
D03*
Y533000D02*
D03*
Y552600D02*
D03*
X56800D02*
D03*
X76400Y533000D02*
D03*
Y552600D02*
D03*
Y542800D02*
D03*
Y523200D02*
D03*
X165300Y379800D02*
D03*
Y399400D02*
D03*
Y389600D02*
D03*
Y409200D02*
D03*
X175100Y389600D02*
D03*
Y409200D02*
D03*
Y399400D02*
D03*
Y379800D02*
D03*
X75300Y376900D02*
D03*
Y396500D02*
D03*
Y367100D02*
D03*
Y386700D02*
D03*
X65500D02*
D03*
Y367100D02*
D03*
Y396500D02*
D03*
Y376900D02*
D03*
X55700Y386700D02*
D03*
Y367100D02*
D03*
Y396500D02*
D03*
Y376900D02*
D03*
X820900Y369100D02*
D03*
Y388700D02*
D03*
Y378900D02*
D03*
X830700Y369100D02*
D03*
Y388700D02*
D03*
Y378900D02*
D03*
X878400Y104800D02*
D03*
X858800D02*
D03*
X868600D02*
D03*
Y117273D02*
D03*
X858800D02*
D03*
X878400Y179636D02*
D03*
Y204582D02*
D03*
Y229527D02*
D03*
Y242000D02*
D03*
Y154691D02*
D03*
Y167164D02*
D03*
Y192109D02*
D03*
Y217055D02*
D03*
Y142218D02*
D03*
Y117273D02*
D03*
X858800Y242000D02*
D03*
X868600D02*
D03*
Y142218D02*
D03*
Y217055D02*
D03*
Y192109D02*
D03*
Y167164D02*
D03*
Y154691D02*
D03*
Y229527D02*
D03*
Y204582D02*
D03*
Y179636D02*
D03*
X858800Y142218D02*
D03*
Y217055D02*
D03*
Y192109D02*
D03*
Y167164D02*
D03*
Y154691D02*
D03*
Y229527D02*
D03*
Y204582D02*
D03*
Y179636D02*
D03*
X703000Y246100D02*
D03*
X722600D02*
D03*
X742200D02*
D03*
X752000D02*
D03*
X683400D02*
D03*
X693200D02*
D03*
X712800D02*
D03*
X732400D02*
D03*
X364100Y263200D02*
D03*
X383700D02*
D03*
X403300D02*
D03*
X413100D02*
D03*
X344500D02*
D03*
X354300D02*
D03*
X373900D02*
D03*
X393500D02*
D03*
X269800Y226400D02*
D03*
Y246000D02*
D03*
Y216600D02*
D03*
Y236200D02*
D03*
X36800Y174075D02*
D03*
Y205925D02*
D03*
Y237775D02*
D03*
Y142225D02*
D03*
Y158150D02*
D03*
Y190000D02*
D03*
Y221850D02*
D03*
X46600Y174075D02*
D03*
Y205925D02*
D03*
Y237775D02*
D03*
Y142225D02*
D03*
Y158150D02*
D03*
Y190000D02*
D03*
Y221850D02*
D03*
X56400Y205925D02*
D03*
Y237775D02*
D03*
Y190000D02*
D03*
Y221850D02*
D03*
X66200Y205925D02*
D03*
Y237775D02*
D03*
Y190000D02*
D03*
Y221850D02*
D03*
X46600Y253700D02*
D03*
X36800D02*
D03*
X66200D02*
D03*
X56400D02*
D03*
X76000Y221850D02*
D03*
Y190000D02*
D03*
Y253700D02*
D03*
Y237775D02*
D03*
Y205925D02*
D03*
X170000Y231180D02*
D03*
Y208260D02*
D03*
Y185340D02*
D03*
Y254100D02*
D03*
Y242640D02*
D03*
Y219720D02*
D03*
Y196800D02*
D03*
X663100Y607000D02*
D03*
Y600950D02*
D03*
Y613050D02*
D03*
X663600Y749950D02*
D03*
Y743900D02*
D03*
Y756000D02*
D03*
X446200Y754500D02*
D03*
Y748450D02*
D03*
Y760550D02*
D03*
X227800Y753900D02*
D03*
Y747850D02*
D03*
Y759950D02*
D03*
X228998Y608725D02*
D03*
Y602675D02*
D03*
Y614775D02*
D03*
X664300Y464650D02*
D03*
Y458600D02*
D03*
X664700Y313750D02*
D03*
Y307700D02*
D03*
Y319800D02*
D03*
X448500D02*
D03*
Y307700D02*
D03*
Y313750D02*
D03*
X445200Y463400D02*
D03*
Y451300D02*
D03*
Y457350D02*
D03*
X14700Y259175D02*
D03*
Y238000D02*
D03*
Y248587D02*
D03*
X741600Y227076D02*
D03*
X817475Y155576D02*
D03*
X826050Y149076D02*
D03*
X834625Y142576D02*
D03*
X850600Y405900D02*
D03*
X841900Y399900D02*
D03*
X783175Y181576D02*
D03*
X774600Y188076D02*
D03*
X791750Y175076D02*
D03*
X800325Y168576D02*
D03*
X808900Y162076D02*
D03*
X800325Y387897D02*
D03*
X783175Y375892D02*
D03*
X791750Y381895D02*
D03*
X808900Y393900D02*
D03*
X774600Y369890D02*
D03*
X93400Y697100D02*
D03*
X144853Y245100D02*
D03*
X134860D02*
D03*
X126790Y207950D02*
D03*
X118720Y201450D02*
D03*
X110650Y194950D02*
D03*
X102580Y188450D02*
D03*
X93400Y181950D02*
D03*
X230436Y201450D02*
D03*
X239958D02*
D03*
X249479D02*
D03*
X259000D02*
D03*
X199647Y547800D02*
D03*
X187900D02*
D03*
X259000Y517400D02*
D03*
X211394Y547800D02*
D03*
X220915Y541720D02*
D03*
X230437Y535640D02*
D03*
X239958Y529560D02*
D03*
X249479Y523480D02*
D03*
X118720Y685033D02*
D03*
X142930Y666933D02*
D03*
X102580Y697100D02*
D03*
X110650Y691067D02*
D03*
X126790Y679000D02*
D03*
X151000Y660900D02*
D03*
X134860Y672967D02*
D03*
D65*
X16466Y44932D02*
D03*
Y28466D02*
D03*
Y12000D02*
D03*
X32932D02*
D03*
X812000Y8000D02*
D03*
X820000Y0D02*
D03*
X883534Y28466D02*
D03*
Y12000D02*
D03*
X867068D02*
D03*
X787566Y16000D02*
D03*
X771100D02*
D03*
X754634D02*
D03*
X804032D02*
D03*
X869398Y0D02*
D03*
X852932D02*
D03*
X836466D02*
D03*
X885863D02*
D03*
X900000Y12000D02*
D03*
Y324851D02*
D03*
Y341317D02*
D03*
Y275454D02*
D03*
Y291919D02*
D03*
Y308385D02*
D03*
Y242522D02*
D03*
Y258988D02*
D03*
X890074Y348948D02*
D03*
Y551072D02*
D03*
X880800Y539350D02*
D03*
Y424089D02*
D03*
Y374692D02*
D03*
Y391157D02*
D03*
Y407623D02*
D03*
Y358226D02*
D03*
Y522884D02*
D03*
Y473487D02*
D03*
Y489952D02*
D03*
Y506418D02*
D03*
Y440555D02*
D03*
Y457021D02*
D03*
X899990Y562890D02*
D03*
X867058Y859275D02*
D03*
X883524D02*
D03*
X867058Y875741D02*
D03*
X883524D02*
D03*
X850592D02*
D03*
Y892207D02*
D03*
X867058D02*
D03*
X883524D02*
D03*
X834127D02*
D03*
X888751Y900000D02*
D03*
X839354D02*
D03*
X855819D02*
D03*
X872285D02*
D03*
X806422D02*
D03*
X822888D02*
D03*
X899990Y875741D02*
D03*
Y892207D02*
D03*
Y826344D02*
D03*
Y842810D02*
D03*
Y859275D02*
D03*
Y793412D02*
D03*
Y809878D02*
D03*
X563900Y885350D02*
D03*
X575900Y900000D02*
D03*
X551900Y870700D02*
D03*
X356300Y897300D02*
D03*
X360700Y885350D02*
D03*
X372700Y870700D02*
D03*
X324851Y900000D02*
D03*
X341317D02*
D03*
X486037Y870700D02*
D03*
X469571D02*
D03*
X535434D02*
D03*
X518968D02*
D03*
X502502D02*
D03*
X438563D02*
D03*
X455029D02*
D03*
X389166D02*
D03*
X405632D02*
D03*
X422098D02*
D03*
X291919Y900000D02*
D03*
X308385D02*
D03*
X242522D02*
D03*
X258988D02*
D03*
X275454D02*
D03*
X65853Y875701D02*
D03*
Y892167D02*
D03*
X82319D02*
D03*
X32922D02*
D03*
X16456D02*
D03*
X49388D02*
D03*
X32922Y859235D02*
D03*
X16456D02*
D03*
X49388D02*
D03*
X32922Y875701D02*
D03*
X16456D02*
D03*
X49388D02*
D03*
X12000Y900000D02*
D03*
X-10Y875701D02*
D03*
Y892167D02*
D03*
Y842769D02*
D03*
Y859235D02*
D03*
Y793372D02*
D03*
Y809838D02*
D03*
Y826304D02*
D03*
X9896Y551022D02*
D03*
X-10Y562850D02*
D03*
X19200Y541774D02*
D03*
X700Y340700D02*
D03*
X12000Y349652D02*
D03*
X19200Y360650D02*
D03*
X0Y324851D02*
D03*
X19200Y508843D02*
D03*
Y525309D02*
D03*
Y459445D02*
D03*
Y475911D02*
D03*
Y492377D02*
D03*
Y426513D02*
D03*
Y442979D02*
D03*
Y377116D02*
D03*
Y393582D02*
D03*
Y410048D02*
D03*
X0Y291919D02*
D03*
Y308385D02*
D03*
Y242522D02*
D03*
Y258988D02*
D03*
Y275454D02*
D03*
X3693Y3254D02*
D03*
X88000Y8000D02*
D03*
X0Y12000D02*
D03*
X30602Y0D02*
D03*
X14137D02*
D03*
X80000D02*
D03*
X63534D02*
D03*
X47068D02*
D03*
X608832Y900000D02*
D03*
X592366D02*
D03*
X658229D02*
D03*
X641763D02*
D03*
X625298D02*
D03*
X707627D02*
D03*
X691161D02*
D03*
X674695D02*
D03*
X757024D02*
D03*
X740558D02*
D03*
X724093D02*
D03*
X789956D02*
D03*
X773490D02*
D03*
X44932D02*
D03*
X28466D02*
D03*
X94329D02*
D03*
X77863D02*
D03*
X61398D02*
D03*
X143727D02*
D03*
X127261D02*
D03*
X110795D02*
D03*
X193124D02*
D03*
X176658D02*
D03*
X160193D02*
D03*
X226056D02*
D03*
X209590D02*
D03*
X-10Y595782D02*
D03*
Y579316D02*
D03*
Y645179D02*
D03*
Y628713D02*
D03*
Y612248D02*
D03*
Y694577D02*
D03*
Y678111D02*
D03*
Y661645D02*
D03*
Y743974D02*
D03*
Y727509D02*
D03*
Y711043D02*
D03*
Y776906D02*
D03*
Y760440D02*
D03*
X899990Y595822D02*
D03*
Y579356D02*
D03*
Y645219D02*
D03*
Y628753D02*
D03*
Y612288D02*
D03*
Y694617D02*
D03*
Y678151D02*
D03*
Y661685D02*
D03*
Y744014D02*
D03*
Y727549D02*
D03*
Y711083D02*
D03*
Y776946D02*
D03*
Y760480D02*
D03*
X0Y44932D02*
D03*
Y28466D02*
D03*
Y94329D02*
D03*
Y77863D02*
D03*
Y61398D02*
D03*
Y143727D02*
D03*
Y127261D02*
D03*
Y110795D02*
D03*
Y193124D02*
D03*
Y176658D02*
D03*
Y160193D02*
D03*
Y226056D02*
D03*
Y209590D02*
D03*
X900000Y44932D02*
D03*
Y28466D02*
D03*
Y94329D02*
D03*
Y77863D02*
D03*
Y61398D02*
D03*
Y143727D02*
D03*
Y127261D02*
D03*
Y110795D02*
D03*
Y193124D02*
D03*
Y176658D02*
D03*
Y160193D02*
D03*
Y226056D02*
D03*
Y209590D02*
D03*
X557044Y16000D02*
D03*
X540578D02*
D03*
X606441D02*
D03*
X589976D02*
D03*
X573510D02*
D03*
X655839D02*
D03*
X639373D02*
D03*
X622907D02*
D03*
X705237D02*
D03*
X688771D02*
D03*
X672305D02*
D03*
X738168D02*
D03*
X721702D02*
D03*
X342988D02*
D03*
X326522D02*
D03*
X392385D02*
D03*
X375919D02*
D03*
X359454D02*
D03*
X441783D02*
D03*
X425317D02*
D03*
X408851D02*
D03*
X491180D02*
D03*
X474715D02*
D03*
X458249D02*
D03*
X524112D02*
D03*
X507646D02*
D03*
X293590D02*
D03*
X310056D02*
D03*
X244193D02*
D03*
X260659D02*
D03*
X277124D02*
D03*
X194795D02*
D03*
X211261D02*
D03*
X227727D02*
D03*
X145398D02*
D03*
X161863D02*
D03*
X178329D02*
D03*
X96000D02*
D03*
X112466D02*
D03*
X128932D02*
D03*
D66*
X713700Y106800D02*
X727875Y92625D01*
X703700Y106800D02*
Y214076D01*
Y106800D02*
X713700D01*
X645800D02*
X703700D01*
X645900Y100200D02*
X694817D01*
X711117Y83900D01*
X736964D01*
X739600Y92200D02*
Y103200D01*
X711100Y131700D02*
X739600Y103200D01*
X711100Y131700D02*
Y220576D01*
X739600Y86536D02*
Y92200D01*
X736964Y83900D02*
X739600Y86536D01*
X541400Y254700D02*
X575524Y220576D01*
X711100D01*
X326400Y254700D02*
X541400D01*
X311000Y239300D02*
X326400Y254700D01*
X311000Y184100D02*
Y239300D01*
X538300Y248100D02*
X572324Y214076D01*
X703700D01*
X329100Y248100D02*
X538300D01*
X317700Y236700D02*
X329100Y248100D01*
X317700Y191400D02*
Y236700D01*
D67*
X449850Y288000D02*
D03*
D68*
X754450Y512100D02*
D03*
D69*
X288950Y262650D02*
D03*
M02*
