G04*
G04 #@! TF.GenerationSoftware,Altium Limited,Altium Designer,24.1.2 (44)*
G04*
G04 Layer_Color=0*
%FSLAX44Y44*%
%MOMM*%
G71*
G04*
G04 #@! TF.SameCoordinates,32799FE6-DD90-4EFC-9ADB-317E97FF397D*
G04*
G04*
G04 #@! TF.FilePolarity,Positive*
G04*
G01*
G75*
%ADD98C,0.0254*%
D98*
X-54Y11998D02*
X-54Y337090D01*
X-54Y337150D01*
D02*
G02*
X9907Y349021I12054J0D01*
G01*
X9930Y349020D01*
D02*
G03*
X19146Y360650I-2730J11630D01*
G01*
Y539350D01*
D02*
G03*
X9924Y550981I-11946J0D01*
G01*
X9897Y550979D01*
D02*
G02*
X-64Y562850I2093J11871D01*
G01*
X-54Y562881D01*
X-54Y888000D01*
D02*
G02*
X12000Y900054I12054J0D01*
G01*
X348700Y900054D01*
D02*
G02*
X360754Y888000I0J-12054D01*
G01*
Y882700D01*
D02*
G03*
X372700Y870754I11946J0D01*
G01*
X372728Y870654D01*
X551872D01*
X551900Y870754D01*
D02*
G03*
X563846Y882700I0J11946D01*
G01*
Y888002D01*
D02*
G02*
X575900Y900054I12053J-1D01*
G01*
X888000D01*
D02*
G02*
X900054Y888000I-0J-12054D01*
G01*
X900054Y562770D01*
X900043Y562737D01*
D02*
G02*
X890770Y551161I-12053J153D01*
G01*
X890725Y551115D01*
D02*
G03*
X880854Y539350I2074J-11765D01*
G01*
Y360650D01*
D02*
G03*
X890725Y348885I11946J0D01*
G01*
X890762Y348861D01*
D02*
G02*
X900041Y337374I-2772J-11731D01*
G01*
X900054Y337340D01*
Y11430D01*
X900039Y11392D01*
D02*
G02*
X888002Y-54I-12039J608D01*
G01*
X819900Y-54D01*
X819891Y-53D01*
D02*
G02*
X811946Y8000I109J8053D01*
G01*
D02*
G03*
X804002Y15946I-7946J0D01*
G01*
X96000Y15946D01*
D02*
G03*
X88054Y8000I1J-7947D01*
G01*
D02*
G02*
X80109Y-53I-8054J0D01*
G01*
X80100Y-54D01*
X12000D01*
D02*
G02*
X-54Y11998I0J12054D01*
G01*
M02*
