G04*
G04 #@! TF.GenerationSoftware,Altium Limited,Altium Designer,24.1.2 (44)*
G04*
G04 Layer_Color=16711935*
%FSLAX44Y44*%
%MOMM*%
G71*
G04*
G04 #@! TF.SameCoordinates,32799FE6-DD90-4EFC-9ADB-317E97FF397D*
G04*
G04*
G04 #@! TF.FilePolarity,Positive*
G04*
G01*
G75*
%ADD10C,0.2000*%
%ADD14C,0.1000*%
%ADD15C,0.1524*%
%ADD96C,0.1270*%
D10*
X639600Y71001D02*
X637600D01*
X639600D01*
D14*
X193400Y54700D02*
X192730Y57200D01*
X190900Y59030D01*
X188400Y59700D01*
X185900Y59030D01*
X184070Y57200D01*
X183400Y54700D01*
X184070Y52200D01*
X185900Y50370D01*
X188400Y49700D01*
X190900Y50370D01*
X192730Y52200D01*
X193400Y54700D01*
X471500Y176900D02*
X470830Y179400D01*
X469000Y181230D01*
X466500Y181900D01*
X464000Y181230D01*
X462170Y179400D01*
X461500Y176900D01*
X462170Y174400D01*
X464000Y172570D01*
X466500Y171900D01*
X469000Y172570D01*
X470830Y174400D01*
X471500Y176900D01*
X377500Y149180D02*
X376830Y151680D01*
X375000Y153510D01*
X372500Y154180D01*
X370000Y153510D01*
X368170Y151680D01*
X367500Y149180D01*
X368170Y146680D01*
X370000Y144850D01*
X372500Y144180D01*
X375000Y144850D01*
X376830Y146680D01*
X377500Y149180D01*
X759700Y78500D02*
X759030Y81000D01*
X757200Y82830D01*
X754700Y83500D01*
X752200Y82830D01*
X750370Y81000D01*
X749700Y78500D01*
X750370Y76000D01*
X752200Y74170D01*
X754700Y73500D01*
X757200Y74170D01*
X759030Y76000D01*
X759700Y78500D01*
X596700Y97500D02*
X596030Y100000D01*
X594200Y101830D01*
X591700Y102500D01*
X589200Y101830D01*
X587370Y100000D01*
X586700Y97500D01*
X587370Y95000D01*
X589200Y93170D01*
X591700Y92500D01*
X594200Y93170D01*
X596030Y95000D01*
X596700Y97500D01*
X146400Y45700D02*
Y85700D01*
X197400Y45700D02*
Y85700D01*
X146400D02*
X197400D01*
X146400Y45700D02*
X197400D01*
X424500Y167900D02*
Y207900D01*
X475500Y167900D02*
Y207900D01*
X424500D02*
X475500D01*
X424500Y167900D02*
X475500D01*
X363500Y107180D02*
X403500D01*
X363500Y158180D02*
X403500D01*
Y107180D02*
Y158180D01*
X363500Y107180D02*
Y158180D01*
X244300Y109380D02*
Y185380D01*
X313300Y109380D02*
Y185380D01*
X244300Y109380D02*
X313300D01*
X244300Y185380D02*
X313300D01*
X763700Y55500D02*
Y87500D01*
X731700Y55500D02*
Y87500D01*
X763700D01*
X731700Y55500D02*
X763700D01*
X582700Y118500D02*
X626700D01*
X582700Y88500D02*
X626700D01*
Y118500D01*
X582700Y88500D02*
Y118500D01*
D15*
X532148Y85406D02*
X531255Y87561D01*
X529100Y88454D01*
X526945Y87561D01*
X526052Y85406D01*
X513606Y89470D02*
Y92264D01*
X503700Y89470D02*
X513606D01*
X503700D02*
Y92264D01*
X513606D01*
Y94550D02*
Y97344D01*
X503700Y94550D02*
X513606D01*
X503700D02*
Y97344D01*
X513606D01*
Y99376D02*
Y102424D01*
X503700Y99630D02*
X513606Y99376D01*
X503700Y99630D02*
Y102424D01*
X513606D01*
Y104456D02*
Y107250D01*
X503700Y104456D02*
X513606D01*
X503700D02*
Y107250D01*
X513606D01*
Y109536D02*
Y112330D01*
X503700Y109536D02*
X513606D01*
X503700D02*
Y112330D01*
X513606D01*
X544594Y109536D02*
Y112330D01*
X554500D01*
Y109536D02*
Y112330D01*
X544594Y109536D02*
X554500D01*
X544594Y104456D02*
Y107250D01*
X554500D01*
Y104456D02*
Y107250D01*
X544594Y104456D02*
X554500D01*
X544594Y99376D02*
Y102424D01*
X554500Y102170D01*
Y99376D02*
Y102170D01*
X544594Y99376D02*
X554500D01*
X544594Y94550D02*
Y97344D01*
X554500D01*
Y94550D02*
Y97344D01*
X544594Y94550D02*
X554500D01*
X544594Y89470D02*
Y92264D01*
X554500D01*
Y89470D02*
Y92264D01*
X544594Y89470D02*
X554500D01*
X513606Y116394D02*
X544594D01*
Y85406D02*
Y116394D01*
X532148Y85406D02*
X544594D01*
X526052D02*
X532148D01*
X513606D02*
X526052D01*
X513606D02*
Y116394D01*
D96*
X609600Y68001D02*
X629600D01*
X609600D02*
Y88001D01*
X629600D01*
Y68001D02*
Y88001D01*
M02*
