G04*
G04 #@! TF.GenerationSoftware,Altium Limited,Altium Designer,24.1.2 (44)*
G04*
G04 Layer_Physical_Order=1*
G04 Layer_Color=255*
%FSLAX44Y44*%
%MOMM*%
G71*
G04*
G04 #@! TF.SameCoordinates,32799FE6-DD90-4EFC-9ADB-317E97FF397D*
G04*
G04*
G04 #@! TF.FilePolarity,Positive*
G04*
G01*
G75*
%ADD11C,0.6000*%
%ADD12C,0.2500*%
%ADD17C,1.0000*%
%ADD18R,3.2000X4.0000*%
%ADD19R,4.0000X3.2000*%
%ADD20R,2.2860X2.3000*%
%ADD21R,0.9000X0.6000*%
G04:AMPARAMS|DCode=22|XSize=0.6mm|YSize=0.25mm|CornerRadius=0.0463mm|HoleSize=0mm|Usage=FLASHONLY|Rotation=180.000|XOffset=0mm|YOffset=0mm|HoleType=Round|Shape=RoundedRectangle|*
%AMROUNDEDRECTD22*
21,1,0.6000,0.1575,0,0,180.0*
21,1,0.5075,0.2500,0,0,180.0*
1,1,0.0925,-0.2537,0.0788*
1,1,0.0925,0.2537,0.0788*
1,1,0.0925,0.2537,-0.0788*
1,1,0.0925,-0.2537,-0.0788*
%
%ADD22ROUNDEDRECTD22*%
%ADD23R,0.8000X0.9000*%
%ADD24R,0.6000X0.9000*%
%ADD25R,0.9000X0.8000*%
%ADD26R,2.3000X2.8000*%
%ADD27O,1.8000X0.6000*%
%ADD28R,0.4000X0.8500*%
%ADD29R,3.1500X3.3000*%
G04:AMPARAMS|DCode=47|XSize=0.3mm|YSize=2.4mm|CornerRadius=0.0555mm|HoleSize=0mm|Usage=FLASHONLY|Rotation=180.000|XOffset=0mm|YOffset=0mm|HoleType=Round|Shape=RoundedRectangle|*
%AMROUNDEDRECTD47*
21,1,0.3000,2.2890,0,0,180.0*
21,1,0.1890,2.4000,0,0,180.0*
1,1,0.1110,-0.0945,1.1445*
1,1,0.1110,0.0945,1.1445*
1,1,0.1110,0.0945,-1.1445*
1,1,0.1110,-0.0945,-1.1445*
%
%ADD47ROUNDEDRECTD47*%
G04:AMPARAMS|DCode=48|XSize=0.6mm|YSize=0.3mm|CornerRadius=0.0555mm|HoleSize=0mm|Usage=FLASHONLY|Rotation=180.000|XOffset=0mm|YOffset=0mm|HoleType=Round|Shape=RoundedRectangle|*
%AMROUNDEDRECTD48*
21,1,0.6000,0.1890,0,0,180.0*
21,1,0.4890,0.3000,0,0,180.0*
1,1,0.1110,-0.2445,0.0945*
1,1,0.1110,0.2445,0.0945*
1,1,0.1110,0.2445,-0.0945*
1,1,0.1110,-0.2445,-0.0945*
%
%ADD48ROUNDEDRECTD48*%
%ADD49C,0.4000*%
%ADD50C,0.3000*%
%ADD51C,0.5000*%
%ADD52C,0.8000*%
%ADD53R,4.8100X4.6900*%
%ADD54R,7.5100X4.6900*%
%ADD55R,8.6100X4.8600*%
%ADD56R,4.8300X4.9900*%
%ADD57R,3.4800X1.7800*%
%ADD58R,1.2100X2.5800*%
%ADD59C,1.6000*%
%ADD60O,0.9500X1.7000*%
%ADD61C,6.3500*%
%ADD62C,1.5240*%
%ADD63C,0.7000*%
%ADD64C,0.4000*%
%ADD65C,0.3500*%
G36*
X575900Y892940D02*
X821461D01*
Y882950D01*
X821144D01*
X815897Y882119D01*
X810844Y880477D01*
X806111Y878066D01*
X801813Y874943D01*
X798057Y871187D01*
X794934Y866889D01*
X792523Y862156D01*
X790881Y857103D01*
X790050Y851856D01*
Y846544D01*
X790881Y841297D01*
X792523Y836245D01*
X794934Y831511D01*
X798057Y827213D01*
X801813Y823457D01*
X806111Y820334D01*
X810844Y817923D01*
X815897Y816281D01*
X821144Y815450D01*
X826456D01*
X831703Y816281D01*
X836756Y817923D01*
X841489Y820334D01*
X845787Y823457D01*
X849543Y827213D01*
X852666Y831511D01*
X855077Y836245D01*
X856719Y841297D01*
X857550Y846544D01*
Y847261D01*
X892930D01*
Y562890D01*
X892941Y562803D01*
X892580Y560989D01*
X891503Y559377D01*
X890033Y558395D01*
X888836Y558090D01*
X888246Y557892D01*
X887629Y557636D01*
X885494Y556989D01*
X882193Y555224D01*
X879300Y552850D01*
X876926Y549957D01*
X875161Y546656D01*
X874075Y543075D01*
X873708Y539350D01*
X873740D01*
Y360650D01*
X873708D01*
X874075Y356925D01*
X875161Y353344D01*
X876926Y350043D01*
X879300Y347150D01*
X882193Y344776D01*
X885494Y343011D01*
X887706Y342340D01*
X887928Y342260D01*
X888246Y342128D01*
X888836Y341930D01*
X890033Y341625D01*
X891503Y340643D01*
X892580Y339031D01*
X892723Y338314D01*
X892930Y337130D01*
X892930Y337130D01*
X892940Y335864D01*
Y52939D01*
X884650D01*
Y53452D01*
X883819Y58699D01*
X882177Y63751D01*
X879766Y68484D01*
X876643Y72782D01*
X872887Y76539D01*
X868589Y79661D01*
X863856Y82073D01*
X858803Y83715D01*
X853556Y84545D01*
X848244D01*
X842997Y83715D01*
X837944Y82073D01*
X833211Y79661D01*
X828913Y76539D01*
X825157Y72782D01*
X822034Y68484D01*
X819623Y63751D01*
X817981Y58699D01*
X817150Y53452D01*
Y48139D01*
X817981Y42892D01*
X819623Y37840D01*
X822034Y33107D01*
X825157Y28809D01*
X828913Y25052D01*
X833211Y21930D01*
X837944Y19518D01*
X842997Y17877D01*
X848244Y17046D01*
X848661D01*
Y7060D01*
X820000D01*
X819990Y7059D01*
X819929Y7085D01*
X819073Y8000D01*
X818783Y10941D01*
X817925Y13768D01*
X816532Y16374D01*
X814658Y18658D01*
X812374Y20532D01*
X809768Y21925D01*
X806941Y22783D01*
X804000Y23073D01*
Y23060D01*
X804000Y23060D01*
X445713D01*
X445187Y24330D01*
X445491Y24634D01*
X446100Y26104D01*
Y27696D01*
X446004Y27926D01*
X446710Y28983D01*
X469100D01*
X469494Y29061D01*
X481300D01*
X482080Y29216D01*
X482742Y29658D01*
X483184Y30320D01*
X483339Y31100D01*
Y56900D01*
X483184Y57680D01*
X482742Y58342D01*
X482080Y58784D01*
X481300Y58939D01*
X469200D01*
X469146Y58928D01*
X467889Y58740D01*
X467005Y60063D01*
X467005Y60063D01*
X466978Y60089D01*
Y62308D01*
X467891D01*
Y75308D01*
X457891D01*
Y62308D01*
X458822D01*
Y58400D01*
X458822Y58400D01*
X459132Y56839D01*
X460016Y55516D01*
X460042Y55490D01*
Y48208D01*
X460121Y47814D01*
Y41958D01*
X459157Y41217D01*
X452199D01*
Y48208D01*
X452121Y48602D01*
Y54458D01*
X444121D01*
Y48602D01*
X444043Y48208D01*
Y41217D01*
X436827D01*
X435757Y41700D01*
X435757Y42488D01*
Y53700D01*
X434355D01*
Y62800D01*
X435757D01*
Y74800D01*
X422757D01*
Y62800D01*
X424159D01*
Y53700D01*
X422757D01*
X422757Y41700D01*
X421687Y41217D01*
X418827D01*
X417757Y41700D01*
Y53700D01*
X411848D01*
X411257Y53818D01*
X410666Y53700D01*
X404757D01*
Y41700D01*
X403687Y41217D01*
X401570D01*
X400500Y41700D01*
X400500Y42488D01*
Y53700D01*
X399098D01*
Y62800D01*
X400500D01*
Y74800D01*
X387500D01*
Y62800D01*
X388902D01*
Y53700D01*
X387500D01*
X387500Y41700D01*
X386430Y41217D01*
X383570D01*
X382500Y41700D01*
Y53700D01*
X376591D01*
X376000Y53818D01*
X375409Y53700D01*
X369500D01*
Y41700D01*
X368466Y41131D01*
X366559Y40752D01*
X364574Y39426D01*
X363866Y38718D01*
X302434D01*
X296639Y44512D01*
Y135286D01*
X296648Y135330D01*
Y137738D01*
X309604Y150694D01*
X329799D01*
X330291Y150792D01*
X336299D01*
Y152000D01*
X337569Y152386D01*
X338016Y151716D01*
X340886Y148846D01*
X340886Y148846D01*
X342209Y147962D01*
X343770Y147652D01*
X346354D01*
X347299Y147020D01*
X349250Y146632D01*
X361250D01*
X363201Y147020D01*
X364855Y148125D01*
X365960Y149779D01*
X366348Y151730D01*
X365960Y153681D01*
X364855Y155335D01*
X363201Y156440D01*
X361250Y156828D01*
X349250D01*
X347299Y156440D01*
X346354Y155808D01*
X345459D01*
X344978Y156289D01*
Y166572D01*
X344668Y168133D01*
X343784Y169456D01*
X343784Y169456D01*
X341441Y171800D01*
X340118Y172684D01*
X338557Y172994D01*
X338557Y172994D01*
X335800D01*
Y175380D01*
X323800D01*
Y162380D01*
X335348D01*
X335882Y161712D01*
X335532Y160792D01*
X330291D01*
X329799Y160890D01*
X307492D01*
X305541Y160502D01*
X303887Y159397D01*
X287945Y143455D01*
X286840Y141801D01*
X286452Y139850D01*
Y138439D01*
X248700D01*
X247920Y138284D01*
X247258Y137842D01*
X246816Y137180D01*
X246661Y136400D01*
Y37900D01*
X246816Y37120D01*
X247258Y36458D01*
X247920Y36016D01*
X248700Y35861D01*
X261531D01*
X262031Y34591D01*
X261500Y33310D01*
Y31718D01*
X262109Y30248D01*
X263234Y29123D01*
X264704Y28514D01*
X266296D01*
X267766Y29123D01*
X268891Y30248D01*
X269500Y31718D01*
Y33310D01*
X268969Y34591D01*
X269469Y35861D01*
X287988D01*
X295574Y28274D01*
X297559Y26948D01*
X299900Y26483D01*
X366400D01*
X368741Y26948D01*
X370726Y28274D01*
X371434Y28983D01*
X381490D01*
X382196Y27926D01*
X382100Y27696D01*
Y26104D01*
X382709Y24634D01*
X383013Y24330D01*
X382487Y23060D01*
X96000D01*
X96000Y23060D01*
Y23073D01*
X93060Y22783D01*
X90232Y21925D01*
X87626Y20532D01*
X85342Y18658D01*
X83468Y16374D01*
X82075Y13768D01*
X81217Y10941D01*
X80927Y8000D01*
X80071Y7085D01*
X80010Y7059D01*
X80000Y7060D01*
X52639D01*
Y17046D01*
X53456D01*
X58703Y17877D01*
X63755Y19518D01*
X68489Y21930D01*
X72787Y25052D01*
X76543Y28809D01*
X79666Y33107D01*
X82077Y37840D01*
X83719Y42892D01*
X84550Y48139D01*
Y53452D01*
X83719Y58699D01*
X82077Y63751D01*
X79666Y68484D01*
X76543Y72782D01*
X72787Y76539D01*
X68489Y79661D01*
X63755Y82073D01*
X58703Y83715D01*
X53456Y84545D01*
X48144D01*
X42897Y83715D01*
X37845Y82073D01*
X33111Y79661D01*
X28813Y76539D01*
X25057Y72782D01*
X21934Y68484D01*
X19523Y63751D01*
X17881Y58699D01*
X17111Y53839D01*
X7060D01*
Y337150D01*
X7049Y337237D01*
X7410Y339051D01*
X8487Y340663D01*
X9956Y341645D01*
X11154Y341950D01*
X11744Y342148D01*
X11800Y342171D01*
X12296Y342341D01*
X14506Y343011D01*
X17807Y344776D01*
X20700Y347150D01*
X23074Y350043D01*
X24839Y353344D01*
X25925Y356925D01*
X26292Y360650D01*
X26260D01*
Y539350D01*
X26292D01*
X25925Y543075D01*
X24839Y546656D01*
X23074Y549957D01*
X20700Y552850D01*
X17807Y555224D01*
X14506Y556989D01*
X12287Y557662D01*
X11767Y557839D01*
X11734Y557852D01*
X11144Y558050D01*
X9947Y558355D01*
X8477Y559337D01*
X7400Y560949D01*
X7044Y562736D01*
X7060Y562860D01*
Y847261D01*
X55150D01*
Y846544D01*
X55981Y841297D01*
X57623Y836245D01*
X60034Y831511D01*
X63157Y827213D01*
X66913Y823457D01*
X71211Y820334D01*
X75944Y817923D01*
X80997Y816281D01*
X86244Y815450D01*
X91556D01*
X96803Y816281D01*
X101855Y817923D01*
X106589Y820334D01*
X110887Y823457D01*
X114643Y827213D01*
X117766Y831511D01*
X120177Y836245D01*
X121819Y841297D01*
X122650Y846544D01*
Y851856D01*
X121819Y857103D01*
X120177Y862156D01*
X117766Y866889D01*
X114643Y871187D01*
X110887Y874943D01*
X106589Y878066D01*
X101855Y880477D01*
X96803Y882119D01*
X91556Y882950D01*
X91539D01*
Y892940D01*
X348700D01*
X348787Y892951D01*
X350601Y892590D01*
X352213Y891513D01*
X353290Y889901D01*
X353651Y888087D01*
X353640Y888000D01*
Y882700D01*
X353608D01*
X353975Y878975D01*
X355061Y875394D01*
X356826Y872093D01*
X359200Y869200D01*
X362093Y866826D01*
X365394Y865061D01*
X368975Y863975D01*
X372700Y863608D01*
Y863640D01*
X551900D01*
Y863608D01*
X555625Y863975D01*
X559206Y865061D01*
X562507Y866826D01*
X565400Y869200D01*
X567774Y872093D01*
X569539Y875394D01*
X570625Y878975D01*
X570992Y882700D01*
X570960D01*
X570960Y882700D01*
Y886736D01*
X570960Y886763D01*
X570960Y888000D01*
X571167Y889184D01*
X571310Y889901D01*
X572387Y891513D01*
X573999Y892590D01*
X575813Y892951D01*
X575900Y892940D01*
D02*
G37*
G36*
X294600Y37900D02*
X248700D01*
Y136400D01*
X294600D01*
Y37900D01*
D02*
G37*
%LPC*%
G36*
X832255Y767779D02*
X830068D01*
X828046Y766941D01*
X826499Y765394D01*
X825661Y763373D01*
Y761185D01*
X826499Y759163D01*
X828046Y757616D01*
X830068Y756779D01*
X832255D01*
X834277Y757616D01*
X835824Y759163D01*
X836662Y761185D01*
Y763373D01*
X835824Y765394D01*
X834277Y766941D01*
X832255Y767779D01*
D02*
G37*
G36*
X723456D02*
X721267D01*
X719246Y766941D01*
X717699Y765394D01*
X716861Y763373D01*
Y761185D01*
X717699Y759163D01*
X719246Y757616D01*
X721267Y756779D01*
X723456D01*
X725477Y757616D01*
X727024Y759163D01*
X727861Y761185D01*
Y763373D01*
X727024Y765394D01*
X725477Y766941D01*
X723456Y767779D01*
D02*
G37*
G36*
X614655D02*
X612467D01*
X610446Y766941D01*
X608899Y765394D01*
X608061Y763373D01*
Y761185D01*
X608899Y759163D01*
X610446Y757616D01*
X612467Y756779D01*
X614655D01*
X616677Y757616D01*
X618224Y759163D01*
X619062Y761185D01*
Y763373D01*
X618224Y765394D01*
X616677Y766941D01*
X614655Y767779D01*
D02*
G37*
G36*
X505855D02*
X503667D01*
X501646Y766941D01*
X500099Y765394D01*
X499262Y763373D01*
Y761185D01*
X500099Y759163D01*
X501646Y757616D01*
X503667Y756779D01*
X505855D01*
X507877Y757616D01*
X509424Y759163D01*
X510261Y761185D01*
Y763373D01*
X509424Y765394D01*
X507877Y766941D01*
X505855Y767779D01*
D02*
G37*
G36*
X397056D02*
X394868D01*
X392846Y766941D01*
X391299Y765394D01*
X390462Y763373D01*
Y761185D01*
X391299Y759163D01*
X392846Y757616D01*
X394868Y756779D01*
X397056D01*
X399077Y757616D01*
X400624Y759163D01*
X401461Y761185D01*
Y763373D01*
X400624Y765394D01*
X399077Y766941D01*
X397056Y767779D01*
D02*
G37*
G36*
X288256D02*
X286068D01*
X284046Y766941D01*
X282499Y765394D01*
X281662Y763373D01*
Y761185D01*
X282499Y759163D01*
X284046Y757616D01*
X286068Y756779D01*
X288256D01*
X290277Y757616D01*
X291824Y759163D01*
X292661Y761185D01*
Y763373D01*
X291824Y765394D01*
X290277Y766941D01*
X288256Y767779D01*
D02*
G37*
G36*
X179456D02*
X177268D01*
X175246Y766941D01*
X173699Y765394D01*
X172862Y763373D01*
Y761185D01*
X173699Y759163D01*
X175246Y757616D01*
X177268Y756779D01*
X179456D01*
X181477Y757616D01*
X183024Y759163D01*
X183862Y761185D01*
Y763373D01*
X183024Y765394D01*
X181477Y766941D01*
X179456Y767779D01*
D02*
G37*
G36*
X70656D02*
X68468D01*
X66446Y766941D01*
X64899Y765394D01*
X64062Y763373D01*
Y761185D01*
X64899Y759163D01*
X66446Y757616D01*
X68468Y756779D01*
X70656D01*
X72677Y757616D01*
X74224Y759163D01*
X75062Y761185D01*
Y763373D01*
X74224Y765394D01*
X72677Y766941D01*
X70656Y767779D01*
D02*
G37*
G36*
X446996Y764550D02*
X445404D01*
X443934Y763941D01*
X442809Y762816D01*
X442200Y761346D01*
Y759754D01*
X442809Y758284D01*
X443568Y757525D01*
X442809Y756766D01*
X442200Y755296D01*
Y753704D01*
X442809Y752234D01*
X443568Y751475D01*
X442809Y750716D01*
X442200Y749246D01*
Y747654D01*
X442809Y746184D01*
X443934Y745059D01*
X445404Y744450D01*
X446996D01*
X448466Y745059D01*
X449591Y746184D01*
X450200Y747654D01*
Y749246D01*
X449591Y750716D01*
X448832Y751475D01*
X449591Y752234D01*
X450200Y753704D01*
Y755296D01*
X449591Y756766D01*
X448832Y757525D01*
X449591Y758284D01*
X450200Y759754D01*
Y761346D01*
X449591Y762816D01*
X448466Y763941D01*
X446996Y764550D01*
D02*
G37*
G36*
X228596Y763950D02*
X227004D01*
X225534Y763341D01*
X224409Y762216D01*
X223800Y760746D01*
Y759154D01*
X224409Y757684D01*
X225168Y756925D01*
X224409Y756166D01*
X223800Y754696D01*
Y753104D01*
X224409Y751634D01*
X225168Y750875D01*
X224409Y750116D01*
X223800Y748646D01*
Y747054D01*
X224409Y745584D01*
X225534Y744459D01*
X227004Y743850D01*
X228596D01*
X230066Y744459D01*
X231191Y745584D01*
X231800Y747054D01*
Y748646D01*
X231191Y750116D01*
X230432Y750875D01*
X231191Y751634D01*
X231800Y753104D01*
Y754696D01*
X231191Y756166D01*
X230432Y756925D01*
X231191Y757684D01*
X231800Y759154D01*
Y760746D01*
X231191Y762216D01*
X230066Y763341D01*
X228596Y763950D01*
D02*
G37*
G36*
X664396Y760000D02*
X662804D01*
X661334Y759391D01*
X660209Y758266D01*
X659600Y756796D01*
Y755204D01*
X660209Y753734D01*
X660968Y752975D01*
X660209Y752216D01*
X659600Y750746D01*
Y749154D01*
X660209Y747684D01*
X660968Y746925D01*
X660209Y746166D01*
X659600Y744696D01*
Y743104D01*
X660209Y741634D01*
X661334Y740509D01*
X662804Y739900D01*
X664396D01*
X665866Y740509D01*
X666991Y741634D01*
X667600Y743104D01*
Y744696D01*
X666991Y746166D01*
X666232Y746925D01*
X666991Y747684D01*
X667600Y749154D01*
Y750746D01*
X666991Y752216D01*
X666232Y752975D01*
X666991Y753734D01*
X667600Y755204D01*
Y756796D01*
X666991Y758266D01*
X665866Y759391D01*
X664396Y760000D01*
D02*
G37*
G36*
X179456Y747780D02*
X177268D01*
X175246Y746943D01*
X173699Y745396D01*
X172862Y743374D01*
Y741186D01*
X173699Y739165D01*
X175246Y737617D01*
X177268Y736780D01*
X179456D01*
X181477Y737617D01*
X183024Y739165D01*
X183862Y741186D01*
Y743374D01*
X183024Y745396D01*
X181477Y746943D01*
X179456Y747780D01*
D02*
G37*
G36*
X832255Y747778D02*
X830068D01*
X828046Y746941D01*
X826499Y745394D01*
X825661Y743373D01*
Y741184D01*
X826499Y739163D01*
X828046Y737616D01*
X830068Y736779D01*
X832255D01*
X834277Y737616D01*
X835824Y739163D01*
X836662Y741184D01*
Y743373D01*
X835824Y745394D01*
X834277Y746941D01*
X832255Y747778D01*
D02*
G37*
G36*
X723456D02*
X721267D01*
X719246Y746941D01*
X717699Y745394D01*
X716861Y743373D01*
Y741184D01*
X717699Y739163D01*
X719246Y737616D01*
X721267Y736779D01*
X723456D01*
X725477Y737616D01*
X727024Y739163D01*
X727861Y741184D01*
Y743373D01*
X727024Y745394D01*
X725477Y746941D01*
X723456Y747778D01*
D02*
G37*
G36*
X614655D02*
X612467D01*
X610446Y746941D01*
X608899Y745394D01*
X608061Y743373D01*
Y741184D01*
X608899Y739163D01*
X610446Y737616D01*
X612467Y736779D01*
X614655D01*
X616677Y737616D01*
X618224Y739163D01*
X619062Y741184D01*
Y743373D01*
X618224Y745394D01*
X616677Y746941D01*
X614655Y747778D01*
D02*
G37*
G36*
X505855D02*
X503667D01*
X501646Y746941D01*
X500099Y745394D01*
X499262Y743373D01*
Y741184D01*
X500099Y739163D01*
X501646Y737616D01*
X503667Y736779D01*
X505855D01*
X507877Y737616D01*
X509424Y739163D01*
X510261Y741184D01*
Y743373D01*
X509424Y745394D01*
X507877Y746941D01*
X505855Y747778D01*
D02*
G37*
G36*
X397056D02*
X394868D01*
X392846Y746941D01*
X391299Y745394D01*
X390462Y743373D01*
Y741184D01*
X391299Y739163D01*
X392846Y737616D01*
X394868Y736779D01*
X397056D01*
X399077Y737616D01*
X400624Y739163D01*
X401461Y741184D01*
Y743373D01*
X400624Y745394D01*
X399077Y746941D01*
X397056Y747778D01*
D02*
G37*
G36*
X288256D02*
X286068D01*
X284046Y746941D01*
X282499Y745394D01*
X281662Y743373D01*
Y741184D01*
X282499Y739163D01*
X284046Y737616D01*
X286068Y736779D01*
X288256D01*
X290277Y737616D01*
X291824Y739163D01*
X292661Y741184D01*
Y743373D01*
X291824Y745394D01*
X290277Y746941D01*
X288256Y747778D01*
D02*
G37*
G36*
X70656D02*
X68468D01*
X66446Y746941D01*
X64899Y745394D01*
X64062Y743373D01*
Y741184D01*
X64899Y739163D01*
X66446Y737616D01*
X68468Y736779D01*
X70656D01*
X72677Y737616D01*
X74224Y739163D01*
X75062Y741184D01*
Y743373D01*
X74224Y745394D01*
X72677Y746941D01*
X70656Y747778D01*
D02*
G37*
G36*
X102580Y701178D02*
X102186Y701100D01*
X101784D01*
X101413Y700946D01*
X101019Y700868D01*
X100685Y700645D01*
X100314Y700491D01*
X100030Y700207D01*
X99696Y699984D01*
X99473Y699650D01*
X99189Y699366D01*
X99035Y698995D01*
X98812Y698661D01*
X98734Y698267D01*
X98580Y697896D01*
X97400D01*
X97246Y698267D01*
X97168Y698661D01*
X96945Y698995D01*
X96791Y699366D01*
X96507Y699650D01*
X96284Y699984D01*
X95950Y700207D01*
X95666Y700491D01*
X95295Y700645D01*
X94961Y700868D01*
X94567Y700946D01*
X94196Y701100D01*
X93794D01*
X93400Y701178D01*
X93006Y701100D01*
X92604D01*
X92233Y700946D01*
X91839Y700868D01*
X91505Y700645D01*
X91134Y700491D01*
X90850Y700207D01*
X90516Y699984D01*
X90293Y699650D01*
X90009Y699366D01*
X89855Y698995D01*
X89632Y698661D01*
X89554Y698267D01*
X89400Y697896D01*
Y697494D01*
X89322Y697100D01*
X89322Y181950D01*
X89400Y181556D01*
Y181154D01*
X89554Y180783D01*
X89632Y180389D01*
X89855Y180055D01*
X90009Y179684D01*
X90293Y179400D01*
X90516Y179066D01*
X90850Y178843D01*
X91134Y178559D01*
X91505Y178405D01*
X91839Y178182D01*
X92233Y178104D01*
X92604Y177950D01*
X93006D01*
X93400Y177872D01*
X93794Y177950D01*
X94196D01*
X94567Y178104D01*
X94961Y178182D01*
X95295Y178405D01*
X95666Y178559D01*
X95950Y178843D01*
X96284Y179066D01*
X96507Y179400D01*
X96791Y179684D01*
X96945Y180055D01*
X97168Y180389D01*
X97246Y180783D01*
X97400Y181154D01*
Y181556D01*
X97478Y181950D01*
Y186379D01*
X98748Y186930D01*
X98812Y186889D01*
X99035Y186555D01*
X99189Y186184D01*
X99473Y185900D01*
X99696Y185566D01*
X100030Y185343D01*
X100314Y185059D01*
X100685Y184905D01*
X101019Y184682D01*
X101413Y184604D01*
X101784Y184450D01*
X102186D01*
X102580Y184372D01*
X102974Y184450D01*
X103376D01*
X103747Y184604D01*
X104141Y184682D01*
X104475Y184905D01*
X104846Y185059D01*
X105130Y185343D01*
X105464Y185566D01*
X105687Y185900D01*
X105971Y186184D01*
X106125Y186555D01*
X106348Y186889D01*
X106426Y187283D01*
X106580Y187654D01*
Y188056D01*
X106658Y188450D01*
Y191438D01*
X107249Y191773D01*
X107928Y191958D01*
X108100Y191843D01*
X108384Y191559D01*
X108755Y191405D01*
X109089Y191182D01*
X109483Y191104D01*
X109854Y190950D01*
X110256D01*
X110650Y190872D01*
X111044Y190950D01*
X111446D01*
X111817Y191104D01*
X112211Y191182D01*
X112545Y191405D01*
X112916Y191559D01*
X113200Y191843D01*
X113534Y192066D01*
X113757Y192400D01*
X114041Y192684D01*
X114195Y193055D01*
X114418Y193389D01*
X114496Y193783D01*
X114650Y194154D01*
Y194556D01*
X114728Y194950D01*
Y197938D01*
X115319Y198273D01*
X115998Y198458D01*
X116170Y198343D01*
X116454Y198059D01*
X116825Y197905D01*
X117159Y197682D01*
X117553Y197604D01*
X117924Y197450D01*
X118326D01*
X118720Y197372D01*
X119114Y197450D01*
X119516D01*
X119887Y197604D01*
X120281Y197682D01*
X120615Y197905D01*
X120986Y198059D01*
X121270Y198343D01*
X121604Y198566D01*
X121827Y198900D01*
X122111Y199184D01*
X122265Y199555D01*
X122488Y199889D01*
X122566Y200283D01*
X122720Y200654D01*
Y201056D01*
X122798Y201450D01*
Y204438D01*
X123389Y204773D01*
X124068Y204958D01*
X124240Y204843D01*
X124524Y204559D01*
X124895Y204405D01*
X125229Y204182D01*
X125623Y204104D01*
X125994Y203950D01*
X126396D01*
X126790Y203871D01*
X127184Y203950D01*
X127586D01*
X127957Y204104D01*
X128351Y204182D01*
X128685Y204405D01*
X129056Y204559D01*
X129340Y204843D01*
X129674Y205066D01*
X129897Y205400D01*
X130181Y205684D01*
X130335Y206055D01*
X130558Y206389D01*
X130636Y206783D01*
X130790Y207154D01*
Y207556D01*
X130868Y207950D01*
Y241588D01*
X131459Y241923D01*
X132138Y242108D01*
X132310Y241993D01*
X132594Y241709D01*
X132965Y241555D01*
X133299Y241332D01*
X133693Y241254D01*
X134064Y241100D01*
X134466D01*
X134860Y241022D01*
X135254Y241100D01*
X135656D01*
X136027Y241254D01*
X136421Y241332D01*
X136755Y241555D01*
X137126Y241709D01*
X137410Y241993D01*
X137744Y242216D01*
X137967Y242550D01*
X138251Y242834D01*
X138405Y243205D01*
X138628Y243539D01*
X138706Y243933D01*
X138860Y244304D01*
Y244706D01*
X138938Y245100D01*
Y266613D01*
X140208Y267189D01*
X140775Y266693D01*
Y245100D01*
X140853Y244706D01*
Y244304D01*
X141007Y243933D01*
X141085Y243539D01*
X141308Y243205D01*
X141462Y242834D01*
X141746Y242550D01*
X141969Y242216D01*
X142303Y241993D01*
X142587Y241709D01*
X142958Y241555D01*
X143292Y241332D01*
X143686Y241254D01*
X144057Y241100D01*
X144459D01*
X144853Y241022D01*
X145247Y241100D01*
X145649D01*
X146020Y241254D01*
X146414Y241332D01*
X146748Y241555D01*
X147119Y241709D01*
X147403Y241993D01*
X147737Y242216D01*
X147960Y242550D01*
X148244Y242834D01*
X148398Y243205D01*
X148621Y243539D01*
X148699Y243933D01*
X148853Y244304D01*
Y244706D01*
X148931Y245100D01*
Y268847D01*
X148932Y268847D01*
X148621Y270408D01*
X147737Y271731D01*
X147008Y272460D01*
X147008Y657388D01*
X147620Y657735D01*
X148278Y657854D01*
X150768Y655364D01*
Y245100D01*
X150846Y244706D01*
Y244304D01*
X151000Y243933D01*
X151078Y243539D01*
X151301Y243205D01*
X151455Y242834D01*
X151739Y242550D01*
X151962Y242216D01*
X152296Y241993D01*
X152580Y241709D01*
X152951Y241555D01*
X153286Y241332D01*
X153679Y241254D01*
X154051Y241100D01*
X154452D01*
X154846Y241022D01*
X155240Y241100D01*
X155642D01*
X156013Y241254D01*
X156407Y241332D01*
X156741Y241555D01*
X157112Y241709D01*
X157396Y241993D01*
X157730Y242216D01*
X157953Y242550D01*
X158237Y242834D01*
X158391Y243205D01*
X158614Y243539D01*
X158693Y243933D01*
X158846Y244304D01*
Y244706D01*
X158925Y245100D01*
Y657054D01*
X158925Y657054D01*
X158614Y658614D01*
X157730Y659938D01*
X157730Y659938D01*
X153884Y663784D01*
X153550Y664007D01*
X153266Y664291D01*
X152895Y664445D01*
X152561Y664668D01*
X152167Y664746D01*
X151796Y664900D01*
X151394D01*
X151000Y664978D01*
X150606Y664900D01*
X150204D01*
X149833Y664746D01*
X149439Y664668D01*
X149105Y664445D01*
X148734Y664291D01*
X148450Y664007D01*
X148278Y663892D01*
X147599Y664077D01*
X147008Y664412D01*
Y666933D01*
X146930Y667327D01*
Y667729D01*
X146776Y668100D01*
X146698Y668494D01*
X146475Y668828D01*
X146321Y669199D01*
X146037Y669483D01*
X145814Y669817D01*
X145480Y670040D01*
X145196Y670324D01*
X144825Y670478D01*
X144491Y670701D01*
X144097Y670780D01*
X143726Y670933D01*
X143324D01*
X142930Y671012D01*
X142536Y670933D01*
X142134D01*
X141763Y670780D01*
X141369Y670701D01*
X141035Y670478D01*
X140664Y670324D01*
X140380Y670040D01*
X140208Y669926D01*
X139529Y670110D01*
X138938Y670445D01*
Y672967D01*
X138860Y673361D01*
Y673762D01*
X138706Y674133D01*
X138628Y674527D01*
X138405Y674861D01*
X138251Y675232D01*
X137967Y675516D01*
X137744Y675851D01*
X137410Y676074D01*
X137126Y676358D01*
X136755Y676511D01*
X136421Y676734D01*
X136027Y676813D01*
X135656Y676967D01*
X135254D01*
X134860Y677045D01*
X134466Y676967D01*
X134064D01*
X133693Y676813D01*
X133299Y676734D01*
X132965Y676511D01*
X132594Y676358D01*
X132310Y676074D01*
X132138Y675959D01*
X131459Y676144D01*
X130868Y676479D01*
Y679000D01*
X130790Y679394D01*
Y679796D01*
X130636Y680167D01*
X130558Y680561D01*
X130335Y680895D01*
X130181Y681266D01*
X129897Y681550D01*
X129674Y681884D01*
X129340Y682107D01*
X129056Y682391D01*
X128685Y682545D01*
X128351Y682768D01*
X127957Y682846D01*
X127586Y683000D01*
X127184D01*
X126790Y683078D01*
X126396Y683000D01*
X125994D01*
X125623Y682846D01*
X125229Y682768D01*
X124895Y682545D01*
X124524Y682391D01*
X124240Y682107D01*
X124068Y681992D01*
X123389Y682177D01*
X122798Y682512D01*
Y685033D01*
X122720Y685427D01*
Y685829D01*
X122566Y686200D01*
X122488Y686594D01*
X122265Y686928D01*
X122111Y687299D01*
X121827Y687583D01*
X121604Y687917D01*
X121270Y688140D01*
X120986Y688424D01*
X120615Y688578D01*
X120281Y688801D01*
X119887Y688879D01*
X119516Y689033D01*
X119114D01*
X118720Y689112D01*
X118326Y689033D01*
X117924D01*
X117553Y688879D01*
X117159Y688801D01*
X116825Y688578D01*
X116454Y688424D01*
X116170Y688140D01*
X115998Y688026D01*
X115319Y688210D01*
X114728Y688545D01*
Y691067D01*
X114650Y691460D01*
Y691862D01*
X114496Y692233D01*
X114418Y692627D01*
X114195Y692961D01*
X114041Y693332D01*
X113757Y693616D01*
X113534Y693950D01*
X113200Y694174D01*
X112916Y694458D01*
X112545Y694611D01*
X112211Y694835D01*
X111817Y694913D01*
X111446Y695067D01*
X111044D01*
X110650Y695145D01*
X110256Y695067D01*
X109854D01*
X109483Y694913D01*
X109089Y694835D01*
X108755Y694611D01*
X108384Y694458D01*
X108100Y694174D01*
X107928Y694059D01*
X107249Y694244D01*
X106658Y694578D01*
Y697100D01*
X106580Y697494D01*
Y697896D01*
X106426Y698267D01*
X106348Y698661D01*
X106125Y698995D01*
X105971Y699366D01*
X105687Y699650D01*
X105464Y699984D01*
X105130Y700207D01*
X104846Y700491D01*
X104475Y700645D01*
X104141Y700868D01*
X103747Y700946D01*
X103376Y701100D01*
X102974D01*
X102580Y701178D01*
D02*
G37*
G36*
X832255Y622312D02*
X830068D01*
X828046Y621475D01*
X826499Y619927D01*
X825661Y617906D01*
Y615718D01*
X826499Y613696D01*
X828046Y612149D01*
X830068Y611312D01*
X832255D01*
X834277Y612149D01*
X835824Y613696D01*
X836662Y615718D01*
Y617906D01*
X835824Y619927D01*
X834277Y621475D01*
X832255Y622312D01*
D02*
G37*
G36*
X723456D02*
X721267D01*
X719246Y621475D01*
X717699Y619927D01*
X716861Y617906D01*
Y615718D01*
X717699Y613696D01*
X719246Y612149D01*
X721267Y611312D01*
X723456D01*
X725477Y612149D01*
X727024Y613696D01*
X727861Y615718D01*
Y617906D01*
X727024Y619927D01*
X725477Y621475D01*
X723456Y622312D01*
D02*
G37*
G36*
X614655D02*
X612467D01*
X610446Y621475D01*
X608899Y619927D01*
X608061Y617906D01*
Y615718D01*
X608899Y613696D01*
X610446Y612149D01*
X612467Y611312D01*
X614655D01*
X616677Y612149D01*
X618224Y613696D01*
X619062Y615718D01*
Y617906D01*
X618224Y619927D01*
X616677Y621475D01*
X614655Y622312D01*
D02*
G37*
G36*
X505855D02*
X503667D01*
X501646Y621475D01*
X500099Y619927D01*
X499262Y617906D01*
Y615718D01*
X500099Y613696D01*
X501646Y612149D01*
X503667Y611312D01*
X505855D01*
X507877Y612149D01*
X509424Y613696D01*
X510261Y615718D01*
Y617906D01*
X509424Y619927D01*
X507877Y621475D01*
X505855Y622312D01*
D02*
G37*
G36*
X397056D02*
X394868D01*
X392846Y621475D01*
X391299Y619927D01*
X390462Y617906D01*
Y615718D01*
X391299Y613696D01*
X392846Y612149D01*
X394868Y611312D01*
X397056D01*
X399077Y612149D01*
X400624Y613696D01*
X401461Y615718D01*
Y617906D01*
X400624Y619927D01*
X399077Y621475D01*
X397056Y622312D01*
D02*
G37*
G36*
X288256D02*
X286068D01*
X284046Y621475D01*
X282499Y619927D01*
X281662Y617906D01*
Y615718D01*
X282499Y613696D01*
X284046Y612149D01*
X286068Y611312D01*
X288256D01*
X290277Y612149D01*
X291824Y613696D01*
X292661Y615718D01*
Y617906D01*
X291824Y619927D01*
X290277Y621475D01*
X288256Y622312D01*
D02*
G37*
G36*
X179456D02*
X177268D01*
X175246Y621475D01*
X173699Y619927D01*
X172862Y617906D01*
Y615718D01*
X173699Y613696D01*
X175246Y612149D01*
X177268Y611312D01*
X179456D01*
X181477Y612149D01*
X183024Y613696D01*
X183862Y615718D01*
Y617906D01*
X183024Y619927D01*
X181477Y621475D01*
X179456Y622312D01*
D02*
G37*
G36*
X70656D02*
X68468D01*
X66446Y621475D01*
X64899Y619927D01*
X64062Y617906D01*
Y615718D01*
X64899Y613696D01*
X66446Y612149D01*
X68468Y611312D01*
X70656D01*
X72677Y612149D01*
X74224Y613696D01*
X75062Y615718D01*
Y617906D01*
X74224Y619927D01*
X72677Y621475D01*
X70656Y622312D01*
D02*
G37*
G36*
X229794Y618775D02*
X228202D01*
X226732Y618166D01*
X225607Y617041D01*
X224998Y615570D01*
Y613979D01*
X225607Y612509D01*
X226366Y611750D01*
X225607Y610991D01*
X224998Y609520D01*
Y607929D01*
X225607Y606459D01*
X226366Y605700D01*
X225607Y604941D01*
X224998Y603470D01*
Y601879D01*
X225607Y600409D01*
X226732Y599284D01*
X228202Y598675D01*
X229794D01*
X231264Y599284D01*
X232389Y600409D01*
X232998Y601879D01*
Y603470D01*
X232389Y604941D01*
X231630Y605700D01*
X232389Y606459D01*
X232998Y607929D01*
Y609520D01*
X232389Y610991D01*
X231630Y611750D01*
X232389Y612509D01*
X232998Y613979D01*
Y615570D01*
X232389Y617041D01*
X231264Y618166D01*
X229794Y618775D01*
D02*
G37*
G36*
X663896Y617050D02*
X662304D01*
X660834Y616441D01*
X659709Y615316D01*
X659100Y613846D01*
Y612254D01*
X659709Y610784D01*
X660468Y610025D01*
X659709Y609266D01*
X659100Y607796D01*
Y606204D01*
X659709Y604734D01*
X660468Y603975D01*
X659709Y603216D01*
X659100Y601746D01*
Y600154D01*
X659709Y598684D01*
X660834Y597559D01*
X662304Y596950D01*
X663896D01*
X665366Y597559D01*
X666491Y598684D01*
X667100Y600154D01*
Y601746D01*
X666491Y603216D01*
X665732Y603975D01*
X666491Y604734D01*
X667100Y606204D01*
Y607796D01*
X666491Y609266D01*
X665732Y610025D01*
X666491Y610784D01*
X667100Y612254D01*
Y613846D01*
X666491Y615316D01*
X665366Y616441D01*
X663896Y617050D01*
D02*
G37*
G36*
X832255Y602312D02*
X830068D01*
X828046Y601474D01*
X826499Y599927D01*
X825661Y597906D01*
Y595718D01*
X826499Y593696D01*
X828046Y592149D01*
X830068Y591312D01*
X832255D01*
X834277Y592149D01*
X835824Y593696D01*
X836662Y595718D01*
Y597906D01*
X835824Y599927D01*
X834277Y601474D01*
X832255Y602312D01*
D02*
G37*
G36*
X723456D02*
X721267D01*
X719246Y601474D01*
X717699Y599927D01*
X716861Y597906D01*
Y595718D01*
X717699Y593696D01*
X719246Y592149D01*
X721267Y591312D01*
X723456D01*
X725477Y592149D01*
X727024Y593696D01*
X727861Y595718D01*
Y597906D01*
X727024Y599927D01*
X725477Y601474D01*
X723456Y602312D01*
D02*
G37*
G36*
X614655D02*
X612467D01*
X610446Y601474D01*
X608899Y599927D01*
X608061Y597906D01*
Y595718D01*
X608899Y593696D01*
X610446Y592149D01*
X612467Y591312D01*
X614655D01*
X616677Y592149D01*
X618224Y593696D01*
X619062Y595718D01*
Y597906D01*
X618224Y599927D01*
X616677Y601474D01*
X614655Y602312D01*
D02*
G37*
G36*
X505855D02*
X503667D01*
X501646Y601474D01*
X500099Y599927D01*
X499262Y597906D01*
Y595718D01*
X500099Y593696D01*
X501646Y592149D01*
X503667Y591312D01*
X505855D01*
X507877Y592149D01*
X509424Y593696D01*
X510261Y595718D01*
Y597906D01*
X509424Y599927D01*
X507877Y601474D01*
X505855Y602312D01*
D02*
G37*
G36*
X397056D02*
X394868D01*
X392846Y601474D01*
X391299Y599927D01*
X390462Y597906D01*
Y595718D01*
X391299Y593696D01*
X392846Y592149D01*
X394868Y591312D01*
X397056D01*
X399077Y592149D01*
X400624Y593696D01*
X401461Y595718D01*
Y597906D01*
X400624Y599927D01*
X399077Y601474D01*
X397056Y602312D01*
D02*
G37*
G36*
X288256D02*
X286068D01*
X284046Y601474D01*
X282499Y599927D01*
X281662Y597906D01*
Y595718D01*
X282499Y593696D01*
X284046Y592149D01*
X286068Y591312D01*
X288256D01*
X290277Y592149D01*
X291824Y593696D01*
X292661Y595718D01*
Y597906D01*
X291824Y599927D01*
X290277Y601474D01*
X288256Y602312D01*
D02*
G37*
G36*
X179456D02*
X177268D01*
X175246Y601474D01*
X173699Y599927D01*
X172862Y597906D01*
Y595718D01*
X173699Y593696D01*
X175246Y592149D01*
X177268Y591312D01*
X179456D01*
X181477Y592149D01*
X183024Y593696D01*
X183862Y595718D01*
Y597906D01*
X183024Y599927D01*
X181477Y601474D01*
X179456Y602312D01*
D02*
G37*
G36*
X70656D02*
X68468D01*
X66446Y601474D01*
X64899Y599927D01*
X64062Y597906D01*
Y595718D01*
X64899Y593696D01*
X66446Y592149D01*
X68468Y591312D01*
X70656D01*
X72677Y592149D01*
X74224Y593696D01*
X75062Y595718D01*
Y597906D01*
X74224Y599927D01*
X72677Y601474D01*
X70656Y602312D01*
D02*
G37*
G36*
X211394Y551878D02*
X211000Y551800D01*
X210599D01*
X210228Y551646D01*
X209834Y551568D01*
X209499Y551345D01*
X209128Y551191D01*
X208845Y550907D01*
X208510Y550684D01*
X208287Y550350D01*
X208003Y550066D01*
X207850Y549695D01*
X207626Y549361D01*
X207548Y548967D01*
X207394Y548596D01*
Y548194D01*
X207316Y547800D01*
Y540949D01*
X207316Y540949D01*
X207626Y539388D01*
X208510Y538065D01*
X209296Y537280D01*
Y532328D01*
X208026Y532327D01*
X208026Y532327D01*
X207716Y533888D01*
X206832Y535211D01*
X206831Y535211D01*
X203725Y538317D01*
Y547800D01*
X203647Y548194D01*
Y548596D01*
X203493Y548967D01*
X203415Y549361D01*
X203192Y549695D01*
X203038Y550066D01*
X202754Y550350D01*
X202531Y550684D01*
X202197Y550907D01*
X201913Y551191D01*
X201542Y551345D01*
X201208Y551568D01*
X200814Y551646D01*
X200443Y551800D01*
X200041D01*
X199647Y551878D01*
X199253Y551800D01*
X198852D01*
X198480Y551646D01*
X198086Y551568D01*
X197752Y551345D01*
X197381Y551191D01*
X197097Y550907D01*
X196763Y550684D01*
X196540Y550350D01*
X196256Y550066D01*
X196102Y549695D01*
X195879Y549361D01*
X195801Y548967D01*
X195647Y548596D01*
Y548194D01*
X195569Y547800D01*
Y536628D01*
X195569Y536628D01*
X195879Y535067D01*
X196763Y533744D01*
X199576Y530931D01*
X199491Y530273D01*
X198151Y529817D01*
X191978Y535989D01*
Y547800D01*
X191900Y548194D01*
Y548596D01*
X191746Y548967D01*
X191668Y549361D01*
X191445Y549695D01*
X191291Y550066D01*
X191007Y550350D01*
X190784Y550684D01*
X190450Y550907D01*
X190166Y551191D01*
X189795Y551345D01*
X189461Y551568D01*
X189067Y551646D01*
X188696Y551800D01*
X188294D01*
X187900Y551878D01*
X187506Y551800D01*
X187104D01*
X186733Y551646D01*
X186339Y551568D01*
X186005Y551345D01*
X185634Y551191D01*
X185350Y550907D01*
X185016Y550684D01*
X184793Y550350D01*
X184509Y550066D01*
X184355Y549695D01*
X184132Y549361D01*
X184054Y548967D01*
X183900Y548596D01*
Y548194D01*
X183822Y547800D01*
Y534300D01*
X183822Y534300D01*
X184132Y532739D01*
X185016Y531416D01*
X193022Y523411D01*
Y261768D01*
X191638Y260384D01*
X191415Y260050D01*
X191131Y259766D01*
X190977Y259395D01*
X190754Y259061D01*
X190675Y258667D01*
X190522Y258296D01*
Y257894D01*
X190443Y257500D01*
X190522Y257106D01*
Y256704D01*
X190675Y256333D01*
X190754Y255939D01*
X190977Y255605D01*
X191131Y255234D01*
X191415Y254950D01*
X191638Y254616D01*
X191972Y254393D01*
X192256Y254109D01*
X192627Y253955D01*
X192961Y253732D01*
X193355Y253654D01*
X193726Y253500D01*
X194128D01*
X194522Y253422D01*
X194916Y253500D01*
X195317D01*
X195688Y253654D01*
X196082Y253732D01*
X196416Y253955D01*
X196787Y254109D01*
X197071Y254393D01*
X197405Y254616D01*
X198843Y256053D01*
X198898Y256066D01*
X199380Y256018D01*
X200318Y255733D01*
X200403Y255605D01*
X200557Y255234D01*
X200841Y254950D01*
X201064Y254616D01*
X201398Y254393D01*
X201682Y254109D01*
X202053Y253955D01*
X202387Y253732D01*
X202781Y253654D01*
X203152Y253500D01*
X203554D01*
X203948Y253422D01*
X204342Y253500D01*
X204743D01*
X205114Y253654D01*
X205508Y253732D01*
X205842Y253955D01*
X206214Y254109D01*
X206497Y254393D01*
X206832Y254616D01*
X207055Y254950D01*
X207339Y255234D01*
X207493Y255605D01*
X207716Y255939D01*
X207794Y256333D01*
X208883Y256787D01*
X209218Y256817D01*
X209374Y256704D01*
X209528Y256333D01*
X209606Y255939D01*
X209829Y255605D01*
X209983Y255234D01*
X210267Y254950D01*
X210490Y254616D01*
X210824Y254393D01*
X211108Y254109D01*
X211479Y253955D01*
X211813Y253732D01*
X212207Y253654D01*
X212578Y253500D01*
X212980D01*
X213374Y253422D01*
X213768Y253500D01*
X214170D01*
X214541Y253654D01*
X214935Y253732D01*
X215269Y253955D01*
X215640Y254109D01*
X215924Y254393D01*
X216258Y254616D01*
X216481Y254950D01*
X216765Y255234D01*
X216919Y255605D01*
X217142Y255939D01*
X217220Y256333D01*
X218309Y256787D01*
X218644Y256817D01*
X218800Y256704D01*
X218954Y256333D01*
X219032Y255939D01*
X219255Y255606D01*
X219409Y255234D01*
X219693Y254950D01*
X219916Y254616D01*
X220250Y254393D01*
X220534Y254109D01*
X220905Y253955D01*
X221239Y253732D01*
X221633Y253654D01*
X222004Y253500D01*
X222406D01*
X222800Y253422D01*
X223194Y253500D01*
X223596D01*
X223967Y253654D01*
X224361Y253732D01*
X224695Y253955D01*
X225066Y254109D01*
X225088Y254131D01*
X225957Y253878D01*
X226358Y253539D01*
Y201450D01*
X226358Y201450D01*
X226437Y201056D01*
Y200654D01*
X226590Y200283D01*
X226669Y199889D01*
X226892Y199555D01*
X227045Y199184D01*
X227330Y198900D01*
X227553Y198566D01*
X227887Y198343D01*
X228171Y198059D01*
X228542Y197905D01*
X228876Y197682D01*
X229270Y197604D01*
X229641Y197450D01*
X230042D01*
X230436Y197372D01*
X230831Y197450D01*
X231232D01*
X231603Y197604D01*
X231997Y197682D01*
X232331Y197905D01*
X232702Y198059D01*
X232986Y198343D01*
X233320Y198566D01*
X233544Y198900D01*
X233828Y199184D01*
X233981Y199555D01*
X234205Y199889D01*
X234283Y200283D01*
X234436Y200654D01*
Y201056D01*
X234515Y201450D01*
Y535640D01*
X234437Y536034D01*
Y536436D01*
X234283Y536807D01*
X234205Y537201D01*
X233981Y537535D01*
X233828Y537906D01*
X233544Y538190D01*
X233320Y538524D01*
X232986Y538747D01*
X232702Y539031D01*
X232331Y539185D01*
X231997Y539408D01*
X231603Y539486D01*
X231232Y539640D01*
X230830D01*
X230437Y539718D01*
X230043Y539640D01*
X229641D01*
X229270Y539486D01*
X228876Y539408D01*
X228542Y539185D01*
X228171Y539031D01*
X228148Y539009D01*
X227278Y539262D01*
X226878Y539601D01*
Y539835D01*
X226878Y539835D01*
X226568Y541396D01*
X225684Y542719D01*
X223799Y544604D01*
X223465Y544827D01*
X223181Y545111D01*
X222810Y545265D01*
X222476Y545488D01*
X222082Y545566D01*
X221711Y545720D01*
X221310D01*
X220915Y545798D01*
X220521Y545720D01*
X220120D01*
X219749Y545566D01*
X219355Y545488D01*
X219021Y545265D01*
X218650Y545111D01*
X218366Y544827D01*
X218032Y544604D01*
X217808Y544270D01*
X217524Y543986D01*
X217441Y543785D01*
X216723Y543288D01*
X215857Y543302D01*
X215563Y543489D01*
X215473Y543678D01*
Y547800D01*
X215394Y548194D01*
Y548596D01*
X215241Y548967D01*
X215162Y549361D01*
X214939Y549695D01*
X214785Y550066D01*
X214501Y550350D01*
X214278Y550684D01*
X213944Y550907D01*
X213660Y551191D01*
X213289Y551345D01*
X212955Y551568D01*
X212561Y551646D01*
X212190Y551800D01*
X211788D01*
X211394Y551878D01*
D02*
G37*
G36*
X832255Y476845D02*
X830068D01*
X828046Y476008D01*
X826499Y474461D01*
X825661Y472439D01*
Y470251D01*
X826499Y468230D01*
X828046Y466683D01*
X830068Y465845D01*
X832255D01*
X834277Y466683D01*
X835824Y468230D01*
X836662Y470251D01*
Y472439D01*
X835824Y474461D01*
X834277Y476008D01*
X832255Y476845D01*
D02*
G37*
G36*
X723456D02*
X721267D01*
X719246Y476008D01*
X717699Y474461D01*
X716861Y472439D01*
Y470251D01*
X717699Y468230D01*
X719246Y466683D01*
X721267Y465845D01*
X723456D01*
X725477Y466683D01*
X727024Y468230D01*
X727861Y470251D01*
Y472439D01*
X727024Y474461D01*
X725477Y476008D01*
X723456Y476845D01*
D02*
G37*
G36*
X614655D02*
X612467D01*
X610446Y476008D01*
X608899Y474461D01*
X608061Y472439D01*
Y470251D01*
X608899Y468230D01*
X610446Y466683D01*
X612467Y465845D01*
X614655D01*
X616677Y466683D01*
X618224Y468230D01*
X619062Y470251D01*
Y472439D01*
X618224Y474461D01*
X616677Y476008D01*
X614655Y476845D01*
D02*
G37*
G36*
X505855D02*
X503667D01*
X501646Y476008D01*
X500099Y474461D01*
X499262Y472439D01*
Y470251D01*
X500099Y468230D01*
X501646Y466683D01*
X503667Y465845D01*
X505855D01*
X507877Y466683D01*
X509424Y468230D01*
X510261Y470251D01*
Y472439D01*
X509424Y474461D01*
X507877Y476008D01*
X505855Y476845D01*
D02*
G37*
G36*
X397056D02*
X394868D01*
X392846Y476008D01*
X391299Y474461D01*
X390462Y472439D01*
Y470251D01*
X391299Y468230D01*
X392846Y466683D01*
X394868Y465845D01*
X397056D01*
X399077Y466683D01*
X400624Y468230D01*
X401461Y470251D01*
Y472439D01*
X400624Y474461D01*
X399077Y476008D01*
X397056Y476845D01*
D02*
G37*
G36*
X288256D02*
X286068D01*
X284046Y476008D01*
X282499Y474461D01*
X281662Y472439D01*
Y470251D01*
X282499Y468230D01*
X284046Y466683D01*
X286068Y465845D01*
X288256D01*
X290277Y466683D01*
X291824Y468230D01*
X292661Y470251D01*
Y472439D01*
X291824Y474461D01*
X290277Y476008D01*
X288256Y476845D01*
D02*
G37*
G36*
X179456D02*
X177268D01*
X175246Y476008D01*
X173699Y474461D01*
X172862Y472439D01*
Y470251D01*
X173699Y468230D01*
X175246Y466683D01*
X177268Y465845D01*
X179456D01*
X181477Y466683D01*
X183024Y468230D01*
X183862Y470251D01*
Y472439D01*
X183024Y474461D01*
X181477Y476008D01*
X179456Y476845D01*
D02*
G37*
G36*
X70656D02*
X68468D01*
X66446Y476008D01*
X64899Y474461D01*
X64062Y472439D01*
Y470251D01*
X64899Y468230D01*
X66446Y466683D01*
X68468Y465845D01*
X70656D01*
X72677Y466683D01*
X74224Y468230D01*
X75062Y470251D01*
Y472439D01*
X74224Y474461D01*
X72677Y476008D01*
X70656Y476845D01*
D02*
G37*
G36*
X665096Y468650D02*
X663504D01*
X662034Y468041D01*
X660909Y466916D01*
X660300Y465446D01*
Y463854D01*
X660909Y462384D01*
X661668Y461625D01*
X660909Y460866D01*
X660300Y459396D01*
Y457804D01*
X660909Y456334D01*
X662034Y455209D01*
X663504Y454600D01*
X665096D01*
X666566Y455209D01*
X667691Y456334D01*
X668300Y457804D01*
Y459396D01*
X667691Y460866D01*
X666932Y461625D01*
X667691Y462384D01*
X668300Y463854D01*
Y465446D01*
X667691Y466916D01*
X666566Y468041D01*
X665096Y468650D01*
D02*
G37*
G36*
X445996Y467400D02*
X444404D01*
X442934Y466791D01*
X441809Y465666D01*
X441200Y464196D01*
Y462604D01*
X441809Y461134D01*
X442568Y460375D01*
X441809Y459616D01*
X441200Y458146D01*
Y456554D01*
X441809Y455084D01*
X442568Y454325D01*
X441809Y453566D01*
X441200Y452096D01*
Y450504D01*
X441809Y449034D01*
X442934Y447909D01*
X444404Y447300D01*
X445996D01*
X447466Y447909D01*
X448591Y449034D01*
X449200Y450504D01*
Y452096D01*
X448591Y453566D01*
X447832Y454325D01*
X448591Y455084D01*
X449200Y456554D01*
Y458146D01*
X448591Y459616D01*
X447832Y460375D01*
X448591Y461134D01*
X449200Y462604D01*
Y464196D01*
X448591Y465666D01*
X447466Y466791D01*
X445996Y467400D01*
D02*
G37*
G36*
X832255Y456845D02*
X830068D01*
X828046Y456008D01*
X826499Y454461D01*
X825661Y452439D01*
Y450251D01*
X826499Y448230D01*
X828046Y446683D01*
X830068Y445845D01*
X832255D01*
X834277Y446683D01*
X835824Y448230D01*
X836662Y450251D01*
Y452439D01*
X835824Y454461D01*
X834277Y456008D01*
X832255Y456845D01*
D02*
G37*
G36*
X723456D02*
X721267D01*
X719246Y456008D01*
X717699Y454461D01*
X716861Y452439D01*
Y450251D01*
X717699Y448230D01*
X719246Y446683D01*
X721267Y445845D01*
X723456D01*
X725477Y446683D01*
X727024Y448230D01*
X727861Y450251D01*
Y452439D01*
X727024Y454461D01*
X725477Y456008D01*
X723456Y456845D01*
D02*
G37*
G36*
X614655D02*
X612467D01*
X610446Y456008D01*
X608899Y454461D01*
X608061Y452439D01*
Y450251D01*
X608899Y448230D01*
X610446Y446683D01*
X612467Y445845D01*
X614655D01*
X616677Y446683D01*
X618224Y448230D01*
X619062Y450251D01*
Y452439D01*
X618224Y454461D01*
X616677Y456008D01*
X614655Y456845D01*
D02*
G37*
G36*
X505855D02*
X503667D01*
X501646Y456008D01*
X500099Y454461D01*
X499262Y452439D01*
Y450251D01*
X500099Y448230D01*
X501646Y446683D01*
X503667Y445845D01*
X505855D01*
X507877Y446683D01*
X509424Y448230D01*
X510261Y450251D01*
Y452439D01*
X509424Y454461D01*
X507877Y456008D01*
X505855Y456845D01*
D02*
G37*
G36*
X397056D02*
X394868D01*
X392846Y456008D01*
X391299Y454461D01*
X390462Y452439D01*
Y450251D01*
X391299Y448230D01*
X392846Y446683D01*
X394868Y445845D01*
X397056D01*
X399077Y446683D01*
X400624Y448230D01*
X401461Y450251D01*
Y452439D01*
X400624Y454461D01*
X399077Y456008D01*
X397056Y456845D01*
D02*
G37*
G36*
X288256D02*
X286068D01*
X284046Y456008D01*
X282499Y454461D01*
X281662Y452439D01*
Y450251D01*
X282499Y448230D01*
X284046Y446683D01*
X286068Y445845D01*
X288256D01*
X290277Y446683D01*
X291824Y448230D01*
X292661Y450251D01*
Y452439D01*
X291824Y454461D01*
X290277Y456008D01*
X288256Y456845D01*
D02*
G37*
G36*
X179456D02*
X177268D01*
X175246Y456008D01*
X173699Y454461D01*
X172862Y452439D01*
Y450251D01*
X173699Y448230D01*
X175246Y446683D01*
X177268Y445845D01*
X179456D01*
X181477Y446683D01*
X183024Y448230D01*
X183862Y450251D01*
Y452439D01*
X183024Y454461D01*
X181477Y456008D01*
X179456Y456845D01*
D02*
G37*
G36*
X70656D02*
X68468D01*
X66446Y456008D01*
X64899Y454461D01*
X64062Y452439D01*
Y450251D01*
X64899Y448230D01*
X66446Y446683D01*
X68468Y445845D01*
X70656D01*
X72677Y446683D01*
X74224Y448230D01*
X75062Y450251D01*
Y452439D01*
X74224Y454461D01*
X72677Y456008D01*
X70656Y456845D01*
D02*
G37*
G36*
X859200Y410078D02*
X858806Y410000D01*
X858404D01*
X858033Y409846D01*
X857639Y409768D01*
X857305Y409545D01*
X856934Y409391D01*
X856650Y409107D01*
X856316Y408884D01*
X856093Y408550D01*
X855809Y408266D01*
X855806Y408258D01*
X854883Y407929D01*
X854351Y407952D01*
X854296Y407972D01*
X853484Y408784D01*
X853150Y409007D01*
X852866Y409291D01*
X852495Y409445D01*
X852161Y409668D01*
X851767Y409746D01*
X851396Y409900D01*
X850994D01*
X850600Y409978D01*
X850206Y409900D01*
X849804D01*
X849433Y409746D01*
X849039Y409668D01*
X848705Y409445D01*
X848334Y409291D01*
X848050Y409007D01*
X847716Y408784D01*
X847493Y408450D01*
X847209Y408166D01*
X847055Y407795D01*
X846832Y407461D01*
X846754Y407067D01*
X846600Y406696D01*
Y406294D01*
X846522Y405900D01*
X846600Y405506D01*
Y405104D01*
X846754Y404733D01*
X846832Y404339D01*
X847055Y404005D01*
X847209Y403634D01*
X847493Y403350D01*
X847716Y403016D01*
X854522Y396211D01*
Y394842D01*
X853252Y394316D01*
X844784Y402784D01*
X844450Y403007D01*
X844166Y403291D01*
X843795Y403445D01*
X843461Y403668D01*
X843067Y403746D01*
X842696Y403900D01*
X842294D01*
X841900Y403978D01*
X841506Y403900D01*
X841104D01*
X840733Y403746D01*
X840339Y403668D01*
X840005Y403445D01*
X839634Y403291D01*
X839350Y403007D01*
X839016Y402784D01*
X838793Y402450D01*
X838509Y402166D01*
X838355Y401795D01*
X838132Y401461D01*
X838054Y401067D01*
X837900Y400696D01*
Y400294D01*
X837822Y399900D01*
X837900Y399506D01*
Y399104D01*
X838054Y398733D01*
X838132Y398339D01*
X838355Y398005D01*
X838509Y397634D01*
X838793Y397350D01*
X839016Y397016D01*
X847322Y388711D01*
Y310689D01*
X814591Y277959D01*
X814248Y277446D01*
X812978Y277831D01*
Y393900D01*
X812900Y394294D01*
Y394696D01*
X812746Y395067D01*
X812668Y395461D01*
X812445Y395795D01*
X812291Y396166D01*
X812007Y396450D01*
X811784Y396784D01*
X811450Y397007D01*
X811166Y397291D01*
X810795Y397445D01*
X810461Y397668D01*
X810067Y397746D01*
X809696Y397900D01*
X809294D01*
X808900Y397978D01*
X808506Y397900D01*
X808104D01*
X807733Y397746D01*
X807339Y397668D01*
X807005Y397445D01*
X806634Y397291D01*
X806350Y397007D01*
X806016Y396784D01*
X805793Y396450D01*
X805509Y396166D01*
X805355Y395795D01*
X805132Y395461D01*
X805054Y395067D01*
X804900Y394696D01*
Y394294D01*
X804821Y393900D01*
Y390717D01*
X804328Y390470D01*
X803551Y390328D01*
X803432Y390447D01*
X803209Y390781D01*
X802875Y391004D01*
X802591Y391288D01*
X802220Y391442D01*
X801886Y391665D01*
X801492Y391744D01*
X801121Y391898D01*
X800719D01*
X800325Y391976D01*
X799931Y391898D01*
X799529D01*
X799158Y391744D01*
X798764Y391665D01*
X798430Y391442D01*
X798059Y391288D01*
X797775Y391004D01*
X797441Y390781D01*
X797218Y390447D01*
X796934Y390163D01*
X796780Y389792D01*
X796557Y389458D01*
X796479Y389064D01*
X796325Y388693D01*
Y388291D01*
X796246Y387897D01*
Y384715D01*
X795753Y384467D01*
X794977Y384325D01*
X794857Y384445D01*
X794634Y384779D01*
X794300Y385002D01*
X794016Y385286D01*
X793645Y385440D01*
X793311Y385663D01*
X792917Y385741D01*
X792546Y385895D01*
X792144D01*
X791750Y385973D01*
X791356Y385895D01*
X790954D01*
X790583Y385741D01*
X790189Y385663D01*
X789855Y385440D01*
X789484Y385286D01*
X789200Y385002D01*
X788866Y384779D01*
X788643Y384445D01*
X788359Y384161D01*
X788205Y383790D01*
X787982Y383456D01*
X787904Y383062D01*
X787750Y382691D01*
Y382289D01*
X787672Y381895D01*
Y378712D01*
X787178Y378465D01*
X786402Y378323D01*
X786282Y378442D01*
X786059Y378776D01*
X785725Y379000D01*
X785441Y379283D01*
X785070Y379437D01*
X784736Y379660D01*
X784342Y379739D01*
X783971Y379893D01*
X783569D01*
X783175Y379971D01*
X782781Y379893D01*
X782379D01*
X782008Y379739D01*
X781614Y379660D01*
X781280Y379437D01*
X780909Y379283D01*
X780625Y379000D01*
X780291Y378776D01*
X780068Y378442D01*
X779784Y378158D01*
X779630Y377787D01*
X779407Y377453D01*
X779329Y377059D01*
X779175Y376688D01*
Y376287D01*
X779097Y375892D01*
Y372710D01*
X778603Y372463D01*
X777827Y372320D01*
X777707Y372440D01*
X777484Y372774D01*
X777150Y372997D01*
X776866Y373281D01*
X776495Y373435D01*
X776161Y373658D01*
X775767Y373736D01*
X775396Y373890D01*
X774994D01*
X774600Y373968D01*
X774206Y373890D01*
X773804D01*
X773433Y373736D01*
X773039Y373658D01*
X772705Y373435D01*
X772334Y373281D01*
X772050Y372997D01*
X771716Y372774D01*
X771493Y372440D01*
X771209Y372156D01*
X771055Y371785D01*
X770832Y371451D01*
X770754Y371057D01*
X770600Y370686D01*
Y370284D01*
X770522Y369890D01*
Y188076D01*
X770600Y187682D01*
Y187280D01*
X770754Y186909D01*
X770832Y186515D01*
X771055Y186181D01*
X771209Y185810D01*
X771493Y185526D01*
X771716Y185192D01*
X772050Y184969D01*
X772334Y184685D01*
X772705Y184531D01*
X773039Y184308D01*
X773433Y184230D01*
X773804Y184076D01*
X774206D01*
X774600Y183997D01*
X774994Y184076D01*
X775396D01*
X775767Y184230D01*
X776161Y184308D01*
X776495Y184531D01*
X776866Y184685D01*
X777150Y184969D01*
X777484Y185192D01*
X777707Y185526D01*
X777827Y185646D01*
X778603Y185503D01*
X779097Y185256D01*
Y181576D01*
X779175Y181182D01*
Y180780D01*
X779329Y180409D01*
X779407Y180015D01*
X779630Y179681D01*
X779784Y179310D01*
X780068Y179026D01*
X780291Y178692D01*
X780625Y178469D01*
X780909Y178185D01*
X781280Y178031D01*
X781614Y177808D01*
X782008Y177729D01*
X782379Y177576D01*
X782781D01*
X783175Y177497D01*
X783569Y177576D01*
X783971D01*
X784342Y177729D01*
X784736Y177808D01*
X785070Y178031D01*
X785441Y178185D01*
X785725Y178469D01*
X786059Y178692D01*
X786282Y179026D01*
X786402Y179146D01*
X787178Y179003D01*
X787672Y178756D01*
Y175450D01*
X787750Y175056D01*
Y174280D01*
X788359Y172810D01*
X789484Y171685D01*
X790954Y171076D01*
X792546D01*
X794016Y171685D01*
X794977Y172645D01*
X795753Y172503D01*
X796246Y172256D01*
Y168576D01*
X796325Y168182D01*
Y167780D01*
X796479Y167409D01*
X796557Y167015D01*
X796780Y166681D01*
X796934Y166310D01*
X797218Y166026D01*
X797441Y165692D01*
X797775Y165469D01*
X798059Y165185D01*
X798430Y165031D01*
X798764Y164808D01*
X799158Y164729D01*
X799529Y164576D01*
X799931D01*
X800325Y164497D01*
X800719Y164576D01*
X801121D01*
X801492Y164729D01*
X801886Y164808D01*
X802220Y165031D01*
X802591Y165185D01*
X802875Y165469D01*
X803209Y165692D01*
X803432Y166026D01*
X803551Y166145D01*
X804328Y166003D01*
X804821Y165756D01*
Y162076D01*
X804900Y161682D01*
Y161280D01*
X805054Y160909D01*
X805132Y160515D01*
X805355Y160181D01*
X805509Y159810D01*
X805793Y159526D01*
X806016Y159192D01*
X806350Y158969D01*
X806634Y158685D01*
X807005Y158531D01*
X807339Y158308D01*
X807733Y158230D01*
X808104Y158076D01*
X808506D01*
X808900Y157997D01*
X809294Y158076D01*
X809696D01*
X810067Y158230D01*
X810461Y158308D01*
X810795Y158531D01*
X811166Y158685D01*
X811450Y158969D01*
X811784Y159192D01*
X812007Y159526D01*
X812126Y159646D01*
X812903Y159503D01*
X813397Y159256D01*
Y155576D01*
X813475Y155182D01*
Y154780D01*
X813628Y154409D01*
X813707Y154015D01*
X813930Y153681D01*
X814084Y153310D01*
X814368Y153026D01*
X814591Y152692D01*
X814925Y152469D01*
X815209Y152185D01*
X815580Y152031D01*
X815914Y151808D01*
X816308Y151729D01*
X816679Y151576D01*
X817081D01*
X817475Y151497D01*
X817869Y151576D01*
X818270D01*
X818642Y151729D01*
X819035Y151808D01*
X819370Y152031D01*
X819741Y152185D01*
X820025Y152469D01*
X820359Y152692D01*
X820582Y153026D01*
X820701Y153146D01*
X821478Y153003D01*
X821971Y152756D01*
Y149076D01*
X822050Y148682D01*
Y148280D01*
X822204Y147909D01*
X822282Y147515D01*
X822505Y147181D01*
X822659Y146810D01*
X822943Y146526D01*
X823166Y146192D01*
X823500Y145969D01*
X823784Y145685D01*
X824155Y145531D01*
X824489Y145308D01*
X824883Y145230D01*
X825254Y145076D01*
X825656D01*
X826050Y144997D01*
X826444Y145076D01*
X826845D01*
X827216Y145230D01*
X827610Y145308D01*
X827944Y145531D01*
X828316Y145685D01*
X828600Y145969D01*
X828934Y146192D01*
X829157Y146526D01*
X829276Y146646D01*
X830053Y146503D01*
X830546Y146256D01*
Y142576D01*
X830625Y142182D01*
Y141780D01*
X830779Y141409D01*
X830857Y141015D01*
X831080Y140681D01*
X831234Y140310D01*
X831518Y140026D01*
X831741Y139692D01*
X832075Y139469D01*
X832359Y139185D01*
X832730Y139031D01*
X833064Y138808D01*
X833458Y138729D01*
X833829Y138576D01*
X834231D01*
X834625Y138497D01*
X835019Y138576D01*
X835420D01*
X835791Y138729D01*
X836186Y138808D01*
X836519Y139031D01*
X836891Y139185D01*
X837175Y139469D01*
X837509Y139692D01*
X837732Y140026D01*
X838016Y140310D01*
X838169Y140681D01*
X838393Y141015D01*
X838471Y141409D01*
X838625Y141780D01*
Y142182D01*
X838703Y142576D01*
Y261535D01*
X869084Y291916D01*
X869084Y291916D01*
X869968Y293239D01*
X870278Y294800D01*
Y399000D01*
X869968Y400561D01*
X869084Y401884D01*
X862084Y408884D01*
X861750Y409107D01*
X861466Y409391D01*
X861095Y409545D01*
X860761Y409768D01*
X860367Y409846D01*
X859996Y410000D01*
X859594D01*
X859200Y410078D01*
D02*
G37*
G36*
X832255Y331379D02*
X830068D01*
X828046Y330541D01*
X826499Y328994D01*
X825661Y326973D01*
Y324785D01*
X826499Y322763D01*
X828046Y321216D01*
X830068Y320379D01*
X832255D01*
X834277Y321216D01*
X835824Y322763D01*
X836662Y324785D01*
Y326973D01*
X835824Y328994D01*
X834277Y330541D01*
X832255Y331379D01*
D02*
G37*
G36*
X723456D02*
X721267D01*
X719246Y330541D01*
X717699Y328994D01*
X716861Y326973D01*
Y324785D01*
X717699Y322763D01*
X719246Y321216D01*
X721267Y320379D01*
X723456D01*
X725477Y321216D01*
X727024Y322763D01*
X727861Y324785D01*
Y326973D01*
X727024Y328994D01*
X725477Y330541D01*
X723456Y331379D01*
D02*
G37*
G36*
X614655D02*
X612467D01*
X610446Y330541D01*
X608899Y328994D01*
X608061Y326973D01*
Y324785D01*
X608899Y322763D01*
X610446Y321216D01*
X612467Y320379D01*
X614655D01*
X616677Y321216D01*
X618224Y322763D01*
X619062Y324785D01*
Y326973D01*
X618224Y328994D01*
X616677Y330541D01*
X614655Y331379D01*
D02*
G37*
G36*
X505855D02*
X503667D01*
X501646Y330541D01*
X500099Y328994D01*
X499262Y326973D01*
Y324785D01*
X500099Y322763D01*
X501646Y321216D01*
X503667Y320379D01*
X505855D01*
X507877Y321216D01*
X509424Y322763D01*
X510261Y324785D01*
Y326973D01*
X509424Y328994D01*
X507877Y330541D01*
X505855Y331379D01*
D02*
G37*
G36*
X397056D02*
X394868D01*
X392846Y330541D01*
X391299Y328994D01*
X390462Y326973D01*
Y324785D01*
X391299Y322763D01*
X392846Y321216D01*
X394868Y320379D01*
X397056D01*
X399077Y321216D01*
X400624Y322763D01*
X401461Y324785D01*
Y326973D01*
X400624Y328994D01*
X399077Y330541D01*
X397056Y331379D01*
D02*
G37*
G36*
X288256D02*
X286068D01*
X284046Y330541D01*
X282499Y328994D01*
X281662Y326973D01*
Y324785D01*
X282499Y322763D01*
X284046Y321216D01*
X286068Y320379D01*
X288256D01*
X290277Y321216D01*
X291824Y322763D01*
X292661Y324785D01*
Y326973D01*
X291824Y328994D01*
X290277Y330541D01*
X288256Y331379D01*
D02*
G37*
G36*
X179456D02*
X177268D01*
X175246Y330541D01*
X173699Y328994D01*
X172862Y326973D01*
Y324785D01*
X173699Y322763D01*
X175246Y321216D01*
X177268Y320379D01*
X179456D01*
X181477Y321216D01*
X183024Y322763D01*
X183862Y324785D01*
Y326973D01*
X183024Y328994D01*
X181477Y330541D01*
X179456Y331379D01*
D02*
G37*
G36*
X70656D02*
X68468D01*
X66446Y330541D01*
X64899Y328994D01*
X64062Y326973D01*
Y324785D01*
X64899Y322763D01*
X66446Y321216D01*
X68468Y320379D01*
X70656D01*
X72677Y321216D01*
X74224Y322763D01*
X75062Y324785D01*
Y326973D01*
X74224Y328994D01*
X72677Y330541D01*
X70656Y331379D01*
D02*
G37*
G36*
X665496Y323800D02*
X663904D01*
X662434Y323191D01*
X661309Y322066D01*
X660700Y320596D01*
Y319004D01*
X661309Y317534D01*
X662068Y316775D01*
X661309Y316016D01*
X660700Y314546D01*
Y312954D01*
X661309Y311484D01*
X662068Y310725D01*
X661309Y309966D01*
X660700Y308496D01*
Y306904D01*
X661309Y305434D01*
X662434Y304309D01*
X663904Y303700D01*
X665496D01*
X666966Y304309D01*
X668091Y305434D01*
X668700Y306904D01*
Y308496D01*
X668091Y309966D01*
X667332Y310725D01*
X668091Y311484D01*
X668700Y312954D01*
Y314546D01*
X668091Y316016D01*
X667332Y316775D01*
X668091Y317534D01*
X668700Y319004D01*
Y320596D01*
X668091Y322066D01*
X666966Y323191D01*
X665496Y323800D01*
D02*
G37*
G36*
X449296D02*
X447704D01*
X446234Y323191D01*
X445109Y322066D01*
X444500Y320596D01*
Y319004D01*
X445109Y317534D01*
X445868Y316775D01*
X445109Y316016D01*
X444500Y314546D01*
Y312954D01*
X445109Y311484D01*
X445868Y310725D01*
X445109Y309966D01*
X444500Y308496D01*
Y306904D01*
X445109Y305434D01*
X446234Y304309D01*
X447704Y303700D01*
X449296D01*
X450766Y304309D01*
X451891Y305434D01*
X452500Y306904D01*
Y308496D01*
X451891Y309966D01*
X451132Y310725D01*
X451891Y311484D01*
X452500Y312954D01*
Y314546D01*
X451891Y316016D01*
X451132Y316775D01*
X451891Y317534D01*
X452500Y319004D01*
Y320596D01*
X451891Y322066D01*
X450766Y323191D01*
X449296Y323800D01*
D02*
G37*
G36*
X832255Y311378D02*
X830068D01*
X828046Y310541D01*
X826499Y308994D01*
X825661Y306973D01*
Y304785D01*
X826499Y302763D01*
X828046Y301216D01*
X830068Y300379D01*
X832255D01*
X834277Y301216D01*
X835824Y302763D01*
X836662Y304785D01*
Y306973D01*
X835824Y308994D01*
X834277Y310541D01*
X832255Y311378D01*
D02*
G37*
G36*
X723456D02*
X721267D01*
X719246Y310541D01*
X717699Y308994D01*
X716861Y306973D01*
Y304785D01*
X717699Y302763D01*
X719246Y301216D01*
X721267Y300379D01*
X723456D01*
X725477Y301216D01*
X727024Y302763D01*
X727861Y304785D01*
Y306973D01*
X727024Y308994D01*
X725477Y310541D01*
X723456Y311378D01*
D02*
G37*
G36*
X614655D02*
X612467D01*
X610446Y310541D01*
X608899Y308994D01*
X608061Y306973D01*
Y304785D01*
X608899Y302763D01*
X610446Y301216D01*
X612467Y300379D01*
X614655D01*
X616677Y301216D01*
X618224Y302763D01*
X619062Y304785D01*
Y306973D01*
X618224Y308994D01*
X616677Y310541D01*
X614655Y311378D01*
D02*
G37*
G36*
X505855D02*
X503667D01*
X501646Y310541D01*
X500099Y308994D01*
X499262Y306973D01*
Y304785D01*
X500099Y302763D01*
X501646Y301216D01*
X503667Y300379D01*
X505855D01*
X507877Y301216D01*
X509424Y302763D01*
X510261Y304785D01*
Y306973D01*
X509424Y308994D01*
X507877Y310541D01*
X505855Y311378D01*
D02*
G37*
G36*
X397056D02*
X394868D01*
X392846Y310541D01*
X391299Y308994D01*
X390462Y306973D01*
Y304785D01*
X391299Y302763D01*
X392846Y301216D01*
X394868Y300379D01*
X397056D01*
X399077Y301216D01*
X400624Y302763D01*
X401461Y304785D01*
Y306973D01*
X400624Y308994D01*
X399077Y310541D01*
X397056Y311378D01*
D02*
G37*
G36*
X288256D02*
X286068D01*
X284046Y310541D01*
X282499Y308994D01*
X281662Y306973D01*
Y304785D01*
X282499Y302763D01*
X284046Y301216D01*
X286068Y300379D01*
X288256D01*
X290277Y301216D01*
X291824Y302763D01*
X292661Y304785D01*
Y306973D01*
X291824Y308994D01*
X290277Y310541D01*
X288256Y311378D01*
D02*
G37*
G36*
X179456D02*
X177268D01*
X175246Y310541D01*
X173699Y308994D01*
X172862Y306973D01*
Y304785D01*
X173699Y302763D01*
X175246Y301216D01*
X177268Y300379D01*
X179456D01*
X181477Y301216D01*
X183024Y302763D01*
X183862Y304785D01*
Y306973D01*
X183024Y308994D01*
X181477Y310541D01*
X179456Y311378D01*
D02*
G37*
G36*
X70656D02*
X68468D01*
X66446Y310541D01*
X64899Y308994D01*
X64062Y306973D01*
Y304785D01*
X64899Y302763D01*
X66446Y301216D01*
X68468Y300379D01*
X70656D01*
X72677Y301216D01*
X74224Y302763D01*
X75062Y304785D01*
Y306973D01*
X74224Y308994D01*
X72677Y310541D01*
X70656Y311378D01*
D02*
G37*
G36*
X15496Y284350D02*
X13904D01*
X12434Y283741D01*
X11309Y282616D01*
X10700Y281146D01*
Y279554D01*
X11309Y278084D01*
X12434Y276959D01*
X13904Y276350D01*
X15496D01*
X16966Y276959D01*
X18091Y278084D01*
X18700Y279554D01*
Y281146D01*
X18091Y282616D01*
X16966Y283741D01*
X15496Y284350D01*
D02*
G37*
G36*
Y273762D02*
X13904D01*
X12434Y273153D01*
X11309Y272028D01*
X10700Y270558D01*
Y268967D01*
X11309Y267497D01*
X12434Y266371D01*
X13904Y265763D01*
X15496D01*
X16966Y266371D01*
X18091Y267497D01*
X18700Y268967D01*
Y270558D01*
X18091Y272028D01*
X16966Y273153D01*
X15496Y273762D01*
D02*
G37*
G36*
Y263175D02*
X13904D01*
X12434Y262566D01*
X11309Y261441D01*
X10700Y259971D01*
Y258379D01*
X11309Y256909D01*
X12434Y255784D01*
X13904Y255175D01*
X15496D01*
X16966Y255784D01*
X18091Y256909D01*
X18700Y258379D01*
Y259971D01*
X18091Y261441D01*
X16966Y262566D01*
X15496Y263175D01*
D02*
G37*
G36*
Y252588D02*
X13904D01*
X12434Y251978D01*
X11309Y250853D01*
X10700Y249383D01*
Y247792D01*
X11309Y246322D01*
X12434Y245196D01*
X13904Y244587D01*
X15496D01*
X16966Y245196D01*
X18091Y246322D01*
X18700Y247792D01*
Y249383D01*
X18091Y250853D01*
X16966Y251978D01*
X15496Y252588D01*
D02*
G37*
G36*
Y242000D02*
X13904D01*
X12434Y241391D01*
X11309Y240266D01*
X10700Y238796D01*
Y237204D01*
X11309Y235734D01*
X12434Y234609D01*
X13904Y234000D01*
X15496D01*
X16966Y234609D01*
X18091Y235734D01*
X18700Y237204D01*
Y238796D01*
X18091Y240266D01*
X16966Y241391D01*
X15496Y242000D01*
D02*
G37*
G36*
X742396Y231076D02*
X740804D01*
X739334Y230467D01*
X738209Y229342D01*
X737600Y227871D01*
Y226280D01*
X738209Y224810D01*
X739334Y223685D01*
X740804Y223076D01*
X742396D01*
X743866Y223685D01*
X744991Y224810D01*
X745600Y226280D01*
Y227871D01*
X744991Y229342D01*
X743866Y230467D01*
X742396Y231076D01*
D02*
G37*
G36*
X711896Y224576D02*
X710304D01*
X708834Y223967D01*
X707709Y222841D01*
X707100Y221371D01*
Y219780D01*
X707709Y218310D01*
X708834Y217185D01*
X710304Y216576D01*
X711896D01*
X713366Y217185D01*
X714491Y218310D01*
X715100Y219780D01*
Y221371D01*
X714491Y222841D01*
X713366Y223967D01*
X711896Y224576D01*
D02*
G37*
G36*
X704496Y218076D02*
X702904D01*
X701434Y217467D01*
X700309Y216341D01*
X699700Y214871D01*
Y213280D01*
X700309Y211810D01*
X701434Y210685D01*
X702904Y210075D01*
X704496D01*
X705966Y210685D01*
X707091Y211810D01*
X707700Y213280D01*
Y214871D01*
X707091Y216341D01*
X705966Y217467D01*
X704496Y218076D01*
D02*
G37*
G36*
X542196Y213900D02*
X540604D01*
X539134Y213291D01*
X538009Y212166D01*
X537400Y210696D01*
Y209104D01*
X538009Y207634D01*
X539134Y206509D01*
X540604Y205900D01*
X542196D01*
X543666Y206509D01*
X544791Y207634D01*
X545400Y209104D01*
Y210696D01*
X544791Y212166D01*
X543666Y213291D01*
X542196Y213900D01*
D02*
G37*
G36*
X311796Y188100D02*
X310204D01*
X308734Y187491D01*
X307609Y186366D01*
X307000Y184896D01*
Y183304D01*
X307609Y181834D01*
X308734Y180709D01*
X310204Y180100D01*
X311796D01*
X313266Y180709D01*
X314391Y181834D01*
X315000Y183304D01*
Y184896D01*
X314391Y186366D01*
X313266Y187491D01*
X311796Y188100D01*
D02*
G37*
G36*
X380390Y164800D02*
X378799D01*
X377329Y164191D01*
X376204Y163066D01*
X375595Y161596D01*
Y160004D01*
X376204Y158534D01*
X377329Y157409D01*
X378799Y156800D01*
X380390D01*
X381861Y157409D01*
X382986Y158534D01*
X383595Y160004D01*
Y161596D01*
X382986Y163066D01*
X381861Y164191D01*
X380390Y164800D01*
D02*
G37*
G36*
X468000Y175580D02*
X456000D01*
Y162580D01*
X456902D01*
Y151280D01*
X456000D01*
Y138280D01*
X468000D01*
Y151280D01*
X467098D01*
Y162580D01*
X468000D01*
Y175580D01*
D02*
G37*
G36*
X361250Y144128D02*
X349250D01*
X347299Y143740D01*
X345645Y142635D01*
X344540Y140981D01*
X344152Y139030D01*
X344540Y137079D01*
X345645Y135425D01*
X347299Y134320D01*
X349250Y133932D01*
X361250D01*
X363201Y134320D01*
X364855Y135425D01*
X365960Y137079D01*
X366348Y139030D01*
X365960Y140981D01*
X364855Y142635D01*
X363201Y143740D01*
X361250Y144128D01*
D02*
G37*
G36*
X417750Y118728D02*
X405750D01*
X403799Y118340D01*
X402145Y117235D01*
X401040Y115581D01*
X400652Y113630D01*
X401040Y111679D01*
X402145Y110025D01*
X403799Y108920D01*
X405750Y108532D01*
X417750D01*
X419701Y108920D01*
X421355Y110025D01*
X422460Y111679D01*
X422848Y113630D01*
X422460Y115581D01*
X421355Y117235D01*
X419701Y118340D01*
X417750Y118728D01*
D02*
G37*
G36*
X329800Y142731D02*
X329308Y142633D01*
X323300D01*
Y132633D01*
X324702D01*
Y131348D01*
X323299D01*
Y121348D01*
X324802D01*
Y120915D01*
X325190Y118964D01*
X326295Y117310D01*
X329810Y113795D01*
X331464Y112690D01*
X333415Y112302D01*
X343368D01*
X345645Y110025D01*
X347299Y108920D01*
X349250Y108532D01*
X361250D01*
X363201Y108920D01*
X364855Y110025D01*
X365960Y111679D01*
X366348Y113630D01*
X365960Y115581D01*
X364855Y117235D01*
X363201Y118340D01*
X361250Y118728D01*
X351362D01*
X350127Y119962D01*
X350654Y121232D01*
X361250D01*
X363201Y121620D01*
X364855Y122725D01*
X365960Y124379D01*
X366348Y126330D01*
X365960Y128281D01*
X364855Y129935D01*
X363201Y131040D01*
X361250Y131428D01*
X349250D01*
X347299Y131040D01*
X345645Y129935D01*
X344540Y128281D01*
X344152Y126330D01*
X344540Y124379D01*
X344949Y123768D01*
X344270Y122498D01*
X336299D01*
Y131348D01*
X334898D01*
Y132633D01*
X336300D01*
Y142633D01*
X330293D01*
X329800Y142731D01*
D02*
G37*
G36*
X233454Y114900D02*
X231863D01*
X230393Y114291D01*
X229268Y113166D01*
X228659Y111696D01*
Y110104D01*
X229268Y108634D01*
X230393Y107509D01*
X231863Y106900D01*
X233454D01*
X234925Y107509D01*
X236050Y108634D01*
X236659Y110104D01*
Y111696D01*
X236050Y113166D01*
X234925Y114291D01*
X233454Y114900D01*
D02*
G37*
G36*
X224096D02*
X222504D01*
X221034Y114291D01*
X219909Y113166D01*
X219300Y111696D01*
Y110104D01*
X219909Y108634D01*
X221034Y107509D01*
X222504Y106900D01*
X224096D01*
X225566Y107509D01*
X226691Y108634D01*
X227300Y110104D01*
Y111696D01*
X226691Y113166D01*
X225566Y114291D01*
X224096Y114900D01*
D02*
G37*
G36*
X492096Y110000D02*
X490504D01*
X489034Y109391D01*
X487909Y108266D01*
X487300Y106796D01*
Y105204D01*
X487909Y103734D01*
X489034Y102609D01*
X490504Y102000D01*
X492096D01*
X493566Y102609D01*
X494691Y103734D01*
X495300Y105204D01*
Y106796D01*
X494691Y108266D01*
X493566Y109391D01*
X492096Y110000D01*
D02*
G37*
G36*
X768759Y105500D02*
X767168D01*
X765698Y104891D01*
X764573Y103766D01*
X763964Y102296D01*
Y100704D01*
X764573Y99234D01*
X765698Y98109D01*
X767168Y97500D01*
X768759D01*
X770229Y98109D01*
X771355Y99234D01*
X771964Y100704D01*
Y102296D01*
X771355Y103766D01*
X770229Y104891D01*
X768759Y105500D01*
D02*
G37*
G36*
X463396Y101400D02*
X461804D01*
X460334Y100791D01*
X459209Y99666D01*
X458600Y98196D01*
Y96604D01*
X459209Y95134D01*
X460334Y94009D01*
X461804Y93400D01*
X463396D01*
X464866Y94009D01*
X465991Y95134D01*
X466600Y96604D01*
Y98196D01*
X465991Y99666D01*
X464866Y100791D01*
X463396Y101400D01*
D02*
G37*
G36*
X395596D02*
X394004D01*
X392534Y100791D01*
X391409Y99666D01*
X390800Y98196D01*
Y96604D01*
X391409Y95134D01*
X392534Y94009D01*
X394004Y93400D01*
X395596D01*
X397066Y94009D01*
X398191Y95134D01*
X398800Y96604D01*
Y98196D01*
X398191Y99666D01*
X397066Y100791D01*
X395596Y101400D01*
D02*
G37*
G36*
X740396Y96200D02*
X738804D01*
X737334Y95591D01*
X736209Y94466D01*
X735600Y92996D01*
Y91404D01*
X736209Y89934D01*
X737334Y88809D01*
X738804Y88200D01*
X740396D01*
X741866Y88809D01*
X742991Y89934D01*
X743600Y91404D01*
Y92996D01*
X742991Y94466D01*
X741866Y95591D01*
X740396Y96200D01*
D02*
G37*
G36*
X728246D02*
X726654D01*
X725184Y95591D01*
X724059Y94466D01*
X723450Y92996D01*
Y91404D01*
X724059Y89934D01*
X725184Y88809D01*
X726654Y88200D01*
X728246D01*
X729716Y88809D01*
X730841Y89934D01*
X731450Y91404D01*
Y92996D01*
X730841Y94466D01*
X729716Y95591D01*
X728246Y96200D01*
D02*
G37*
G36*
X240896Y88000D02*
X239304D01*
X237834Y87391D01*
X236709Y86266D01*
X236100Y84796D01*
Y83204D01*
X236709Y81734D01*
X237834Y80609D01*
X239304Y80000D01*
X240896D01*
X242366Y80609D01*
X243491Y81734D01*
X244100Y83204D01*
Y84796D01*
X243491Y86266D01*
X242366Y87391D01*
X240896Y88000D01*
D02*
G37*
G36*
X330696Y99480D02*
X328064D01*
X325520Y98799D01*
X323240Y97482D01*
X321378Y95620D01*
X320061Y93340D01*
X319380Y90796D01*
Y88163D01*
X320061Y85620D01*
X321378Y83340D01*
X323240Y81478D01*
X325520Y80162D01*
X328064Y79480D01*
X330696D01*
X333240Y80162D01*
X335520Y81478D01*
X337382Y83340D01*
X338699Y85620D01*
X339380Y88163D01*
Y90796D01*
X338699Y93340D01*
X337382Y95620D01*
X335520Y97482D01*
X333240Y98799D01*
X330696Y99480D01*
D02*
G37*
G36*
X239958Y533638D02*
X239564Y533560D01*
X239162D01*
X238791Y533406D01*
X238397Y533328D01*
X238063Y533105D01*
X237692Y532951D01*
X237408Y532667D01*
X237074Y532444D01*
X236851Y532110D01*
X236567Y531826D01*
X236413Y531455D01*
X236190Y531121D01*
X236111Y530727D01*
X235958Y530356D01*
Y529954D01*
X235879Y529560D01*
Y293742D01*
X235879Y293742D01*
X236190Y292182D01*
X237074Y290858D01*
X240522Y287411D01*
Y270489D01*
X237074Y267041D01*
X236190Y265718D01*
X235879Y264158D01*
X235879Y264158D01*
Y201450D01*
X235958Y201056D01*
Y200654D01*
X236111Y200283D01*
X236190Y199889D01*
X236413Y199555D01*
X236567Y199184D01*
X236851Y198900D01*
X237074Y198566D01*
X237408Y198343D01*
X237692Y198059D01*
X238063Y197905D01*
X238397Y197682D01*
X238791Y197604D01*
X239162Y197450D01*
X239564D01*
X239958Y197372D01*
X240352Y197450D01*
X240753D01*
X241124Y197604D01*
X241518Y197682D01*
X241852Y197905D01*
X242223Y198059D01*
X242507Y198343D01*
X242841Y198566D01*
X243065Y198900D01*
X243349Y199184D01*
X243502Y199555D01*
X243726Y199889D01*
X243804Y200283D01*
X243958Y200654D01*
Y201056D01*
X244036Y201450D01*
Y261227D01*
X244130Y261290D01*
X245401Y260611D01*
Y201450D01*
X245479Y201056D01*
Y200654D01*
X245633Y200283D01*
X245711Y199889D01*
X245934Y199555D01*
X246088Y199184D01*
X246372Y198900D01*
X246595Y198566D01*
X246929Y198343D01*
X247213Y198059D01*
X247584Y197905D01*
X247918Y197682D01*
X248312Y197604D01*
X248683Y197450D01*
X249085D01*
X249479Y197372D01*
X249873Y197450D01*
X250275D01*
X250646Y197604D01*
X251040Y197682D01*
X251374Y197905D01*
X251745Y198059D01*
X252029Y198343D01*
X252363Y198566D01*
X252586Y198900D01*
X252870Y199184D01*
X253024Y199555D01*
X253247Y199889D01*
X253325Y200283D01*
X253479Y200654D01*
Y201056D01*
X253557Y201450D01*
Y260048D01*
X253652Y260112D01*
X254922Y259433D01*
Y201450D01*
X255000Y201056D01*
Y200654D01*
X255154Y200283D01*
X255232Y199889D01*
X255455Y199555D01*
X255609Y199184D01*
X255893Y198900D01*
X256116Y198566D01*
X256450Y198343D01*
X256734Y198059D01*
X257105Y197905D01*
X257439Y197682D01*
X257833Y197604D01*
X258204Y197450D01*
X258606D01*
X259000Y197372D01*
X259394Y197450D01*
X259796D01*
X259861Y197477D01*
X260471Y197234D01*
X260537Y197190D01*
X261042Y196626D01*
X261061Y196585D01*
X261061Y193380D01*
X261050D01*
Y156380D01*
X296550D01*
Y190466D01*
X301045Y194961D01*
X313808D01*
X314334Y193691D01*
X314309Y193666D01*
X313700Y192196D01*
Y190604D01*
X314309Y189134D01*
X315434Y188009D01*
X316904Y187400D01*
X318496D01*
X319966Y188009D01*
X321091Y189134D01*
X321700Y190604D01*
Y192196D01*
X321091Y193666D01*
X321066Y193691D01*
X321592Y194961D01*
X324702D01*
Y193380D01*
X323800D01*
Y180380D01*
X335800D01*
Y193380D01*
X334898D01*
Y194961D01*
X385955Y194961D01*
X391025Y189891D01*
Y165793D01*
X400761D01*
Y152277D01*
X400652Y151730D01*
X401040Y149779D01*
X402145Y148125D01*
X403799Y147020D01*
X405750Y146632D01*
X417750D01*
X419701Y147020D01*
X420291Y147414D01*
X421561Y146735D01*
Y145039D01*
X402700D01*
X401920Y144884D01*
X401258Y144442D01*
X400816Y143780D01*
X400661Y143000D01*
Y139074D01*
X400652Y139030D01*
X400661Y138986D01*
Y135000D01*
X400816Y134220D01*
X401258Y133558D01*
X401920Y133116D01*
X402700Y132961D01*
X434800D01*
X435580Y133116D01*
X436242Y133558D01*
X436684Y134220D01*
X436839Y135000D01*
Y138280D01*
X448500D01*
Y151280D01*
X447598D01*
Y162580D01*
X448500D01*
Y175580D01*
X436839D01*
Y178561D01*
X483561D01*
Y113900D01*
X483716Y113120D01*
X484158Y112458D01*
X484820Y112016D01*
X485600Y111861D01*
X501599D01*
X514092Y95846D01*
X514188Y95763D01*
X514258Y95658D01*
X514487Y95505D01*
X514695Y95326D01*
X514814Y95286D01*
X514920Y95216D01*
X515189Y95162D01*
X515450Y95076D01*
X515576Y95085D01*
X515700Y95061D01*
X546955D01*
X547441Y93887D01*
X547077Y93523D01*
X546303Y92366D01*
X546148Y91588D01*
X543400D01*
Y78588D01*
X555400D01*
Y89831D01*
X595922D01*
X603276Y82478D01*
X604434Y81704D01*
X605799Y81432D01*
X610600D01*
X610693Y81451D01*
X613045D01*
X613466Y80533D01*
X613545Y80278D01*
X613550Y80232D01*
Y79387D01*
X613138Y79049D01*
X610678D01*
X610600Y79064D01*
X582851D01*
X581583Y78812D01*
X580508Y78094D01*
X578757Y76343D01*
X578039Y75268D01*
X577786Y74000D01*
Y73732D01*
X574401D01*
Y63732D01*
X587401D01*
Y72437D01*
X592431D01*
X592917Y71264D01*
X592277Y70623D01*
X591503Y69466D01*
X591231Y68100D01*
Y62178D01*
X589922Y60869D01*
X570800D01*
X569434Y60597D01*
X568277Y59823D01*
X564877Y56423D01*
X564103Y55266D01*
X563831Y53900D01*
Y50192D01*
X560900D01*
Y38192D01*
X573900D01*
Y50192D01*
X570969D01*
Y52422D01*
X572278Y53731D01*
X591400D01*
X592766Y54003D01*
X593923Y54777D01*
X597323Y58177D01*
X598097Y59334D01*
X598369Y60700D01*
Y66622D01*
X599179Y67432D01*
X608283D01*
X608909Y66640D01*
X609068Y66314D01*
X609070Y66288D01*
X609071Y66284D01*
X609081Y66181D01*
X609085Y66155D01*
X609101Y66105D01*
X609101Y66053D01*
X609105Y66027D01*
X609126Y65975D01*
X609128Y65920D01*
X609134Y65894D01*
X609157Y65845D01*
X609162Y65792D01*
X609169Y65767D01*
X609195Y65719D01*
X609202Y65665D01*
X609211Y65641D01*
X609238Y65595D01*
X609249Y65542D01*
X609259Y65518D01*
X609289Y65472D01*
X609303Y65419D01*
X609314Y65395D01*
X609347Y65352D01*
X609363Y65300D01*
X609375Y65277D01*
X609409Y65236D01*
X609428Y65186D01*
X609441Y65164D01*
X609479Y65124D01*
X609501Y65073D01*
X609515Y65051D01*
X609553Y65014D01*
X609577Y64966D01*
X609593Y64946D01*
X609634Y64909D01*
X609661Y64861D01*
X609678Y64841D01*
X609721Y64808D01*
X609749Y64762D01*
X609767Y64743D01*
X609811Y64712D01*
X609843Y64668D01*
X609862Y64650D01*
X609907Y64621D01*
X609941Y64579D01*
X609961Y64562D01*
X610009Y64535D01*
X610045Y64494D01*
X610066Y64478D01*
X610113Y64454D01*
X610150Y64416D01*
X610172Y64401D01*
X610222Y64380D01*
X610262Y64343D01*
X610284Y64329D01*
X610336Y64310D01*
X610378Y64275D01*
X610401Y64262D01*
X610452Y64247D01*
X610494Y64215D01*
X610518Y64204D01*
X610571Y64190D01*
X610617Y64160D01*
X610641Y64150D01*
X610694Y64139D01*
X610740Y64112D01*
X610765Y64103D01*
X610818Y64095D01*
X610866Y64070D01*
X610891Y64063D01*
X610945Y64058D01*
X610994Y64035D01*
X611019Y64029D01*
X611073Y64027D01*
X611124Y64007D01*
X611150Y64002D01*
X611205Y64003D01*
X611257Y63985D01*
X611283Y63982D01*
X611336Y63985D01*
X611387Y63971D01*
X611413Y63969D01*
X611468Y63975D01*
X611520Y63963D01*
X611547Y63962D01*
X611573Y63967D01*
X611600Y63962D01*
X613100D01*
X613127Y63967D01*
X613153Y63962D01*
X613180Y63963D01*
X613233Y63975D01*
X613287Y63969D01*
X613313Y63971D01*
X613364Y63985D01*
X613417Y63982D01*
X613443Y63985D01*
X613495Y64003D01*
X613550Y64002D01*
X613576Y64007D01*
X613627Y64027D01*
X613681Y64029D01*
X613706Y64035D01*
X613755Y64058D01*
X613809Y64063D01*
X613834Y64070D01*
X613882Y64095D01*
X613935Y64103D01*
X613960Y64112D01*
X614006Y64139D01*
X614059Y64150D01*
X614083Y64160D01*
X614129Y64190D01*
X614182Y64204D01*
X614206Y64215D01*
X614248Y64247D01*
X614299Y64262D01*
X614322Y64275D01*
X614364Y64310D01*
X614416Y64329D01*
X614438Y64343D01*
X614478Y64380D01*
X614528Y64401D01*
X614550Y64416D01*
X614587Y64454D01*
X614634Y64478D01*
X614649Y64489D01*
X615158Y64149D01*
X616155Y63951D01*
X618045D01*
X618531Y63552D01*
Y50739D01*
X604600D01*
X603820Y50584D01*
X603233Y50192D01*
X602595D01*
Y48872D01*
X602561Y48700D01*
Y30900D01*
X602716Y30120D01*
X603158Y29458D01*
X603820Y29016D01*
X604600Y28861D01*
X639400D01*
X640180Y29016D01*
X640842Y29458D01*
X641284Y30120D01*
X641439Y30900D01*
Y48700D01*
X641408Y48855D01*
Y50699D01*
X639603D01*
X639400Y50739D01*
X625669D01*
Y62736D01*
X625670Y62756D01*
X625762Y63074D01*
X626100Y63962D01*
X627600D01*
X627627Y63967D01*
X627654Y63962D01*
X627680Y63963D01*
X627733Y63975D01*
X627786Y63969D01*
X627813Y63971D01*
X627864Y63985D01*
X627917Y63982D01*
X627943Y63985D01*
X627995Y64003D01*
X628050Y64002D01*
X628076Y64007D01*
X628126Y64027D01*
X628181Y64029D01*
X628206Y64035D01*
X628255Y64058D01*
X628309Y64063D01*
X628334Y64070D01*
X628382Y64095D01*
X628436Y64103D01*
X628460Y64112D01*
X628506Y64139D01*
X628559Y64150D01*
X628583Y64160D01*
X628629Y64190D01*
X628682Y64204D01*
X628705Y64215D01*
X628748Y64247D01*
X628799Y64262D01*
X628822Y64275D01*
X628864Y64310D01*
X628916Y64329D01*
X628938Y64343D01*
X628978Y64380D01*
X629028Y64401D01*
X629050Y64416D01*
X629087Y64454D01*
X629134Y64478D01*
X629155Y64494D01*
X629191Y64535D01*
X629239Y64562D01*
X629259Y64579D01*
X629293Y64621D01*
X629338Y64650D01*
X629357Y64668D01*
X629389Y64712D01*
X629433Y64743D01*
X629451Y64762D01*
X629479Y64808D01*
X629522Y64841D01*
X629539Y64861D01*
X629566Y64909D01*
X629607Y64946D01*
X629623Y64966D01*
X629646Y65014D01*
X629685Y65051D01*
X629699Y65073D01*
X629721Y65123D01*
X629759Y65164D01*
X629772Y65186D01*
X629791Y65236D01*
X629825Y65277D01*
X629837Y65300D01*
X629853Y65352D01*
X629886Y65395D01*
X629897Y65419D01*
X629911Y65472D01*
X629941Y65518D01*
X629951Y65542D01*
X629962Y65595D01*
X629989Y65641D01*
X629998Y65665D01*
X630005Y65719D01*
X630031Y65767D01*
X630038Y65792D01*
X630043Y65845D01*
X630066Y65894D01*
X630072Y65920D01*
X630074Y65975D01*
X630094Y66027D01*
X630099Y66053D01*
X630098Y66105D01*
X630115Y66155D01*
X630119Y66181D01*
X630129Y66284D01*
X630130Y66288D01*
X630132Y66314D01*
X630290Y66640D01*
X630917Y67432D01*
X637121D01*
X638543Y66010D01*
X639700Y65237D01*
X641066Y64965D01*
X649967D01*
Y63832D01*
X649979D01*
Y50700D01*
X649567D01*
Y37700D01*
X659567D01*
Y50700D01*
X659155D01*
Y63832D01*
X662967D01*
Y73832D01*
X658378D01*
X657891Y75005D01*
X658809Y75923D01*
X659527Y76998D01*
X659780Y78266D01*
Y81991D01*
X662966D01*
Y91991D01*
X661564D01*
Y106301D01*
X662967D01*
Y116301D01*
X656960D01*
X656467Y116399D01*
X656466D01*
X655974Y116301D01*
X649967D01*
Y110086D01*
X648697Y109560D01*
X648066Y110191D01*
X646596Y110800D01*
X645004D01*
X643534Y110191D01*
X642409Y109066D01*
X641800Y107596D01*
Y106004D01*
X642409Y104534D01*
X643493Y103450D01*
X642509Y102466D01*
X641900Y100996D01*
Y99404D01*
X642509Y97934D01*
X643634Y96809D01*
X645104Y96200D01*
X646696D01*
X648166Y96809D01*
X649291Y97934D01*
X649900Y99404D01*
Y100996D01*
X649291Y102466D01*
X648207Y103550D01*
X649191Y104534D01*
X649393Y105021D01*
X649923Y105292D01*
X650967Y105431D01*
X651368Y105132D01*
Y91991D01*
X649966D01*
Y81991D01*
X653152D01*
Y79639D01*
X652578Y79064D01*
X633976D01*
X633648Y79463D01*
Y81038D01*
X633457Y81999D01*
X633132Y82485D01*
X633147Y82514D01*
X633185Y82551D01*
X633199Y82573D01*
X633221Y82623D01*
X633258Y82662D01*
X633271Y82685D01*
X633290Y82737D01*
X633326Y82779D01*
X633338Y82802D01*
X633354Y82853D01*
X633386Y82895D01*
X633397Y82919D01*
X633410Y82972D01*
X633441Y83018D01*
X633451Y83042D01*
X633461Y83095D01*
X633489Y83141D01*
X633498Y83165D01*
X633505Y83219D01*
X633531Y83267D01*
X633538Y83292D01*
X633543Y83346D01*
X633566Y83394D01*
X633572Y83420D01*
X633574Y83474D01*
X633594Y83525D01*
X633599Y83551D01*
X633598Y83605D01*
X633616Y83658D01*
X633619Y83683D01*
X633616Y83737D01*
X633630Y83788D01*
X633632Y83814D01*
X633626Y83868D01*
X633638Y83921D01*
X633638Y83947D01*
X633634Y83974D01*
X633639Y84001D01*
Y84001D01*
X633650Y84056D01*
Y85946D01*
X633639Y86000D01*
Y86001D01*
X633634Y86027D01*
X633638Y86054D01*
X633638Y86080D01*
X633626Y86133D01*
X633632Y86187D01*
X633630Y86213D01*
X633616Y86265D01*
X633619Y86318D01*
X633616Y86344D01*
X633598Y86396D01*
X633599Y86451D01*
X633594Y86477D01*
X633574Y86527D01*
X633572Y86582D01*
X633566Y86607D01*
X633543Y86656D01*
X633538Y86709D01*
X633531Y86735D01*
X633505Y86783D01*
X633498Y86836D01*
X633489Y86861D01*
X633461Y86907D01*
X633451Y86960D01*
X633441Y86984D01*
X633410Y87030D01*
X633397Y87083D01*
X633386Y87106D01*
X633354Y87149D01*
X633338Y87199D01*
X633326Y87222D01*
X633291Y87265D01*
X633271Y87317D01*
X633258Y87339D01*
X633221Y87379D01*
X633199Y87429D01*
X633185Y87450D01*
X633147Y87487D01*
X633123Y87535D01*
X633107Y87556D01*
X633066Y87592D01*
X633039Y87640D01*
X633022Y87660D01*
X632980Y87694D01*
X632951Y87739D01*
X632933Y87758D01*
X632888Y87789D01*
X632857Y87833D01*
X632838Y87851D01*
X632793Y87880D01*
X632759Y87923D01*
X632739Y87940D01*
X632691Y87966D01*
X632655Y88008D01*
X632634Y88024D01*
X632587Y88047D01*
X632550Y88085D01*
X632528Y88100D01*
X632477Y88122D01*
X632437Y88159D01*
X632415Y88173D01*
X632365Y88191D01*
X632324Y88225D01*
X632301Y88238D01*
X632249Y88254D01*
X632206Y88287D01*
X632182Y88298D01*
X632128Y88311D01*
X632082Y88342D01*
X632058Y88352D01*
X632006Y88362D01*
X631960Y88390D01*
X631936Y88399D01*
X631882Y88406D01*
X631834Y88431D01*
X631809Y88439D01*
X631755Y88444D01*
X631706Y88466D01*
X631681Y88472D01*
X631625Y88475D01*
X631574Y88495D01*
X631548Y88500D01*
X631495Y88499D01*
X631446Y88516D01*
X631420Y88520D01*
X631396Y88518D01*
X631354Y88519D01*
X631312Y88531D01*
X631286Y88533D01*
X631031Y88631D01*
X630593Y88959D01*
X630249Y89410D01*
X630132Y89687D01*
X630130Y89713D01*
X630122Y89742D01*
X630118Y89812D01*
X630119Y89820D01*
X630115Y89846D01*
X630098Y89896D01*
X630099Y89949D01*
X630094Y89975D01*
X630074Y90026D01*
X630072Y90082D01*
X630066Y90107D01*
X630043Y90156D01*
X630038Y90210D01*
X630031Y90235D01*
X630005Y90283D01*
X629998Y90336D01*
X629989Y90361D01*
X629962Y90407D01*
X629951Y90459D01*
X629941Y90483D01*
X629911Y90529D01*
X629897Y90583D01*
X629886Y90606D01*
X629853Y90650D01*
X629837Y90702D01*
X629825Y90725D01*
X629791Y90766D01*
X629772Y90815D01*
X629759Y90838D01*
X629721Y90878D01*
X629699Y90929D01*
X629685Y90950D01*
X629646Y90988D01*
X629623Y91035D01*
X629607Y91056D01*
X629566Y91092D01*
X629539Y91140D01*
X629522Y91160D01*
X629479Y91194D01*
X629451Y91239D01*
X629433Y91258D01*
X629389Y91289D01*
X629357Y91333D01*
X629338Y91351D01*
X629293Y91380D01*
X629259Y91423D01*
X629239Y91440D01*
X629191Y91467D01*
X629155Y91508D01*
X629134Y91524D01*
X629087Y91547D01*
X629050Y91585D01*
X629028Y91600D01*
X628978Y91622D01*
X628938Y91658D01*
X628916Y91672D01*
X628864Y91691D01*
X628822Y91727D01*
X628799Y91739D01*
X628748Y91755D01*
X628705Y91786D01*
X628682Y91798D01*
X628629Y91811D01*
X628583Y91842D01*
X628559Y91852D01*
X628506Y91862D01*
X628460Y91890D01*
X628436Y91898D01*
X628382Y91906D01*
X628334Y91931D01*
X628309Y91939D01*
X628255Y91944D01*
X628206Y91966D01*
X628181Y91973D01*
X628126Y91975D01*
X628076Y91995D01*
X628050Y92000D01*
X627995Y91999D01*
X627943Y92017D01*
X627917Y92020D01*
X627864Y92016D01*
X627813Y92031D01*
X627786Y92033D01*
X627733Y92027D01*
X627680Y92039D01*
X627654Y92039D01*
X627627Y92035D01*
X627600Y92040D01*
X626100D01*
X626073Y92035D01*
X626047Y92039D01*
X626020Y92039D01*
X625967Y92027D01*
X625914Y92033D01*
X625887Y92031D01*
X625836Y92016D01*
X625783Y92020D01*
X625757Y92017D01*
X625705Y91999D01*
X625650Y92000D01*
X625624Y91995D01*
X625574Y91975D01*
X625519Y91973D01*
X625494Y91966D01*
X625445Y91944D01*
X625391Y91939D01*
X625366Y91931D01*
X625318Y91906D01*
X625265Y91899D01*
X625241Y91890D01*
X625194Y91862D01*
X625141Y91852D01*
X625117Y91842D01*
X625071Y91811D01*
X625018Y91798D01*
X624995Y91786D01*
X624952Y91755D01*
X624901Y91739D01*
X624878Y91727D01*
X624836Y91691D01*
X624784Y91672D01*
X624762Y91658D01*
X624722Y91622D01*
X624672Y91600D01*
X624650Y91585D01*
X624613Y91547D01*
X624566Y91524D01*
X624551Y91512D01*
X624042Y91853D01*
X623045Y92051D01*
X621155D01*
X620539Y92556D01*
Y101800D01*
X620539Y101800D01*
X620384Y102580D01*
X619942Y103242D01*
X615542Y107642D01*
X614880Y108084D01*
X614100Y108239D01*
X580845D01*
X577939Y111145D01*
X577939Y152213D01*
X586900D01*
Y183903D01*
X586939Y184100D01*
Y201500D01*
X586784Y202280D01*
X586342Y202942D01*
X585680Y203384D01*
X584900Y203539D01*
X571215D01*
X571215Y203539D01*
X444639Y203539D01*
Y253400D01*
X444484Y254180D01*
X444042Y254842D01*
X443380Y255284D01*
X442600Y255439D01*
X277900D01*
X277120Y255284D01*
X276458Y254842D01*
X276016Y254180D01*
X275861Y253400D01*
Y234800D01*
X276016Y234020D01*
X276458Y233358D01*
X277120Y232916D01*
X277900Y232761D01*
X402946D01*
X403789Y231491D01*
X403501Y230796D01*
Y229204D01*
X404110Y227734D01*
X405235Y226609D01*
X406706Y226000D01*
X408297D01*
X409767Y226609D01*
X410892Y227734D01*
X411501Y229204D01*
Y230796D01*
X411213Y231491D01*
X412057Y232761D01*
X421561D01*
Y213563D01*
X420700Y212439D01*
X276500Y212439D01*
X276500Y212439D01*
X275720Y212284D01*
X275058Y211842D01*
X275058Y211842D01*
X264300Y201084D01*
X263575Y201301D01*
X263078Y201658D01*
Y517400D01*
X263000Y517794D01*
Y518196D01*
X262846Y518567D01*
X262768Y518961D01*
X262545Y519295D01*
X262391Y519666D01*
X262107Y519950D01*
X261884Y520284D01*
X261550Y520507D01*
X261266Y520791D01*
X260895Y520945D01*
X260561Y521168D01*
X260167Y521246D01*
X259796Y521400D01*
X259394D01*
X259000Y521478D01*
X258606Y521400D01*
X258204D01*
X257833Y521246D01*
X257439Y521168D01*
X257105Y520945D01*
X256734Y520791D01*
X256450Y520507D01*
X256116Y520284D01*
X255893Y519950D01*
X255609Y519666D01*
X255455Y519295D01*
X255232Y518961D01*
X255154Y518567D01*
X255000Y518196D01*
Y517794D01*
X254922Y517400D01*
Y297267D01*
X253652Y296588D01*
X253557Y296652D01*
Y523480D01*
X253479Y523874D01*
Y524276D01*
X253325Y524647D01*
X253247Y525041D01*
X253024Y525375D01*
X252870Y525746D01*
X252586Y526030D01*
X252363Y526364D01*
X252029Y526587D01*
X251745Y526871D01*
X251374Y527025D01*
X251040Y527248D01*
X250646Y527326D01*
X250275Y527480D01*
X249873D01*
X249479Y527558D01*
X249085Y527480D01*
X248683D01*
X248312Y527326D01*
X247918Y527248D01*
X247584Y527025D01*
X247213Y526871D01*
X246929Y526587D01*
X246595Y526364D01*
X246372Y526030D01*
X246088Y525746D01*
X245934Y525375D01*
X245711Y525041D01*
X245633Y524647D01*
X245479Y524276D01*
Y523874D01*
X245401Y523480D01*
Y297152D01*
X244130Y296473D01*
X244036Y296536D01*
Y529560D01*
X243958Y529954D01*
Y530356D01*
X243804Y530727D01*
X243726Y531121D01*
X243502Y531455D01*
X243349Y531826D01*
X243065Y532110D01*
X242842Y532444D01*
X242507Y532667D01*
X242223Y532951D01*
X241852Y533105D01*
X241518Y533328D01*
X241124Y533406D01*
X240753Y533560D01*
X240352D01*
X239958Y533638D01*
D02*
G37*
G36*
X436380Y100038D02*
X434618Y99806D01*
X432976Y99126D01*
X431566Y98044D01*
X430484Y96634D01*
X429804Y94992D01*
X429572Y93230D01*
Y85730D01*
X429804Y83968D01*
X430484Y82326D01*
X431566Y80916D01*
X432976Y79834D01*
X434618Y79154D01*
X436380Y78922D01*
X438142Y79154D01*
X439784Y79834D01*
X441194Y80916D01*
X442276Y82326D01*
X442956Y83968D01*
X443188Y85730D01*
Y93230D01*
X442956Y94992D01*
X442276Y96634D01*
X441194Y98044D01*
X439784Y99126D01*
X438142Y99806D01*
X436380Y100038D01*
D02*
G37*
G36*
X753096Y70500D02*
X751504D01*
X750034Y69891D01*
X748909Y68766D01*
X748300Y67296D01*
Y65704D01*
X748909Y64234D01*
X750034Y63109D01*
X751504Y62500D01*
X753096D01*
X754566Y63109D01*
X755691Y64234D01*
X756300Y65704D01*
Y67296D01*
X755691Y68766D01*
X754566Y69891D01*
X753096Y70500D01*
D02*
G37*
G36*
X102596Y55200D02*
X101004D01*
X99534Y54591D01*
X98409Y53466D01*
X97800Y51996D01*
Y50404D01*
X98409Y48934D01*
X99534Y47809D01*
X101004Y47200D01*
X102596D01*
X104066Y47809D01*
X105191Y48934D01*
X105800Y50404D01*
Y51996D01*
X105191Y53466D01*
X104066Y54591D01*
X102596Y55200D01*
D02*
G37*
G36*
X198096Y41450D02*
X196504D01*
X195034Y40841D01*
X193909Y39716D01*
X193300Y38246D01*
Y36654D01*
X193909Y35184D01*
X195034Y34059D01*
X196504Y33450D01*
X198096D01*
X199566Y34059D01*
X200691Y35184D01*
X201300Y36654D01*
Y38246D01*
X200691Y39716D01*
X199566Y40841D01*
X198096Y41450D01*
D02*
G37*
G36*
X143696Y41300D02*
X142104D01*
X140634Y40691D01*
X139509Y39566D01*
X138900Y38096D01*
Y36504D01*
X139509Y35034D01*
X140634Y33909D01*
X142104Y33300D01*
X143696D01*
X145166Y33909D01*
X146291Y35034D01*
X146900Y36504D01*
Y38096D01*
X146291Y39566D01*
X145166Y40691D01*
X143696Y41300D01*
D02*
G37*
G36*
X285396Y34100D02*
X283804D01*
X282334Y33491D01*
X281209Y32366D01*
X280600Y30896D01*
Y29304D01*
X281209Y27834D01*
X282334Y26709D01*
X283804Y26100D01*
X285396D01*
X286866Y26709D01*
X287991Y27834D01*
X288600Y29304D01*
Y30896D01*
X287991Y32366D01*
X286866Y33491D01*
X285396Y34100D01*
D02*
G37*
%LPD*%
G36*
X862122Y298158D02*
Y296489D01*
X831741Y266109D01*
X831398Y265596D01*
X830128Y265981D01*
Y267960D01*
X860852Y298684D01*
X862122Y298158D01*
D02*
G37*
G36*
X420700Y151300D02*
X402800D01*
Y190600D01*
X393200Y190600D01*
X386800Y197000D01*
X300200Y197000D01*
X282200Y179000D01*
X263100D01*
X263100Y197000D01*
X276500Y210400D01*
X420700Y210400D01*
Y151300D01*
D02*
G37*
G36*
X442600Y201500D02*
X571215Y201500D01*
Y201500D01*
X584900D01*
Y184100D01*
X575900D01*
X575900Y110300D01*
X580000Y106200D01*
X614100D01*
X618500Y101800D01*
Y88330D01*
X615611Y88426D01*
Y94941D01*
X613452Y97100D01*
X515700D01*
X502594Y113900D01*
X485600D01*
Y180600D01*
X434800D01*
Y135000D01*
X402700D01*
Y143000D01*
X423600D01*
Y200700D01*
Y234800D01*
X277900D01*
Y253400D01*
X442600D01*
Y201500D01*
D02*
G37*
G36*
X627626Y90000D02*
X627652Y89998D01*
X627678Y89995D01*
X627704Y89990D01*
X627729Y89984D01*
X627755Y89976D01*
X627779Y89968D01*
X627803Y89958D01*
X627827Y89946D01*
X627850Y89934D01*
X627872Y89920D01*
X627894Y89905D01*
X627915Y89889D01*
X627935Y89872D01*
X627954Y89854D01*
X627972Y89835D01*
X627989Y89816D01*
X628004Y89795D01*
X628019Y89773D01*
X628033Y89751D01*
X628046Y89728D01*
X628057Y89704D01*
X628067Y89680D01*
X628075Y89655D01*
X628083Y89630D01*
X628089Y89605D01*
X628094Y89579D01*
X628097Y89553D01*
X628099Y89527D01*
X628100Y89501D01*
Y86501D01*
X631100D01*
X631126Y86500D01*
X631152Y86498D01*
X631178Y86495D01*
X631204Y86490D01*
X631229Y86484D01*
X631255Y86476D01*
X631279Y86468D01*
X631303Y86458D01*
X631327Y86446D01*
X631350Y86434D01*
X631372Y86420D01*
X631394Y86405D01*
X631415Y86389D01*
X631435Y86372D01*
X631454Y86354D01*
X631472Y86335D01*
X631489Y86315D01*
X631505Y86295D01*
X631519Y86273D01*
X631533Y86251D01*
X631545Y86228D01*
X631557Y86204D01*
X631567Y86180D01*
X631576Y86155D01*
X631583Y86130D01*
X631589Y86105D01*
X631594Y86079D01*
X631597Y86053D01*
X631599Y86027D01*
X631600Y86001D01*
Y84001D01*
X631599Y83975D01*
X631597Y83948D01*
X631594Y83923D01*
X631589Y83897D01*
X631583Y83871D01*
X631576Y83846D01*
X631567Y83822D01*
X631557Y83797D01*
X631545Y83774D01*
X631533Y83751D01*
X631519Y83729D01*
X631505Y83707D01*
X631489Y83686D01*
X631472Y83666D01*
X631454Y83647D01*
X631435Y83629D01*
X631415Y83612D01*
X631394Y83596D01*
X631372Y83581D01*
X631350Y83568D01*
X631327Y83555D01*
X631303Y83544D01*
X631279Y83534D01*
X631255Y83525D01*
X631229Y83518D01*
X631204Y83512D01*
X631178Y83507D01*
X631152Y83504D01*
X631126Y83502D01*
X631100Y83501D01*
X626100D01*
X626074Y83502D01*
X626048Y83504D01*
X626022Y83507D01*
X625996Y83512D01*
X625971Y83518D01*
X625946Y83525D01*
X625921Y83534D01*
X625897Y83544D01*
X625873Y83555D01*
X625850Y83568D01*
X625828Y83581D01*
X625806Y83596D01*
X625785Y83612D01*
X625765Y83629D01*
X625746Y83647D01*
X625728Y83666D01*
X625711Y83686D01*
X625695Y83707D01*
X625681Y83729D01*
X625667Y83751D01*
X625654Y83774D01*
X625643Y83797D01*
X625633Y83822D01*
X625625Y83846D01*
X625617Y83871D01*
X625611Y83897D01*
X625606Y83923D01*
X625603Y83948D01*
X625601Y83975D01*
X625600Y84001D01*
Y89501D01*
X625601Y89527D01*
X625603Y89553D01*
X625606Y89579D01*
X625611Y89605D01*
X625617Y89630D01*
X625625Y89655D01*
X625633Y89680D01*
X625643Y89704D01*
X625654Y89728D01*
X625667Y89751D01*
X625681Y89773D01*
X625695Y89795D01*
X625711Y89816D01*
X625728Y89835D01*
X625746Y89854D01*
X625765Y89872D01*
X625785Y89889D01*
X625806Y89905D01*
X625828Y89920D01*
X625850Y89934D01*
X625873Y89946D01*
X625897Y89958D01*
X625921Y89968D01*
X625946Y89976D01*
X625971Y89984D01*
X625996Y89990D01*
X626022Y89995D01*
X626048Y89998D01*
X626074Y90000D01*
X626100Y90001D01*
X627600D01*
X627626Y90000D01*
D02*
G37*
G36*
X613126D02*
X613152Y89998D01*
X613178Y89995D01*
X613204Y89990D01*
X613229Y89984D01*
X613255Y89976D01*
X613279Y89968D01*
X613303Y89958D01*
X613327Y89946D01*
X613350Y89934D01*
X613372Y89920D01*
X613394Y89905D01*
X613415Y89889D01*
X613435Y89872D01*
X613454Y89854D01*
X613472Y89835D01*
X613489Y89816D01*
X613504Y89795D01*
X613519Y89773D01*
X613533Y89751D01*
X613545Y89728D01*
X613557Y89704D01*
X613567Y89680D01*
X613576Y89655D01*
X613583Y89630D01*
X613589Y89605D01*
X613594Y89579D01*
X613597Y89553D01*
X613599Y89527D01*
X613600Y89501D01*
Y84001D01*
X613599Y83975D01*
X613597Y83948D01*
X613594Y83923D01*
X613589Y83897D01*
X613583Y83871D01*
X613576Y83846D01*
X613567Y83822D01*
X613557Y83797D01*
X613545Y83774D01*
X613533Y83751D01*
X613519Y83729D01*
X613504Y83707D01*
X613489Y83686D01*
X613472Y83666D01*
X613454Y83647D01*
X613435Y83629D01*
X613415Y83612D01*
X613394Y83596D01*
X613372Y83581D01*
X613350Y83568D01*
X613327Y83555D01*
X613303Y83544D01*
X613279Y83534D01*
X613255Y83525D01*
X613229Y83518D01*
X613204Y83512D01*
X613178Y83507D01*
X613152Y83504D01*
X613126Y83502D01*
X613100Y83501D01*
X608100D01*
X608074Y83502D01*
X608048Y83504D01*
X608022Y83507D01*
X607996Y83512D01*
X607971Y83518D01*
X607946Y83525D01*
X607921Y83534D01*
X607897Y83544D01*
X607873Y83555D01*
X607850Y83568D01*
X607828Y83581D01*
X607806Y83596D01*
X607785Y83612D01*
X607765Y83629D01*
X607747Y83647D01*
X607728Y83666D01*
X607711Y83686D01*
X607696Y83707D01*
X607681Y83729D01*
X607667Y83751D01*
X607654Y83774D01*
X607643Y83797D01*
X607633Y83822D01*
X607625Y83846D01*
X607617Y83871D01*
X607611Y83897D01*
X607606Y83923D01*
X607603Y83948D01*
X607601Y83975D01*
X607600Y84001D01*
Y86001D01*
X607601Y86027D01*
X607603Y86053D01*
X607606Y86079D01*
X607611Y86105D01*
X607617Y86130D01*
X607625Y86155D01*
X607633Y86180D01*
X607643Y86204D01*
X607654Y86228D01*
X607667Y86251D01*
X607681Y86273D01*
X607696Y86295D01*
X607711Y86315D01*
X607728Y86335D01*
X607747Y86354D01*
X607765Y86372D01*
X607785Y86389D01*
X607806Y86405D01*
X607828Y86420D01*
X607850Y86434D01*
X607873Y86446D01*
X607897Y86458D01*
X607921Y86468D01*
X607946Y86476D01*
X607971Y86484D01*
X607996Y86490D01*
X608022Y86495D01*
X608048Y86498D01*
X608074Y86500D01*
X608100Y86501D01*
X611100D01*
Y89501D01*
X611101Y89527D01*
X611103Y89553D01*
X611106Y89579D01*
X611111Y89605D01*
X611117Y89630D01*
X611124Y89655D01*
X611133Y89680D01*
X611143Y89704D01*
X611155Y89728D01*
X611167Y89751D01*
X611181Y89773D01*
X611195Y89795D01*
X611211Y89816D01*
X611228Y89835D01*
X611246Y89854D01*
X611265Y89872D01*
X611285Y89889D01*
X611306Y89905D01*
X611328Y89920D01*
X611350Y89934D01*
X611373Y89946D01*
X611397Y89958D01*
X611421Y89968D01*
X611446Y89976D01*
X611471Y89984D01*
X611496Y89990D01*
X611522Y89995D01*
X611548Y89998D01*
X611574Y90000D01*
X611600Y90001D01*
X613100D01*
X613126Y90000D01*
D02*
G37*
G36*
X631126Y72500D02*
X631152Y72498D01*
X631178Y72495D01*
X631204Y72490D01*
X631229Y72484D01*
X631255Y72476D01*
X631279Y72468D01*
X631303Y72458D01*
X631327Y72446D01*
X631350Y72434D01*
X631372Y72420D01*
X631394Y72405D01*
X631415Y72389D01*
X631435Y72372D01*
X631454Y72354D01*
X631472Y72335D01*
X631489Y72316D01*
X631505Y72295D01*
X631519Y72273D01*
X631533Y72251D01*
X631545Y72228D01*
X631557Y72204D01*
X631567Y72180D01*
X631576Y72155D01*
X631583Y72130D01*
X631589Y72105D01*
X631594Y72079D01*
X631597Y72053D01*
X631599Y72027D01*
X631600Y72001D01*
Y70001D01*
X631599Y69975D01*
X631597Y69949D01*
X631594Y69923D01*
X631589Y69897D01*
X631583Y69871D01*
X631576Y69846D01*
X631567Y69822D01*
X631557Y69797D01*
X631545Y69774D01*
X631533Y69751D01*
X631519Y69728D01*
X631505Y69707D01*
X631489Y69686D01*
X631472Y69666D01*
X631454Y69647D01*
X631435Y69629D01*
X631415Y69612D01*
X631394Y69596D01*
X631372Y69581D01*
X631350Y69568D01*
X631327Y69555D01*
X631303Y69544D01*
X631279Y69534D01*
X631255Y69525D01*
X631229Y69518D01*
X631204Y69512D01*
X631178Y69507D01*
X631152Y69503D01*
X631126Y69502D01*
X631100Y69501D01*
X628100D01*
Y66501D01*
X628099Y66475D01*
X628097Y66448D01*
X628094Y66423D01*
X628089Y66397D01*
X628083Y66371D01*
X628075Y66346D01*
X628067Y66322D01*
X628057Y66297D01*
X628046Y66274D01*
X628033Y66251D01*
X628019Y66228D01*
X628004Y66207D01*
X627989Y66186D01*
X627972Y66166D01*
X627954Y66147D01*
X627935Y66129D01*
X627915Y66112D01*
X627894Y66096D01*
X627872Y66082D01*
X627850Y66068D01*
X627827Y66055D01*
X627803Y66044D01*
X627779Y66034D01*
X627755Y66025D01*
X627729Y66018D01*
X627704Y66012D01*
X627678Y66007D01*
X627652Y66004D01*
X627626Y66002D01*
X627600Y66001D01*
X626100D01*
X626074Y66002D01*
X626048Y66004D01*
X626022Y66007D01*
X625996Y66012D01*
X625971Y66018D01*
X625946Y66025D01*
X625921Y66034D01*
X625897Y66044D01*
X625873Y66055D01*
X625850Y66068D01*
X625828Y66082D01*
X625806Y66096D01*
X625785Y66112D01*
X625765Y66129D01*
X625746Y66147D01*
X625728Y66166D01*
X625711Y66186D01*
X625695Y66207D01*
X625681Y66228D01*
X625667Y66251D01*
X625654Y66274D01*
X625643Y66297D01*
X625633Y66322D01*
X625625Y66346D01*
X625617Y66371D01*
X625611Y66397D01*
X625606Y66423D01*
X625603Y66448D01*
X625601Y66475D01*
X625600Y66501D01*
Y72001D01*
X625601Y72027D01*
X625603Y72053D01*
X625606Y72079D01*
X625611Y72105D01*
X625617Y72130D01*
X625625Y72155D01*
X625633Y72180D01*
X625643Y72204D01*
X625654Y72228D01*
X625667Y72251D01*
X625681Y72273D01*
X625695Y72295D01*
X625711Y72316D01*
X625728Y72335D01*
X625746Y72354D01*
X625765Y72372D01*
X625785Y72389D01*
X625806Y72405D01*
X625828Y72420D01*
X625850Y72434D01*
X625873Y72446D01*
X625897Y72458D01*
X625921Y72468D01*
X625946Y72476D01*
X625971Y72484D01*
X625996Y72490D01*
X626022Y72495D01*
X626048Y72498D01*
X626074Y72500D01*
X626100Y72501D01*
X631100D01*
X631126Y72500D01*
D02*
G37*
G36*
X613126D02*
X613152Y72498D01*
X613178Y72495D01*
X613204Y72490D01*
X613229Y72484D01*
X613255Y72476D01*
X613279Y72468D01*
X613303Y72458D01*
X613327Y72446D01*
X613350Y72434D01*
X613372Y72420D01*
X613394Y72405D01*
X613415Y72389D01*
X613435Y72372D01*
X613454Y72354D01*
X613472Y72335D01*
X613489Y72316D01*
X613504Y72295D01*
X613519Y72273D01*
X613533Y72251D01*
X613545Y72228D01*
X613557Y72204D01*
X613567Y72180D01*
X613576Y72155D01*
X613583Y72130D01*
X613589Y72105D01*
X613594Y72079D01*
X613597Y72053D01*
X613599Y72027D01*
X613600Y72001D01*
Y66501D01*
X613599Y66475D01*
X613597Y66448D01*
X613594Y66423D01*
X613589Y66397D01*
X613583Y66371D01*
X613576Y66346D01*
X613567Y66322D01*
X613557Y66297D01*
X613545Y66274D01*
X613533Y66251D01*
X613519Y66228D01*
X613504Y66207D01*
X613489Y66186D01*
X613472Y66166D01*
X613454Y66147D01*
X613435Y66129D01*
X613415Y66112D01*
X613394Y66096D01*
X613372Y66082D01*
X613350Y66068D01*
X613327Y66055D01*
X613303Y66044D01*
X613279Y66034D01*
X613255Y66025D01*
X613229Y66018D01*
X613204Y66012D01*
X613178Y66007D01*
X613152Y66004D01*
X613126Y66002D01*
X613100Y66001D01*
X611600D01*
X611574Y66002D01*
X611548Y66004D01*
X611522Y66007D01*
X611496Y66012D01*
X611471Y66018D01*
X611446Y66025D01*
X611421Y66034D01*
X611397Y66044D01*
X611373Y66055D01*
X611350Y66068D01*
X611328Y66082D01*
X611306Y66096D01*
X611285Y66112D01*
X611265Y66129D01*
X611246Y66147D01*
X611228Y66166D01*
X611211Y66186D01*
X611195Y66207D01*
X611181Y66228D01*
X611167Y66251D01*
X611155Y66274D01*
X611143Y66297D01*
X611133Y66322D01*
X611124Y66346D01*
X611117Y66371D01*
X611111Y66397D01*
X611106Y66423D01*
X611103Y66448D01*
X611101Y66475D01*
X611100Y66501D01*
Y69501D01*
X608100D01*
X608074Y69502D01*
X608048Y69503D01*
X608022Y69507D01*
X607996Y69512D01*
X607971Y69518D01*
X607946Y69525D01*
X607921Y69534D01*
X607897Y69544D01*
X607873Y69555D01*
X607850Y69568D01*
X607828Y69581D01*
X607806Y69596D01*
X607785Y69612D01*
X607765Y69629D01*
X607747Y69647D01*
X607728Y69666D01*
X607711Y69686D01*
X607696Y69707D01*
X607681Y69728D01*
X607667Y69751D01*
X607654Y69774D01*
X607643Y69797D01*
X607633Y69822D01*
X607625Y69846D01*
X607617Y69871D01*
X607611Y69897D01*
X607606Y69923D01*
X607603Y69949D01*
X607601Y69975D01*
X607600Y70001D01*
Y72001D01*
X607601Y72027D01*
X607603Y72053D01*
X607606Y72079D01*
X607611Y72105D01*
X607617Y72130D01*
X607625Y72155D01*
X607633Y72180D01*
X607643Y72204D01*
X607654Y72228D01*
X607667Y72251D01*
X607681Y72273D01*
X607696Y72295D01*
X607711Y72316D01*
X607728Y72335D01*
X607747Y72354D01*
X607765Y72372D01*
X607785Y72389D01*
X607806Y72405D01*
X607828Y72420D01*
X607850Y72434D01*
X607873Y72446D01*
X607897Y72458D01*
X607921Y72468D01*
X607946Y72476D01*
X607971Y72484D01*
X607996Y72490D01*
X608022Y72495D01*
X608048Y72498D01*
X608074Y72500D01*
X608100Y72501D01*
X613100D01*
X613126Y72500D01*
D02*
G37*
D11*
X329800Y186880D02*
Y203200D01*
X656466Y111301D02*
X656467D01*
X656466Y86991D02*
Y111301D01*
X429257Y47700D02*
Y68800D01*
X394000Y47700D02*
Y68800D01*
X462000Y144780D02*
Y169080D01*
X442500Y144780D02*
Y169080D01*
X329900Y120915D02*
Y126348D01*
X329800D02*
X329900D01*
X329799D02*
X329800D01*
X345480Y117400D02*
X349250Y113630D01*
X333415Y117400D02*
X345480D01*
X349250Y113630D02*
X355250D01*
X329900Y120915D02*
X333415Y117400D01*
X329800Y126348D02*
Y137633D01*
X291550Y139850D02*
X307492Y155792D01*
X291550Y135330D02*
Y139850D01*
X307492Y155792D02*
X329799D01*
X278800Y122580D02*
X291550Y135330D01*
X278800Y119880D02*
Y122580D01*
D12*
X628600Y75751D02*
X653951D01*
X627600D02*
X628600D01*
X656466Y78266D02*
Y86991D01*
X653951Y75751D02*
X656466Y78266D01*
X581100Y68931D02*
Y74000D01*
X580901Y68732D02*
X581100Y68931D01*
Y74000D02*
X582851Y75751D01*
X610600D01*
D17*
X0Y12000D02*
X301Y9330D01*
X1188Y6793D01*
X2618Y4518D01*
X4518Y2618D01*
X6793Y1188D01*
X9330Y301D01*
X12000Y0D01*
X812000Y8000D02*
X812392Y5528D01*
X813528Y3298D01*
X815298Y1528D01*
X817528Y391D01*
X820000Y0D01*
X812000Y8000D02*
X811609Y10472D01*
X810472Y12702D01*
X808702Y14472D01*
X806472Y15609D01*
X804000Y16000D01*
X888000Y0D02*
X890670Y301D01*
X893207Y1188D01*
X895482Y2618D01*
X897382Y4518D01*
X898812Y6793D01*
X899699Y9330D01*
X900000Y12000D01*
X899990Y337130D02*
X899752Y339508D01*
X899048Y341791D01*
X897905Y343890D01*
X896369Y345720D01*
X894501Y347210D01*
X892374Y348301D01*
X890074Y348948D01*
X880800Y360650D02*
X881038Y358272D01*
X881742Y355989D01*
X882885Y353890D01*
X884421Y352060D01*
X886289Y350570D01*
X888416Y349479D01*
X890716Y348832D01*
X890074Y551072D02*
X892374Y551720D01*
X894501Y552810D01*
X896369Y554300D01*
X897905Y556130D01*
X899048Y558229D01*
X899752Y560512D01*
X899990Y562890D01*
X9916Y348968D02*
X7616Y348321D01*
X5489Y347230D01*
X3621Y345740D01*
X2085Y343910D01*
X942Y341811D01*
X238Y339528D01*
X0Y337150D01*
X9284Y348832D02*
X11584Y349479D01*
X13711Y350570D01*
X15579Y352060D01*
X17115Y353890D01*
X18258Y355989D01*
X18962Y358272D01*
X19200Y360650D01*
Y539350D02*
X18962Y541728D01*
X18258Y544011D01*
X17115Y546110D01*
X15579Y547940D01*
X13711Y549430D01*
X11584Y550521D01*
X9284Y551168D01*
X-10Y562850D02*
X228Y560472D01*
X932Y558189D01*
X2075Y556090D01*
X3611Y554260D01*
X5479Y552770D01*
X7606Y551679D01*
X9906Y551032D01*
X12000Y900000D02*
X9330Y899699D01*
X6793Y898812D01*
X4518Y897382D01*
X2618Y895482D01*
X1188Y893207D01*
X301Y890670D01*
X0Y888000D01*
X360700D02*
X360399Y890670D01*
X359512Y893207D01*
X358082Y895482D01*
X356182Y897382D01*
X353907Y898812D01*
X351370Y899699D01*
X348700Y900000D01*
X360700Y882700D02*
X361001Y880030D01*
X361888Y877493D01*
X363318Y875218D01*
X365218Y873318D01*
X367493Y871888D01*
X370030Y871001D01*
X372700Y870700D01*
X890716Y551168D02*
X888416Y550521D01*
X886289Y549430D01*
X884421Y547940D01*
X882885Y546110D01*
X881742Y544011D01*
X881038Y541728D01*
X880800Y539350D01*
X900000Y888000D02*
X899699Y890670D01*
X898812Y893207D01*
X897382Y895482D01*
X895482Y897382D01*
X893207Y898812D01*
X890670Y899699D01*
X888000Y900000D01*
X575900D02*
X573230Y899699D01*
X570693Y898812D01*
X568418Y897382D01*
X566518Y895482D01*
X565088Y893207D01*
X564201Y890670D01*
X563900Y888000D01*
X551900Y870700D02*
X554570Y871001D01*
X557107Y871888D01*
X559382Y873318D01*
X561282Y875218D01*
X562712Y877493D01*
X563599Y880030D01*
X563900Y882700D01*
X80000Y0D02*
X82472Y391D01*
X84702Y1528D01*
X86472Y3298D01*
X87608Y5528D01*
X88000Y8000D01*
X96000Y16000D02*
X93528Y15609D01*
X91298Y14472D01*
X89528Y12702D01*
X88392Y10472D01*
X88000Y8000D01*
X820000Y0D02*
X888000D01*
X360700Y882700D02*
Y888000D01*
X0Y12000D02*
Y337150D01*
X19200Y360650D02*
Y539350D01*
X900000Y12000D02*
Y337120D01*
X880800Y360650D02*
Y539350D01*
X899990Y562890D02*
Y887990D01*
X575900Y900000D02*
X888000D01*
X372700Y870700D02*
X551900D01*
X12000Y900000D02*
X348700D01*
X0Y562860D02*
Y888000D01*
X563900Y882700D02*
Y888000D01*
X12000Y0D02*
X80000D01*
X96000Y16000D02*
X804000D01*
D18*
X509800Y133900D02*
D03*
Y59900D02*
D03*
D19*
X564900Y170213D02*
D03*
X638900D02*
D03*
X342800Y55400D02*
D03*
X268800D02*
D03*
D20*
X557530Y120470D02*
D03*
X598170D02*
D03*
X363815Y179293D02*
D03*
X404455D02*
D03*
D21*
X656466Y129460D02*
D03*
X656467Y111301D02*
D03*
X656466Y86991D02*
D03*
X656467Y68832D02*
D03*
X580900Y86891D02*
D03*
X580901Y68732D02*
D03*
X329800Y137633D02*
D03*
X329799Y155792D02*
D03*
X329800Y108189D02*
D03*
X329799Y126348D02*
D03*
D22*
X610600Y80251D02*
D03*
Y75751D02*
D03*
X628600Y80251D02*
D03*
Y75751D02*
D03*
D23*
X549400Y85088D02*
D03*
Y67088D02*
D03*
X462000Y187080D02*
D03*
Y169080D02*
D03*
X442500Y187080D02*
D03*
Y169080D02*
D03*
X462000Y144780D02*
D03*
Y126780D02*
D03*
X442500Y144780D02*
D03*
Y126780D02*
D03*
X329800Y186880D02*
D03*
Y168880D02*
D03*
D24*
X654567Y44200D02*
D03*
X636408Y44199D02*
D03*
X462891Y68808D02*
D03*
X444732Y68807D02*
D03*
D25*
X591095Y44192D02*
D03*
X609095D02*
D03*
X549400D02*
D03*
X567400D02*
D03*
X394000Y68800D02*
D03*
X376000D02*
D03*
X429257D02*
D03*
X411257D02*
D03*
Y47700D02*
D03*
X429257D02*
D03*
X376000D02*
D03*
X394000D02*
D03*
D26*
X383500Y132680D02*
D03*
D27*
X411750Y113630D02*
D03*
Y126330D02*
D03*
Y139030D02*
D03*
Y151730D02*
D03*
X355250Y113630D02*
D03*
Y126330D02*
D03*
Y139030D02*
D03*
Y151730D02*
D03*
D28*
X464121Y48208D02*
D03*
X448121D02*
D03*
D29*
X278800Y119880D02*
D03*
Y174880D02*
D03*
D47*
X617100Y78001D02*
D03*
X622100D02*
D03*
D48*
X610600Y85001D02*
D03*
Y71001D02*
D03*
X628600Y85001D02*
D03*
Y71001D02*
D03*
D49*
X154846Y245100D02*
Y657054D01*
X144853Y245100D02*
Y268847D01*
X142930Y270770D02*
X144853Y268847D01*
X151000Y660900D02*
X154846Y657054D01*
X213374Y257500D02*
Y538969D01*
X211394Y540949D02*
Y547800D01*
Y540949D02*
X213374Y538969D01*
X199647Y536628D02*
X203948Y532327D01*
Y257500D02*
Y532327D01*
X194522Y257500D02*
X197100Y260078D01*
X187900Y534300D02*
X197100Y525100D01*
Y260078D02*
Y525100D01*
X817475Y275075D02*
X851400Y309000D01*
Y390400D01*
X841900Y399900D02*
X851400Y390400D01*
X850600Y405900D02*
X858600Y397900D01*
X826050Y269650D02*
X858600Y302200D01*
Y397900D01*
X866200Y294800D02*
Y399000D01*
X834625Y263225D02*
X866200Y294800D01*
X859200Y406000D02*
X866200Y399000D01*
X187900Y534300D02*
Y547800D01*
X199647Y536628D02*
Y547800D01*
X222800Y257500D02*
Y539835D01*
X220915Y541720D02*
X222800Y539835D01*
X446500Y35100D02*
X448121Y36721D01*
Y48208D01*
X462891Y68808D02*
X462900Y68799D01*
Y58400D02*
Y68799D01*
Y58400D02*
X464121Y57179D01*
Y48208D02*
Y57179D01*
X338557Y168916D02*
X340900Y166572D01*
X329836Y168916D02*
X338557D01*
X340900Y154600D02*
Y166572D01*
X329800Y168880D02*
X329836Y168916D01*
X343770Y151730D02*
X355250D01*
X340900Y154600D02*
X343770Y151730D01*
X102580Y291380D02*
Y697100D01*
X100600Y289400D02*
X102580Y291380D01*
X100600Y260700D02*
Y289400D01*
Y260700D02*
X102580Y258720D01*
Y188450D02*
Y258720D01*
X107800Y265100D02*
X110650Y262250D01*
X107800Y284600D02*
X110650Y287450D01*
X107800Y265100D02*
Y284600D01*
X110650Y194950D02*
Y262250D01*
X110650Y287450D02*
Y691067D01*
X118720Y262420D02*
X120700Y264400D01*
X118720Y201450D02*
Y262420D01*
X120700Y264400D02*
Y285100D01*
X118720Y287080D02*
X120700Y285100D01*
X118720Y287080D02*
Y685033D01*
X239958Y293742D02*
X244600Y289100D01*
Y268800D02*
Y289100D01*
X239958Y293742D02*
Y529560D01*
X239958Y264158D02*
X244600Y268800D01*
X259000Y201450D02*
Y517400D01*
X249479Y262979D02*
X251200Y264700D01*
X249479Y201450D02*
Y262979D01*
X251200Y264700D02*
Y270000D01*
X251400Y270200D01*
Y291800D01*
X249479Y293721D02*
X251400Y291800D01*
X249479Y293721D02*
Y523480D01*
X239958Y201450D02*
Y264158D01*
X230436Y201450D02*
X230437Y201450D01*
Y535640D01*
X834625Y142576D02*
Y263225D01*
X826050Y149076D02*
Y269650D01*
X817475Y155576D02*
Y275075D01*
X808900Y162076D02*
Y393900D01*
X800325Y168576D02*
Y387897D01*
X791750Y175450D02*
Y381895D01*
X783175Y181576D02*
Y375892D01*
X774600Y188076D02*
Y369890D01*
X93400Y181950D02*
X93400Y697100D01*
X126790Y207950D02*
X126790Y679000D01*
X134860Y245100D02*
X134860Y672967D01*
X142930Y270770D02*
X142930Y666933D01*
D50*
X641066Y68534D02*
X654769D01*
X638599Y71001D02*
X641066Y68534D01*
X628600Y71001D02*
X638599D01*
X622100Y44847D02*
X622752Y44195D01*
X622100Y44847D02*
Y78001D01*
X570800Y57300D02*
X591400D01*
X594800Y60700D01*
Y68100D01*
X567400Y44192D02*
Y53900D01*
X570800Y57300D01*
X594800Y68100D02*
X597701Y71001D01*
X610600D01*
X552000Y93400D02*
X597400D01*
X605799Y85001D01*
X610600D01*
X549400Y85088D02*
X549600Y85288D01*
Y91000D01*
X552000Y93400D01*
D51*
X654769Y68534D02*
X655067Y68832D01*
X654567Y68332D02*
X654769Y68534D01*
X655067Y68832D02*
X656467D01*
X654567Y44200D02*
Y68332D01*
X622752Y44195D02*
X636405D01*
X609099D02*
X622752D01*
X609095Y44192D02*
X609099Y44195D01*
X636405D02*
X636408Y44199D01*
D52*
X288600Y43900D02*
X299900Y32600D01*
X366400D02*
X368900Y35100D01*
X299900Y32600D02*
X366400D01*
X446500Y35100D02*
X469100D01*
X280300Y43900D02*
X288600D01*
X268800Y55400D02*
X280300Y43900D01*
X411600Y35100D02*
X446500D01*
X374800D02*
X411600D01*
X411257Y35443D02*
X411600Y35100D01*
X411257Y35443D02*
Y47700D01*
X368900Y35100D02*
X374800D01*
X376000Y36300D02*
Y47700D01*
X374800Y35100D02*
X376000Y36300D01*
D53*
X874750Y27450D02*
D03*
D54*
X861050Y872750D02*
D03*
D55*
X46450Y873600D02*
D03*
D56*
X26450Y26850D02*
D03*
D57*
X622000Y39800D02*
D03*
D58*
X475250Y44000D02*
D03*
D59*
X329380Y89480D02*
D03*
D60*
X436380D02*
D03*
D61*
X823800Y849200D02*
D03*
X88900D02*
D03*
X850900Y50795D02*
D03*
X50800D02*
D03*
D62*
X823800Y872060D02*
D03*
X800940Y849200D02*
D03*
X823800Y826340D02*
D03*
X846660Y849200D02*
D03*
X839965Y865365D02*
D03*
X807635D02*
D03*
Y833036D02*
D03*
X839965D02*
D03*
X88900Y872060D02*
D03*
X66040Y849200D02*
D03*
X88900Y826340D02*
D03*
X111760Y849200D02*
D03*
X105064Y865365D02*
D03*
X72736D02*
D03*
Y833036D02*
D03*
X105064D02*
D03*
X867065Y34631D02*
D03*
X834735D02*
D03*
Y66960D02*
D03*
X867065D02*
D03*
X873760Y50795D02*
D03*
X850900Y27936D02*
D03*
X828040Y50795D02*
D03*
X850900Y73656D02*
D03*
X66965Y34631D02*
D03*
X34636D02*
D03*
Y66960D02*
D03*
X66965D02*
D03*
X73660Y50795D02*
D03*
X50800Y27936D02*
D03*
X27940Y50795D02*
D03*
X50800Y73656D02*
D03*
D63*
X79562Y315879D02*
D03*
X69562Y325879D02*
D03*
Y305879D02*
D03*
X188362Y752279D02*
D03*
X178362Y762279D02*
D03*
Y742280D02*
D03*
X79562Y752279D02*
D03*
X69562Y762279D02*
D03*
Y742279D02*
D03*
X79562Y606812D02*
D03*
X69562Y616812D02*
D03*
Y596812D02*
D03*
X79562Y461345D02*
D03*
X69562Y471345D02*
D03*
Y451345D02*
D03*
X722362Y305879D02*
D03*
Y325879D02*
D03*
X732362Y315879D02*
D03*
X831161Y451345D02*
D03*
Y471345D02*
D03*
X841161Y461345D02*
D03*
X831161Y596812D02*
D03*
Y616812D02*
D03*
X841161Y606812D02*
D03*
X831161Y742279D02*
D03*
Y762279D02*
D03*
X841161Y752279D02*
D03*
X722362Y742279D02*
D03*
Y762279D02*
D03*
X732362Y752279D02*
D03*
X613562Y742279D02*
D03*
Y762279D02*
D03*
X623562Y752279D02*
D03*
X504762Y742279D02*
D03*
Y762279D02*
D03*
X514762Y752279D02*
D03*
X395961Y742279D02*
D03*
Y762279D02*
D03*
X405961Y752279D02*
D03*
X287162Y742279D02*
D03*
Y762279D02*
D03*
X297162Y752279D02*
D03*
X178362Y596812D02*
D03*
Y616812D02*
D03*
X188362Y606812D02*
D03*
X287162Y596812D02*
D03*
Y616812D02*
D03*
X297162Y606812D02*
D03*
X395961Y596812D02*
D03*
Y616812D02*
D03*
X405961Y606812D02*
D03*
X504762Y596812D02*
D03*
Y616812D02*
D03*
X514762Y606812D02*
D03*
X613562Y596812D02*
D03*
Y616812D02*
D03*
X623562Y606812D02*
D03*
X722362Y596812D02*
D03*
Y616812D02*
D03*
X732362Y606812D02*
D03*
X178362Y451345D02*
D03*
Y471345D02*
D03*
X188362Y461345D02*
D03*
X287162Y305879D02*
D03*
Y325879D02*
D03*
X297162Y315879D02*
D03*
X178362Y305879D02*
D03*
Y325879D02*
D03*
X188362Y315879D02*
D03*
X722362Y451345D02*
D03*
Y471345D02*
D03*
X732362Y461345D02*
D03*
X613562Y451345D02*
D03*
Y471345D02*
D03*
X623562Y461345D02*
D03*
X504762Y451345D02*
D03*
Y471345D02*
D03*
X514762Y461345D02*
D03*
X395961Y451345D02*
D03*
Y471345D02*
D03*
X405961Y461345D02*
D03*
X287162Y451345D02*
D03*
Y471345D02*
D03*
X297162Y461345D02*
D03*
X395961Y305879D02*
D03*
Y325879D02*
D03*
X405961Y315879D02*
D03*
X504762Y305879D02*
D03*
Y325879D02*
D03*
X514762Y315879D02*
D03*
X613562Y305879D02*
D03*
Y325879D02*
D03*
X623562Y315879D02*
D03*
X831161Y305879D02*
D03*
Y325879D02*
D03*
X841161Y315879D02*
D03*
D64*
X339600Y361600D02*
D03*
X667300Y358900D02*
D03*
X241247Y91325D02*
D03*
X240100Y84000D02*
D03*
X243600Y118300D02*
D03*
X14700Y269762D02*
D03*
Y280350D02*
D03*
X154846Y245100D02*
D03*
X213374Y257500D02*
D03*
X194522D02*
D03*
X397300Y26900D02*
D03*
X386100D02*
D03*
X408500D02*
D03*
X66200Y158150D02*
D03*
Y142225D02*
D03*
Y174075D02*
D03*
X56400Y158150D02*
D03*
Y142225D02*
D03*
Y174075D02*
D03*
X377300Y92000D02*
D03*
X203948Y257500D02*
D03*
X222800D02*
D03*
X363600Y92500D02*
D03*
X462600Y97400D02*
D03*
X472300Y54400D02*
D03*
X478350D02*
D03*
X472300Y48350D02*
D03*
X491300Y106000D02*
D03*
X490974Y98157D02*
D03*
X645900Y100200D02*
D03*
X645800Y106800D02*
D03*
X394800Y97400D02*
D03*
X478350Y48350D02*
D03*
X356200Y99600D02*
D03*
X371100Y99100D02*
D03*
X350700Y92400D02*
D03*
X142900Y37300D02*
D03*
X197300Y37450D02*
D03*
X265500Y32514D02*
D03*
X284600Y30100D02*
D03*
X596300Y228300D02*
D03*
X586500D02*
D03*
X601100Y205800D02*
D03*
X591300D02*
D03*
X859200Y406000D02*
D03*
X419700Y26900D02*
D03*
X97900Y59800D02*
D03*
Y69600D02*
D03*
Y79400D02*
D03*
Y89200D02*
D03*
X36800Y110375D02*
D03*
X46600D02*
D03*
X56400D02*
D03*
X66200D02*
D03*
X76000D02*
D03*
X115200D02*
D03*
X105400D02*
D03*
X95600D02*
D03*
X85800D02*
D03*
X453031Y26200D02*
D03*
X466296D02*
D03*
X492825D02*
D03*
X479560D02*
D03*
X506090D02*
D03*
X519354D02*
D03*
X559148D02*
D03*
X532619D02*
D03*
X545883D02*
D03*
X442100Y26900D02*
D03*
X430900D02*
D03*
X101800Y51200D02*
D03*
X886600Y768160D02*
D03*
Y735387D02*
D03*
Y800934D02*
D03*
Y784547D02*
D03*
Y751774D02*
D03*
Y833708D02*
D03*
Y817321D02*
D03*
X638735Y26200D02*
D03*
X625471D02*
D03*
X652000D02*
D03*
X612206D02*
D03*
X598942D02*
D03*
X572412D02*
D03*
X585677D02*
D03*
X674200Y125100D02*
D03*
Y115300D02*
D03*
X667300Y135000D02*
D03*
X674000Y84100D02*
D03*
X674200Y74700D02*
D03*
X673800Y92600D02*
D03*
X629000Y130100D02*
D03*
X619200D02*
D03*
X638800D02*
D03*
X152850Y59650D02*
D03*
Y65700D02*
D03*
Y71750D02*
D03*
X205400Y35300D02*
D03*
X796437Y67382D02*
D03*
Y92328D02*
D03*
Y54910D02*
D03*
Y79855D02*
D03*
Y42437D02*
D03*
X796964Y26036D02*
D03*
X796900Y32100D02*
D03*
X678374Y26036D02*
D03*
X678311Y32100D02*
D03*
X665046D02*
D03*
X665110Y26036D02*
D03*
X691639D02*
D03*
X704903D02*
D03*
X704840Y32100D02*
D03*
X691575D02*
D03*
X757962Y26036D02*
D03*
X757898Y32100D02*
D03*
X771226Y26036D02*
D03*
X731369Y32100D02*
D03*
X718104D02*
D03*
X744633D02*
D03*
X771163D02*
D03*
X744697Y26036D02*
D03*
X718168D02*
D03*
X731433D02*
D03*
X784427Y32100D02*
D03*
X784491Y26036D02*
D03*
X783964Y42437D02*
D03*
Y79855D02*
D03*
Y54910D02*
D03*
Y92328D02*
D03*
Y67382D02*
D03*
X833855Y129746D02*
D03*
X846327D02*
D03*
X821382D02*
D03*
X833855Y117273D02*
D03*
X846327D02*
D03*
X821382D02*
D03*
X796437Y104800D02*
D03*
X821382D02*
D03*
X846327D02*
D03*
X833855D02*
D03*
X796437Y129746D02*
D03*
Y117273D02*
D03*
X783964D02*
D03*
Y129746D02*
D03*
Y104800D02*
D03*
X808909D02*
D03*
Y117273D02*
D03*
Y129746D02*
D03*
X858800D02*
D03*
X868600D02*
D03*
X878400D02*
D03*
X728300Y140500D02*
D03*
Y165700D02*
D03*
Y153100D02*
D03*
Y216100D02*
D03*
Y178300D02*
D03*
Y228700D02*
D03*
Y203500D02*
D03*
X233200Y164500D02*
D03*
Y174300D02*
D03*
X170000Y173880D02*
D03*
Y150960D02*
D03*
Y139500D02*
D03*
Y162420D02*
D03*
X223300Y110900D02*
D03*
X337400Y221800D02*
D03*
X357000D02*
D03*
X366800D02*
D03*
X327600D02*
D03*
X347200D02*
D03*
X85800Y126300D02*
D03*
X95600D02*
D03*
X105400D02*
D03*
X115200D02*
D03*
X317700Y145300D02*
D03*
Y171100D02*
D03*
X342900Y176000D02*
D03*
X340300Y145300D02*
D03*
X311000Y184100D02*
D03*
X317700Y191400D02*
D03*
X289000Y250400D02*
D03*
X282950D02*
D03*
X295050D02*
D03*
Y244350D02*
D03*
X282950D02*
D03*
X289000D02*
D03*
X295050Y238300D02*
D03*
X289000D02*
D03*
X282950D02*
D03*
X379595Y160800D02*
D03*
X541400Y209900D02*
D03*
X76000Y126300D02*
D03*
X66200D02*
D03*
X56400D02*
D03*
X46600D02*
D03*
X36800D02*
D03*
X767964Y101500D02*
D03*
X632800Y34000D02*
D03*
X623000D02*
D03*
X613200D02*
D03*
X407501Y230000D02*
D03*
X752300Y59157D02*
D03*
Y66500D02*
D03*
X232659Y118300D02*
D03*
Y110900D02*
D03*
X739600Y92200D02*
D03*
X711100Y220576D02*
D03*
X703700Y214076D02*
D03*
X727450Y92200D02*
D03*
X113800Y271850D02*
D03*
Y277900D02*
D03*
X237400Y278000D02*
D03*
X441500Y267100D02*
D03*
Y276900D02*
D03*
X548700Y269700D02*
D03*
Y277500D02*
D03*
X658600Y275200D02*
D03*
X668400D02*
D03*
X765500Y276900D02*
D03*
Y267100D02*
D03*
X777400Y424000D02*
D03*
Y414200D02*
D03*
X231900Y565500D02*
D03*
X222100D02*
D03*
X125500Y709900D02*
D03*
X115700D02*
D03*
X238100Y699800D02*
D03*
X228300D02*
D03*
X247900D02*
D03*
X603832Y873833D02*
D03*
X636605D02*
D03*
X587445D02*
D03*
X620218D02*
D03*
X734926D02*
D03*
X702153D02*
D03*
X669379D02*
D03*
X652992D02*
D03*
X751313D02*
D03*
X718540D02*
D03*
X685766D02*
D03*
X341642Y873833D02*
D03*
X226934D02*
D03*
X194161D02*
D03*
X161387D02*
D03*
X259708D02*
D03*
X243321D02*
D03*
X210548D02*
D03*
X177774D02*
D03*
X292482D02*
D03*
X325255D02*
D03*
X276095D02*
D03*
X308869D02*
D03*
X767700D02*
D03*
X145000D02*
D03*
X226934Y830533D02*
D03*
X194161D02*
D03*
X161387D02*
D03*
X145000D02*
D03*
X259708D02*
D03*
X243321D02*
D03*
X210548D02*
D03*
X177774D02*
D03*
X292482D02*
D03*
X325255D02*
D03*
X276095D02*
D03*
X308869D02*
D03*
X341642D02*
D03*
X145000Y816100D02*
D03*
X308869D02*
D03*
X276095D02*
D03*
X325255D02*
D03*
X292482D02*
D03*
X177774D02*
D03*
X210548D02*
D03*
X243321D02*
D03*
X259708D02*
D03*
X161387D02*
D03*
X194161D02*
D03*
X226934D02*
D03*
X341642D02*
D03*
X439963Y830533D02*
D03*
X407190D02*
D03*
X374416D02*
D03*
X358029D02*
D03*
X472737D02*
D03*
X456350D02*
D03*
X423576D02*
D03*
X390803D02*
D03*
X505511D02*
D03*
X538284D02*
D03*
X489124D02*
D03*
X521897D02*
D03*
X554671D02*
D03*
X358029Y816100D02*
D03*
X521897D02*
D03*
X489124D02*
D03*
X538284D02*
D03*
X505511D02*
D03*
X390803D02*
D03*
X423576D02*
D03*
X456350D02*
D03*
X472737D02*
D03*
X374416D02*
D03*
X407190D02*
D03*
X439963D02*
D03*
X554671D02*
D03*
X652992Y830533D02*
D03*
X620218D02*
D03*
X587445D02*
D03*
X571058D02*
D03*
X685766D02*
D03*
X669379D02*
D03*
X636605D02*
D03*
X603832D02*
D03*
X718540D02*
D03*
X751313D02*
D03*
X702153D02*
D03*
X734926D02*
D03*
X767700D02*
D03*
X571058Y816100D02*
D03*
X734926D02*
D03*
X702153D02*
D03*
X751313D02*
D03*
X718540D02*
D03*
X603832D02*
D03*
X636605D02*
D03*
X669379D02*
D03*
X685766D02*
D03*
X587445D02*
D03*
X620218D02*
D03*
X652992D02*
D03*
X767700D02*
D03*
X652992Y859400D02*
D03*
X620218D02*
D03*
X587445D02*
D03*
X685766D02*
D03*
X669379D02*
D03*
X636605D02*
D03*
X603832D02*
D03*
X718540D02*
D03*
X751313D02*
D03*
X702153D02*
D03*
X734926D02*
D03*
X767700Y859400D02*
D03*
X571058Y844967D02*
D03*
X734926D02*
D03*
X702153D02*
D03*
X751313D02*
D03*
X718540D02*
D03*
X603832D02*
D03*
X636605D02*
D03*
X669379D02*
D03*
X685766D02*
D03*
X587445D02*
D03*
X620218D02*
D03*
X652992D02*
D03*
X767700D02*
D03*
X358029D02*
D03*
X521897D02*
D03*
X489124D02*
D03*
X538284D02*
D03*
X505511D02*
D03*
X390803D02*
D03*
X423576D02*
D03*
X456350D02*
D03*
X472737D02*
D03*
X374416D02*
D03*
X407190D02*
D03*
X439963D02*
D03*
X554671D02*
D03*
X226934Y859400D02*
D03*
X194161D02*
D03*
X161387D02*
D03*
X145000Y859400D02*
D03*
X259708Y859400D02*
D03*
X243321D02*
D03*
X210548D02*
D03*
X177774D02*
D03*
X292482D02*
D03*
X325255D02*
D03*
X276095D02*
D03*
X308869D02*
D03*
X341642D02*
D03*
X145000Y844967D02*
D03*
X308869D02*
D03*
X276095D02*
D03*
X325255D02*
D03*
X292482D02*
D03*
X177774D02*
D03*
X210548D02*
D03*
X243321D02*
D03*
X259708D02*
D03*
X161387D02*
D03*
X194161D02*
D03*
X226934D02*
D03*
X341642D02*
D03*
X75500Y663600D02*
D03*
Y683200D02*
D03*
Y693000D02*
D03*
Y673400D02*
D03*
X55900Y693000D02*
D03*
X65700D02*
D03*
Y673400D02*
D03*
Y683200D02*
D03*
Y663600D02*
D03*
X55900Y673400D02*
D03*
Y683200D02*
D03*
Y663600D02*
D03*
X820700Y694000D02*
D03*
X801100D02*
D03*
X791300D02*
D03*
X830500D02*
D03*
X810900D02*
D03*
X791300Y674400D02*
D03*
Y684200D02*
D03*
X810900D02*
D03*
X830500D02*
D03*
X801100D02*
D03*
X820700D02*
D03*
X810900Y674400D02*
D03*
X830500D02*
D03*
X801100D02*
D03*
X820700D02*
D03*
X708100Y681800D02*
D03*
X688500D02*
D03*
X717900D02*
D03*
X698300D02*
D03*
X678700D02*
D03*
X698300Y691600D02*
D03*
X717900D02*
D03*
X678700D02*
D03*
X688500D02*
D03*
X708100D02*
D03*
X601200Y685700D02*
D03*
X581600D02*
D03*
X611000D02*
D03*
X591400D02*
D03*
X571800D02*
D03*
X591400Y695500D02*
D03*
X611000D02*
D03*
X571800D02*
D03*
X581600D02*
D03*
X601200D02*
D03*
X482800Y693700D02*
D03*
X502400D02*
D03*
X463200D02*
D03*
X473000D02*
D03*
X492600D02*
D03*
X375200Y696000D02*
D03*
X394800D02*
D03*
X355600D02*
D03*
X365400D02*
D03*
X385000D02*
D03*
X374200Y551400D02*
D03*
X393800D02*
D03*
X354600D02*
D03*
X364400D02*
D03*
X384000D02*
D03*
X481400Y547700D02*
D03*
X501000D02*
D03*
X461800D02*
D03*
X471600D02*
D03*
X491200D02*
D03*
X602100Y550200D02*
D03*
X582500D02*
D03*
X572700D02*
D03*
X611900D02*
D03*
X592300D02*
D03*
X572700Y540400D02*
D03*
X592300D02*
D03*
X611900D02*
D03*
X582500D02*
D03*
X602100D02*
D03*
X707600Y532300D02*
D03*
X688000D02*
D03*
X717400D02*
D03*
X697800D02*
D03*
X707600Y542100D02*
D03*
X688000D02*
D03*
X717400D02*
D03*
X697800D02*
D03*
X678200D02*
D03*
Y532300D02*
D03*
X697800Y551900D02*
D03*
X717400D02*
D03*
X678200D02*
D03*
X688000D02*
D03*
X707600D02*
D03*
X824800Y529700D02*
D03*
X805200D02*
D03*
X834600D02*
D03*
X815000D02*
D03*
X824800Y539500D02*
D03*
X805200D02*
D03*
X834600D02*
D03*
X815000D02*
D03*
X795400D02*
D03*
Y529700D02*
D03*
X815000Y549300D02*
D03*
X834600D02*
D03*
X795400D02*
D03*
X805200D02*
D03*
X824800D02*
D03*
X716800Y408000D02*
D03*
X697200D02*
D03*
X707000D02*
D03*
X687400D02*
D03*
X609200Y404700D02*
D03*
X589600D02*
D03*
X599400D02*
D03*
X579800D02*
D03*
X503700Y406800D02*
D03*
X484100D02*
D03*
X474300D02*
D03*
X493900D02*
D03*
X474300Y397000D02*
D03*
X493900D02*
D03*
X484100D02*
D03*
X503700D02*
D03*
X393700Y403600D02*
D03*
X374100D02*
D03*
X364300D02*
D03*
X383900D02*
D03*
X364300Y393800D02*
D03*
X383900D02*
D03*
X374100D02*
D03*
X393700D02*
D03*
X304900Y402000D02*
D03*
X285300D02*
D03*
X275500D02*
D03*
X295100D02*
D03*
X275500Y392200D02*
D03*
X295100D02*
D03*
X285300D02*
D03*
X304900D02*
D03*
X174000Y526100D02*
D03*
Y535900D02*
D03*
Y516300D02*
D03*
X164200Y535900D02*
D03*
Y516300D02*
D03*
Y526100D02*
D03*
X56800Y523200D02*
D03*
Y542800D02*
D03*
Y533000D02*
D03*
X66600Y523200D02*
D03*
Y542800D02*
D03*
Y533000D02*
D03*
Y552600D02*
D03*
X56800D02*
D03*
X76400Y533000D02*
D03*
Y552600D02*
D03*
Y542800D02*
D03*
Y523200D02*
D03*
X165300Y379800D02*
D03*
Y399400D02*
D03*
Y389600D02*
D03*
Y409200D02*
D03*
X175100Y389600D02*
D03*
Y409200D02*
D03*
Y399400D02*
D03*
Y379800D02*
D03*
X75300Y376900D02*
D03*
Y396500D02*
D03*
Y367100D02*
D03*
Y386700D02*
D03*
X65500D02*
D03*
Y367100D02*
D03*
Y396500D02*
D03*
Y376900D02*
D03*
X55700Y386700D02*
D03*
Y367100D02*
D03*
Y396500D02*
D03*
Y376900D02*
D03*
X820900Y369100D02*
D03*
Y388700D02*
D03*
Y378900D02*
D03*
X830700Y369100D02*
D03*
Y388700D02*
D03*
Y378900D02*
D03*
X878400Y104800D02*
D03*
X858800D02*
D03*
X868600D02*
D03*
Y117273D02*
D03*
X858800D02*
D03*
X878400Y179636D02*
D03*
Y204582D02*
D03*
Y229527D02*
D03*
Y242000D02*
D03*
Y154691D02*
D03*
Y167164D02*
D03*
Y192109D02*
D03*
Y217055D02*
D03*
Y142218D02*
D03*
Y117273D02*
D03*
X858800Y242000D02*
D03*
X868600D02*
D03*
Y142218D02*
D03*
Y217055D02*
D03*
Y192109D02*
D03*
Y167164D02*
D03*
Y154691D02*
D03*
Y229527D02*
D03*
Y204582D02*
D03*
Y179636D02*
D03*
X858800Y142218D02*
D03*
Y217055D02*
D03*
Y192109D02*
D03*
Y167164D02*
D03*
Y154691D02*
D03*
Y229527D02*
D03*
Y204582D02*
D03*
Y179636D02*
D03*
X703000Y246100D02*
D03*
X722600D02*
D03*
X742200D02*
D03*
X752000D02*
D03*
X683400D02*
D03*
X693200D02*
D03*
X712800D02*
D03*
X732400D02*
D03*
X364100Y263200D02*
D03*
X383700D02*
D03*
X403300D02*
D03*
X413100D02*
D03*
X344500D02*
D03*
X354300D02*
D03*
X373900D02*
D03*
X393500D02*
D03*
X269800Y226400D02*
D03*
Y246000D02*
D03*
Y216600D02*
D03*
Y236200D02*
D03*
X36800Y174075D02*
D03*
Y205925D02*
D03*
Y237775D02*
D03*
Y142225D02*
D03*
Y158150D02*
D03*
Y190000D02*
D03*
Y221850D02*
D03*
X46600Y174075D02*
D03*
Y205925D02*
D03*
Y237775D02*
D03*
Y142225D02*
D03*
Y158150D02*
D03*
Y190000D02*
D03*
Y221850D02*
D03*
X56400Y205925D02*
D03*
Y237775D02*
D03*
Y190000D02*
D03*
Y221850D02*
D03*
X66200Y205925D02*
D03*
Y237775D02*
D03*
Y190000D02*
D03*
Y221850D02*
D03*
X46600Y253700D02*
D03*
X36800D02*
D03*
X66200D02*
D03*
X56400D02*
D03*
X76000Y221850D02*
D03*
Y190000D02*
D03*
Y253700D02*
D03*
Y237775D02*
D03*
Y205925D02*
D03*
X170000Y231180D02*
D03*
Y208260D02*
D03*
Y185340D02*
D03*
Y254100D02*
D03*
Y242640D02*
D03*
Y219720D02*
D03*
Y196800D02*
D03*
X663100Y607000D02*
D03*
Y600950D02*
D03*
Y613050D02*
D03*
X663600Y749950D02*
D03*
Y743900D02*
D03*
Y756000D02*
D03*
X446200Y754500D02*
D03*
Y748450D02*
D03*
Y760550D02*
D03*
X227800Y753900D02*
D03*
Y747850D02*
D03*
Y759950D02*
D03*
X228998Y608725D02*
D03*
Y602675D02*
D03*
Y614775D02*
D03*
X664300Y464650D02*
D03*
Y458600D02*
D03*
X664700Y313750D02*
D03*
Y307700D02*
D03*
Y319800D02*
D03*
X448500D02*
D03*
Y307700D02*
D03*
Y313750D02*
D03*
X445200Y463400D02*
D03*
Y451300D02*
D03*
Y457350D02*
D03*
X14700Y259175D02*
D03*
Y238000D02*
D03*
Y248587D02*
D03*
X741600Y227076D02*
D03*
X817475Y155576D02*
D03*
X826050Y149076D02*
D03*
X834625Y142576D02*
D03*
X850600Y405900D02*
D03*
X841900Y399900D02*
D03*
X783175Y181576D02*
D03*
X774600Y188076D02*
D03*
X791750Y175076D02*
D03*
X800325Y168576D02*
D03*
X808900Y162076D02*
D03*
X800325Y387897D02*
D03*
X783175Y375892D02*
D03*
X791750Y381895D02*
D03*
X808900Y393900D02*
D03*
X774600Y369890D02*
D03*
X93400Y697100D02*
D03*
X144853Y245100D02*
D03*
X134860D02*
D03*
X126790Y207950D02*
D03*
X118720Y201450D02*
D03*
X110650Y194950D02*
D03*
X102580Y188450D02*
D03*
X93400Y181950D02*
D03*
X230436Y201450D02*
D03*
X239958D02*
D03*
X249479D02*
D03*
X259000D02*
D03*
X199647Y547800D02*
D03*
X187900D02*
D03*
X259000Y517400D02*
D03*
X211394Y547800D02*
D03*
X220915Y541720D02*
D03*
X230437Y535640D02*
D03*
X239958Y529560D02*
D03*
X249479Y523480D02*
D03*
X118720Y685033D02*
D03*
X142930Y666933D02*
D03*
X102580Y697100D02*
D03*
X110650Y691067D02*
D03*
X126790Y679000D02*
D03*
X151000Y660900D02*
D03*
X134860Y672967D02*
D03*
D65*
X16466Y44932D02*
D03*
Y28466D02*
D03*
Y12000D02*
D03*
X32932D02*
D03*
X812000Y8000D02*
D03*
X820000Y0D02*
D03*
X883534Y28466D02*
D03*
Y12000D02*
D03*
X867068D02*
D03*
X787566Y16000D02*
D03*
X771100D02*
D03*
X754634D02*
D03*
X804032D02*
D03*
X869398Y0D02*
D03*
X852932D02*
D03*
X836466D02*
D03*
X885863D02*
D03*
X900000Y12000D02*
D03*
Y324851D02*
D03*
Y341317D02*
D03*
Y275454D02*
D03*
Y291919D02*
D03*
Y308385D02*
D03*
Y242522D02*
D03*
Y258988D02*
D03*
X890074Y348948D02*
D03*
Y551072D02*
D03*
X880800Y539350D02*
D03*
Y424089D02*
D03*
Y374692D02*
D03*
Y391157D02*
D03*
Y407623D02*
D03*
Y358226D02*
D03*
Y522884D02*
D03*
Y473487D02*
D03*
Y489952D02*
D03*
Y506418D02*
D03*
Y440555D02*
D03*
Y457021D02*
D03*
X899990Y562890D02*
D03*
X867058Y859275D02*
D03*
X883524D02*
D03*
X867058Y875741D02*
D03*
X883524D02*
D03*
X850592D02*
D03*
Y892207D02*
D03*
X867058D02*
D03*
X883524D02*
D03*
X834127D02*
D03*
X888751Y900000D02*
D03*
X839354D02*
D03*
X855819D02*
D03*
X872285D02*
D03*
X806422D02*
D03*
X822888D02*
D03*
X899990Y875741D02*
D03*
Y892207D02*
D03*
Y826344D02*
D03*
Y842810D02*
D03*
Y859275D02*
D03*
Y793412D02*
D03*
Y809878D02*
D03*
X563900Y885350D02*
D03*
X575900Y900000D02*
D03*
X551900Y870700D02*
D03*
X356300Y897300D02*
D03*
X360700Y885350D02*
D03*
X372700Y870700D02*
D03*
X324851Y900000D02*
D03*
X341317D02*
D03*
X486037Y870700D02*
D03*
X469571D02*
D03*
X535434D02*
D03*
X518968D02*
D03*
X502502D02*
D03*
X438563D02*
D03*
X455029D02*
D03*
X389166D02*
D03*
X405632D02*
D03*
X422098D02*
D03*
X291919Y900000D02*
D03*
X308385D02*
D03*
X242522D02*
D03*
X258988D02*
D03*
X275454D02*
D03*
X65853Y875701D02*
D03*
Y892167D02*
D03*
X82319D02*
D03*
X32922D02*
D03*
X16456D02*
D03*
X49388D02*
D03*
X32922Y859235D02*
D03*
X16456D02*
D03*
X49388D02*
D03*
X32922Y875701D02*
D03*
X16456D02*
D03*
X49388D02*
D03*
X12000Y900000D02*
D03*
X-10Y875701D02*
D03*
Y892167D02*
D03*
Y842769D02*
D03*
Y859235D02*
D03*
Y793372D02*
D03*
Y809838D02*
D03*
Y826304D02*
D03*
X9896Y551022D02*
D03*
X-10Y562850D02*
D03*
X19200Y541774D02*
D03*
X700Y340700D02*
D03*
X12000Y349652D02*
D03*
X19200Y360650D02*
D03*
X0Y324851D02*
D03*
X19200Y508843D02*
D03*
Y525309D02*
D03*
Y459445D02*
D03*
Y475911D02*
D03*
Y492377D02*
D03*
Y426513D02*
D03*
Y442979D02*
D03*
Y377116D02*
D03*
Y393582D02*
D03*
Y410048D02*
D03*
X0Y291919D02*
D03*
Y308385D02*
D03*
Y242522D02*
D03*
Y258988D02*
D03*
Y275454D02*
D03*
X3693Y3254D02*
D03*
X88000Y8000D02*
D03*
X0Y12000D02*
D03*
X30602Y0D02*
D03*
X14137D02*
D03*
X80000D02*
D03*
X63534D02*
D03*
X47068D02*
D03*
X608832Y900000D02*
D03*
X592366D02*
D03*
X658229D02*
D03*
X641763D02*
D03*
X625298D02*
D03*
X707627D02*
D03*
X691161D02*
D03*
X674695D02*
D03*
X757024D02*
D03*
X740558D02*
D03*
X724093D02*
D03*
X789956D02*
D03*
X773490D02*
D03*
X44932D02*
D03*
X28466D02*
D03*
X94329D02*
D03*
X77863D02*
D03*
X61398D02*
D03*
X143727D02*
D03*
X127261D02*
D03*
X110795D02*
D03*
X193124D02*
D03*
X176658D02*
D03*
X160193D02*
D03*
X226056D02*
D03*
X209590D02*
D03*
X-10Y595782D02*
D03*
Y579316D02*
D03*
Y645179D02*
D03*
Y628713D02*
D03*
Y612248D02*
D03*
Y694577D02*
D03*
Y678111D02*
D03*
Y661645D02*
D03*
Y743974D02*
D03*
Y727509D02*
D03*
Y711043D02*
D03*
Y776906D02*
D03*
Y760440D02*
D03*
X899990Y595822D02*
D03*
Y579356D02*
D03*
Y645219D02*
D03*
Y628753D02*
D03*
Y612288D02*
D03*
Y694617D02*
D03*
Y678151D02*
D03*
Y661685D02*
D03*
Y744014D02*
D03*
Y727549D02*
D03*
Y711083D02*
D03*
Y776946D02*
D03*
Y760480D02*
D03*
X0Y44932D02*
D03*
Y28466D02*
D03*
Y94329D02*
D03*
Y77863D02*
D03*
Y61398D02*
D03*
Y143727D02*
D03*
Y127261D02*
D03*
Y110795D02*
D03*
Y193124D02*
D03*
Y176658D02*
D03*
Y160193D02*
D03*
Y226056D02*
D03*
Y209590D02*
D03*
X900000Y44932D02*
D03*
Y28466D02*
D03*
Y94329D02*
D03*
Y77863D02*
D03*
Y61398D02*
D03*
Y143727D02*
D03*
Y127261D02*
D03*
Y110795D02*
D03*
Y193124D02*
D03*
Y176658D02*
D03*
Y160193D02*
D03*
Y226056D02*
D03*
Y209590D02*
D03*
X557044Y16000D02*
D03*
X540578D02*
D03*
X606441D02*
D03*
X589976D02*
D03*
X573510D02*
D03*
X655839D02*
D03*
X639373D02*
D03*
X622907D02*
D03*
X705237D02*
D03*
X688771D02*
D03*
X672305D02*
D03*
X738168D02*
D03*
X721702D02*
D03*
X342988D02*
D03*
X326522D02*
D03*
X392385D02*
D03*
X375919D02*
D03*
X359454D02*
D03*
X441783D02*
D03*
X425317D02*
D03*
X408851D02*
D03*
X491180D02*
D03*
X474715D02*
D03*
X458249D02*
D03*
X524112D02*
D03*
X507646D02*
D03*
X293590D02*
D03*
X310056D02*
D03*
X244193D02*
D03*
X260659D02*
D03*
X277124D02*
D03*
X194795D02*
D03*
X211261D02*
D03*
X227727D02*
D03*
X145398D02*
D03*
X161863D02*
D03*
X178329D02*
D03*
X96000D02*
D03*
X112466D02*
D03*
X128932D02*
D03*
M02*
