M48
;Layer_Color=9474304
;FILE_FORMAT=4:3
METRIC,TZ
;TYPE=PLATED
T01F00S00C0.200
T02F00S00C0.300
T03F00S00C0.500
T04F00S00C0.550
T05F00S00C0.762
T06F00S00C3.180
;TYPE=NON_PLATED
T08F00S00C1.600
%
T01
X369Y325
X0Y1200
X1647
X1414Y0
X3060
X3293Y1200
X4707Y0
X6353
X8000
X8800Y800
X9600Y1600
X11247
X12893
X14540
X1647Y2847
Y4493
X0
Y2847
Y6140
Y7786
Y9433
Y11080
Y12726
Y14373
Y16019
Y17666
Y19312
Y20959
Y22606
X16186Y1600
X17833
X19480
X21126
X22773
X24419
X26066
X27712
X29359
X31006
X32652
X34299
X35945
X37592
X39239
X40885
X42532
X44178
X45825
X47471
X49118
X50765
X52411
X54058
X39480Y9740
X55704Y1600
X57351
X58998
X60644
X62291
X63937
X65584
X67230
X68877
X70524
X72170
X73817
X75463
X77110
X78757
X80403
X81200Y800
X82000Y0
X83647
X85293
X86940
X86707Y1200
X88353
X88586Y0
X90000Y1200
Y2847
X88353
X90000Y4493
Y6140
Y7786
Y9433
Y11080
Y12726
Y14373
Y16019
Y17666
Y19312
Y20959
Y22606
Y24252
Y25899
Y27545
Y29192
Y30839
Y32485
Y34132
X89007Y34895
X88080Y35823
Y37469
Y39116
Y40762
Y42409
Y44055
Y45702
Y47349
Y48995
Y50642
Y52288
Y53935
X89007Y55107
X89999Y56289
Y57936
Y59582
Y61229
Y62875
X-1Y62871
Y61225
Y59578
Y57932
Y56285
X990Y55102
X1920Y54177
Y52531
Y50884
Y49238
Y47591
Y45945
Y44298
Y42651
Y41005
Y39358
Y37712
Y36065
X1200Y34965
X70Y34070
X0Y32485
Y30839
Y29192
Y27545
Y25899
Y24252
X-1Y64518
Y66165
Y67811
Y69458
Y71104
Y72751
Y74397
Y76044
Y77691
Y79337
Y80984
Y82630
Y84277
Y85924
X1646
X3292
X4939
Y87570
X6585
Y89217
X6140Y90000
X4493
X4939Y89217
X3292
X2847Y90000
X1200
X1646Y89217
Y87570
X3292
X-1
Y89217
X8232
X7786Y90000
X9433
X11080
X12726
X14373
X16019
X17666
X19312
X20959
X22606
X24252
X25899
X27545
X29192
X30839
X32485
X34132
X35630Y89730
X36070Y88535
X37270Y87070
X38917
X40563
X42210
X43856
X45503
X46957
X48604
X50250
X51897
X53543
X55190
X56390Y88535
X57590Y90000
X59237
X60883
X62530
X64176
X65823
X67470
X69116
X70763
X72409
X74056
X75702
X77349
X78996
X80642
X82289
X83935
X83413Y89221
X85059
X85582Y90000
X87229
X86706Y89221
Y87574
Y85928
X88352
Y87574
Y89221
X88875Y90000
X89999Y89221
Y87574
Y85928
Y84281
Y82634
Y80988
Y79341
Y77695
Y76048
Y74401
Y72755
Y71108
Y69462
Y67815
Y66169
Y64522
X85059Y87574
T02
X3680Y11038
X4660
X5640
X6620
X7600
X8580
X9560
X10540
X11520
Y12630
X10540
X9560
X8580
X7600
X6620
X5640
X4660
X3680
Y14223
X4660
X5640
X6620
Y15815
X5640
X4660
X3680
Y17408
X4660
X5640
X6620
Y19000
X5640
X4660
X3680
Y20593
X4660
X5640
X6620
X7600
Y22185
X6620
X5640
X4660
X3680
Y23778
X4660
X5640
X6620
X7600
Y19000
X9340Y18195
X10258Y18845
X11065Y19495
X11872Y20145
X12679Y20795
X1470Y23800
X9790Y8920
Y7940
Y6960
Y5980
X10180Y5120
X14290Y3730
X15285Y5965
Y6570
Y7175
X19730Y3745
X20540Y3530
X26550Y3251
X28460Y3010
X24010Y8400
X24125Y9132
X23266Y11090
Y11830
X24360
X22330Y11090
X23320Y16450
Y17430
X23044Y20145
X23996
X24948
X25900
X26980Y21660
Y22640
Y23620
X28295Y23830
X28900
X29505
X32760Y22180
X33740
X34720
X35700
X36680
X40750Y23000
X37959Y16080
X34290Y17600
X31770Y17110
X31100Y18410
X31770Y19140
Y14530
X34030
X35620Y9960
X35070Y9240
X36360Y9250
X37110Y9910
X37730Y9200
X38610Y2690
X39730
X40850
X41970
X43090
X44210
X45303Y2620
X46630
X47956
X49282
X50609
X51935
X53262
X54588
X47835Y4835
Y5440
X47230
Y4835
X46260Y9740
X49097Y9816
X49130Y10600
X54140Y20990
X17000Y20826
Y21972
Y23118
Y19680
Y18534
Y17388
Y16242
Y15096
Y13950
X61920Y13010
X62900
X63880
X64580Y10680
X64590Y10020
X67380Y9260
X67400Y8410
X67420Y7470
Y11530
Y12510
X66730Y13500
X72830Y14050
Y15310
Y16570
Y17830
Y20350
Y21610
Y22870
X74160Y22708
X71110Y22058
X70370Y21408
X77460Y18808
X78317Y18158
X79175Y17508
X80032Y16858
X80890Y16208
X81747Y15558
X82605Y14908
X83462Y14258
X83385Y12975
X84633
Y11727
X83385
X82138
Y12975
X80891
X79644
Y11727
Y10480
Y9233
Y7985
Y6738
Y5491
Y4244
X79690Y3210
X79696Y2604
X78449
X78443Y3210
X78396Y4244
Y5491
Y6738
Y7985
Y9233
Y10480
Y11727
Y12975
X80891Y11727
Y10480
X82138
X83385
X84633
X85880
X86860
X87840
Y11727
X86860
X85880
Y12975
X86860
X87840
Y14222
X86860
X85880
Y15469
X86860
X87840
Y16716
X86860
X85880
Y17964
X86860
X87840
Y19211
X86860
X85880
Y20458
X86860
X87840
Y21705
X86860
X85880
Y22953
X86860
X87840
X76796Y10150
X73960Y9220
X72745
X75230Y6650
Y5916
X75790Y3210
X75796Y2604
X77123
X77116Y3210
X74463
X74470Y2604
X73143
X73137Y3210
X71810
X71817Y2604
X70490
X70484Y3210
X69158
X69164Y2604
X67837
X67831Y3210
X66505
X66511Y2604
X65200Y2620
X63874
X62547
X62300Y3400
X63280
X61320
X61221Y2620
X59894
X58568
X57241
X55915
X59130Y20580
X60110
X59630Y22830
X58650
X54870Y26970
Y27750
X65860Y27520
X66840
X66470Y30770
Y31375
Y31980
X66730Y35890
X68740Y40800
X69720
X70700
X71680
X77740Y41420
Y42400
X78317Y37589
X79175Y38189
X80032Y38790
X80890Y39390
X82090Y38870
Y37890
Y36910
X83070
Y37890
Y38870
X84190Y39990
X85060Y40590
X85920Y40600
X77460Y36989
X76550Y27690
Y26710
X75200Y24610
X74220
X73240
X72260
X71280
X70300
X69320
X68340
X85880Y24200
X86860
X87840
X83460Y52970
X82480
X81500
X80520
Y53950
X81500
X82480
X83460
Y54930
X82480
X81500
X80520
X79540
Y53950
Y52970
X71740Y53230
X70760
X69780
X68800
Y54210
X69780
X70760
X71740
Y55190
X70760
X69780
X68800
X67820
Y54210
Y53230
X61190Y54040
Y55020
X60210
X59230
X58250
X57270
Y54040
X58250
X59230
X60210
X66310Y60095
Y60700
Y61305
X66430Y46465
Y45860
X60920Y40470
X59940
X58960
X57980
X50370Y40680
X49390
X48410
X47430
Y39700
X48410
X49390
X50370
X44520Y45130
Y45735
Y46340
X46180Y54770
X47160
X48140
X49120
X50100
X39380Y55140
X38400
X37420
X36440
X35460
X25900Y51740
X24948Y52348
X23996Y52956
X23044Y53564
X22092Y54172
X21139Y54780
X19965
X18790
X17400Y53590
Y52610
Y51630
X16420
Y52610
Y53590
X22210Y56550
X23190
X22900Y60267
Y60872
Y61477
X27550Y40200
X28530
X29510
X30490
Y39220
X29510
X28530
X27550
X36430Y39380
Y40360
X37410
X38390
X39370
Y39380
X38390
X37410
X33960Y36160
X34450Y26320
X35430
X36410
X37390
X38370
X39350
X40330
X41310
X44150Y26710
Y27690
X44850Y30770
Y31375
Y31980
X29505Y25040
X28900
X28295
Y24435
X28900
X29505
X26980Y24600
X22280Y25750
X21337
X20395
X19452
X17000Y25410
Y24264
X15485Y24510
X23740Y27800
X17510Y37980
X16530
Y38960
Y39940
Y40920
X17510
Y39940
Y38960
X7530Y38670
Y37690
Y36710
X6550
Y37690
Y38670
Y39650
X7530
X5570
Y38670
Y37690
Y36710
X5640Y25370
X4660
X3680
X1470Y24859
Y25917
Y26976
Y28035
X6620Y25370
X7600
X11380Y27185
Y27790
X13486Y24510
X14485
X7640Y52320
X6660
X5680
Y53300
Y54280
X6660
Y53300
X7640
Y54280
Y55260
X6660
X5680
X5590Y66360
X6570
X7550
Y67340
Y68320
Y69300
X6570
X5590
Y68320
X6570
Y67340
X5590
X9340Y69710
X10258
X11065Y69107
X11872Y68503
X12679Y67900
X13486Y67297
X14293Y66693
X12550Y70990
X11570
X14500Y81610
Y83053
Y84497
Y85940
Y87383
X16139
Y85940
Y84497
Y83053
Y81610
X17777
Y83053
Y84497
Y85940
Y87383
X19416
Y85940
Y84497
Y83053
Y81610
X21055
Y83053
Y84497
Y85940
Y87383
X22693
Y85940
Y84497
Y83053
Y81610
X24332
Y83053
Y84497
Y85940
Y87383
X25971
Y85940
Y84497
Y83053
Y81610
X27609
Y83053
Y84497
Y85940
Y87383
X29248
Y85940
Y84497
Y83053
Y81610
X30887
Y83053
Y84497
Y85940
Y87383
X32526
Y85940
Y84497
Y83053
Y81610
X34164
Y83053
Y84497
Y85940
Y87383
X35803Y84497
Y83053
Y81610
X37442
Y83053
Y84497
X39080
Y83053
Y81610
X40719
Y83053
Y84497
X42358
Y83053
Y81610
X43996
Y83053
Y84497
X45635
Y83053
Y81610
X47274
Y83053
Y84497
X48912
Y83053
Y81610
X50551
Y83053
Y84497
X52190
Y83053
Y81610
X53828
Y83053
Y84497
X44620Y76055
Y75450
Y74845
X46320Y69370
X47300
X48280
X49260
X50240
X39480Y69600
X38500
X37520
X36540
X35560
X24790Y69980
X23810
X22830
X22780Y74785
Y75390
Y75995
X15100Y66090
X57180Y68570
X58160
X59140
X60120
X61100
Y69550
X60120
X59140
X58160
X57180
X67870Y69160
Y68180
X68850
X69830
X70810
X71790
Y69160
X70810
X69830
X68850
X66360Y74390
Y74995
Y75600
X66938Y81610
Y83053
Y84497
Y85940
Y87383
X65299
Y85940
Y84497
Y83053
Y81610
X63661
Y83053
Y84497
Y85940
Y87383
X62022
Y85940
Y84497
Y83053
Y81610
X60383
Y83053
Y84497
Y85940
Y87383
X58744
Y85940
Y84497
Y83053
Y81610
X57106
Y83053
Y84497
X55467
Y83053
Y81610
X68577
Y83053
Y84497
Y85940
Y87383
X70215
Y85940
Y84497
Y83053
Y81610
X71854
Y83053
Y84497
Y85940
Y87383
X73493
Y85940
Y84497
Y83053
Y81610
X75131
Y83053
Y84497
Y85940
Y87383
X76770Y87383
Y85940
Y84497
Y83053
Y81610
X88660Y81732
Y80093
Y78455
Y76816
Y75177
Y73539
X83050Y69400
X82070
X81090
X80110
X79130
Y68420
Y67440
X80110
Y68420
X81090
X82070
X83050
Y67440
X82070
X81090
X88660Y83371
T03
X62356Y31588
X73236
X84116
Y46135
X73236
X62356
Y60681
X73236
X84116
X51476
X40596
X29716
X18836
Y46135
X29716
X40596
X51476
Y31588
X40596
X29716
X18836
X7956
Y46135
Y60681
Y75228
X18836
X29716
X40596
X51476
X62356
X73236
X84116
T04
X61356Y30588
Y32588
X72236
Y30588
X83116
Y32588
Y45135
Y47135
X72236
Y45135
X61356
Y47135
Y59681
Y61681
X72236
Y59681
X83116
Y61681
X50476
Y59681
X39596
Y61681
X28716
Y59681
X17836
Y61681
Y47135
Y45135
X28716
Y47135
X39596
Y45135
X50476
Y47135
Y32588
Y30588
X39596
Y32588
X28716
Y30588
X17836
Y32588
X6956
Y30588
Y45135
Y47135
Y59681
Y61681
Y74228
Y76228
X17836
Y74228
X28716Y74228
Y76228
X39596
Y74228
X50476
Y76228
X61356
Y74228
X72236
Y76228
X83116
Y74228
T05
X3464Y3463
X5080Y2794
X6696Y3463
X7366Y5080
X6696Y6696
X5080Y7366
X3464Y6696
X2794Y5080
X82804
X83474Y3463
X85090Y2794
X86706Y3463
X87376Y5080
X86706Y6696
X85090Y7366
X83474Y6696
X10506Y83304
X8890Y82634
X7274Y83304
X6604Y84920
X7274Y86536
X8890Y87206
X10506Y86536
X11176Y84920
X80094
X80764Y86536
X82380Y87206
X83996Y86536
X84666Y84920
X83996Y83304
X82380Y82634
X80764Y83304
T06
X5080Y5080
X85090
X8890Y84920
X82380
T08
X32938Y8948
M30
