G04*
G04 #@! TF.GenerationSoftware,Altium Limited,Altium Designer,24.1.2 (44)*
G04*
G04 Layer_Color=8421504*
%FSLAX44Y44*%
%MOMM*%
G71*
G04*
G04 #@! TF.SameCoordinates,32799FE6-DD90-4EFC-9ADB-317E97FF397D*
G04*
G04*
G04 #@! TF.FilePolarity,Positive*
G04*
G01*
G75*
%ADD17C,1.0000*%
%ADD18R,3.2000X4.0000*%
%ADD19R,4.0000X3.2000*%
%ADD20R,2.2860X2.3000*%
%ADD21R,0.9000X0.6000*%
G04:AMPARAMS|DCode=22|XSize=0.6mm|YSize=0.25mm|CornerRadius=0.0463mm|HoleSize=0mm|Usage=FLASHONLY|Rotation=180.000|XOffset=0mm|YOffset=0mm|HoleType=Round|Shape=RoundedRectangle|*
%AMROUNDEDRECTD22*
21,1,0.6000,0.1575,0,0,180.0*
21,1,0.5075,0.2500,0,0,180.0*
1,1,0.0925,-0.2537,0.0788*
1,1,0.0925,0.2537,0.0788*
1,1,0.0925,0.2537,-0.0788*
1,1,0.0925,-0.2537,-0.0788*
%
%ADD22ROUNDEDRECTD22*%
%ADD23R,0.8000X0.9000*%
%ADD24R,0.6000X0.9000*%
%ADD25R,0.9000X0.8000*%
%ADD26R,2.3000X2.8000*%
%ADD27O,1.8000X0.6000*%
%ADD28R,0.4000X0.8500*%
%ADD29R,3.1500X3.3000*%
G36*
X611824Y66002D02*
X611798Y66004D01*
X611772Y66007D01*
X611746Y66012D01*
X611721Y66018D01*
X611696Y66025D01*
X611671Y66034D01*
X611647Y66044D01*
X611623Y66055D01*
X611600Y66068D01*
X611578Y66082D01*
X611556Y66096D01*
X611535Y66112D01*
X611515Y66129D01*
X611496Y66147D01*
X611478Y66166D01*
X611461Y66186D01*
X611446Y66207D01*
X611431Y66228D01*
X611417Y66251D01*
X611404Y66274D01*
X611393Y66297D01*
X611383Y66322D01*
X611375Y66346D01*
X611367Y66371D01*
X611361Y66397D01*
X611356Y66423D01*
X611353Y66448D01*
X611351Y66475D01*
X611350Y66501D01*
Y69751D01*
X608100D01*
X608074Y69752D01*
X608048Y69754D01*
X608022Y69757D01*
X607996Y69762D01*
X607971Y69768D01*
X607946Y69775D01*
X607921Y69784D01*
X607897Y69794D01*
X607873Y69805D01*
X607850Y69818D01*
X607828Y69832D01*
X607806Y69846D01*
X607785Y69862D01*
X607765Y69879D01*
X607747Y69897D01*
X607728Y69916D01*
X607711Y69936D01*
X607696Y69957D01*
X607681Y69978D01*
X607667Y70001D01*
X607654Y70024D01*
X607643Y70047D01*
X607633Y70072D01*
X607625Y70096D01*
X607617Y70121D01*
X607611Y70147D01*
X607606Y70173D01*
X607603Y70198D01*
X607601Y70225D01*
X607600Y70251D01*
Y72001D01*
X607601Y72027D01*
X607603Y72053D01*
X607606Y72079D01*
X607611Y72105D01*
X607617Y72130D01*
X607625Y72155D01*
X607633Y72180D01*
X607643Y72204D01*
X607654Y72228D01*
X607667Y72251D01*
X607681Y72273D01*
X607696Y72295D01*
X607711Y72316D01*
X607728Y72335D01*
X607747Y72354D01*
X607765Y72372D01*
X607785Y72389D01*
X607806Y72405D01*
X607828Y72420D01*
X607850Y72434D01*
X607873Y72446D01*
X607897Y72458D01*
X607921Y72468D01*
X607946Y72476D01*
X607971Y72484D01*
X607996Y72490D01*
X608022Y72495D01*
X608048Y72498D01*
X608074Y72500D01*
X608100Y72501D01*
X613100D01*
X613126Y72500D01*
X613152Y72498D01*
X613178Y72495D01*
X613204Y72490D01*
X613229Y72484D01*
X613255Y72476D01*
X613279Y72468D01*
X613303Y72458D01*
X613327Y72446D01*
X613350Y72434D01*
X613372Y72420D01*
X613394Y72405D01*
X613415Y72389D01*
X613435Y72372D01*
X613454Y72354D01*
X613472Y72335D01*
X613489Y72316D01*
X613504Y72295D01*
X613519Y72273D01*
X613533Y72251D01*
X613545Y72228D01*
X613557Y72204D01*
X613567Y72180D01*
X613576Y72155D01*
X613583Y72130D01*
X613589Y72105D01*
X613594Y72079D01*
X613597Y72053D01*
X613599Y72027D01*
X613600Y72001D01*
Y66501D01*
X613599Y66475D01*
X613597Y66448D01*
X613594Y66423D01*
X613589Y66397D01*
X613583Y66371D01*
X613576Y66346D01*
X613567Y66322D01*
X613557Y66297D01*
X613545Y66274D01*
X613533Y66251D01*
X613519Y66228D01*
X613504Y66207D01*
X613489Y66186D01*
X613472Y66166D01*
X613454Y66147D01*
X613435Y66129D01*
X613415Y66112D01*
X613394Y66096D01*
X613372Y66082D01*
X613350Y66068D01*
X613327Y66055D01*
X613303Y66044D01*
X613279Y66034D01*
X613255Y66025D01*
X613229Y66018D01*
X613204Y66012D01*
X613178Y66007D01*
X613152Y66004D01*
X613126Y66002D01*
X613100Y66001D01*
X611850D01*
X611824Y66002D01*
D02*
G37*
G36*
X616174Y66402D02*
X616148Y66404D01*
X616122Y66407D01*
X616096Y66412D01*
X616071Y66418D01*
X616045Y66425D01*
X616021Y66434D01*
X615997Y66444D01*
X615973Y66455D01*
X615950Y66468D01*
X615928Y66481D01*
X615906Y66496D01*
X615885Y66512D01*
X615865Y66529D01*
X615846Y66547D01*
X615828Y66566D01*
X615811Y66586D01*
X615796Y66607D01*
X615781Y66628D01*
X615767Y66651D01*
X615755Y66674D01*
X615743Y66697D01*
X615733Y66722D01*
X615724Y66746D01*
X615717Y66771D01*
X615711Y66797D01*
X615706Y66823D01*
X615703Y66849D01*
X615701Y66875D01*
X615700Y66901D01*
Y76501D01*
X615701Y76527D01*
X615703Y76553D01*
X615706Y76579D01*
X615711Y76605D01*
X615717Y76630D01*
X615724Y76655D01*
X615733Y76680D01*
X615743Y76704D01*
X615755Y76728D01*
X615767Y76751D01*
X615781Y76773D01*
X615796Y76795D01*
X615811Y76816D01*
X615828Y76835D01*
X615846Y76854D01*
X615865Y76872D01*
X615885Y76889D01*
X615906Y76905D01*
X615928Y76920D01*
X615950Y76934D01*
X615973Y76946D01*
X615997Y76958D01*
X616021Y76968D01*
X616045Y76976D01*
X616071Y76984D01*
X616096Y76990D01*
X616122Y76995D01*
X616148Y76998D01*
X616174Y77000D01*
X616200Y77001D01*
X618000D01*
X618026Y77000D01*
X618052Y76998D01*
X618078Y76995D01*
X618104Y76990D01*
X618129Y76984D01*
X618154Y76976D01*
X618179Y76968D01*
X618203Y76958D01*
X618227Y76946D01*
X618250Y76934D01*
X618272Y76920D01*
X618294Y76905D01*
X618315Y76889D01*
X618335Y76872D01*
X618354Y76854D01*
X618372Y76835D01*
X618389Y76816D01*
X618405Y76795D01*
X618419Y76773D01*
X618433Y76751D01*
X618446Y76728D01*
X618457Y76704D01*
X618467Y76680D01*
X618475Y76655D01*
X618483Y76630D01*
X618489Y76605D01*
X618494Y76579D01*
X618497Y76553D01*
X618499Y76527D01*
X618500Y76501D01*
Y66901D01*
X618499Y66875D01*
X618497Y66849D01*
X618494Y66823D01*
X618489Y66797D01*
X618483Y66771D01*
X618475Y66746D01*
X618467Y66722D01*
X618457Y66697D01*
X618446Y66674D01*
X618433Y66651D01*
X618419Y66628D01*
X618405Y66607D01*
X618389Y66586D01*
X618372Y66566D01*
X618354Y66547D01*
X618335Y66529D01*
X618315Y66512D01*
X618294Y66496D01*
X618272Y66481D01*
X618250Y66468D01*
X618227Y66455D01*
X618203Y66444D01*
X618179Y66434D01*
X618154Y66425D01*
X618129Y66418D01*
X618104Y66412D01*
X618078Y66407D01*
X618052Y66404D01*
X618026Y66402D01*
X618000Y66401D01*
X616200D01*
X616174Y66402D01*
D02*
G37*
G36*
Y79001D02*
X616148Y79004D01*
X616122Y79007D01*
X616096Y79012D01*
X616071Y79018D01*
X616045Y79025D01*
X616021Y79034D01*
X615997Y79044D01*
X615973Y79055D01*
X615950Y79068D01*
X615928Y79082D01*
X615906Y79096D01*
X615885Y79112D01*
X615865Y79129D01*
X615846Y79147D01*
X615828Y79166D01*
X615811Y79186D01*
X615796Y79207D01*
X615781Y79229D01*
X615767Y79251D01*
X615755Y79274D01*
X615743Y79297D01*
X615733Y79322D01*
X615724Y79346D01*
X615717Y79371D01*
X615711Y79397D01*
X615706Y79423D01*
X615703Y79448D01*
X615701Y79475D01*
X615700Y79501D01*
Y89101D01*
X615701Y89127D01*
X615703Y89153D01*
X615706Y89179D01*
X615711Y89205D01*
X615717Y89230D01*
X615724Y89255D01*
X615733Y89280D01*
X615743Y89304D01*
X615755Y89328D01*
X615767Y89351D01*
X615781Y89373D01*
X615796Y89395D01*
X615811Y89416D01*
X615828Y89435D01*
X615846Y89454D01*
X615865Y89472D01*
X615885Y89489D01*
X615906Y89505D01*
X615928Y89520D01*
X615950Y89534D01*
X615973Y89546D01*
X615997Y89558D01*
X616021Y89568D01*
X616045Y89576D01*
X616071Y89584D01*
X616096Y89590D01*
X616122Y89595D01*
X616148Y89598D01*
X616174Y89600D01*
X616200Y89601D01*
X618000D01*
X618026Y89600D01*
X618052Y89598D01*
X618078Y89595D01*
X618104Y89590D01*
X618129Y89584D01*
X618154Y89576D01*
X618179Y89568D01*
X618203Y89558D01*
X618227Y89546D01*
X618250Y89534D01*
X618272Y89520D01*
X618294Y89505D01*
X618315Y89489D01*
X618335Y89472D01*
X618354Y89454D01*
X618372Y89435D01*
X618389Y89416D01*
X618405Y89395D01*
X618419Y89373D01*
X618433Y89351D01*
X618446Y89328D01*
X618457Y89304D01*
X618467Y89280D01*
X618475Y89255D01*
X618483Y89230D01*
X618489Y89205D01*
X618494Y89179D01*
X618497Y89153D01*
X618499Y89127D01*
X618500Y89101D01*
Y79501D01*
X618499Y79475D01*
X618497Y79448D01*
X618494Y79423D01*
X618489Y79397D01*
X618483Y79371D01*
X618475Y79346D01*
X618467Y79322D01*
X618457Y79297D01*
X618446Y79274D01*
X618433Y79251D01*
X618419Y79229D01*
X618405Y79207D01*
X618389Y79186D01*
X618372Y79166D01*
X618354Y79147D01*
X618335Y79129D01*
X618315Y79112D01*
X618294Y79096D01*
X618272Y79082D01*
X618250Y79068D01*
X618227Y79055D01*
X618203Y79044D01*
X618179Y79034D01*
X618154Y79025D01*
X618129Y79018D01*
X618104Y79012D01*
X618078Y79007D01*
X618052Y79004D01*
X618026Y79001D01*
X618000Y79001D01*
X616200D01*
X616174Y79001D01*
D02*
G37*
G36*
X608074Y83502D02*
X608048Y83504D01*
X608022Y83507D01*
X607996Y83512D01*
X607971Y83518D01*
X607946Y83525D01*
X607921Y83534D01*
X607897Y83544D01*
X607873Y83555D01*
X607850Y83568D01*
X607828Y83581D01*
X607806Y83596D01*
X607785Y83612D01*
X607765Y83629D01*
X607747Y83647D01*
X607728Y83666D01*
X607711Y83686D01*
X607696Y83707D01*
X607681Y83729D01*
X607667Y83751D01*
X607654Y83774D01*
X607643Y83797D01*
X607633Y83822D01*
X607625Y83846D01*
X607617Y83871D01*
X607611Y83897D01*
X607606Y83923D01*
X607603Y83948D01*
X607601Y83975D01*
X607600Y84001D01*
Y85751D01*
X607601Y85777D01*
X607603Y85803D01*
X607606Y85829D01*
X607611Y85855D01*
X607617Y85880D01*
X607625Y85905D01*
X607633Y85930D01*
X607643Y85954D01*
X607654Y85978D01*
X607667Y86001D01*
X607681Y86023D01*
X607696Y86045D01*
X607711Y86066D01*
X607728Y86085D01*
X607747Y86104D01*
X607765Y86122D01*
X607785Y86139D01*
X607806Y86155D01*
X607828Y86170D01*
X607850Y86184D01*
X607873Y86196D01*
X607897Y86208D01*
X607921Y86218D01*
X607946Y86226D01*
X607971Y86234D01*
X607996Y86240D01*
X608022Y86245D01*
X608048Y86248D01*
X608074Y86250D01*
X608100Y86251D01*
X611350D01*
Y89501D01*
X611351Y89527D01*
X611353Y89553D01*
X611356Y89579D01*
X611361Y89605D01*
X611367Y89630D01*
X611375Y89655D01*
X611383Y89680D01*
X611393Y89704D01*
X611404Y89728D01*
X611417Y89751D01*
X611431Y89773D01*
X611446Y89795D01*
X611461Y89816D01*
X611478Y89835D01*
X611496Y89854D01*
X611515Y89872D01*
X611535Y89889D01*
X611556Y89905D01*
X611578Y89920D01*
X611600Y89934D01*
X611623Y89946D01*
X611647Y89958D01*
X611671Y89968D01*
X611696Y89976D01*
X611721Y89984D01*
X611746Y89990D01*
X611772Y89995D01*
X611798Y89998D01*
X611824Y90000D01*
X611850Y90001D01*
X613100D01*
X613126Y90000D01*
X613152Y89998D01*
X613178Y89995D01*
X613204Y89990D01*
X613229Y89984D01*
X613255Y89976D01*
X613279Y89968D01*
X613303Y89958D01*
X613327Y89946D01*
X613350Y89934D01*
X613372Y89920D01*
X613394Y89905D01*
X613415Y89889D01*
X613435Y89872D01*
X613454Y89854D01*
X613472Y89835D01*
X613489Y89816D01*
X613504Y89795D01*
X613519Y89773D01*
X613533Y89751D01*
X613545Y89728D01*
X613557Y89704D01*
X613567Y89680D01*
X613576Y89655D01*
X613583Y89630D01*
X613589Y89605D01*
X613594Y89579D01*
X613597Y89553D01*
X613599Y89527D01*
X613600Y89501D01*
Y84001D01*
X613599Y83975D01*
X613597Y83948D01*
X613594Y83923D01*
X613589Y83897D01*
X613583Y83871D01*
X613576Y83846D01*
X613567Y83822D01*
X613557Y83797D01*
X613545Y83774D01*
X613533Y83751D01*
X613519Y83729D01*
X613504Y83707D01*
X613489Y83686D01*
X613472Y83666D01*
X613454Y83647D01*
X613435Y83629D01*
X613415Y83612D01*
X613394Y83596D01*
X613372Y83581D01*
X613350Y83568D01*
X613327Y83555D01*
X613303Y83544D01*
X613279Y83534D01*
X613255Y83525D01*
X613229Y83518D01*
X613204Y83512D01*
X613178Y83507D01*
X613152Y83504D01*
X613126Y83502D01*
X613100Y83501D01*
X608100D01*
X608074Y83502D01*
D02*
G37*
G36*
X626074Y66002D02*
X626048Y66004D01*
X626022Y66007D01*
X625996Y66012D01*
X625971Y66018D01*
X625946Y66025D01*
X625921Y66034D01*
X625897Y66044D01*
X625873Y66055D01*
X625850Y66068D01*
X625828Y66082D01*
X625806Y66096D01*
X625785Y66112D01*
X625765Y66129D01*
X625746Y66147D01*
X625728Y66166D01*
X625711Y66186D01*
X625695Y66207D01*
X625681Y66228D01*
X625667Y66251D01*
X625654Y66274D01*
X625643Y66297D01*
X625633Y66322D01*
X625625Y66346D01*
X625617Y66371D01*
X625611Y66397D01*
X625606Y66423D01*
X625603Y66448D01*
X625601Y66475D01*
X625600Y66501D01*
Y72001D01*
X625601Y72027D01*
X625603Y72053D01*
X625606Y72079D01*
X625611Y72105D01*
X625617Y72130D01*
X625625Y72155D01*
X625633Y72180D01*
X625643Y72204D01*
X625654Y72228D01*
X625667Y72251D01*
X625681Y72273D01*
X625695Y72295D01*
X625711Y72316D01*
X625728Y72335D01*
X625746Y72354D01*
X625765Y72372D01*
X625785Y72389D01*
X625806Y72405D01*
X625828Y72420D01*
X625850Y72434D01*
X625873Y72446D01*
X625897Y72458D01*
X625921Y72468D01*
X625946Y72476D01*
X625971Y72484D01*
X625996Y72490D01*
X626022Y72495D01*
X626048Y72498D01*
X626074Y72500D01*
X626100Y72501D01*
X631100D01*
X631126Y72500D01*
X631152Y72498D01*
X631178Y72495D01*
X631204Y72490D01*
X631229Y72484D01*
X631255Y72476D01*
X631279Y72468D01*
X631303Y72458D01*
X631327Y72446D01*
X631350Y72434D01*
X631372Y72420D01*
X631394Y72405D01*
X631415Y72389D01*
X631435Y72372D01*
X631454Y72354D01*
X631472Y72335D01*
X631489Y72316D01*
X631505Y72295D01*
X631519Y72273D01*
X631533Y72251D01*
X631545Y72228D01*
X631557Y72204D01*
X631567Y72180D01*
X631576Y72155D01*
X631583Y72130D01*
X631589Y72105D01*
X631594Y72079D01*
X631597Y72053D01*
X631599Y72027D01*
X631600Y72001D01*
Y70251D01*
X631599Y70225D01*
X631597Y70198D01*
X631594Y70173D01*
X631589Y70147D01*
X631583Y70121D01*
X631576Y70096D01*
X631567Y70072D01*
X631557Y70047D01*
X631545Y70024D01*
X631533Y70001D01*
X631519Y69978D01*
X631505Y69957D01*
X631489Y69936D01*
X631472Y69916D01*
X631454Y69897D01*
X631435Y69879D01*
X631415Y69862D01*
X631394Y69846D01*
X631372Y69832D01*
X631350Y69818D01*
X631327Y69805D01*
X631303Y69794D01*
X631279Y69784D01*
X631255Y69775D01*
X631229Y69768D01*
X631204Y69762D01*
X631178Y69757D01*
X631152Y69754D01*
X631126Y69752D01*
X631100Y69751D01*
X627850D01*
Y66501D01*
X627849Y66475D01*
X627847Y66448D01*
X627844Y66423D01*
X627839Y66397D01*
X627833Y66371D01*
X627826Y66346D01*
X627817Y66322D01*
X627807Y66297D01*
X627795Y66274D01*
X627783Y66251D01*
X627769Y66228D01*
X627755Y66207D01*
X627739Y66186D01*
X627722Y66166D01*
X627704Y66147D01*
X627685Y66129D01*
X627665Y66112D01*
X627644Y66096D01*
X627622Y66082D01*
X627600Y66068D01*
X627577Y66055D01*
X627553Y66044D01*
X627529Y66034D01*
X627505Y66025D01*
X627479Y66018D01*
X627454Y66012D01*
X627428Y66007D01*
X627402Y66004D01*
X627376Y66002D01*
X627350Y66001D01*
X626100D01*
X626074Y66002D01*
D02*
G37*
G36*
X621174Y66402D02*
X621148Y66404D01*
X621122Y66407D01*
X621096Y66412D01*
X621071Y66418D01*
X621045Y66425D01*
X621021Y66434D01*
X620997Y66444D01*
X620973Y66455D01*
X620950Y66468D01*
X620928Y66481D01*
X620906Y66496D01*
X620885Y66512D01*
X620865Y66529D01*
X620846Y66547D01*
X620828Y66566D01*
X620811Y66586D01*
X620796Y66607D01*
X620781Y66628D01*
X620767Y66651D01*
X620755Y66674D01*
X620743Y66697D01*
X620733Y66722D01*
X620724Y66746D01*
X620717Y66771D01*
X620711Y66797D01*
X620706Y66823D01*
X620703Y66849D01*
X620701Y66875D01*
X620700Y66901D01*
Y76501D01*
X620701Y76527D01*
X620703Y76553D01*
X620706Y76579D01*
X620711Y76605D01*
X620717Y76630D01*
X620724Y76655D01*
X620733Y76680D01*
X620743Y76704D01*
X620755Y76728D01*
X620767Y76751D01*
X620781Y76773D01*
X620796Y76795D01*
X620811Y76816D01*
X620828Y76835D01*
X620846Y76854D01*
X620865Y76872D01*
X620885Y76889D01*
X620906Y76905D01*
X620928Y76920D01*
X620950Y76934D01*
X620973Y76946D01*
X620997Y76958D01*
X621021Y76968D01*
X621045Y76976D01*
X621071Y76984D01*
X621096Y76990D01*
X621122Y76995D01*
X621148Y76998D01*
X621174Y77000D01*
X621200Y77001D01*
X623000D01*
X623026Y77000D01*
X623052Y76998D01*
X623078Y76995D01*
X623104Y76990D01*
X623129Y76984D01*
X623154Y76976D01*
X623179Y76968D01*
X623203Y76958D01*
X623227Y76946D01*
X623250Y76934D01*
X623272Y76920D01*
X623294Y76905D01*
X623315Y76889D01*
X623335Y76872D01*
X623354Y76854D01*
X623372Y76835D01*
X623389Y76816D01*
X623405Y76795D01*
X623419Y76773D01*
X623433Y76751D01*
X623446Y76728D01*
X623457Y76704D01*
X623467Y76680D01*
X623475Y76655D01*
X623483Y76630D01*
X623489Y76605D01*
X623494Y76579D01*
X623497Y76553D01*
X623499Y76527D01*
X623500Y76501D01*
Y66901D01*
X623499Y66875D01*
X623497Y66849D01*
X623494Y66823D01*
X623489Y66797D01*
X623483Y66771D01*
X623475Y66746D01*
X623467Y66722D01*
X623457Y66697D01*
X623446Y66674D01*
X623433Y66651D01*
X623419Y66628D01*
X623405Y66607D01*
X623389Y66586D01*
X623372Y66566D01*
X623354Y66547D01*
X623335Y66529D01*
X623315Y66512D01*
X623294Y66496D01*
X623272Y66481D01*
X623250Y66468D01*
X623227Y66455D01*
X623203Y66444D01*
X623179Y66434D01*
X623154Y66425D01*
X623129Y66418D01*
X623104Y66412D01*
X623078Y66407D01*
X623052Y66404D01*
X623026Y66402D01*
X623000Y66401D01*
X621200D01*
X621174Y66402D01*
D02*
G37*
G36*
Y79001D02*
X621148Y79004D01*
X621122Y79007D01*
X621096Y79012D01*
X621071Y79018D01*
X621045Y79025D01*
X621021Y79034D01*
X620997Y79044D01*
X620973Y79055D01*
X620950Y79068D01*
X620928Y79082D01*
X620906Y79096D01*
X620885Y79112D01*
X620865Y79129D01*
X620846Y79147D01*
X620828Y79166D01*
X620811Y79186D01*
X620796Y79207D01*
X620781Y79229D01*
X620767Y79251D01*
X620755Y79274D01*
X620743Y79297D01*
X620733Y79322D01*
X620724Y79346D01*
X620717Y79371D01*
X620711Y79397D01*
X620706Y79423D01*
X620703Y79448D01*
X620701Y79475D01*
X620700Y79501D01*
Y89101D01*
X620701Y89127D01*
X620703Y89153D01*
X620706Y89179D01*
X620711Y89205D01*
X620717Y89230D01*
X620724Y89255D01*
X620733Y89280D01*
X620743Y89304D01*
X620755Y89328D01*
X620767Y89351D01*
X620781Y89373D01*
X620796Y89395D01*
X620811Y89416D01*
X620828Y89435D01*
X620846Y89454D01*
X620865Y89472D01*
X620885Y89489D01*
X620906Y89505D01*
X620928Y89520D01*
X620950Y89534D01*
X620973Y89546D01*
X620997Y89558D01*
X621021Y89568D01*
X621045Y89576D01*
X621071Y89584D01*
X621096Y89590D01*
X621122Y89595D01*
X621148Y89598D01*
X621174Y89600D01*
X621200Y89601D01*
X623000D01*
X623026Y89600D01*
X623052Y89598D01*
X623078Y89595D01*
X623104Y89590D01*
X623129Y89584D01*
X623154Y89576D01*
X623179Y89568D01*
X623203Y89558D01*
X623227Y89546D01*
X623250Y89534D01*
X623272Y89520D01*
X623294Y89505D01*
X623315Y89489D01*
X623335Y89472D01*
X623354Y89454D01*
X623372Y89435D01*
X623389Y89416D01*
X623405Y89395D01*
X623419Y89373D01*
X623433Y89351D01*
X623446Y89328D01*
X623457Y89304D01*
X623467Y89280D01*
X623475Y89255D01*
X623483Y89230D01*
X623489Y89205D01*
X623494Y89179D01*
X623497Y89153D01*
X623499Y89127D01*
X623500Y89101D01*
Y79501D01*
X623499Y79475D01*
X623497Y79448D01*
X623494Y79423D01*
X623489Y79397D01*
X623483Y79371D01*
X623475Y79346D01*
X623467Y79322D01*
X623457Y79297D01*
X623446Y79274D01*
X623433Y79251D01*
X623419Y79229D01*
X623405Y79207D01*
X623389Y79186D01*
X623372Y79166D01*
X623354Y79147D01*
X623335Y79129D01*
X623315Y79112D01*
X623294Y79096D01*
X623272Y79082D01*
X623250Y79068D01*
X623227Y79055D01*
X623203Y79044D01*
X623179Y79034D01*
X623154Y79025D01*
X623129Y79018D01*
X623104Y79012D01*
X623078Y79007D01*
X623052Y79004D01*
X623026Y79001D01*
X623000Y79001D01*
X621200D01*
X621174Y79001D01*
D02*
G37*
G36*
X626074Y83502D02*
X626048Y83504D01*
X626022Y83507D01*
X625996Y83512D01*
X625971Y83518D01*
X625946Y83525D01*
X625921Y83534D01*
X625897Y83544D01*
X625873Y83555D01*
X625850Y83568D01*
X625828Y83581D01*
X625806Y83596D01*
X625785Y83612D01*
X625765Y83629D01*
X625746Y83647D01*
X625728Y83666D01*
X625711Y83686D01*
X625695Y83707D01*
X625681Y83729D01*
X625667Y83751D01*
X625654Y83774D01*
X625643Y83797D01*
X625633Y83822D01*
X625625Y83846D01*
X625617Y83871D01*
X625611Y83897D01*
X625606Y83923D01*
X625603Y83948D01*
X625601Y83975D01*
X625600Y84001D01*
Y89501D01*
X625601Y89527D01*
X625603Y89553D01*
X625606Y89579D01*
X625611Y89605D01*
X625617Y89630D01*
X625625Y89655D01*
X625633Y89680D01*
X625643Y89704D01*
X625654Y89728D01*
X625667Y89751D01*
X625681Y89773D01*
X625695Y89795D01*
X625711Y89816D01*
X625728Y89835D01*
X625746Y89854D01*
X625765Y89872D01*
X625785Y89889D01*
X625806Y89905D01*
X625828Y89920D01*
X625850Y89934D01*
X625873Y89946D01*
X625897Y89958D01*
X625921Y89968D01*
X625946Y89976D01*
X625971Y89984D01*
X625996Y89990D01*
X626022Y89995D01*
X626048Y89998D01*
X626074Y90000D01*
X626100Y90001D01*
X627350D01*
X627376Y90000D01*
X627402Y89998D01*
X627428Y89995D01*
X627454Y89990D01*
X627479Y89984D01*
X627505Y89976D01*
X627529Y89968D01*
X627553Y89958D01*
X627577Y89946D01*
X627600Y89934D01*
X627622Y89920D01*
X627644Y89905D01*
X627665Y89889D01*
X627685Y89872D01*
X627704Y89854D01*
X627722Y89835D01*
X627739Y89816D01*
X627755Y89795D01*
X627769Y89773D01*
X627783Y89751D01*
X627795Y89728D01*
X627807Y89704D01*
X627817Y89680D01*
X627826Y89655D01*
X627833Y89630D01*
X627839Y89605D01*
X627844Y89579D01*
X627847Y89553D01*
X627849Y89527D01*
X627850Y89501D01*
Y86251D01*
X631100D01*
X631126Y86250D01*
X631152Y86248D01*
X631178Y86245D01*
X631204Y86240D01*
X631229Y86234D01*
X631255Y86226D01*
X631279Y86218D01*
X631303Y86208D01*
X631327Y86196D01*
X631350Y86184D01*
X631372Y86170D01*
X631394Y86155D01*
X631415Y86139D01*
X631435Y86122D01*
X631454Y86104D01*
X631472Y86085D01*
X631489Y86066D01*
X631505Y86045D01*
X631519Y86023D01*
X631533Y86001D01*
X631545Y85978D01*
X631557Y85954D01*
X631567Y85930D01*
X631576Y85905D01*
X631583Y85880D01*
X631589Y85855D01*
X631594Y85829D01*
X631597Y85803D01*
X631599Y85777D01*
X631600Y85751D01*
Y84001D01*
X631599Y83975D01*
X631597Y83948D01*
X631594Y83923D01*
X631589Y83897D01*
X631583Y83871D01*
X631576Y83846D01*
X631567Y83822D01*
X631557Y83797D01*
X631545Y83774D01*
X631533Y83751D01*
X631519Y83729D01*
X631505Y83707D01*
X631489Y83686D01*
X631472Y83666D01*
X631454Y83647D01*
X631435Y83629D01*
X631415Y83612D01*
X631394Y83596D01*
X631372Y83581D01*
X631350Y83568D01*
X631327Y83555D01*
X631303Y83544D01*
X631279Y83534D01*
X631255Y83525D01*
X631229Y83518D01*
X631204Y83512D01*
X631178Y83507D01*
X631152Y83504D01*
X631126Y83502D01*
X631100Y83501D01*
X626100D01*
X626074Y83502D01*
D02*
G37*
D17*
X0Y12000D02*
X301Y9330D01*
X1188Y6793D01*
X2618Y4518D01*
X4518Y2618D01*
X6793Y1188D01*
X9330Y301D01*
X12000Y0D01*
X812000Y8000D02*
X812392Y5528D01*
X813528Y3298D01*
X815298Y1528D01*
X817528Y391D01*
X820000Y0D01*
X812000Y8000D02*
X811609Y10472D01*
X810472Y12702D01*
X808702Y14472D01*
X806472Y15609D01*
X804000Y16000D01*
X888000Y0D02*
X890670Y301D01*
X893207Y1188D01*
X895482Y2618D01*
X897382Y4518D01*
X898812Y6793D01*
X899699Y9330D01*
X900000Y12000D01*
X899990Y337130D02*
X899752Y339508D01*
X899048Y341791D01*
X897905Y343890D01*
X896369Y345720D01*
X894501Y347210D01*
X892374Y348301D01*
X890074Y348948D01*
X880800Y360650D02*
X881038Y358272D01*
X881742Y355989D01*
X882885Y353890D01*
X884421Y352060D01*
X886289Y350570D01*
X888416Y349479D01*
X890716Y348832D01*
X890074Y551072D02*
X892374Y551720D01*
X894501Y552810D01*
X896369Y554300D01*
X897905Y556130D01*
X899048Y558229D01*
X899752Y560512D01*
X899990Y562890D01*
X9916Y348968D02*
X7616Y348321D01*
X5489Y347230D01*
X3621Y345740D01*
X2085Y343910D01*
X942Y341811D01*
X238Y339528D01*
X0Y337150D01*
X9284Y348832D02*
X11584Y349479D01*
X13711Y350570D01*
X15579Y352060D01*
X17115Y353890D01*
X18258Y355989D01*
X18962Y358272D01*
X19200Y360650D01*
Y539350D02*
X18962Y541728D01*
X18258Y544011D01*
X17115Y546110D01*
X15579Y547940D01*
X13711Y549430D01*
X11584Y550521D01*
X9284Y551168D01*
X-10Y562850D02*
X228Y560472D01*
X932Y558189D01*
X2075Y556090D01*
X3611Y554260D01*
X5479Y552770D01*
X7606Y551679D01*
X9906Y551032D01*
X12000Y900000D02*
X9330Y899699D01*
X6793Y898812D01*
X4518Y897382D01*
X2618Y895482D01*
X1188Y893207D01*
X301Y890670D01*
X0Y888000D01*
X360700D02*
X360399Y890670D01*
X359512Y893207D01*
X358082Y895482D01*
X356182Y897382D01*
X353907Y898812D01*
X351370Y899699D01*
X348700Y900000D01*
X360700Y882700D02*
X361001Y880030D01*
X361888Y877493D01*
X363318Y875218D01*
X365218Y873318D01*
X367493Y871888D01*
X370030Y871001D01*
X372700Y870700D01*
X890716Y551168D02*
X888416Y550521D01*
X886289Y549430D01*
X884421Y547940D01*
X882885Y546110D01*
X881742Y544011D01*
X881038Y541728D01*
X880800Y539350D01*
X900000Y888000D02*
X899699Y890670D01*
X898812Y893207D01*
X897382Y895482D01*
X895482Y897382D01*
X893207Y898812D01*
X890670Y899699D01*
X888000Y900000D01*
X575900D02*
X573230Y899699D01*
X570693Y898812D01*
X568418Y897382D01*
X566518Y895482D01*
X565088Y893207D01*
X564201Y890670D01*
X563900Y888000D01*
X551900Y870700D02*
X554570Y871001D01*
X557107Y871888D01*
X559382Y873318D01*
X561282Y875218D01*
X562712Y877493D01*
X563599Y880030D01*
X563900Y882700D01*
X80000Y0D02*
X82472Y391D01*
X84702Y1528D01*
X86472Y3298D01*
X87608Y5528D01*
X88000Y8000D01*
X96000Y16000D02*
X93528Y15609D01*
X91298Y14472D01*
X89528Y12702D01*
X88392Y10472D01*
X88000Y8000D01*
X820000Y0D02*
X888000D01*
X360700Y882700D02*
Y888000D01*
X0Y12000D02*
Y337150D01*
X19200Y360650D02*
Y539350D01*
X900000Y12000D02*
Y337120D01*
X880800Y360650D02*
Y539350D01*
X899990Y562890D02*
Y887990D01*
X575900Y900000D02*
X888000D01*
X372700Y870700D02*
X551900D01*
X12000Y900000D02*
X348700D01*
X0Y562860D02*
Y888000D01*
X563900Y882700D02*
Y888000D01*
X12000Y0D02*
X80000D01*
X96000Y16000D02*
X804000D01*
D18*
X509800Y133900D02*
D03*
Y59900D02*
D03*
D19*
X564900Y170213D02*
D03*
X638900D02*
D03*
X342800Y55400D02*
D03*
X268800D02*
D03*
D20*
X557530Y120470D02*
D03*
X598170D02*
D03*
X363815Y179293D02*
D03*
X404455D02*
D03*
D21*
X656466Y129460D02*
D03*
X656467Y111301D02*
D03*
X656466Y86991D02*
D03*
X656467Y68832D02*
D03*
X580900Y86891D02*
D03*
X580901Y68732D02*
D03*
X329800Y137633D02*
D03*
X329799Y155792D02*
D03*
X329800Y108189D02*
D03*
X329799Y126348D02*
D03*
D22*
X610600Y80251D02*
D03*
Y75751D02*
D03*
X628600Y80251D02*
D03*
Y75751D02*
D03*
D23*
X549400Y85088D02*
D03*
Y67088D02*
D03*
X462000Y187080D02*
D03*
Y169080D02*
D03*
X442500Y187080D02*
D03*
Y169080D02*
D03*
X462000Y144780D02*
D03*
Y126780D02*
D03*
X442500Y144780D02*
D03*
Y126780D02*
D03*
X329800Y186880D02*
D03*
Y168880D02*
D03*
D24*
X654567Y44200D02*
D03*
X636408Y44199D02*
D03*
X462891Y68808D02*
D03*
X444732Y68807D02*
D03*
D25*
X591095Y44192D02*
D03*
X609095D02*
D03*
X549400D02*
D03*
X567400D02*
D03*
X394000Y68800D02*
D03*
X376000D02*
D03*
X429257D02*
D03*
X411257D02*
D03*
Y47700D02*
D03*
X429257D02*
D03*
X376000D02*
D03*
X394000D02*
D03*
D26*
X383500Y132680D02*
D03*
D27*
X411750Y113630D02*
D03*
Y126330D02*
D03*
Y139030D02*
D03*
Y151730D02*
D03*
X355250Y113630D02*
D03*
Y126330D02*
D03*
Y139030D02*
D03*
Y151730D02*
D03*
D28*
X464121Y48208D02*
D03*
X448121D02*
D03*
D29*
X278800Y119880D02*
D03*
Y174880D02*
D03*
M02*
