G04*
G04 #@! TF.GenerationSoftware,Altium Limited,Altium Designer,24.1.2 (44)*
G04*
G04 Layer_Physical_Order=2*
G04 Layer_Color=36540*
%FSLAX44Y44*%
%MOMM*%
G71*
G04*
G04 #@! TF.SameCoordinates,32799FE6-DD90-4EFC-9ADB-317E97FF397D*
G04*
G04*
G04 #@! TF.FilePolarity,Positive*
G04*
G01*
G75*
%ADD17C,1.0000*%
%ADD53R,4.8100X4.6900*%
%ADD54R,7.5100X4.6900*%
%ADD55R,8.6100X4.8600*%
%ADD56R,4.8300X4.9900*%
%ADD59C,1.6000*%
%ADD60O,0.9500X1.7000*%
%ADD61C,6.3500*%
%ADD62C,1.5240*%
%ADD63C,0.7000*%
%ADD64C,0.4000*%
%ADD65C,0.3500*%
G36*
X575900Y892940D02*
X821461D01*
Y882950D01*
X821144D01*
X815897Y882119D01*
X810844Y880477D01*
X806111Y878066D01*
X801813Y874943D01*
X798057Y871187D01*
X794934Y866889D01*
X792523Y862156D01*
X790881Y857103D01*
X790050Y851856D01*
Y846544D01*
X790881Y841297D01*
X792523Y836245D01*
X794934Y831511D01*
X798057Y827213D01*
X801813Y823457D01*
X806111Y820334D01*
X810844Y817923D01*
X815897Y816281D01*
X821144Y815450D01*
X826456D01*
X831703Y816281D01*
X836756Y817923D01*
X841489Y820334D01*
X845787Y823457D01*
X849543Y827213D01*
X852666Y831511D01*
X855077Y836245D01*
X856719Y841297D01*
X857550Y846544D01*
Y847261D01*
X892930D01*
Y562890D01*
X892941Y562803D01*
X892580Y560989D01*
X891503Y559377D01*
X890033Y558395D01*
X888836Y558090D01*
X888246Y557892D01*
X887629Y557636D01*
X885494Y556989D01*
X882193Y555224D01*
X879300Y552850D01*
X876926Y549957D01*
X875161Y546656D01*
X874075Y543075D01*
X873708Y539350D01*
X873740D01*
Y360650D01*
X873708D01*
X874075Y356925D01*
X875161Y353344D01*
X876926Y350043D01*
X879300Y347150D01*
X882193Y344776D01*
X885494Y343011D01*
X887706Y342340D01*
X887928Y342260D01*
X888246Y342128D01*
X888836Y341930D01*
X890033Y341625D01*
X891503Y340643D01*
X892580Y339031D01*
X892723Y338314D01*
X892930Y337130D01*
X892930Y337130D01*
X892940Y335864D01*
Y52939D01*
X884650D01*
Y53452D01*
X883819Y58699D01*
X882177Y63751D01*
X879766Y68484D01*
X876643Y72782D01*
X872887Y76539D01*
X868589Y79661D01*
X863856Y82073D01*
X858803Y83715D01*
X853556Y84545D01*
X848244D01*
X842997Y83715D01*
X837944Y82073D01*
X833211Y79661D01*
X828913Y76539D01*
X825157Y72782D01*
X822034Y68484D01*
X819623Y63751D01*
X817981Y58699D01*
X817150Y53452D01*
Y48139D01*
X817981Y42892D01*
X819623Y37840D01*
X822034Y33107D01*
X825157Y28809D01*
X828913Y25052D01*
X833211Y21930D01*
X837944Y19518D01*
X842997Y17877D01*
X848244Y17046D01*
X848661D01*
Y7060D01*
X820000D01*
X819990Y7059D01*
X819929Y7085D01*
X819073Y8000D01*
X818783Y10941D01*
X817925Y13768D01*
X816532Y16374D01*
X814658Y18658D01*
X812374Y20532D01*
X809768Y21925D01*
X806941Y22783D01*
X804000Y23073D01*
Y23060D01*
X804000Y23060D01*
X445713D01*
X445187Y24330D01*
X445491Y24634D01*
X446100Y26104D01*
Y27696D01*
X445491Y29166D01*
X444366Y30291D01*
X442896Y30900D01*
X441304D01*
X439834Y30291D01*
X438709Y29166D01*
X438100Y27696D01*
Y26104D01*
X438709Y24634D01*
X439013Y24330D01*
X438487Y23060D01*
X434513D01*
X433987Y24330D01*
X434291Y24634D01*
X434900Y26104D01*
Y27696D01*
X434291Y29166D01*
X433166Y30291D01*
X431696Y30900D01*
X430104D01*
X428634Y30291D01*
X427509Y29166D01*
X426900Y27696D01*
Y26104D01*
X427509Y24634D01*
X427813Y24330D01*
X427287Y23060D01*
X423313D01*
X422787Y24330D01*
X423091Y24634D01*
X423700Y26104D01*
Y27696D01*
X423091Y29166D01*
X421966Y30291D01*
X420496Y30900D01*
X418904D01*
X417434Y30291D01*
X416309Y29166D01*
X415700Y27696D01*
Y26104D01*
X416309Y24634D01*
X416613Y24330D01*
X416087Y23060D01*
X412113D01*
X411587Y24330D01*
X411891Y24634D01*
X412500Y26104D01*
Y27696D01*
X411891Y29166D01*
X410766Y30291D01*
X409296Y30900D01*
X407704D01*
X406234Y30291D01*
X405109Y29166D01*
X404500Y27696D01*
Y26104D01*
X405109Y24634D01*
X405413Y24330D01*
X404887Y23060D01*
X400913D01*
X400387Y24330D01*
X400691Y24634D01*
X401300Y26104D01*
Y27696D01*
X400691Y29166D01*
X399566Y30291D01*
X398096Y30900D01*
X396504D01*
X395034Y30291D01*
X393909Y29166D01*
X393300Y27696D01*
Y26104D01*
X393909Y24634D01*
X394213Y24330D01*
X393687Y23060D01*
X389713D01*
X389187Y24330D01*
X389491Y24634D01*
X390100Y26104D01*
Y27696D01*
X389491Y29166D01*
X388366Y30291D01*
X386896Y30900D01*
X385304D01*
X383834Y30291D01*
X382709Y29166D01*
X382100Y27696D01*
Y26104D01*
X382709Y24634D01*
X383013Y24330D01*
X382487Y23060D01*
X96000D01*
X96000Y23060D01*
Y23073D01*
X93060Y22783D01*
X90232Y21925D01*
X87626Y20532D01*
X85342Y18658D01*
X83468Y16374D01*
X82075Y13768D01*
X81217Y10941D01*
X80927Y8000D01*
X80071Y7085D01*
X80010Y7059D01*
X80000Y7060D01*
X52639D01*
Y17046D01*
X53456D01*
X58703Y17877D01*
X63755Y19518D01*
X68489Y21930D01*
X72787Y25052D01*
X76543Y28809D01*
X79666Y33107D01*
X82077Y37840D01*
X83719Y42892D01*
X84550Y48139D01*
Y53452D01*
X83719Y58699D01*
X82077Y63751D01*
X79666Y68484D01*
X76543Y72782D01*
X72787Y76539D01*
X68489Y79661D01*
X63755Y82073D01*
X58703Y83715D01*
X53456Y84545D01*
X48144D01*
X42897Y83715D01*
X37845Y82073D01*
X33111Y79661D01*
X28813Y76539D01*
X25057Y72782D01*
X21934Y68484D01*
X19523Y63751D01*
X17881Y58699D01*
X17111Y53839D01*
X7060D01*
Y337150D01*
X7049Y337237D01*
X7410Y339051D01*
X8487Y340663D01*
X9956Y341645D01*
X11154Y341950D01*
X11744Y342148D01*
X11800Y342171D01*
X12296Y342341D01*
X14506Y343011D01*
X17807Y344776D01*
X20700Y347150D01*
X23074Y350043D01*
X24839Y353344D01*
X25925Y356925D01*
X26292Y360650D01*
X26260D01*
Y539350D01*
X26292D01*
X25925Y543075D01*
X24839Y546656D01*
X23074Y549957D01*
X20700Y552850D01*
X17807Y555224D01*
X14506Y556989D01*
X12287Y557662D01*
X11767Y557839D01*
X11734Y557852D01*
X11144Y558050D01*
X9947Y558355D01*
X8477Y559337D01*
X7400Y560949D01*
X7044Y562736D01*
X7060Y562860D01*
Y847261D01*
X55150D01*
Y846544D01*
X55981Y841297D01*
X57623Y836245D01*
X60034Y831511D01*
X63157Y827213D01*
X66913Y823457D01*
X71211Y820334D01*
X75944Y817923D01*
X80997Y816281D01*
X86244Y815450D01*
X91556D01*
X96803Y816281D01*
X101855Y817923D01*
X106589Y820334D01*
X110887Y823457D01*
X114643Y827213D01*
X117766Y831511D01*
X120177Y836245D01*
X121819Y841297D01*
X122650Y846544D01*
Y851856D01*
X121819Y857103D01*
X120177Y862156D01*
X117766Y866889D01*
X114643Y871187D01*
X110887Y874943D01*
X106589Y878066D01*
X101855Y880477D01*
X96803Y882119D01*
X91556Y882950D01*
X91539D01*
Y892940D01*
X348700D01*
X348787Y892951D01*
X350601Y892590D01*
X352213Y891513D01*
X353290Y889901D01*
X353651Y888087D01*
X353640Y888000D01*
Y882700D01*
X353608D01*
X353975Y878975D01*
X355061Y875394D01*
X356826Y872093D01*
X359200Y869200D01*
X362093Y866826D01*
X365394Y865061D01*
X368975Y863975D01*
X372700Y863608D01*
Y863640D01*
X551900D01*
Y863608D01*
X555625Y863975D01*
X559206Y865061D01*
X562507Y866826D01*
X565400Y869200D01*
X567774Y872093D01*
X569539Y875394D01*
X570625Y878975D01*
X570992Y882700D01*
X570960D01*
X570960Y882700D01*
Y886736D01*
X570960Y886763D01*
X570960Y888000D01*
X571167Y889184D01*
X571310Y889901D01*
X572387Y891513D01*
X573999Y892590D01*
X575813Y892951D01*
X575900Y892940D01*
D02*
G37*
%LPC*%
G36*
X832255Y767779D02*
X830068D01*
X828046Y766941D01*
X826499Y765394D01*
X825661Y763373D01*
Y761185D01*
X826499Y759163D01*
X828046Y757616D01*
X830068Y756779D01*
X832255D01*
X834277Y757616D01*
X835824Y759163D01*
X836662Y761185D01*
Y763373D01*
X835824Y765394D01*
X834277Y766941D01*
X832255Y767779D01*
D02*
G37*
G36*
X723456D02*
X721267D01*
X719246Y766941D01*
X717699Y765394D01*
X716861Y763373D01*
Y761185D01*
X717699Y759163D01*
X719246Y757616D01*
X721267Y756779D01*
X723456D01*
X725477Y757616D01*
X727024Y759163D01*
X727861Y761185D01*
Y763373D01*
X727024Y765394D01*
X725477Y766941D01*
X723456Y767779D01*
D02*
G37*
G36*
X614655D02*
X612467D01*
X610446Y766941D01*
X608899Y765394D01*
X608061Y763373D01*
Y761185D01*
X608899Y759163D01*
X610446Y757616D01*
X612467Y756779D01*
X614655D01*
X616677Y757616D01*
X618224Y759163D01*
X619062Y761185D01*
Y763373D01*
X618224Y765394D01*
X616677Y766941D01*
X614655Y767779D01*
D02*
G37*
G36*
X505855D02*
X503667D01*
X501646Y766941D01*
X500099Y765394D01*
X499262Y763373D01*
Y761185D01*
X500099Y759163D01*
X501646Y757616D01*
X503667Y756779D01*
X505855D01*
X507877Y757616D01*
X509424Y759163D01*
X510261Y761185D01*
Y763373D01*
X509424Y765394D01*
X507877Y766941D01*
X505855Y767779D01*
D02*
G37*
G36*
X397056D02*
X394868D01*
X392846Y766941D01*
X391299Y765394D01*
X390462Y763373D01*
Y761185D01*
X391299Y759163D01*
X392846Y757616D01*
X394868Y756779D01*
X397056D01*
X399077Y757616D01*
X400624Y759163D01*
X401461Y761185D01*
Y763373D01*
X400624Y765394D01*
X399077Y766941D01*
X397056Y767779D01*
D02*
G37*
G36*
X288256D02*
X286068D01*
X284046Y766941D01*
X282499Y765394D01*
X281662Y763373D01*
Y761185D01*
X282499Y759163D01*
X284046Y757616D01*
X286068Y756779D01*
X288256D01*
X290277Y757616D01*
X291824Y759163D01*
X292661Y761185D01*
Y763373D01*
X291824Y765394D01*
X290277Y766941D01*
X288256Y767779D01*
D02*
G37*
G36*
X179456D02*
X177268D01*
X175246Y766941D01*
X173699Y765394D01*
X172862Y763373D01*
Y761185D01*
X173699Y759163D01*
X175246Y757616D01*
X177268Y756779D01*
X179456D01*
X181477Y757616D01*
X183024Y759163D01*
X183862Y761185D01*
Y763373D01*
X183024Y765394D01*
X181477Y766941D01*
X179456Y767779D01*
D02*
G37*
G36*
X70656D02*
X68468D01*
X66446Y766941D01*
X64899Y765394D01*
X64062Y763373D01*
Y761185D01*
X64899Y759163D01*
X66446Y757616D01*
X68468Y756779D01*
X70656D01*
X72677Y757616D01*
X74224Y759163D01*
X75062Y761185D01*
Y763373D01*
X74224Y765394D01*
X72677Y766941D01*
X70656Y767779D01*
D02*
G37*
G36*
X446996Y764550D02*
X445404D01*
X443934Y763941D01*
X442809Y762816D01*
X442200Y761346D01*
Y759754D01*
X442809Y758284D01*
X443568Y757525D01*
X442809Y756766D01*
X442200Y755296D01*
Y753704D01*
X442809Y752234D01*
X443568Y751475D01*
X442809Y750716D01*
X442200Y749246D01*
Y747654D01*
X442809Y746184D01*
X443934Y745059D01*
X445404Y744450D01*
X446996D01*
X448466Y745059D01*
X449591Y746184D01*
X450200Y747654D01*
Y749246D01*
X449591Y750716D01*
X448832Y751475D01*
X449591Y752234D01*
X450200Y753704D01*
Y755296D01*
X449591Y756766D01*
X448832Y757525D01*
X449591Y758284D01*
X450200Y759754D01*
Y761346D01*
X449591Y762816D01*
X448466Y763941D01*
X446996Y764550D01*
D02*
G37*
G36*
X228596Y763950D02*
X227004D01*
X225534Y763341D01*
X224409Y762216D01*
X223800Y760746D01*
Y759154D01*
X224409Y757684D01*
X225168Y756925D01*
X224409Y756166D01*
X223800Y754696D01*
Y753104D01*
X224409Y751634D01*
X225168Y750875D01*
X224409Y750116D01*
X223800Y748646D01*
Y747054D01*
X224409Y745584D01*
X225534Y744459D01*
X227004Y743850D01*
X228596D01*
X230066Y744459D01*
X231191Y745584D01*
X231800Y747054D01*
Y748646D01*
X231191Y750116D01*
X230432Y750875D01*
X231191Y751634D01*
X231800Y753104D01*
Y754696D01*
X231191Y756166D01*
X230432Y756925D01*
X231191Y757684D01*
X231800Y759154D01*
Y760746D01*
X231191Y762216D01*
X230066Y763341D01*
X228596Y763950D01*
D02*
G37*
G36*
X664396Y760000D02*
X662804D01*
X661334Y759391D01*
X660209Y758266D01*
X659600Y756796D01*
Y755204D01*
X660209Y753734D01*
X660968Y752975D01*
X660209Y752216D01*
X659600Y750746D01*
Y749154D01*
X660209Y747684D01*
X660968Y746925D01*
X660209Y746166D01*
X659600Y744696D01*
Y743104D01*
X660209Y741634D01*
X661334Y740509D01*
X662804Y739900D01*
X664396D01*
X665866Y740509D01*
X666991Y741634D01*
X667600Y743104D01*
Y744696D01*
X666991Y746166D01*
X666232Y746925D01*
X666991Y747684D01*
X667600Y749154D01*
Y750746D01*
X666991Y752216D01*
X666232Y752975D01*
X666991Y753734D01*
X667600Y755204D01*
Y756796D01*
X666991Y758266D01*
X665866Y759391D01*
X664396Y760000D01*
D02*
G37*
G36*
X179456Y747780D02*
X177268D01*
X175246Y746943D01*
X173699Y745396D01*
X172862Y743374D01*
Y741186D01*
X173699Y739165D01*
X175246Y737617D01*
X177268Y736780D01*
X179456D01*
X181477Y737617D01*
X183024Y739165D01*
X183862Y741186D01*
Y743374D01*
X183024Y745396D01*
X181477Y746943D01*
X179456Y747780D01*
D02*
G37*
G36*
X832255Y747778D02*
X830068D01*
X828046Y746941D01*
X826499Y745394D01*
X825661Y743373D01*
Y741184D01*
X826499Y739163D01*
X828046Y737616D01*
X830068Y736779D01*
X832255D01*
X834277Y737616D01*
X835824Y739163D01*
X836662Y741184D01*
Y743373D01*
X835824Y745394D01*
X834277Y746941D01*
X832255Y747778D01*
D02*
G37*
G36*
X723456D02*
X721267D01*
X719246Y746941D01*
X717699Y745394D01*
X716861Y743373D01*
Y741184D01*
X717699Y739163D01*
X719246Y737616D01*
X721267Y736779D01*
X723456D01*
X725477Y737616D01*
X727024Y739163D01*
X727861Y741184D01*
Y743373D01*
X727024Y745394D01*
X725477Y746941D01*
X723456Y747778D01*
D02*
G37*
G36*
X614655D02*
X612467D01*
X610446Y746941D01*
X608899Y745394D01*
X608061Y743373D01*
Y741184D01*
X608899Y739163D01*
X610446Y737616D01*
X612467Y736779D01*
X614655D01*
X616677Y737616D01*
X618224Y739163D01*
X619062Y741184D01*
Y743373D01*
X618224Y745394D01*
X616677Y746941D01*
X614655Y747778D01*
D02*
G37*
G36*
X505855D02*
X503667D01*
X501646Y746941D01*
X500099Y745394D01*
X499262Y743373D01*
Y741184D01*
X500099Y739163D01*
X501646Y737616D01*
X503667Y736779D01*
X505855D01*
X507877Y737616D01*
X509424Y739163D01*
X510261Y741184D01*
Y743373D01*
X509424Y745394D01*
X507877Y746941D01*
X505855Y747778D01*
D02*
G37*
G36*
X397056D02*
X394868D01*
X392846Y746941D01*
X391299Y745394D01*
X390462Y743373D01*
Y741184D01*
X391299Y739163D01*
X392846Y737616D01*
X394868Y736779D01*
X397056D01*
X399077Y737616D01*
X400624Y739163D01*
X401461Y741184D01*
Y743373D01*
X400624Y745394D01*
X399077Y746941D01*
X397056Y747778D01*
D02*
G37*
G36*
X288256D02*
X286068D01*
X284046Y746941D01*
X282499Y745394D01*
X281662Y743373D01*
Y741184D01*
X282499Y739163D01*
X284046Y737616D01*
X286068Y736779D01*
X288256D01*
X290277Y737616D01*
X291824Y739163D01*
X292661Y741184D01*
Y743373D01*
X291824Y745394D01*
X290277Y746941D01*
X288256Y747778D01*
D02*
G37*
G36*
X70656D02*
X68468D01*
X66446Y746941D01*
X64899Y745394D01*
X64062Y743373D01*
Y741184D01*
X64899Y739163D01*
X66446Y737616D01*
X68468Y736779D01*
X70656D01*
X72677Y737616D01*
X74224Y739163D01*
X75062Y741184D01*
Y743373D01*
X74224Y745394D01*
X72677Y746941D01*
X70656Y747778D01*
D02*
G37*
G36*
X103376Y701100D02*
X101784D01*
X100314Y700491D01*
X99189Y699366D01*
X98580Y697896D01*
X97400D01*
X96791Y699366D01*
X95666Y700491D01*
X94196Y701100D01*
X92604D01*
X91134Y700491D01*
X90009Y699366D01*
X89400Y697896D01*
Y696304D01*
X90009Y694834D01*
X91134Y693709D01*
X92604Y693100D01*
X94196D01*
X95666Y693709D01*
X96791Y694834D01*
X97400Y696304D01*
X98580D01*
X99189Y694834D01*
X100314Y693709D01*
X101784Y693100D01*
X103376D01*
X104846Y693709D01*
X105971Y694834D01*
X106580Y696304D01*
Y697896D01*
X105971Y699366D01*
X104846Y700491D01*
X103376Y701100D01*
D02*
G37*
G36*
X111446Y695067D02*
X109854D01*
X108384Y694458D01*
X107259Y693332D01*
X106650Y691862D01*
Y690271D01*
X107259Y688801D01*
X108384Y687675D01*
X109854Y687067D01*
X111446D01*
X112916Y687675D01*
X114041Y688801D01*
X114650Y690271D01*
Y691862D01*
X114041Y693332D01*
X112916Y694458D01*
X111446Y695067D01*
D02*
G37*
G36*
X119516Y689033D02*
X117924D01*
X116454Y688424D01*
X115329Y687299D01*
X114720Y685829D01*
Y684238D01*
X115329Y682767D01*
X116454Y681642D01*
X117924Y681033D01*
X119516D01*
X120986Y681642D01*
X122111Y682767D01*
X122720Y684238D01*
Y685829D01*
X122111Y687299D01*
X120986Y688424D01*
X119516Y689033D01*
D02*
G37*
G36*
X127586Y683000D02*
X125994D01*
X124524Y682391D01*
X123399Y681266D01*
X122790Y679796D01*
Y678204D01*
X123399Y676734D01*
X124524Y675609D01*
X125994Y675000D01*
X127586D01*
X129056Y675609D01*
X130181Y676734D01*
X130790Y678204D01*
Y679796D01*
X130181Y681266D01*
X129056Y682391D01*
X127586Y683000D01*
D02*
G37*
G36*
X135656Y676967D02*
X134064D01*
X132594Y676358D01*
X131469Y675232D01*
X130860Y673762D01*
Y672171D01*
X131469Y670701D01*
X132594Y669576D01*
X134064Y668967D01*
X135656D01*
X137126Y669576D01*
X138251Y670701D01*
X138860Y672171D01*
Y673762D01*
X138251Y675232D01*
X137126Y676358D01*
X135656Y676967D01*
D02*
G37*
G36*
X143726Y670933D02*
X142134D01*
X140664Y670324D01*
X139539Y669199D01*
X138930Y667729D01*
Y666138D01*
X139539Y664668D01*
X140664Y663542D01*
X142134Y662933D01*
X143726D01*
X145196Y663542D01*
X146321Y664668D01*
X146930Y666138D01*
Y667729D01*
X146321Y669199D01*
X145196Y670324D01*
X143726Y670933D01*
D02*
G37*
G36*
X151796Y664900D02*
X150204D01*
X148734Y664291D01*
X147609Y663166D01*
X147000Y661696D01*
Y660104D01*
X147609Y658634D01*
X148734Y657509D01*
X150204Y656900D01*
X151796D01*
X153266Y657509D01*
X154391Y658634D01*
X155000Y660104D01*
Y661696D01*
X154391Y663166D01*
X153266Y664291D01*
X151796Y664900D01*
D02*
G37*
G36*
X832255Y622312D02*
X830068D01*
X828046Y621475D01*
X826499Y619927D01*
X825661Y617906D01*
Y615718D01*
X826499Y613696D01*
X828046Y612149D01*
X830068Y611312D01*
X832255D01*
X834277Y612149D01*
X835824Y613696D01*
X836662Y615718D01*
Y617906D01*
X835824Y619927D01*
X834277Y621475D01*
X832255Y622312D01*
D02*
G37*
G36*
X723456D02*
X721267D01*
X719246Y621475D01*
X717699Y619927D01*
X716861Y617906D01*
Y615718D01*
X717699Y613696D01*
X719246Y612149D01*
X721267Y611312D01*
X723456D01*
X725477Y612149D01*
X727024Y613696D01*
X727861Y615718D01*
Y617906D01*
X727024Y619927D01*
X725477Y621475D01*
X723456Y622312D01*
D02*
G37*
G36*
X614655D02*
X612467D01*
X610446Y621475D01*
X608899Y619927D01*
X608061Y617906D01*
Y615718D01*
X608899Y613696D01*
X610446Y612149D01*
X612467Y611312D01*
X614655D01*
X616677Y612149D01*
X618224Y613696D01*
X619062Y615718D01*
Y617906D01*
X618224Y619927D01*
X616677Y621475D01*
X614655Y622312D01*
D02*
G37*
G36*
X505855D02*
X503667D01*
X501646Y621475D01*
X500099Y619927D01*
X499262Y617906D01*
Y615718D01*
X500099Y613696D01*
X501646Y612149D01*
X503667Y611312D01*
X505855D01*
X507877Y612149D01*
X509424Y613696D01*
X510261Y615718D01*
Y617906D01*
X509424Y619927D01*
X507877Y621475D01*
X505855Y622312D01*
D02*
G37*
G36*
X397056D02*
X394868D01*
X392846Y621475D01*
X391299Y619927D01*
X390462Y617906D01*
Y615718D01*
X391299Y613696D01*
X392846Y612149D01*
X394868Y611312D01*
X397056D01*
X399077Y612149D01*
X400624Y613696D01*
X401461Y615718D01*
Y617906D01*
X400624Y619927D01*
X399077Y621475D01*
X397056Y622312D01*
D02*
G37*
G36*
X288256D02*
X286068D01*
X284046Y621475D01*
X282499Y619927D01*
X281662Y617906D01*
Y615718D01*
X282499Y613696D01*
X284046Y612149D01*
X286068Y611312D01*
X288256D01*
X290277Y612149D01*
X291824Y613696D01*
X292661Y615718D01*
Y617906D01*
X291824Y619927D01*
X290277Y621475D01*
X288256Y622312D01*
D02*
G37*
G36*
X179456D02*
X177268D01*
X175246Y621475D01*
X173699Y619927D01*
X172862Y617906D01*
Y615718D01*
X173699Y613696D01*
X175246Y612149D01*
X177268Y611312D01*
X179456D01*
X181477Y612149D01*
X183024Y613696D01*
X183862Y615718D01*
Y617906D01*
X183024Y619927D01*
X181477Y621475D01*
X179456Y622312D01*
D02*
G37*
G36*
X70656D02*
X68468D01*
X66446Y621475D01*
X64899Y619927D01*
X64062Y617906D01*
Y615718D01*
X64899Y613696D01*
X66446Y612149D01*
X68468Y611312D01*
X70656D01*
X72677Y612149D01*
X74224Y613696D01*
X75062Y615718D01*
Y617906D01*
X74224Y619927D01*
X72677Y621475D01*
X70656Y622312D01*
D02*
G37*
G36*
X229794Y618775D02*
X228202D01*
X226732Y618166D01*
X225607Y617041D01*
X224998Y615570D01*
Y613979D01*
X225607Y612509D01*
X226366Y611750D01*
X225607Y610991D01*
X224998Y609520D01*
Y607929D01*
X225607Y606459D01*
X226366Y605700D01*
X225607Y604941D01*
X224998Y603470D01*
Y601879D01*
X225607Y600409D01*
X226732Y599284D01*
X228202Y598675D01*
X229794D01*
X231264Y599284D01*
X232389Y600409D01*
X232998Y601879D01*
Y603470D01*
X232389Y604941D01*
X231630Y605700D01*
X232389Y606459D01*
X232998Y607929D01*
Y609520D01*
X232389Y610991D01*
X231630Y611750D01*
X232389Y612509D01*
X232998Y613979D01*
Y615570D01*
X232389Y617041D01*
X231264Y618166D01*
X229794Y618775D01*
D02*
G37*
G36*
X663896Y617050D02*
X662304D01*
X660834Y616441D01*
X659709Y615316D01*
X659100Y613846D01*
Y612254D01*
X659709Y610784D01*
X660468Y610025D01*
X659709Y609266D01*
X659100Y607796D01*
Y606204D01*
X659709Y604734D01*
X660468Y603975D01*
X659709Y603216D01*
X659100Y601746D01*
Y600154D01*
X659709Y598684D01*
X660834Y597559D01*
X662304Y596950D01*
X663896D01*
X665366Y597559D01*
X666491Y598684D01*
X667100Y600154D01*
Y601746D01*
X666491Y603216D01*
X665732Y603975D01*
X666491Y604734D01*
X667100Y606204D01*
Y607796D01*
X666491Y609266D01*
X665732Y610025D01*
X666491Y610784D01*
X667100Y612254D01*
Y613846D01*
X666491Y615316D01*
X665366Y616441D01*
X663896Y617050D01*
D02*
G37*
G36*
X832255Y602312D02*
X830068D01*
X828046Y601474D01*
X826499Y599927D01*
X825661Y597906D01*
Y595718D01*
X826499Y593696D01*
X828046Y592149D01*
X830068Y591312D01*
X832255D01*
X834277Y592149D01*
X835824Y593696D01*
X836662Y595718D01*
Y597906D01*
X835824Y599927D01*
X834277Y601474D01*
X832255Y602312D01*
D02*
G37*
G36*
X723456D02*
X721267D01*
X719246Y601474D01*
X717699Y599927D01*
X716861Y597906D01*
Y595718D01*
X717699Y593696D01*
X719246Y592149D01*
X721267Y591312D01*
X723456D01*
X725477Y592149D01*
X727024Y593696D01*
X727861Y595718D01*
Y597906D01*
X727024Y599927D01*
X725477Y601474D01*
X723456Y602312D01*
D02*
G37*
G36*
X614655D02*
X612467D01*
X610446Y601474D01*
X608899Y599927D01*
X608061Y597906D01*
Y595718D01*
X608899Y593696D01*
X610446Y592149D01*
X612467Y591312D01*
X614655D01*
X616677Y592149D01*
X618224Y593696D01*
X619062Y595718D01*
Y597906D01*
X618224Y599927D01*
X616677Y601474D01*
X614655Y602312D01*
D02*
G37*
G36*
X505855D02*
X503667D01*
X501646Y601474D01*
X500099Y599927D01*
X499262Y597906D01*
Y595718D01*
X500099Y593696D01*
X501646Y592149D01*
X503667Y591312D01*
X505855D01*
X507877Y592149D01*
X509424Y593696D01*
X510261Y595718D01*
Y597906D01*
X509424Y599927D01*
X507877Y601474D01*
X505855Y602312D01*
D02*
G37*
G36*
X397056D02*
X394868D01*
X392846Y601474D01*
X391299Y599927D01*
X390462Y597906D01*
Y595718D01*
X391299Y593696D01*
X392846Y592149D01*
X394868Y591312D01*
X397056D01*
X399077Y592149D01*
X400624Y593696D01*
X401461Y595718D01*
Y597906D01*
X400624Y599927D01*
X399077Y601474D01*
X397056Y602312D01*
D02*
G37*
G36*
X288256D02*
X286068D01*
X284046Y601474D01*
X282499Y599927D01*
X281662Y597906D01*
Y595718D01*
X282499Y593696D01*
X284046Y592149D01*
X286068Y591312D01*
X288256D01*
X290277Y592149D01*
X291824Y593696D01*
X292661Y595718D01*
Y597906D01*
X291824Y599927D01*
X290277Y601474D01*
X288256Y602312D01*
D02*
G37*
G36*
X179456D02*
X177268D01*
X175246Y601474D01*
X173699Y599927D01*
X172862Y597906D01*
Y595718D01*
X173699Y593696D01*
X175246Y592149D01*
X177268Y591312D01*
X179456D01*
X181477Y592149D01*
X183024Y593696D01*
X183862Y595718D01*
Y597906D01*
X183024Y599927D01*
X181477Y601474D01*
X179456Y602312D01*
D02*
G37*
G36*
X70656D02*
X68468D01*
X66446Y601474D01*
X64899Y599927D01*
X64062Y597906D01*
Y595718D01*
X64899Y593696D01*
X66446Y592149D01*
X68468Y591312D01*
X70656D01*
X72677Y592149D01*
X74224Y593696D01*
X75062Y595718D01*
Y597906D01*
X74224Y599927D01*
X72677Y601474D01*
X70656Y602312D01*
D02*
G37*
G36*
X212190Y551800D02*
X210599D01*
X209128Y551191D01*
X208003Y550066D01*
X207394Y548596D01*
Y547004D01*
X208003Y545534D01*
X209128Y544409D01*
X210599Y543800D01*
X212190D01*
X213660Y544409D01*
X214785Y545534D01*
X215394Y547004D01*
Y548596D01*
X214785Y550066D01*
X213660Y551191D01*
X212190Y551800D01*
D02*
G37*
G36*
X200443D02*
X198852D01*
X197381Y551191D01*
X196256Y550066D01*
X195647Y548596D01*
Y547004D01*
X196256Y545534D01*
X197381Y544409D01*
X198852Y543800D01*
X200443D01*
X201913Y544409D01*
X203038Y545534D01*
X203647Y547004D01*
Y548596D01*
X203038Y550066D01*
X201913Y551191D01*
X200443Y551800D01*
D02*
G37*
G36*
X188696D02*
X187104D01*
X185634Y551191D01*
X184509Y550066D01*
X183900Y548596D01*
Y547004D01*
X184509Y545534D01*
X185634Y544409D01*
X187104Y543800D01*
X188696D01*
X190166Y544409D01*
X191291Y545534D01*
X191900Y547004D01*
Y548596D01*
X191291Y550066D01*
X190166Y551191D01*
X188696Y551800D01*
D02*
G37*
G36*
X221711Y545720D02*
X220120D01*
X218650Y545111D01*
X217524Y543986D01*
X216915Y542516D01*
Y540924D01*
X217524Y539454D01*
X218650Y538329D01*
X220120Y537720D01*
X221711D01*
X223181Y538329D01*
X224307Y539454D01*
X224915Y540924D01*
Y542516D01*
X224307Y543986D01*
X223181Y545111D01*
X221711Y545720D01*
D02*
G37*
G36*
X231232Y539640D02*
X229641D01*
X228171Y539031D01*
X227045Y537906D01*
X226437Y536436D01*
Y534844D01*
X227045Y533374D01*
X228171Y532249D01*
X229641Y531640D01*
X231232D01*
X232702Y532249D01*
X233828Y533374D01*
X234437Y534844D01*
Y536436D01*
X233828Y537906D01*
X232702Y539031D01*
X231232Y539640D01*
D02*
G37*
G36*
X240753Y533560D02*
X239162D01*
X237692Y532951D01*
X236567Y531826D01*
X235958Y530356D01*
Y528764D01*
X236567Y527294D01*
X237692Y526169D01*
X239162Y525560D01*
X240753D01*
X242223Y526169D01*
X243349Y527294D01*
X243958Y528764D01*
Y530356D01*
X243349Y531826D01*
X242223Y532951D01*
X240753Y533560D01*
D02*
G37*
G36*
X250275Y527480D02*
X248683D01*
X247213Y526871D01*
X246088Y525746D01*
X245479Y524276D01*
Y522684D01*
X246088Y521214D01*
X247213Y520089D01*
X248683Y519480D01*
X250275D01*
X251745Y520089D01*
X252870Y521214D01*
X253479Y522684D01*
Y524276D01*
X252870Y525746D01*
X251745Y526871D01*
X250275Y527480D01*
D02*
G37*
G36*
X259796Y521400D02*
X258204D01*
X256734Y520791D01*
X255609Y519666D01*
X255000Y518196D01*
Y516604D01*
X255609Y515134D01*
X256734Y514009D01*
X258204Y513400D01*
X259796D01*
X261266Y514009D01*
X262391Y515134D01*
X263000Y516604D01*
Y518196D01*
X262391Y519666D01*
X261266Y520791D01*
X259796Y521400D01*
D02*
G37*
G36*
X832255Y476845D02*
X830068D01*
X828046Y476008D01*
X826499Y474461D01*
X825661Y472439D01*
Y470251D01*
X826499Y468230D01*
X828046Y466683D01*
X830068Y465845D01*
X832255D01*
X834277Y466683D01*
X835824Y468230D01*
X836662Y470251D01*
Y472439D01*
X835824Y474461D01*
X834277Y476008D01*
X832255Y476845D01*
D02*
G37*
G36*
X723456D02*
X721267D01*
X719246Y476008D01*
X717699Y474461D01*
X716861Y472439D01*
Y470251D01*
X717699Y468230D01*
X719246Y466683D01*
X721267Y465845D01*
X723456D01*
X725477Y466683D01*
X727024Y468230D01*
X727861Y470251D01*
Y472439D01*
X727024Y474461D01*
X725477Y476008D01*
X723456Y476845D01*
D02*
G37*
G36*
X614655D02*
X612467D01*
X610446Y476008D01*
X608899Y474461D01*
X608061Y472439D01*
Y470251D01*
X608899Y468230D01*
X610446Y466683D01*
X612467Y465845D01*
X614655D01*
X616677Y466683D01*
X618224Y468230D01*
X619062Y470251D01*
Y472439D01*
X618224Y474461D01*
X616677Y476008D01*
X614655Y476845D01*
D02*
G37*
G36*
X505855D02*
X503667D01*
X501646Y476008D01*
X500099Y474461D01*
X499262Y472439D01*
Y470251D01*
X500099Y468230D01*
X501646Y466683D01*
X503667Y465845D01*
X505855D01*
X507877Y466683D01*
X509424Y468230D01*
X510261Y470251D01*
Y472439D01*
X509424Y474461D01*
X507877Y476008D01*
X505855Y476845D01*
D02*
G37*
G36*
X397056D02*
X394868D01*
X392846Y476008D01*
X391299Y474461D01*
X390462Y472439D01*
Y470251D01*
X391299Y468230D01*
X392846Y466683D01*
X394868Y465845D01*
X397056D01*
X399077Y466683D01*
X400624Y468230D01*
X401461Y470251D01*
Y472439D01*
X400624Y474461D01*
X399077Y476008D01*
X397056Y476845D01*
D02*
G37*
G36*
X288256D02*
X286068D01*
X284046Y476008D01*
X282499Y474461D01*
X281662Y472439D01*
Y470251D01*
X282499Y468230D01*
X284046Y466683D01*
X286068Y465845D01*
X288256D01*
X290277Y466683D01*
X291824Y468230D01*
X292661Y470251D01*
Y472439D01*
X291824Y474461D01*
X290277Y476008D01*
X288256Y476845D01*
D02*
G37*
G36*
X179456D02*
X177268D01*
X175246Y476008D01*
X173699Y474461D01*
X172862Y472439D01*
Y470251D01*
X173699Y468230D01*
X175246Y466683D01*
X177268Y465845D01*
X179456D01*
X181477Y466683D01*
X183024Y468230D01*
X183862Y470251D01*
Y472439D01*
X183024Y474461D01*
X181477Y476008D01*
X179456Y476845D01*
D02*
G37*
G36*
X70656D02*
X68468D01*
X66446Y476008D01*
X64899Y474461D01*
X64062Y472439D01*
Y470251D01*
X64899Y468230D01*
X66446Y466683D01*
X68468Y465845D01*
X70656D01*
X72677Y466683D01*
X74224Y468230D01*
X75062Y470251D01*
Y472439D01*
X74224Y474461D01*
X72677Y476008D01*
X70656Y476845D01*
D02*
G37*
G36*
X665096Y468650D02*
X663504D01*
X662034Y468041D01*
X660909Y466916D01*
X660300Y465446D01*
Y463854D01*
X660909Y462384D01*
X661668Y461625D01*
X660909Y460866D01*
X660300Y459396D01*
Y457804D01*
X660909Y456334D01*
X662034Y455209D01*
X663504Y454600D01*
X665096D01*
X666566Y455209D01*
X667691Y456334D01*
X668300Y457804D01*
Y459396D01*
X667691Y460866D01*
X666932Y461625D01*
X667691Y462384D01*
X668300Y463854D01*
Y465446D01*
X667691Y466916D01*
X666566Y468041D01*
X665096Y468650D01*
D02*
G37*
G36*
X445996Y467400D02*
X444404D01*
X442934Y466791D01*
X441809Y465666D01*
X441200Y464196D01*
Y462604D01*
X441809Y461134D01*
X442568Y460375D01*
X441809Y459616D01*
X441200Y458146D01*
Y456554D01*
X441809Y455084D01*
X442568Y454325D01*
X441809Y453566D01*
X441200Y452096D01*
Y450504D01*
X441809Y449034D01*
X442934Y447909D01*
X444404Y447300D01*
X445996D01*
X447466Y447909D01*
X448591Y449034D01*
X449200Y450504D01*
Y452096D01*
X448591Y453566D01*
X447832Y454325D01*
X448591Y455084D01*
X449200Y456554D01*
Y458146D01*
X448591Y459616D01*
X447832Y460375D01*
X448591Y461134D01*
X449200Y462604D01*
Y464196D01*
X448591Y465666D01*
X447466Y466791D01*
X445996Y467400D01*
D02*
G37*
G36*
X832255Y456845D02*
X830068D01*
X828046Y456008D01*
X826499Y454461D01*
X825661Y452439D01*
Y450251D01*
X826499Y448230D01*
X828046Y446683D01*
X830068Y445845D01*
X832255D01*
X834277Y446683D01*
X835824Y448230D01*
X836662Y450251D01*
Y452439D01*
X835824Y454461D01*
X834277Y456008D01*
X832255Y456845D01*
D02*
G37*
G36*
X723456D02*
X721267D01*
X719246Y456008D01*
X717699Y454461D01*
X716861Y452439D01*
Y450251D01*
X717699Y448230D01*
X719246Y446683D01*
X721267Y445845D01*
X723456D01*
X725477Y446683D01*
X727024Y448230D01*
X727861Y450251D01*
Y452439D01*
X727024Y454461D01*
X725477Y456008D01*
X723456Y456845D01*
D02*
G37*
G36*
X614655D02*
X612467D01*
X610446Y456008D01*
X608899Y454461D01*
X608061Y452439D01*
Y450251D01*
X608899Y448230D01*
X610446Y446683D01*
X612467Y445845D01*
X614655D01*
X616677Y446683D01*
X618224Y448230D01*
X619062Y450251D01*
Y452439D01*
X618224Y454461D01*
X616677Y456008D01*
X614655Y456845D01*
D02*
G37*
G36*
X505855D02*
X503667D01*
X501646Y456008D01*
X500099Y454461D01*
X499262Y452439D01*
Y450251D01*
X500099Y448230D01*
X501646Y446683D01*
X503667Y445845D01*
X505855D01*
X507877Y446683D01*
X509424Y448230D01*
X510261Y450251D01*
Y452439D01*
X509424Y454461D01*
X507877Y456008D01*
X505855Y456845D01*
D02*
G37*
G36*
X397056D02*
X394868D01*
X392846Y456008D01*
X391299Y454461D01*
X390462Y452439D01*
Y450251D01*
X391299Y448230D01*
X392846Y446683D01*
X394868Y445845D01*
X397056D01*
X399077Y446683D01*
X400624Y448230D01*
X401461Y450251D01*
Y452439D01*
X400624Y454461D01*
X399077Y456008D01*
X397056Y456845D01*
D02*
G37*
G36*
X288256D02*
X286068D01*
X284046Y456008D01*
X282499Y454461D01*
X281662Y452439D01*
Y450251D01*
X282499Y448230D01*
X284046Y446683D01*
X286068Y445845D01*
X288256D01*
X290277Y446683D01*
X291824Y448230D01*
X292661Y450251D01*
Y452439D01*
X291824Y454461D01*
X290277Y456008D01*
X288256Y456845D01*
D02*
G37*
G36*
X179456D02*
X177268D01*
X175246Y456008D01*
X173699Y454461D01*
X172862Y452439D01*
Y450251D01*
X173699Y448230D01*
X175246Y446683D01*
X177268Y445845D01*
X179456D01*
X181477Y446683D01*
X183024Y448230D01*
X183862Y450251D01*
Y452439D01*
X183024Y454461D01*
X181477Y456008D01*
X179456Y456845D01*
D02*
G37*
G36*
X70656D02*
X68468D01*
X66446Y456008D01*
X64899Y454461D01*
X64062Y452439D01*
Y450251D01*
X64899Y448230D01*
X66446Y446683D01*
X68468Y445845D01*
X70656D01*
X72677Y446683D01*
X74224Y448230D01*
X75062Y450251D01*
Y452439D01*
X74224Y454461D01*
X72677Y456008D01*
X70656Y456845D01*
D02*
G37*
G36*
X859996Y410000D02*
X858404D01*
X856934Y409391D01*
X855809Y408266D01*
X855567Y407681D01*
X854192D01*
X853991Y408166D01*
X852866Y409291D01*
X851396Y409900D01*
X849804D01*
X848334Y409291D01*
X847209Y408166D01*
X846600Y406696D01*
Y405104D01*
X847209Y403634D01*
X848334Y402509D01*
X849804Y401900D01*
X851396D01*
X852866Y402509D01*
X853991Y403634D01*
X854233Y404219D01*
X855608D01*
X855809Y403734D01*
X856934Y402609D01*
X858404Y402000D01*
X859996D01*
X861466Y402609D01*
X862591Y403734D01*
X863200Y405204D01*
Y406796D01*
X862591Y408266D01*
X861466Y409391D01*
X859996Y410000D01*
D02*
G37*
G36*
X842696Y403900D02*
X841104D01*
X839634Y403291D01*
X838509Y402166D01*
X837900Y400696D01*
Y399104D01*
X838509Y397634D01*
X839634Y396509D01*
X841104Y395900D01*
X842696D01*
X844166Y396509D01*
X845291Y397634D01*
X845900Y399104D01*
Y400696D01*
X845291Y402166D01*
X844166Y403291D01*
X842696Y403900D01*
D02*
G37*
G36*
X809696Y397900D02*
X808104D01*
X806634Y397291D01*
X805509Y396166D01*
X804900Y394696D01*
Y393104D01*
X805509Y391634D01*
X806634Y390509D01*
X808104Y389900D01*
X809696D01*
X811166Y390509D01*
X812291Y391634D01*
X812900Y393104D01*
Y394696D01*
X812291Y396166D01*
X811166Y397291D01*
X809696Y397900D01*
D02*
G37*
G36*
X801121Y391898D02*
X799529D01*
X798059Y391288D01*
X796934Y390163D01*
X796325Y388693D01*
Y387102D01*
X796934Y385632D01*
X798059Y384506D01*
X799529Y383898D01*
X801121D01*
X802591Y384506D01*
X803716Y385632D01*
X804325Y387102D01*
Y388693D01*
X803716Y390163D01*
X802591Y391288D01*
X801121Y391898D01*
D02*
G37*
G36*
X792546Y385895D02*
X790954D01*
X789484Y385286D01*
X788359Y384161D01*
X787750Y382691D01*
Y381099D01*
X788359Y379629D01*
X789484Y378504D01*
X790954Y377895D01*
X792546D01*
X794016Y378504D01*
X795141Y379629D01*
X795750Y381099D01*
Y382691D01*
X795141Y384161D01*
X794016Y385286D01*
X792546Y385895D01*
D02*
G37*
G36*
X783971Y379893D02*
X782379D01*
X780909Y379283D01*
X779784Y378158D01*
X779175Y376688D01*
Y375097D01*
X779784Y373627D01*
X780909Y372501D01*
X782379Y371893D01*
X783971D01*
X785441Y372501D01*
X786566Y373627D01*
X787175Y375097D01*
Y376688D01*
X786566Y378158D01*
X785441Y379283D01*
X783971Y379893D01*
D02*
G37*
G36*
X775396Y373890D02*
X773804D01*
X772334Y373281D01*
X771209Y372156D01*
X770600Y370686D01*
Y369094D01*
X771209Y367624D01*
X772334Y366499D01*
X773804Y365890D01*
X775396D01*
X776866Y366499D01*
X777991Y367624D01*
X778600Y369094D01*
Y370686D01*
X777991Y372156D01*
X776866Y373281D01*
X775396Y373890D01*
D02*
G37*
G36*
X832255Y331379D02*
X830068D01*
X828046Y330541D01*
X826499Y328994D01*
X825661Y326973D01*
Y324785D01*
X826499Y322763D01*
X828046Y321216D01*
X830068Y320379D01*
X832255D01*
X834277Y321216D01*
X835824Y322763D01*
X836662Y324785D01*
Y326973D01*
X835824Y328994D01*
X834277Y330541D01*
X832255Y331379D01*
D02*
G37*
G36*
X723456D02*
X721267D01*
X719246Y330541D01*
X717699Y328994D01*
X716861Y326973D01*
Y324785D01*
X717699Y322763D01*
X719246Y321216D01*
X721267Y320379D01*
X723456D01*
X725477Y321216D01*
X727024Y322763D01*
X727861Y324785D01*
Y326973D01*
X727024Y328994D01*
X725477Y330541D01*
X723456Y331379D01*
D02*
G37*
G36*
X614655D02*
X612467D01*
X610446Y330541D01*
X608899Y328994D01*
X608061Y326973D01*
Y324785D01*
X608899Y322763D01*
X610446Y321216D01*
X612467Y320379D01*
X614655D01*
X616677Y321216D01*
X618224Y322763D01*
X619062Y324785D01*
Y326973D01*
X618224Y328994D01*
X616677Y330541D01*
X614655Y331379D01*
D02*
G37*
G36*
X505855D02*
X503667D01*
X501646Y330541D01*
X500099Y328994D01*
X499262Y326973D01*
Y324785D01*
X500099Y322763D01*
X501646Y321216D01*
X503667Y320379D01*
X505855D01*
X507877Y321216D01*
X509424Y322763D01*
X510261Y324785D01*
Y326973D01*
X509424Y328994D01*
X507877Y330541D01*
X505855Y331379D01*
D02*
G37*
G36*
X397056D02*
X394868D01*
X392846Y330541D01*
X391299Y328994D01*
X390462Y326973D01*
Y324785D01*
X391299Y322763D01*
X392846Y321216D01*
X394868Y320379D01*
X397056D01*
X399077Y321216D01*
X400624Y322763D01*
X401461Y324785D01*
Y326973D01*
X400624Y328994D01*
X399077Y330541D01*
X397056Y331379D01*
D02*
G37*
G36*
X288256D02*
X286068D01*
X284046Y330541D01*
X282499Y328994D01*
X281662Y326973D01*
Y324785D01*
X282499Y322763D01*
X284046Y321216D01*
X286068Y320379D01*
X288256D01*
X290277Y321216D01*
X291824Y322763D01*
X292661Y324785D01*
Y326973D01*
X291824Y328994D01*
X290277Y330541D01*
X288256Y331379D01*
D02*
G37*
G36*
X179456D02*
X177268D01*
X175246Y330541D01*
X173699Y328994D01*
X172862Y326973D01*
Y324785D01*
X173699Y322763D01*
X175246Y321216D01*
X177268Y320379D01*
X179456D01*
X181477Y321216D01*
X183024Y322763D01*
X183862Y324785D01*
Y326973D01*
X183024Y328994D01*
X181477Y330541D01*
X179456Y331379D01*
D02*
G37*
G36*
X70656D02*
X68468D01*
X66446Y330541D01*
X64899Y328994D01*
X64062Y326973D01*
Y324785D01*
X64899Y322763D01*
X66446Y321216D01*
X68468Y320379D01*
X70656D01*
X72677Y321216D01*
X74224Y322763D01*
X75062Y324785D01*
Y326973D01*
X74224Y328994D01*
X72677Y330541D01*
X70656Y331379D01*
D02*
G37*
G36*
X665496Y323800D02*
X663904D01*
X662434Y323191D01*
X661309Y322066D01*
X660700Y320596D01*
Y319004D01*
X661309Y317534D01*
X662068Y316775D01*
X661309Y316016D01*
X660700Y314546D01*
Y312954D01*
X661309Y311484D01*
X662068Y310725D01*
X661309Y309966D01*
X660700Y308496D01*
Y306904D01*
X661309Y305434D01*
X662434Y304309D01*
X663904Y303700D01*
X665496D01*
X666966Y304309D01*
X668091Y305434D01*
X668700Y306904D01*
Y308496D01*
X668091Y309966D01*
X667332Y310725D01*
X668091Y311484D01*
X668700Y312954D01*
Y314546D01*
X668091Y316016D01*
X667332Y316775D01*
X668091Y317534D01*
X668700Y319004D01*
Y320596D01*
X668091Y322066D01*
X666966Y323191D01*
X665496Y323800D01*
D02*
G37*
G36*
X449296D02*
X447704D01*
X446234Y323191D01*
X445109Y322066D01*
X444500Y320596D01*
Y319004D01*
X445109Y317534D01*
X445868Y316775D01*
X445109Y316016D01*
X444500Y314546D01*
Y312954D01*
X445109Y311484D01*
X445868Y310725D01*
X445109Y309966D01*
X444500Y308496D01*
Y306904D01*
X445109Y305434D01*
X446234Y304309D01*
X447704Y303700D01*
X449296D01*
X450766Y304309D01*
X451891Y305434D01*
X452500Y306904D01*
Y308496D01*
X451891Y309966D01*
X451132Y310725D01*
X451891Y311484D01*
X452500Y312954D01*
Y314546D01*
X451891Y316016D01*
X451132Y316775D01*
X451891Y317534D01*
X452500Y319004D01*
Y320596D01*
X451891Y322066D01*
X450766Y323191D01*
X449296Y323800D01*
D02*
G37*
G36*
X832255Y311378D02*
X830068D01*
X828046Y310541D01*
X826499Y308994D01*
X825661Y306973D01*
Y304785D01*
X826499Y302763D01*
X828046Y301216D01*
X830068Y300379D01*
X832255D01*
X834277Y301216D01*
X835824Y302763D01*
X836662Y304785D01*
Y306973D01*
X835824Y308994D01*
X834277Y310541D01*
X832255Y311378D01*
D02*
G37*
G36*
X723456D02*
X721267D01*
X719246Y310541D01*
X717699Y308994D01*
X716861Y306973D01*
Y304785D01*
X717699Y302763D01*
X719246Y301216D01*
X721267Y300379D01*
X723456D01*
X725477Y301216D01*
X727024Y302763D01*
X727861Y304785D01*
Y306973D01*
X727024Y308994D01*
X725477Y310541D01*
X723456Y311378D01*
D02*
G37*
G36*
X614655D02*
X612467D01*
X610446Y310541D01*
X608899Y308994D01*
X608061Y306973D01*
Y304785D01*
X608899Y302763D01*
X610446Y301216D01*
X612467Y300379D01*
X614655D01*
X616677Y301216D01*
X618224Y302763D01*
X619062Y304785D01*
Y306973D01*
X618224Y308994D01*
X616677Y310541D01*
X614655Y311378D01*
D02*
G37*
G36*
X505855D02*
X503667D01*
X501646Y310541D01*
X500099Y308994D01*
X499262Y306973D01*
Y304785D01*
X500099Y302763D01*
X501646Y301216D01*
X503667Y300379D01*
X505855D01*
X507877Y301216D01*
X509424Y302763D01*
X510261Y304785D01*
Y306973D01*
X509424Y308994D01*
X507877Y310541D01*
X505855Y311378D01*
D02*
G37*
G36*
X397056D02*
X394868D01*
X392846Y310541D01*
X391299Y308994D01*
X390462Y306973D01*
Y304785D01*
X391299Y302763D01*
X392846Y301216D01*
X394868Y300379D01*
X397056D01*
X399077Y301216D01*
X400624Y302763D01*
X401461Y304785D01*
Y306973D01*
X400624Y308994D01*
X399077Y310541D01*
X397056Y311378D01*
D02*
G37*
G36*
X288256D02*
X286068D01*
X284046Y310541D01*
X282499Y308994D01*
X281662Y306973D01*
Y304785D01*
X282499Y302763D01*
X284046Y301216D01*
X286068Y300379D01*
X288256D01*
X290277Y301216D01*
X291824Y302763D01*
X292661Y304785D01*
Y306973D01*
X291824Y308994D01*
X290277Y310541D01*
X288256Y311378D01*
D02*
G37*
G36*
X179456D02*
X177268D01*
X175246Y310541D01*
X173699Y308994D01*
X172862Y306973D01*
Y304785D01*
X173699Y302763D01*
X175246Y301216D01*
X177268Y300379D01*
X179456D01*
X181477Y301216D01*
X183024Y302763D01*
X183862Y304785D01*
Y306973D01*
X183024Y308994D01*
X181477Y310541D01*
X179456Y311378D01*
D02*
G37*
G36*
X70656D02*
X68468D01*
X66446Y310541D01*
X64899Y308994D01*
X64062Y306973D01*
Y304785D01*
X64899Y302763D01*
X66446Y301216D01*
X68468Y300379D01*
X70656D01*
X72677Y301216D01*
X74224Y302763D01*
X75062Y304785D01*
Y306973D01*
X74224Y308994D01*
X72677Y310541D01*
X70656Y311378D01*
D02*
G37*
G36*
X15496Y284350D02*
X13904D01*
X12434Y283741D01*
X11309Y282616D01*
X10700Y281146D01*
Y279554D01*
X11309Y278084D01*
X12434Y276959D01*
X13904Y276350D01*
X15496D01*
X16966Y276959D01*
X18091Y278084D01*
X18700Y279554D01*
Y281146D01*
X18091Y282616D01*
X16966Y283741D01*
X15496Y284350D01*
D02*
G37*
G36*
Y273762D02*
X13904D01*
X12434Y273153D01*
X11309Y272028D01*
X10700Y270558D01*
Y268967D01*
X11309Y267497D01*
X12434Y266371D01*
X13904Y265763D01*
X15496D01*
X16966Y266371D01*
X18091Y267497D01*
X18700Y268967D01*
Y270558D01*
X18091Y272028D01*
X16966Y273153D01*
X15496Y273762D01*
D02*
G37*
G36*
Y263175D02*
X13904D01*
X12434Y262566D01*
X11309Y261441D01*
X10700Y259971D01*
Y258379D01*
X11309Y256909D01*
X12434Y255784D01*
X13904Y255175D01*
X15496D01*
X16966Y255784D01*
X18091Y256909D01*
X18700Y258379D01*
Y259971D01*
X18091Y261441D01*
X16966Y262566D01*
X15496Y263175D01*
D02*
G37*
G36*
X223596Y261500D02*
X222004D01*
X220534Y260891D01*
X219409Y259766D01*
X218800Y258296D01*
Y256704D01*
X219409Y255234D01*
X220534Y254109D01*
X222004Y253500D01*
X223596D01*
X225066Y254109D01*
X226191Y255234D01*
X226800Y256704D01*
Y258296D01*
X226191Y259766D01*
X225066Y260891D01*
X223596Y261500D01*
D02*
G37*
G36*
X214170D02*
X212578D01*
X211108Y260891D01*
X209983Y259766D01*
X209374Y258296D01*
Y256704D01*
X209983Y255234D01*
X211108Y254109D01*
X212578Y253500D01*
X214170D01*
X215640Y254109D01*
X216765Y255234D01*
X217374Y256704D01*
Y258296D01*
X216765Y259766D01*
X215640Y260891D01*
X214170Y261500D01*
D02*
G37*
G36*
X204743D02*
X203152D01*
X201682Y260891D01*
X200557Y259766D01*
X199948Y258296D01*
Y256704D01*
X200557Y255234D01*
X201682Y254109D01*
X203152Y253500D01*
X204743D01*
X206214Y254109D01*
X207339Y255234D01*
X207948Y256704D01*
Y258296D01*
X207339Y259766D01*
X206214Y260891D01*
X204743Y261500D01*
D02*
G37*
G36*
X195317D02*
X193726D01*
X192256Y260891D01*
X191131Y259766D01*
X190522Y258296D01*
Y256704D01*
X191131Y255234D01*
X192256Y254109D01*
X193726Y253500D01*
X195317D01*
X196787Y254109D01*
X197913Y255234D01*
X198522Y256704D01*
Y258296D01*
X197913Y259766D01*
X196787Y260891D01*
X195317Y261500D01*
D02*
G37*
G36*
X295846Y254400D02*
X294254D01*
X292784Y253791D01*
X292025Y253032D01*
X291266Y253791D01*
X289796Y254400D01*
X288204D01*
X286734Y253791D01*
X285975Y253032D01*
X285216Y253791D01*
X283746Y254400D01*
X282154D01*
X280684Y253791D01*
X279559Y252666D01*
X278950Y251196D01*
Y249604D01*
X279559Y248134D01*
X280318Y247375D01*
X279559Y246616D01*
X278950Y245146D01*
Y243554D01*
X279559Y242084D01*
X280318Y241325D01*
X279559Y240566D01*
X278950Y239096D01*
Y237504D01*
X279559Y236034D01*
X280684Y234909D01*
X282154Y234300D01*
X283746D01*
X285216Y234909D01*
X285975Y235668D01*
X286734Y234909D01*
X288204Y234300D01*
X289796D01*
X291266Y234909D01*
X292025Y235668D01*
X292784Y234909D01*
X294254Y234300D01*
X295846D01*
X297316Y234909D01*
X298441Y236034D01*
X299050Y237504D01*
Y239096D01*
X298441Y240566D01*
X297682Y241325D01*
X298441Y242084D01*
X299050Y243554D01*
Y245146D01*
X298441Y246616D01*
X297682Y247375D01*
X298441Y248134D01*
X299050Y249604D01*
Y251196D01*
X298441Y252666D01*
X297316Y253791D01*
X295846Y254400D01*
D02*
G37*
G36*
X15496Y252588D02*
X13904D01*
X12434Y251978D01*
X11309Y250853D01*
X10700Y249383D01*
Y247792D01*
X11309Y246322D01*
X12434Y245196D01*
X13904Y244587D01*
X15496D01*
X16966Y245196D01*
X18091Y246322D01*
X18700Y247792D01*
Y249383D01*
X18091Y250853D01*
X16966Y251978D01*
X15496Y252588D01*
D02*
G37*
G36*
X155642Y249100D02*
X154051D01*
X152580Y248491D01*
X151455Y247366D01*
X150846Y245896D01*
Y244304D01*
X151455Y242834D01*
X152580Y241709D01*
X154051Y241100D01*
X155642D01*
X157112Y241709D01*
X158237Y242834D01*
X158846Y244304D01*
Y245896D01*
X158237Y247366D01*
X157112Y248491D01*
X155642Y249100D01*
D02*
G37*
G36*
X145649D02*
X144057D01*
X142587Y248491D01*
X141462Y247366D01*
X140853Y245896D01*
Y244304D01*
X141462Y242834D01*
X142587Y241709D01*
X144057Y241100D01*
X145649D01*
X147119Y241709D01*
X148244Y242834D01*
X148853Y244304D01*
Y245896D01*
X148244Y247366D01*
X147119Y248491D01*
X145649Y249100D01*
D02*
G37*
G36*
X135656D02*
X134064D01*
X132594Y248491D01*
X131469Y247366D01*
X130860Y245896D01*
Y244304D01*
X131469Y242834D01*
X132594Y241709D01*
X134064Y241100D01*
X135656D01*
X137126Y241709D01*
X138251Y242834D01*
X138860Y244304D01*
Y245896D01*
X138251Y247366D01*
X137126Y248491D01*
X135656Y249100D01*
D02*
G37*
G36*
X15496Y242000D02*
X13904D01*
X12434Y241391D01*
X11309Y240266D01*
X10700Y238796D01*
Y237204D01*
X11309Y235734D01*
X12434Y234609D01*
X13904Y234000D01*
X15496D01*
X16966Y234609D01*
X18091Y235734D01*
X18700Y237204D01*
Y238796D01*
X18091Y240266D01*
X16966Y241391D01*
X15496Y242000D01*
D02*
G37*
G36*
X408297Y234000D02*
X406706D01*
X405235Y233391D01*
X404110Y232266D01*
X403501Y230796D01*
Y229204D01*
X404110Y227734D01*
X405235Y226609D01*
X406706Y226000D01*
X408297D01*
X409767Y226609D01*
X410892Y227734D01*
X411501Y229204D01*
Y230796D01*
X410892Y232266D01*
X409767Y233391D01*
X408297Y234000D01*
D02*
G37*
G36*
X742396Y231076D02*
X740804D01*
X739334Y230467D01*
X738209Y229342D01*
X737600Y227871D01*
Y226280D01*
X738209Y224810D01*
X739334Y223685D01*
X740804Y223076D01*
X742396D01*
X743866Y223685D01*
X744991Y224810D01*
X745600Y226280D01*
Y227871D01*
X744991Y229342D01*
X743866Y230467D01*
X742396Y231076D01*
D02*
G37*
G36*
X711896Y224576D02*
X710304D01*
X708834Y223967D01*
X707709Y222841D01*
X707100Y221371D01*
Y219780D01*
X707709Y218310D01*
X708834Y217185D01*
X710304Y216576D01*
X711896D01*
X713366Y217185D01*
X714491Y218310D01*
X715100Y219780D01*
Y221371D01*
X714491Y222841D01*
X713366Y223967D01*
X711896Y224576D01*
D02*
G37*
G36*
X704496Y218076D02*
X702904D01*
X701434Y217467D01*
X700309Y216341D01*
X699700Y214871D01*
Y213280D01*
X700309Y211810D01*
X701434Y210685D01*
X702904Y210075D01*
X704496D01*
X705966Y210685D01*
X707091Y211810D01*
X707700Y213280D01*
Y214871D01*
X707091Y216341D01*
X705966Y217467D01*
X704496Y218076D01*
D02*
G37*
G36*
X542196Y213900D02*
X540604D01*
X539134Y213291D01*
X538009Y212166D01*
X537400Y210696D01*
Y209104D01*
X538009Y207634D01*
X539134Y206509D01*
X540604Y205900D01*
X542196D01*
X543666Y206509D01*
X544791Y207634D01*
X545400Y209104D01*
Y210696D01*
X544791Y212166D01*
X543666Y213291D01*
X542196Y213900D01*
D02*
G37*
G36*
X127586Y211950D02*
X125994D01*
X124524Y211341D01*
X123399Y210216D01*
X122790Y208745D01*
Y207154D01*
X123399Y205684D01*
X124524Y204559D01*
X125994Y203950D01*
X127586D01*
X129056Y204559D01*
X130181Y205684D01*
X130790Y207154D01*
Y208745D01*
X130181Y210216D01*
X129056Y211341D01*
X127586Y211950D01*
D02*
G37*
G36*
X259796Y205450D02*
X258204D01*
X256734Y204841D01*
X255609Y203716D01*
X255000Y202246D01*
Y200654D01*
X255609Y199184D01*
X256734Y198059D01*
X258204Y197450D01*
X259796D01*
X261266Y198059D01*
X262391Y199184D01*
X263000Y200654D01*
Y202246D01*
X262391Y203716D01*
X261266Y204841D01*
X259796Y205450D01*
D02*
G37*
G36*
X250275D02*
X248683D01*
X247213Y204841D01*
X246088Y203716D01*
X245479Y202246D01*
Y200654D01*
X246088Y199184D01*
X247213Y198059D01*
X248683Y197450D01*
X250275D01*
X251745Y198059D01*
X252870Y199184D01*
X253479Y200654D01*
Y202246D01*
X252870Y203716D01*
X251745Y204841D01*
X250275Y205450D01*
D02*
G37*
G36*
X240753D02*
X239162D01*
X237692Y204841D01*
X236567Y203716D01*
X235958Y202246D01*
Y200654D01*
X236567Y199184D01*
X237692Y198059D01*
X239162Y197450D01*
X240753D01*
X242223Y198059D01*
X243349Y199184D01*
X243958Y200654D01*
Y202246D01*
X243349Y203716D01*
X242223Y204841D01*
X240753Y205450D01*
D02*
G37*
G36*
X231232D02*
X229641D01*
X228171Y204841D01*
X227045Y203716D01*
X226437Y202246D01*
Y200654D01*
X227045Y199184D01*
X228171Y198059D01*
X229641Y197450D01*
X231232D01*
X232702Y198059D01*
X233828Y199184D01*
X234436Y200654D01*
Y202246D01*
X233828Y203716D01*
X232702Y204841D01*
X231232Y205450D01*
D02*
G37*
G36*
X119516Y205450D02*
X117924D01*
X116454Y204841D01*
X115329Y203716D01*
X114720Y202246D01*
Y200654D01*
X115329Y199184D01*
X116454Y198059D01*
X117924Y197450D01*
X119516D01*
X120986Y198059D01*
X122111Y199184D01*
X122720Y200654D01*
Y202246D01*
X122111Y203716D01*
X120986Y204841D01*
X119516Y205450D01*
D02*
G37*
G36*
X111446Y198950D02*
X109854D01*
X108384Y198341D01*
X107259Y197216D01*
X106650Y195746D01*
Y194154D01*
X107259Y192684D01*
X108384Y191559D01*
X109854Y190950D01*
X111446D01*
X112916Y191559D01*
X114041Y192684D01*
X114650Y194154D01*
Y195746D01*
X114041Y197216D01*
X112916Y198341D01*
X111446Y198950D01*
D02*
G37*
G36*
X318496Y195400D02*
X316904D01*
X315434Y194791D01*
X314309Y193666D01*
X313700Y192196D01*
Y190604D01*
X314309Y189134D01*
X315434Y188009D01*
X316904Y187400D01*
X318496D01*
X319966Y188009D01*
X321091Y189134D01*
X321700Y190604D01*
Y192196D01*
X321091Y193666D01*
X319966Y194791D01*
X318496Y195400D01*
D02*
G37*
G36*
X103376Y192450D02*
X101784D01*
X100314Y191841D01*
X99189Y190716D01*
X98580Y189246D01*
Y187654D01*
X99189Y186184D01*
X100314Y185059D01*
X101784Y184450D01*
X103376D01*
X104846Y185059D01*
X105971Y186184D01*
X106580Y187654D01*
Y189246D01*
X105971Y190716D01*
X104846Y191841D01*
X103376Y192450D01*
D02*
G37*
G36*
X775396Y192076D02*
X773804D01*
X772334Y191467D01*
X771209Y190341D01*
X770600Y188871D01*
Y187280D01*
X771209Y185810D01*
X772334Y184685D01*
X773804Y184076D01*
X775396D01*
X776866Y184685D01*
X777991Y185810D01*
X778600Y187280D01*
Y188871D01*
X777991Y190341D01*
X776866Y191467D01*
X775396Y192076D01*
D02*
G37*
G36*
X311796Y188100D02*
X310204D01*
X308734Y187491D01*
X307609Y186366D01*
X307000Y184896D01*
Y183304D01*
X307609Y181834D01*
X308734Y180709D01*
X310204Y180100D01*
X311796D01*
X313266Y180709D01*
X314391Y181834D01*
X315000Y183304D01*
Y184896D01*
X314391Y186366D01*
X313266Y187491D01*
X311796Y188100D01*
D02*
G37*
G36*
X94196Y185950D02*
X92604D01*
X91134Y185341D01*
X90009Y184216D01*
X89400Y182746D01*
Y181154D01*
X90009Y179684D01*
X91134Y178559D01*
X92604Y177950D01*
X94196D01*
X95666Y178559D01*
X96791Y179684D01*
X97400Y181154D01*
Y182746D01*
X96791Y184216D01*
X95666Y185341D01*
X94196Y185950D01*
D02*
G37*
G36*
X783971Y185576D02*
X782379D01*
X780909Y184967D01*
X779784Y183841D01*
X779175Y182371D01*
Y180780D01*
X779784Y179310D01*
X780909Y178185D01*
X782379Y177576D01*
X783971D01*
X785441Y178185D01*
X786566Y179310D01*
X787175Y180780D01*
Y182371D01*
X786566Y183841D01*
X785441Y184967D01*
X783971Y185576D01*
D02*
G37*
G36*
X792546Y179076D02*
X790954D01*
X789484Y178467D01*
X788359Y177342D01*
X787750Y175871D01*
Y174280D01*
X788359Y172810D01*
X789484Y171685D01*
X790954Y171076D01*
X792546D01*
X794016Y171685D01*
X795141Y172810D01*
X795750Y174280D01*
Y175871D01*
X795141Y177342D01*
X794016Y178467D01*
X792546Y179076D01*
D02*
G37*
G36*
X801121Y172576D02*
X799529D01*
X798059Y171967D01*
X796934Y170842D01*
X796325Y169371D01*
Y167780D01*
X796934Y166310D01*
X798059Y165185D01*
X799529Y164576D01*
X801121D01*
X802591Y165185D01*
X803716Y166310D01*
X804325Y167780D01*
Y169371D01*
X803716Y170842D01*
X802591Y171967D01*
X801121Y172576D01*
D02*
G37*
G36*
X809696Y166076D02*
X808104D01*
X806634Y165467D01*
X805509Y164342D01*
X804900Y162871D01*
Y161280D01*
X805509Y159810D01*
X806634Y158685D01*
X808104Y158076D01*
X809696D01*
X811166Y158685D01*
X812291Y159810D01*
X812900Y161280D01*
Y162871D01*
X812291Y164342D01*
X811166Y165467D01*
X809696Y166076D01*
D02*
G37*
G36*
X380390Y164800D02*
X378799D01*
X377329Y164191D01*
X376204Y163066D01*
X375595Y161596D01*
Y160004D01*
X376204Y158534D01*
X377329Y157409D01*
X378799Y156800D01*
X380390D01*
X381861Y157409D01*
X382986Y158534D01*
X383595Y160004D01*
Y161596D01*
X382986Y163066D01*
X381861Y164191D01*
X380390Y164800D01*
D02*
G37*
G36*
X818270Y159576D02*
X816679D01*
X815209Y158967D01*
X814084Y157842D01*
X813475Y156371D01*
Y154780D01*
X814084Y153310D01*
X815209Y152185D01*
X816679Y151576D01*
X818270D01*
X819741Y152185D01*
X820866Y153310D01*
X821475Y154780D01*
Y156371D01*
X820866Y157842D01*
X819741Y158967D01*
X818270Y159576D01*
D02*
G37*
G36*
X826845Y153076D02*
X825254D01*
X823784Y152467D01*
X822659Y151342D01*
X822050Y149872D01*
Y148280D01*
X822659Y146810D01*
X823784Y145685D01*
X825254Y145076D01*
X826845D01*
X828316Y145685D01*
X829441Y146810D01*
X830050Y148280D01*
Y149872D01*
X829441Y151342D01*
X828316Y152467D01*
X826845Y153076D01*
D02*
G37*
G36*
X835420Y146576D02*
X833829D01*
X832359Y145967D01*
X831234Y144842D01*
X830625Y143371D01*
Y141780D01*
X831234Y140310D01*
X832359Y139185D01*
X833829Y138576D01*
X835420D01*
X836891Y139185D01*
X838016Y140310D01*
X838625Y141780D01*
Y143371D01*
X838016Y144842D01*
X836891Y145967D01*
X835420Y146576D01*
D02*
G37*
G36*
X233454Y114900D02*
X231863D01*
X230393Y114291D01*
X229268Y113166D01*
X228659Y111696D01*
Y110104D01*
X229268Y108634D01*
X230393Y107509D01*
X231863Y106900D01*
X233454D01*
X234925Y107509D01*
X236050Y108634D01*
X236659Y110104D01*
Y111696D01*
X236050Y113166D01*
X234925Y114291D01*
X233454Y114900D01*
D02*
G37*
G36*
X224096D02*
X222504D01*
X221034Y114291D01*
X219909Y113166D01*
X219300Y111696D01*
Y110104D01*
X219909Y108634D01*
X221034Y107509D01*
X222504Y106900D01*
X224096D01*
X225566Y107509D01*
X226691Y108634D01*
X227300Y110104D01*
Y111696D01*
X226691Y113166D01*
X225566Y114291D01*
X224096Y114900D01*
D02*
G37*
G36*
X492096Y110000D02*
X490504D01*
X489034Y109391D01*
X487909Y108266D01*
X487300Y106796D01*
Y105204D01*
X487909Y103734D01*
X489034Y102609D01*
X490504Y102000D01*
X492096D01*
X493566Y102609D01*
X494691Y103734D01*
X495300Y105204D01*
Y106796D01*
X494691Y108266D01*
X493566Y109391D01*
X492096Y110000D01*
D02*
G37*
G36*
X768759Y105500D02*
X767168D01*
X765698Y104891D01*
X764573Y103766D01*
X763964Y102296D01*
Y100704D01*
X764573Y99234D01*
X765698Y98109D01*
X767168Y97500D01*
X768759D01*
X770229Y98109D01*
X771355Y99234D01*
X771964Y100704D01*
Y102296D01*
X771355Y103766D01*
X770229Y104891D01*
X768759Y105500D01*
D02*
G37*
G36*
X646596Y110800D02*
X645004D01*
X643534Y110191D01*
X642409Y109066D01*
X641800Y107596D01*
Y106004D01*
X642409Y104534D01*
X643493Y103450D01*
X642509Y102466D01*
X641900Y100996D01*
Y99404D01*
X642509Y97934D01*
X643634Y96809D01*
X645104Y96200D01*
X646696D01*
X648166Y96809D01*
X649291Y97934D01*
X649900Y99404D01*
Y100996D01*
X649291Y102466D01*
X648207Y103550D01*
X649191Y104534D01*
X649800Y106004D01*
Y107596D01*
X649191Y109066D01*
X648066Y110191D01*
X646596Y110800D01*
D02*
G37*
G36*
X463396Y101400D02*
X461804D01*
X460334Y100791D01*
X459209Y99666D01*
X458600Y98196D01*
Y96604D01*
X459209Y95134D01*
X460334Y94009D01*
X461804Y93400D01*
X463396D01*
X464866Y94009D01*
X465991Y95134D01*
X466600Y96604D01*
Y98196D01*
X465991Y99666D01*
X464866Y100791D01*
X463396Y101400D01*
D02*
G37*
G36*
X395596D02*
X394004D01*
X392534Y100791D01*
X391409Y99666D01*
X390800Y98196D01*
Y96604D01*
X391409Y95134D01*
X392534Y94009D01*
X394004Y93400D01*
X395596D01*
X397066Y94009D01*
X398191Y95134D01*
X398800Y96604D01*
Y98196D01*
X398191Y99666D01*
X397066Y100791D01*
X395596Y101400D01*
D02*
G37*
G36*
X740396Y96200D02*
X738804D01*
X737334Y95591D01*
X736209Y94466D01*
X735600Y92996D01*
Y91404D01*
X736209Y89934D01*
X737334Y88809D01*
X738804Y88200D01*
X740396D01*
X741866Y88809D01*
X742991Y89934D01*
X743600Y91404D01*
Y92996D01*
X742991Y94466D01*
X741866Y95591D01*
X740396Y96200D01*
D02*
G37*
G36*
X728246D02*
X726654D01*
X725184Y95591D01*
X724059Y94466D01*
X723450Y92996D01*
Y91404D01*
X724059Y89934D01*
X725184Y88809D01*
X726654Y88200D01*
X728246D01*
X729716Y88809D01*
X730841Y89934D01*
X731450Y91404D01*
Y92996D01*
X730841Y94466D01*
X729716Y95591D01*
X728246Y96200D01*
D02*
G37*
G36*
X240896Y88000D02*
X239304D01*
X237834Y87391D01*
X236709Y86266D01*
X236100Y84796D01*
Y83204D01*
X236709Y81734D01*
X237834Y80609D01*
X239304Y80000D01*
X240896D01*
X242366Y80609D01*
X243491Y81734D01*
X244100Y83204D01*
Y84796D01*
X243491Y86266D01*
X242366Y87391D01*
X240896Y88000D01*
D02*
G37*
G36*
X330696Y99480D02*
X328064D01*
X325520Y98799D01*
X323240Y97482D01*
X321378Y95620D01*
X320061Y93340D01*
X319380Y90796D01*
Y88163D01*
X320061Y85620D01*
X321378Y83340D01*
X323240Y81478D01*
X325520Y80162D01*
X328064Y79480D01*
X330696D01*
X333240Y80162D01*
X335520Y81478D01*
X337382Y83340D01*
X338699Y85620D01*
X339380Y88163D01*
Y90796D01*
X338699Y93340D01*
X337382Y95620D01*
X335520Y97482D01*
X333240Y98799D01*
X330696Y99480D01*
D02*
G37*
G36*
X436380Y100038D02*
X434618Y99806D01*
X432976Y99126D01*
X431566Y98044D01*
X430484Y96634D01*
X429804Y94992D01*
X429572Y93230D01*
Y85730D01*
X429804Y83968D01*
X430484Y82326D01*
X431566Y80916D01*
X432976Y79834D01*
X434618Y79154D01*
X436380Y78922D01*
X438142Y79154D01*
X439784Y79834D01*
X441194Y80916D01*
X442276Y82326D01*
X442956Y83968D01*
X443188Y85730D01*
Y93230D01*
X442956Y94992D01*
X442276Y96634D01*
X441194Y98044D01*
X439784Y99126D01*
X438142Y99806D01*
X436380Y100038D01*
D02*
G37*
G36*
X753096Y70500D02*
X751504D01*
X750034Y69891D01*
X748909Y68766D01*
X748300Y67296D01*
Y65704D01*
X748909Y64234D01*
X750034Y63109D01*
X751504Y62500D01*
X753096D01*
X754566Y63109D01*
X755691Y64234D01*
X756300Y65704D01*
Y67296D01*
X755691Y68766D01*
X754566Y69891D01*
X753096Y70500D01*
D02*
G37*
G36*
X479146Y58400D02*
X477554D01*
X476084Y57791D01*
X475325Y57032D01*
X474566Y57791D01*
X473096Y58400D01*
X471504D01*
X470034Y57791D01*
X468909Y56666D01*
X468300Y55196D01*
Y53604D01*
X468909Y52134D01*
X469668Y51375D01*
X468909Y50616D01*
X468300Y49146D01*
Y47554D01*
X468909Y46084D01*
X470034Y44959D01*
X471504Y44350D01*
X473096D01*
X474566Y44959D01*
X475325Y45718D01*
X476084Y44959D01*
X477554Y44350D01*
X479146D01*
X480616Y44959D01*
X481741Y46084D01*
X482350Y47554D01*
Y49146D01*
X481741Y50616D01*
X480982Y51375D01*
X481741Y52134D01*
X482350Y53604D01*
Y55196D01*
X481741Y56666D01*
X480616Y57791D01*
X479146Y58400D01*
D02*
G37*
G36*
X102596Y55200D02*
X101004D01*
X99534Y54591D01*
X98409Y53466D01*
X97800Y51996D01*
Y50404D01*
X98409Y48934D01*
X99534Y47809D01*
X101004Y47200D01*
X102596D01*
X104066Y47809D01*
X105191Y48934D01*
X105800Y50404D01*
Y51996D01*
X105191Y53466D01*
X104066Y54591D01*
X102596Y55200D01*
D02*
G37*
G36*
X198096Y41450D02*
X196504D01*
X195034Y40841D01*
X193909Y39716D01*
X193300Y38246D01*
Y36654D01*
X193909Y35184D01*
X195034Y34059D01*
X196504Y33450D01*
X198096D01*
X199566Y34059D01*
X200691Y35184D01*
X201300Y36654D01*
Y38246D01*
X200691Y39716D01*
X199566Y40841D01*
X198096Y41450D01*
D02*
G37*
G36*
X143696Y41300D02*
X142104D01*
X140634Y40691D01*
X139509Y39566D01*
X138900Y38096D01*
Y36504D01*
X139509Y35034D01*
X140634Y33909D01*
X142104Y33300D01*
X143696D01*
X145166Y33909D01*
X146291Y35034D01*
X146900Y36504D01*
Y38096D01*
X146291Y39566D01*
X145166Y40691D01*
X143696Y41300D01*
D02*
G37*
G36*
X633596Y38000D02*
X632004D01*
X630534Y37391D01*
X629409Y36266D01*
X628800Y34796D01*
Y33204D01*
X629409Y31734D01*
X630534Y30609D01*
X632004Y30000D01*
X633596D01*
X635066Y30609D01*
X636191Y31734D01*
X636800Y33204D01*
Y34796D01*
X636191Y36266D01*
X635066Y37391D01*
X633596Y38000D01*
D02*
G37*
G36*
X623796D02*
X622204D01*
X620734Y37391D01*
X619609Y36266D01*
X619000Y34796D01*
Y33204D01*
X619609Y31734D01*
X620734Y30609D01*
X622204Y30000D01*
X623796D01*
X625266Y30609D01*
X626391Y31734D01*
X627000Y33204D01*
Y34796D01*
X626391Y36266D01*
X625266Y37391D01*
X623796Y38000D01*
D02*
G37*
G36*
X613996D02*
X612404D01*
X610934Y37391D01*
X609809Y36266D01*
X609200Y34796D01*
Y33204D01*
X609809Y31734D01*
X610934Y30609D01*
X612404Y30000D01*
X613996D01*
X615466Y30609D01*
X616591Y31734D01*
X617200Y33204D01*
Y34796D01*
X616591Y36266D01*
X615466Y37391D01*
X613996Y38000D01*
D02*
G37*
G36*
X266296Y36514D02*
X264704D01*
X263234Y35905D01*
X262109Y34780D01*
X261500Y33310D01*
Y31718D01*
X262109Y30248D01*
X263234Y29123D01*
X264704Y28514D01*
X266296D01*
X267766Y29123D01*
X268891Y30248D01*
X269500Y31718D01*
Y33310D01*
X268891Y34780D01*
X267766Y35905D01*
X266296Y36514D01*
D02*
G37*
G36*
X285396Y34100D02*
X283804D01*
X282334Y33491D01*
X281209Y32366D01*
X280600Y30896D01*
Y29304D01*
X281209Y27834D01*
X282334Y26709D01*
X283804Y26100D01*
X285396D01*
X286866Y26709D01*
X287991Y27834D01*
X288600Y29304D01*
Y30896D01*
X287991Y32366D01*
X286866Y33491D01*
X285396Y34100D01*
D02*
G37*
%LPD*%
D17*
X9916Y348968D02*
X7616Y348321D01*
X5489Y347230D01*
X3621Y345740D01*
X2085Y343910D01*
X942Y341811D01*
X238Y339528D01*
X0Y337150D01*
X360700Y882700D02*
X361001Y880030D01*
X361888Y877493D01*
X363318Y875218D01*
X365218Y873318D01*
X367493Y871888D01*
X370030Y871001D01*
X372700Y870700D01*
X360700Y888000D02*
X360399Y890670D01*
X359512Y893207D01*
X358082Y895482D01*
X356182Y897382D01*
X353907Y898812D01*
X351370Y899699D01*
X348700Y900000D01*
X812000Y8000D02*
X812392Y5528D01*
X813528Y3298D01*
X815298Y1528D01*
X817528Y391D01*
X820000Y0D01*
X575900Y900000D02*
X573230Y899699D01*
X570693Y898812D01*
X568418Y897382D01*
X566518Y895482D01*
X565088Y893207D01*
X564201Y890670D01*
X563900Y888000D01*
X812000Y8000D02*
X811609Y10472D01*
X810472Y12702D01*
X808702Y14472D01*
X806472Y15609D01*
X804000Y16000D01*
X551900Y870700D02*
X554570Y871001D01*
X557107Y871888D01*
X559382Y873318D01*
X561282Y875218D01*
X562712Y877493D01*
X563599Y880030D01*
X563900Y882700D01*
X12000Y900000D02*
X9330Y899699D01*
X6793Y898812D01*
X4518Y897382D01*
X2618Y895482D01*
X1188Y893207D01*
X301Y890670D01*
X0Y888000D01*
X19200Y539350D02*
X18962Y541728D01*
X18258Y544011D01*
X17115Y546110D01*
X15579Y547940D01*
X13711Y549430D01*
X11584Y550521D01*
X9284Y551168D01*
X96000Y16000D02*
X93528Y15609D01*
X91298Y14472D01*
X89528Y12702D01*
X88392Y10472D01*
X88000Y8000D01*
X0Y12000D02*
X301Y9330D01*
X1188Y6793D01*
X2618Y4518D01*
X4518Y2618D01*
X6793Y1188D01*
X9330Y301D01*
X12000Y0D01*
X900000Y888000D02*
X899699Y890670D01*
X898812Y893207D01*
X897382Y895482D01*
X895482Y897382D01*
X893207Y898812D01*
X890670Y899699D01*
X888000Y900000D01*
X890074Y551072D02*
X892374Y551720D01*
X894501Y552810D01*
X896369Y554300D01*
X897905Y556130D01*
X899048Y558229D01*
X899752Y560512D01*
X899990Y562890D01*
Y337130D02*
X899752Y339508D01*
X899048Y341791D01*
X897905Y343890D01*
X896369Y345720D01*
X894501Y347210D01*
X892374Y348301D01*
X890074Y348948D01*
X-10Y562850D02*
X228Y560472D01*
X932Y558189D01*
X2075Y556090D01*
X3611Y554260D01*
X5479Y552770D01*
X7606Y551679D01*
X9906Y551032D01*
X9284Y348832D02*
X11584Y349479D01*
X13711Y350570D01*
X15579Y352060D01*
X17115Y353890D01*
X18258Y355989D01*
X18962Y358272D01*
X19200Y360650D01*
X890716Y551168D02*
X888416Y550521D01*
X886289Y549430D01*
X884421Y547940D01*
X882885Y546110D01*
X881742Y544011D01*
X881038Y541728D01*
X880800Y539350D01*
X888000Y0D02*
X890670Y301D01*
X893207Y1188D01*
X895482Y2618D01*
X897382Y4518D01*
X898812Y6793D01*
X899699Y9330D01*
X900000Y12000D01*
X80000Y0D02*
X82472Y391D01*
X84702Y1528D01*
X86472Y3298D01*
X87608Y5528D01*
X88000Y8000D01*
X880800Y360650D02*
X881038Y358272D01*
X881742Y355989D01*
X882885Y353890D01*
X884421Y352060D01*
X886289Y350570D01*
X888416Y349479D01*
X890716Y348832D01*
X372700Y870700D02*
X551900D01*
X12000Y900000D02*
X348700D01*
X0Y562860D02*
Y888000D01*
X900000Y12000D02*
Y337120D01*
X96000Y16000D02*
X804000D01*
X575900Y900000D02*
X888000D01*
X899990Y562890D02*
Y887990D01*
X360700Y882700D02*
Y888000D01*
X820000Y0D02*
X888000D01*
X19200Y360650D02*
Y539350D01*
X880800Y360650D02*
Y539350D01*
X12000Y0D02*
X80000D01*
X0Y12000D02*
Y337150D01*
X563900Y882700D02*
Y888000D01*
D53*
X874750Y27450D02*
D03*
D54*
X861050Y872750D02*
D03*
D55*
X46450Y873600D02*
D03*
D56*
X26450Y26850D02*
D03*
D59*
X329380Y89480D02*
D03*
D60*
X436380D02*
D03*
D61*
X823800Y849200D02*
D03*
X88900D02*
D03*
X850900Y50795D02*
D03*
X50800D02*
D03*
D62*
X823800Y872060D02*
D03*
X800940Y849200D02*
D03*
X823800Y826340D02*
D03*
X846660Y849200D02*
D03*
X839965Y865365D02*
D03*
X807635D02*
D03*
Y833036D02*
D03*
X839965D02*
D03*
X88900Y872060D02*
D03*
X66040Y849200D02*
D03*
X88900Y826340D02*
D03*
X111760Y849200D02*
D03*
X105064Y865365D02*
D03*
X72736D02*
D03*
Y833036D02*
D03*
X105064D02*
D03*
X867065Y34631D02*
D03*
X834735D02*
D03*
Y66960D02*
D03*
X867065D02*
D03*
X873760Y50795D02*
D03*
X850900Y27936D02*
D03*
X828040Y50795D02*
D03*
X850900Y73656D02*
D03*
X66965Y34631D02*
D03*
X34636D02*
D03*
Y66960D02*
D03*
X66965D02*
D03*
X73660Y50795D02*
D03*
X50800Y27936D02*
D03*
X27940Y50795D02*
D03*
X50800Y73656D02*
D03*
D63*
X79562Y315879D02*
D03*
X69562Y325879D02*
D03*
Y305879D02*
D03*
X188362Y752279D02*
D03*
X178362Y762279D02*
D03*
Y742280D02*
D03*
X79562Y752279D02*
D03*
X69562Y762279D02*
D03*
Y742279D02*
D03*
X79562Y606812D02*
D03*
X69562Y616812D02*
D03*
Y596812D02*
D03*
X79562Y461345D02*
D03*
X69562Y471345D02*
D03*
Y451345D02*
D03*
X722362Y305879D02*
D03*
Y325879D02*
D03*
X732362Y315879D02*
D03*
X831161Y451345D02*
D03*
Y471345D02*
D03*
X841161Y461345D02*
D03*
X831161Y596812D02*
D03*
Y616812D02*
D03*
X841161Y606812D02*
D03*
X831161Y742279D02*
D03*
Y762279D02*
D03*
X841161Y752279D02*
D03*
X722362Y742279D02*
D03*
Y762279D02*
D03*
X732362Y752279D02*
D03*
X613562Y742279D02*
D03*
Y762279D02*
D03*
X623562Y752279D02*
D03*
X504762Y742279D02*
D03*
Y762279D02*
D03*
X514762Y752279D02*
D03*
X395961Y742279D02*
D03*
Y762279D02*
D03*
X405961Y752279D02*
D03*
X287162Y742279D02*
D03*
Y762279D02*
D03*
X297162Y752279D02*
D03*
X178362Y596812D02*
D03*
Y616812D02*
D03*
X188362Y606812D02*
D03*
X287162Y596812D02*
D03*
Y616812D02*
D03*
X297162Y606812D02*
D03*
X395961Y596812D02*
D03*
Y616812D02*
D03*
X405961Y606812D02*
D03*
X504762Y596812D02*
D03*
Y616812D02*
D03*
X514762Y606812D02*
D03*
X613562Y596812D02*
D03*
Y616812D02*
D03*
X623562Y606812D02*
D03*
X722362Y596812D02*
D03*
Y616812D02*
D03*
X732362Y606812D02*
D03*
X178362Y451345D02*
D03*
Y471345D02*
D03*
X188362Y461345D02*
D03*
X287162Y305879D02*
D03*
Y325879D02*
D03*
X297162Y315879D02*
D03*
X178362Y305879D02*
D03*
Y325879D02*
D03*
X188362Y315879D02*
D03*
X722362Y451345D02*
D03*
Y471345D02*
D03*
X732362Y461345D02*
D03*
X613562Y451345D02*
D03*
Y471345D02*
D03*
X623562Y461345D02*
D03*
X504762Y451345D02*
D03*
Y471345D02*
D03*
X514762Y461345D02*
D03*
X395961Y451345D02*
D03*
Y471345D02*
D03*
X405961Y461345D02*
D03*
X287162Y451345D02*
D03*
Y471345D02*
D03*
X297162Y461345D02*
D03*
X395961Y305879D02*
D03*
Y325879D02*
D03*
X405961Y315879D02*
D03*
X504762Y305879D02*
D03*
Y325879D02*
D03*
X514762Y315879D02*
D03*
X613562Y305879D02*
D03*
Y325879D02*
D03*
X623562Y315879D02*
D03*
X831161Y305879D02*
D03*
Y325879D02*
D03*
X841161Y315879D02*
D03*
D64*
X339600Y361600D02*
D03*
X667300Y358900D02*
D03*
X241247Y91325D02*
D03*
X240100Y84000D02*
D03*
X243600Y118300D02*
D03*
X14700Y269762D02*
D03*
Y280350D02*
D03*
X154846Y245100D02*
D03*
X213374Y257500D02*
D03*
X194522D02*
D03*
X397300Y26900D02*
D03*
X386100D02*
D03*
X408500D02*
D03*
X66200Y158150D02*
D03*
Y142225D02*
D03*
Y174075D02*
D03*
X56400Y158150D02*
D03*
Y142225D02*
D03*
Y174075D02*
D03*
X377300Y92000D02*
D03*
X203948Y257500D02*
D03*
X222800D02*
D03*
X363600Y92500D02*
D03*
X462600Y97400D02*
D03*
X472300Y54400D02*
D03*
X478350D02*
D03*
X472300Y48350D02*
D03*
X491300Y106000D02*
D03*
X490974Y98157D02*
D03*
X645900Y100200D02*
D03*
X645800Y106800D02*
D03*
X394800Y97400D02*
D03*
X478350Y48350D02*
D03*
X356200Y99600D02*
D03*
X371100Y99100D02*
D03*
X350700Y92400D02*
D03*
X142900Y37300D02*
D03*
X197300Y37450D02*
D03*
X265500Y32514D02*
D03*
X284600Y30100D02*
D03*
X596300Y228300D02*
D03*
X586500D02*
D03*
X601100Y205800D02*
D03*
X591300D02*
D03*
X859200Y406000D02*
D03*
X419700Y26900D02*
D03*
X97900Y59800D02*
D03*
Y69600D02*
D03*
Y79400D02*
D03*
Y89200D02*
D03*
X36800Y110375D02*
D03*
X46600D02*
D03*
X56400D02*
D03*
X66200D02*
D03*
X76000D02*
D03*
X115200D02*
D03*
X105400D02*
D03*
X95600D02*
D03*
X85800D02*
D03*
X453031Y26200D02*
D03*
X466296D02*
D03*
X492825D02*
D03*
X479560D02*
D03*
X506090D02*
D03*
X519354D02*
D03*
X559148D02*
D03*
X532619D02*
D03*
X545883D02*
D03*
X442100Y26900D02*
D03*
X430900D02*
D03*
X101800Y51200D02*
D03*
X886600Y768160D02*
D03*
Y735387D02*
D03*
Y800934D02*
D03*
Y784547D02*
D03*
Y751774D02*
D03*
Y833708D02*
D03*
Y817321D02*
D03*
X638735Y26200D02*
D03*
X625471D02*
D03*
X652000D02*
D03*
X612206D02*
D03*
X598942D02*
D03*
X572412D02*
D03*
X585677D02*
D03*
X674200Y125100D02*
D03*
Y115300D02*
D03*
X667300Y135000D02*
D03*
X674000Y84100D02*
D03*
X674200Y74700D02*
D03*
X673800Y92600D02*
D03*
X629000Y130100D02*
D03*
X619200D02*
D03*
X638800D02*
D03*
X152850Y59650D02*
D03*
Y65700D02*
D03*
Y71750D02*
D03*
X205400Y35300D02*
D03*
X796437Y67382D02*
D03*
Y92328D02*
D03*
Y54910D02*
D03*
Y79855D02*
D03*
Y42437D02*
D03*
X796964Y26036D02*
D03*
X796900Y32100D02*
D03*
X678374Y26036D02*
D03*
X678311Y32100D02*
D03*
X665046D02*
D03*
X665110Y26036D02*
D03*
X691639D02*
D03*
X704903D02*
D03*
X704840Y32100D02*
D03*
X691575D02*
D03*
X757962Y26036D02*
D03*
X757898Y32100D02*
D03*
X771226Y26036D02*
D03*
X731369Y32100D02*
D03*
X718104D02*
D03*
X744633D02*
D03*
X771163D02*
D03*
X744697Y26036D02*
D03*
X718168D02*
D03*
X731433D02*
D03*
X784427Y32100D02*
D03*
X784491Y26036D02*
D03*
X783964Y42437D02*
D03*
Y79855D02*
D03*
Y54910D02*
D03*
Y92328D02*
D03*
Y67382D02*
D03*
X833855Y129746D02*
D03*
X846327D02*
D03*
X821382D02*
D03*
X833855Y117273D02*
D03*
X846327D02*
D03*
X821382D02*
D03*
X796437Y104800D02*
D03*
X821382D02*
D03*
X846327D02*
D03*
X833855D02*
D03*
X796437Y129746D02*
D03*
Y117273D02*
D03*
X783964D02*
D03*
Y129746D02*
D03*
Y104800D02*
D03*
X808909D02*
D03*
Y117273D02*
D03*
Y129746D02*
D03*
X858800D02*
D03*
X868600D02*
D03*
X878400D02*
D03*
X728300Y140500D02*
D03*
Y165700D02*
D03*
Y153100D02*
D03*
Y216100D02*
D03*
Y178300D02*
D03*
Y228700D02*
D03*
Y203500D02*
D03*
X233200Y164500D02*
D03*
Y174300D02*
D03*
X170000Y173880D02*
D03*
Y150960D02*
D03*
Y139500D02*
D03*
Y162420D02*
D03*
X223300Y110900D02*
D03*
X337400Y221800D02*
D03*
X357000D02*
D03*
X366800D02*
D03*
X327600D02*
D03*
X347200D02*
D03*
X85800Y126300D02*
D03*
X95600D02*
D03*
X105400D02*
D03*
X115200D02*
D03*
X317700Y145300D02*
D03*
Y171100D02*
D03*
X342900Y176000D02*
D03*
X340300Y145300D02*
D03*
X311000Y184100D02*
D03*
X317700Y191400D02*
D03*
X289000Y250400D02*
D03*
X282950D02*
D03*
X295050D02*
D03*
Y244350D02*
D03*
X282950D02*
D03*
X289000D02*
D03*
X295050Y238300D02*
D03*
X289000D02*
D03*
X282950D02*
D03*
X379595Y160800D02*
D03*
X541400Y209900D02*
D03*
X76000Y126300D02*
D03*
X66200D02*
D03*
X56400D02*
D03*
X46600D02*
D03*
X36800D02*
D03*
X767964Y101500D02*
D03*
X632800Y34000D02*
D03*
X623000D02*
D03*
X613200D02*
D03*
X407501Y230000D02*
D03*
X752300Y59157D02*
D03*
Y66500D02*
D03*
X232659Y118300D02*
D03*
Y110900D02*
D03*
X739600Y92200D02*
D03*
X711100Y220576D02*
D03*
X703700Y214076D02*
D03*
X727450Y92200D02*
D03*
X113800Y271850D02*
D03*
Y277900D02*
D03*
X237400Y278000D02*
D03*
X441500Y267100D02*
D03*
Y276900D02*
D03*
X548700Y269700D02*
D03*
Y277500D02*
D03*
X658600Y275200D02*
D03*
X668400D02*
D03*
X765500Y276900D02*
D03*
Y267100D02*
D03*
X777400Y424000D02*
D03*
Y414200D02*
D03*
X231900Y565500D02*
D03*
X222100D02*
D03*
X125500Y709900D02*
D03*
X115700D02*
D03*
X238100Y699800D02*
D03*
X228300D02*
D03*
X247900D02*
D03*
X603832Y873833D02*
D03*
X636605D02*
D03*
X587445D02*
D03*
X620218D02*
D03*
X734926D02*
D03*
X702153D02*
D03*
X669379D02*
D03*
X652992D02*
D03*
X751313D02*
D03*
X718540D02*
D03*
X685766D02*
D03*
X341642Y873833D02*
D03*
X226934D02*
D03*
X194161D02*
D03*
X161387D02*
D03*
X259708D02*
D03*
X243321D02*
D03*
X210548D02*
D03*
X177774D02*
D03*
X292482D02*
D03*
X325255D02*
D03*
X276095D02*
D03*
X308869D02*
D03*
X767700D02*
D03*
X145000D02*
D03*
X226934Y830533D02*
D03*
X194161D02*
D03*
X161387D02*
D03*
X145000D02*
D03*
X259708D02*
D03*
X243321D02*
D03*
X210548D02*
D03*
X177774D02*
D03*
X292482D02*
D03*
X325255D02*
D03*
X276095D02*
D03*
X308869D02*
D03*
X341642D02*
D03*
X145000Y816100D02*
D03*
X308869D02*
D03*
X276095D02*
D03*
X325255D02*
D03*
X292482D02*
D03*
X177774D02*
D03*
X210548D02*
D03*
X243321D02*
D03*
X259708D02*
D03*
X161387D02*
D03*
X194161D02*
D03*
X226934D02*
D03*
X341642D02*
D03*
X439963Y830533D02*
D03*
X407190D02*
D03*
X374416D02*
D03*
X358029D02*
D03*
X472737D02*
D03*
X456350D02*
D03*
X423576D02*
D03*
X390803D02*
D03*
X505511D02*
D03*
X538284D02*
D03*
X489124D02*
D03*
X521897D02*
D03*
X554671D02*
D03*
X358029Y816100D02*
D03*
X521897D02*
D03*
X489124D02*
D03*
X538284D02*
D03*
X505511D02*
D03*
X390803D02*
D03*
X423576D02*
D03*
X456350D02*
D03*
X472737D02*
D03*
X374416D02*
D03*
X407190D02*
D03*
X439963D02*
D03*
X554671D02*
D03*
X652992Y830533D02*
D03*
X620218D02*
D03*
X587445D02*
D03*
X571058D02*
D03*
X685766D02*
D03*
X669379D02*
D03*
X636605D02*
D03*
X603832D02*
D03*
X718540D02*
D03*
X751313D02*
D03*
X702153D02*
D03*
X734926D02*
D03*
X767700D02*
D03*
X571058Y816100D02*
D03*
X734926D02*
D03*
X702153D02*
D03*
X751313D02*
D03*
X718540D02*
D03*
X603832D02*
D03*
X636605D02*
D03*
X669379D02*
D03*
X685766D02*
D03*
X587445D02*
D03*
X620218D02*
D03*
X652992D02*
D03*
X767700D02*
D03*
X652992Y859400D02*
D03*
X620218D02*
D03*
X587445D02*
D03*
X685766D02*
D03*
X669379D02*
D03*
X636605D02*
D03*
X603832D02*
D03*
X718540D02*
D03*
X751313D02*
D03*
X702153D02*
D03*
X734926D02*
D03*
X767700Y859400D02*
D03*
X571058Y844967D02*
D03*
X734926D02*
D03*
X702153D02*
D03*
X751313D02*
D03*
X718540D02*
D03*
X603832D02*
D03*
X636605D02*
D03*
X669379D02*
D03*
X685766D02*
D03*
X587445D02*
D03*
X620218D02*
D03*
X652992D02*
D03*
X767700D02*
D03*
X358029D02*
D03*
X521897D02*
D03*
X489124D02*
D03*
X538284D02*
D03*
X505511D02*
D03*
X390803D02*
D03*
X423576D02*
D03*
X456350D02*
D03*
X472737D02*
D03*
X374416D02*
D03*
X407190D02*
D03*
X439963D02*
D03*
X554671D02*
D03*
X226934Y859400D02*
D03*
X194161D02*
D03*
X161387D02*
D03*
X145000Y859400D02*
D03*
X259708Y859400D02*
D03*
X243321D02*
D03*
X210548D02*
D03*
X177774D02*
D03*
X292482D02*
D03*
X325255D02*
D03*
X276095D02*
D03*
X308869D02*
D03*
X341642D02*
D03*
X145000Y844967D02*
D03*
X308869D02*
D03*
X276095D02*
D03*
X325255D02*
D03*
X292482D02*
D03*
X177774D02*
D03*
X210548D02*
D03*
X243321D02*
D03*
X259708D02*
D03*
X161387D02*
D03*
X194161D02*
D03*
X226934D02*
D03*
X341642D02*
D03*
X75500Y663600D02*
D03*
Y683200D02*
D03*
Y693000D02*
D03*
Y673400D02*
D03*
X55900Y693000D02*
D03*
X65700D02*
D03*
Y673400D02*
D03*
Y683200D02*
D03*
Y663600D02*
D03*
X55900Y673400D02*
D03*
Y683200D02*
D03*
Y663600D02*
D03*
X820700Y694000D02*
D03*
X801100D02*
D03*
X791300D02*
D03*
X830500D02*
D03*
X810900D02*
D03*
X791300Y674400D02*
D03*
Y684200D02*
D03*
X810900D02*
D03*
X830500D02*
D03*
X801100D02*
D03*
X820700D02*
D03*
X810900Y674400D02*
D03*
X830500D02*
D03*
X801100D02*
D03*
X820700D02*
D03*
X708100Y681800D02*
D03*
X688500D02*
D03*
X717900D02*
D03*
X698300D02*
D03*
X678700D02*
D03*
X698300Y691600D02*
D03*
X717900D02*
D03*
X678700D02*
D03*
X688500D02*
D03*
X708100D02*
D03*
X601200Y685700D02*
D03*
X581600D02*
D03*
X611000D02*
D03*
X591400D02*
D03*
X571800D02*
D03*
X591400Y695500D02*
D03*
X611000D02*
D03*
X571800D02*
D03*
X581600D02*
D03*
X601200D02*
D03*
X482800Y693700D02*
D03*
X502400D02*
D03*
X463200D02*
D03*
X473000D02*
D03*
X492600D02*
D03*
X375200Y696000D02*
D03*
X394800D02*
D03*
X355600D02*
D03*
X365400D02*
D03*
X385000D02*
D03*
X374200Y551400D02*
D03*
X393800D02*
D03*
X354600D02*
D03*
X364400D02*
D03*
X384000D02*
D03*
X481400Y547700D02*
D03*
X501000D02*
D03*
X461800D02*
D03*
X471600D02*
D03*
X491200D02*
D03*
X602100Y550200D02*
D03*
X582500D02*
D03*
X572700D02*
D03*
X611900D02*
D03*
X592300D02*
D03*
X572700Y540400D02*
D03*
X592300D02*
D03*
X611900D02*
D03*
X582500D02*
D03*
X602100D02*
D03*
X707600Y532300D02*
D03*
X688000D02*
D03*
X717400D02*
D03*
X697800D02*
D03*
X707600Y542100D02*
D03*
X688000D02*
D03*
X717400D02*
D03*
X697800D02*
D03*
X678200D02*
D03*
Y532300D02*
D03*
X697800Y551900D02*
D03*
X717400D02*
D03*
X678200D02*
D03*
X688000D02*
D03*
X707600D02*
D03*
X824800Y529700D02*
D03*
X805200D02*
D03*
X834600D02*
D03*
X815000D02*
D03*
X824800Y539500D02*
D03*
X805200D02*
D03*
X834600D02*
D03*
X815000D02*
D03*
X795400D02*
D03*
Y529700D02*
D03*
X815000Y549300D02*
D03*
X834600D02*
D03*
X795400D02*
D03*
X805200D02*
D03*
X824800D02*
D03*
X716800Y408000D02*
D03*
X697200D02*
D03*
X707000D02*
D03*
X687400D02*
D03*
X609200Y404700D02*
D03*
X589600D02*
D03*
X599400D02*
D03*
X579800D02*
D03*
X503700Y406800D02*
D03*
X484100D02*
D03*
X474300D02*
D03*
X493900D02*
D03*
X474300Y397000D02*
D03*
X493900D02*
D03*
X484100D02*
D03*
X503700D02*
D03*
X393700Y403600D02*
D03*
X374100D02*
D03*
X364300D02*
D03*
X383900D02*
D03*
X364300Y393800D02*
D03*
X383900D02*
D03*
X374100D02*
D03*
X393700D02*
D03*
X304900Y402000D02*
D03*
X285300D02*
D03*
X275500D02*
D03*
X295100D02*
D03*
X275500Y392200D02*
D03*
X295100D02*
D03*
X285300D02*
D03*
X304900D02*
D03*
X174000Y526100D02*
D03*
Y535900D02*
D03*
Y516300D02*
D03*
X164200Y535900D02*
D03*
Y516300D02*
D03*
Y526100D02*
D03*
X56800Y523200D02*
D03*
Y542800D02*
D03*
Y533000D02*
D03*
X66600Y523200D02*
D03*
Y542800D02*
D03*
Y533000D02*
D03*
Y552600D02*
D03*
X56800D02*
D03*
X76400Y533000D02*
D03*
Y552600D02*
D03*
Y542800D02*
D03*
Y523200D02*
D03*
X165300Y379800D02*
D03*
Y399400D02*
D03*
Y389600D02*
D03*
Y409200D02*
D03*
X175100Y389600D02*
D03*
Y409200D02*
D03*
Y399400D02*
D03*
Y379800D02*
D03*
X75300Y376900D02*
D03*
Y396500D02*
D03*
Y367100D02*
D03*
Y386700D02*
D03*
X65500D02*
D03*
Y367100D02*
D03*
Y396500D02*
D03*
Y376900D02*
D03*
X55700Y386700D02*
D03*
Y367100D02*
D03*
Y396500D02*
D03*
Y376900D02*
D03*
X820900Y369100D02*
D03*
Y388700D02*
D03*
Y378900D02*
D03*
X830700Y369100D02*
D03*
Y388700D02*
D03*
Y378900D02*
D03*
X878400Y104800D02*
D03*
X858800D02*
D03*
X868600D02*
D03*
Y117273D02*
D03*
X858800D02*
D03*
X878400Y179636D02*
D03*
Y204582D02*
D03*
Y229527D02*
D03*
Y242000D02*
D03*
Y154691D02*
D03*
Y167164D02*
D03*
Y192109D02*
D03*
Y217055D02*
D03*
Y142218D02*
D03*
Y117273D02*
D03*
X858800Y242000D02*
D03*
X868600D02*
D03*
Y142218D02*
D03*
Y217055D02*
D03*
Y192109D02*
D03*
Y167164D02*
D03*
Y154691D02*
D03*
Y229527D02*
D03*
Y204582D02*
D03*
Y179636D02*
D03*
X858800Y142218D02*
D03*
Y217055D02*
D03*
Y192109D02*
D03*
Y167164D02*
D03*
Y154691D02*
D03*
Y229527D02*
D03*
Y204582D02*
D03*
Y179636D02*
D03*
X703000Y246100D02*
D03*
X722600D02*
D03*
X742200D02*
D03*
X752000D02*
D03*
X683400D02*
D03*
X693200D02*
D03*
X712800D02*
D03*
X732400D02*
D03*
X364100Y263200D02*
D03*
X383700D02*
D03*
X403300D02*
D03*
X413100D02*
D03*
X344500D02*
D03*
X354300D02*
D03*
X373900D02*
D03*
X393500D02*
D03*
X269800Y226400D02*
D03*
Y246000D02*
D03*
Y216600D02*
D03*
Y236200D02*
D03*
X36800Y174075D02*
D03*
Y205925D02*
D03*
Y237775D02*
D03*
Y142225D02*
D03*
Y158150D02*
D03*
Y190000D02*
D03*
Y221850D02*
D03*
X46600Y174075D02*
D03*
Y205925D02*
D03*
Y237775D02*
D03*
Y142225D02*
D03*
Y158150D02*
D03*
Y190000D02*
D03*
Y221850D02*
D03*
X56400Y205925D02*
D03*
Y237775D02*
D03*
Y190000D02*
D03*
Y221850D02*
D03*
X66200Y205925D02*
D03*
Y237775D02*
D03*
Y190000D02*
D03*
Y221850D02*
D03*
X46600Y253700D02*
D03*
X36800D02*
D03*
X66200D02*
D03*
X56400D02*
D03*
X76000Y221850D02*
D03*
Y190000D02*
D03*
Y253700D02*
D03*
Y237775D02*
D03*
Y205925D02*
D03*
X170000Y231180D02*
D03*
Y208260D02*
D03*
Y185340D02*
D03*
Y254100D02*
D03*
Y242640D02*
D03*
Y219720D02*
D03*
Y196800D02*
D03*
X663100Y607000D02*
D03*
Y600950D02*
D03*
Y613050D02*
D03*
X663600Y749950D02*
D03*
Y743900D02*
D03*
Y756000D02*
D03*
X446200Y754500D02*
D03*
Y748450D02*
D03*
Y760550D02*
D03*
X227800Y753900D02*
D03*
Y747850D02*
D03*
Y759950D02*
D03*
X228998Y608725D02*
D03*
Y602675D02*
D03*
Y614775D02*
D03*
X664300Y464650D02*
D03*
Y458600D02*
D03*
X664700Y313750D02*
D03*
Y307700D02*
D03*
Y319800D02*
D03*
X448500D02*
D03*
Y307700D02*
D03*
Y313750D02*
D03*
X445200Y463400D02*
D03*
Y451300D02*
D03*
Y457350D02*
D03*
X14700Y259175D02*
D03*
Y238000D02*
D03*
Y248587D02*
D03*
X741600Y227076D02*
D03*
X817475Y155576D02*
D03*
X826050Y149076D02*
D03*
X834625Y142576D02*
D03*
X850600Y405900D02*
D03*
X841900Y399900D02*
D03*
X783175Y181576D02*
D03*
X774600Y188076D02*
D03*
X791750Y175076D02*
D03*
X800325Y168576D02*
D03*
X808900Y162076D02*
D03*
X800325Y387897D02*
D03*
X783175Y375892D02*
D03*
X791750Y381895D02*
D03*
X808900Y393900D02*
D03*
X774600Y369890D02*
D03*
X93400Y697100D02*
D03*
X144853Y245100D02*
D03*
X134860D02*
D03*
X126790Y207950D02*
D03*
X118720Y201450D02*
D03*
X110650Y194950D02*
D03*
X102580Y188450D02*
D03*
X93400Y181950D02*
D03*
X230436Y201450D02*
D03*
X239958D02*
D03*
X249479D02*
D03*
X259000D02*
D03*
X199647Y547800D02*
D03*
X187900D02*
D03*
X259000Y517400D02*
D03*
X211394Y547800D02*
D03*
X220915Y541720D02*
D03*
X230437Y535640D02*
D03*
X239958Y529560D02*
D03*
X249479Y523480D02*
D03*
X118720Y685033D02*
D03*
X142930Y666933D02*
D03*
X102580Y697100D02*
D03*
X110650Y691067D02*
D03*
X126790Y679000D02*
D03*
X151000Y660900D02*
D03*
X134860Y672967D02*
D03*
D65*
X16466Y44932D02*
D03*
Y28466D02*
D03*
Y12000D02*
D03*
X32932D02*
D03*
X812000Y8000D02*
D03*
X820000Y0D02*
D03*
X883534Y28466D02*
D03*
Y12000D02*
D03*
X867068D02*
D03*
X787566Y16000D02*
D03*
X771100D02*
D03*
X754634D02*
D03*
X804032D02*
D03*
X869398Y0D02*
D03*
X852932D02*
D03*
X836466D02*
D03*
X885863D02*
D03*
X900000Y12000D02*
D03*
Y324851D02*
D03*
Y341317D02*
D03*
Y275454D02*
D03*
Y291919D02*
D03*
Y308385D02*
D03*
Y242522D02*
D03*
Y258988D02*
D03*
X890074Y348948D02*
D03*
Y551072D02*
D03*
X880800Y539350D02*
D03*
Y424089D02*
D03*
Y374692D02*
D03*
Y391157D02*
D03*
Y407623D02*
D03*
Y358226D02*
D03*
Y522884D02*
D03*
Y473487D02*
D03*
Y489952D02*
D03*
Y506418D02*
D03*
Y440555D02*
D03*
Y457021D02*
D03*
X899990Y562890D02*
D03*
X867058Y859275D02*
D03*
X883524D02*
D03*
X867058Y875741D02*
D03*
X883524D02*
D03*
X850592D02*
D03*
Y892207D02*
D03*
X867058D02*
D03*
X883524D02*
D03*
X834127D02*
D03*
X888751Y900000D02*
D03*
X839354D02*
D03*
X855819D02*
D03*
X872285D02*
D03*
X806422D02*
D03*
X822888D02*
D03*
X899990Y875741D02*
D03*
Y892207D02*
D03*
Y826344D02*
D03*
Y842810D02*
D03*
Y859275D02*
D03*
Y793412D02*
D03*
Y809878D02*
D03*
X563900Y885350D02*
D03*
X575900Y900000D02*
D03*
X551900Y870700D02*
D03*
X356300Y897300D02*
D03*
X360700Y885350D02*
D03*
X372700Y870700D02*
D03*
X324851Y900000D02*
D03*
X341317D02*
D03*
X486037Y870700D02*
D03*
X469571D02*
D03*
X535434D02*
D03*
X518968D02*
D03*
X502502D02*
D03*
X438563D02*
D03*
X455029D02*
D03*
X389166D02*
D03*
X405632D02*
D03*
X422098D02*
D03*
X291919Y900000D02*
D03*
X308385D02*
D03*
X242522D02*
D03*
X258988D02*
D03*
X275454D02*
D03*
X65853Y875701D02*
D03*
Y892167D02*
D03*
X82319D02*
D03*
X32922D02*
D03*
X16456D02*
D03*
X49388D02*
D03*
X32922Y859235D02*
D03*
X16456D02*
D03*
X49388D02*
D03*
X32922Y875701D02*
D03*
X16456D02*
D03*
X49388D02*
D03*
X12000Y900000D02*
D03*
X-10Y875701D02*
D03*
Y892167D02*
D03*
Y842769D02*
D03*
Y859235D02*
D03*
Y793372D02*
D03*
Y809838D02*
D03*
Y826304D02*
D03*
X9896Y551022D02*
D03*
X-10Y562850D02*
D03*
X19200Y541774D02*
D03*
X700Y340700D02*
D03*
X12000Y349652D02*
D03*
X19200Y360650D02*
D03*
X0Y324851D02*
D03*
X19200Y508843D02*
D03*
Y525309D02*
D03*
Y459445D02*
D03*
Y475911D02*
D03*
Y492377D02*
D03*
Y426513D02*
D03*
Y442979D02*
D03*
Y377116D02*
D03*
Y393582D02*
D03*
Y410048D02*
D03*
X0Y291919D02*
D03*
Y308385D02*
D03*
Y242522D02*
D03*
Y258988D02*
D03*
Y275454D02*
D03*
X3693Y3254D02*
D03*
X88000Y8000D02*
D03*
X0Y12000D02*
D03*
X30602Y0D02*
D03*
X14137D02*
D03*
X80000D02*
D03*
X63534D02*
D03*
X47068D02*
D03*
X608832Y900000D02*
D03*
X592366D02*
D03*
X658229D02*
D03*
X641763D02*
D03*
X625298D02*
D03*
X707627D02*
D03*
X691161D02*
D03*
X674695D02*
D03*
X757024D02*
D03*
X740558D02*
D03*
X724093D02*
D03*
X789956D02*
D03*
X773490D02*
D03*
X44932D02*
D03*
X28466D02*
D03*
X94329D02*
D03*
X77863D02*
D03*
X61398D02*
D03*
X143727D02*
D03*
X127261D02*
D03*
X110795D02*
D03*
X193124D02*
D03*
X176658D02*
D03*
X160193D02*
D03*
X226056D02*
D03*
X209590D02*
D03*
X-10Y595782D02*
D03*
Y579316D02*
D03*
Y645179D02*
D03*
Y628713D02*
D03*
Y612248D02*
D03*
Y694577D02*
D03*
Y678111D02*
D03*
Y661645D02*
D03*
Y743974D02*
D03*
Y727509D02*
D03*
Y711043D02*
D03*
Y776906D02*
D03*
Y760440D02*
D03*
X899990Y595822D02*
D03*
Y579356D02*
D03*
Y645219D02*
D03*
Y628753D02*
D03*
Y612288D02*
D03*
Y694617D02*
D03*
Y678151D02*
D03*
Y661685D02*
D03*
Y744014D02*
D03*
Y727549D02*
D03*
Y711083D02*
D03*
Y776946D02*
D03*
Y760480D02*
D03*
X0Y44932D02*
D03*
Y28466D02*
D03*
Y94329D02*
D03*
Y77863D02*
D03*
Y61398D02*
D03*
Y143727D02*
D03*
Y127261D02*
D03*
Y110795D02*
D03*
Y193124D02*
D03*
Y176658D02*
D03*
Y160193D02*
D03*
Y226056D02*
D03*
Y209590D02*
D03*
X900000Y44932D02*
D03*
Y28466D02*
D03*
Y94329D02*
D03*
Y77863D02*
D03*
Y61398D02*
D03*
Y143727D02*
D03*
Y127261D02*
D03*
Y110795D02*
D03*
Y193124D02*
D03*
Y176658D02*
D03*
Y160193D02*
D03*
Y226056D02*
D03*
Y209590D02*
D03*
X557044Y16000D02*
D03*
X540578D02*
D03*
X606441D02*
D03*
X589976D02*
D03*
X573510D02*
D03*
X655839D02*
D03*
X639373D02*
D03*
X622907D02*
D03*
X705237D02*
D03*
X688771D02*
D03*
X672305D02*
D03*
X738168D02*
D03*
X721702D02*
D03*
X342988D02*
D03*
X326522D02*
D03*
X392385D02*
D03*
X375919D02*
D03*
X359454D02*
D03*
X441783D02*
D03*
X425317D02*
D03*
X408851D02*
D03*
X491180D02*
D03*
X474715D02*
D03*
X458249D02*
D03*
X524112D02*
D03*
X507646D02*
D03*
X293590D02*
D03*
X310056D02*
D03*
X244193D02*
D03*
X260659D02*
D03*
X277124D02*
D03*
X194795D02*
D03*
X211261D02*
D03*
X227727D02*
D03*
X145398D02*
D03*
X161863D02*
D03*
X178329D02*
D03*
X96000D02*
D03*
X112466D02*
D03*
X128932D02*
D03*
M02*
